<svg width="75" height="19" viewBox="0 0 75 19" fill="none" xmlns="http://www.w3.org/2000/svg">
<path d="M0.265625 16.176L8.83363 0.311999H13.8976L15.5776 5.112L18.5536 0.287999L23.0416 0.191999L27.9616 17.448L21.5536 17.976L20.3296 13.608L18.8656 9.384L14.4496 13.32L11.0656 8.832L7.00963 17.448L0.265625 16.176Z" fill="#009CDA"/>
<path d="M29.3116 0.119998H41.0716L40.0876 5.088L34.3036 5.976L34.2316 7.2L39.3436 7.584L39.1036 11.4L34.5436 11.808L34.9516 13.104L40.4956 13.152L42.5356 17.928H29.3116L28.0156 6.456L29.3116 0.119998Z" fill="#FCCF00"/>
<path d="M41.7734 17.688L44.9654 0.191999H48.5894L51.9734 5.76L52.2614 0.191999L57.8294 1.056L56.6534 17.904L52.0454 17.616L48.4934 12.192L47.4614 17.928L41.7734 17.688Z" fill="#E62310"/>
<path d="M58.034 0.263999H65.786L65.426 12.384L68.426 10.224L67.538 1.56H74.906V13.224L70.61 18.072H61.562L58.034 13.752V0.263999Z" fill="#44AF35"/>
<path d="M0.265625 16.176L-1.05418 15.4632L-2.02976 17.2695L-0.0123912 17.65L0.265625 16.176ZM8.83363 0.311999V-1.188H7.93897L7.51382 -0.400817L8.83363 0.311999ZM13.8976 0.311999L15.3134 -0.183527L14.9618 -1.188H13.8976V0.311999ZM15.5776 5.112L14.1618 5.60753L15.2016 8.57838L16.8542 5.89956L15.5776 5.112ZM18.5536 0.287999L18.5215 -1.21166L17.7055 -1.1942L17.277 -0.499564L18.5536 0.287999ZM23.0416 0.191999L24.4841 -0.219288L24.1668 -1.33241L23.0095 -1.30766L23.0416 0.191999ZM27.9616 17.448L28.0848 18.9429L29.9049 18.793L29.4041 17.0367L27.9616 17.448ZM21.5536 17.976L20.1093 18.3807L20.4432 19.5726L21.6768 19.4709L21.5536 17.976ZM20.3296 13.608L21.774 13.2033L21.7618 13.1596L21.7469 13.1168L20.3296 13.608ZM18.8656 9.384L20.2829 8.89278L19.5464 6.76785L17.8676 8.26423L18.8656 9.384ZM14.4496 13.32L13.2519 14.2231L14.2322 15.5231L15.4477 14.4398L14.4496 13.32ZM11.0656 8.832L12.2633 7.92893L10.767 5.94449L9.70848 8.19312L11.0656 8.832ZM7.00963 17.448L6.73161 18.922L7.87234 19.1372L8.36677 18.0869L7.00963 17.448ZM1.58543 16.8888L10.1534 1.02481L7.51382 -0.400817L-1.05418 15.4632L1.58543 16.8888ZM8.83363 1.812H13.8976V-1.188H8.83363V1.812ZM12.4818 0.807524L14.1618 5.60753L16.9934 4.61647L15.3134 -0.183527L12.4818 0.807524ZM16.8542 5.89956L19.8302 1.07556L17.277 -0.499564L14.301 4.32444L16.8542 5.89956ZM18.5857 1.78766L23.0737 1.69166L23.0095 -1.30766L18.5215 -1.21166L18.5857 1.78766ZM21.5991 0.603286L26.5191 17.8593L29.4041 17.0367L24.4841 -0.219288L21.5991 0.603286ZM27.8384 15.9531L21.4304 16.4811L21.6768 19.4709L28.0848 18.9429L27.8384 15.9531ZM22.998 17.5713L21.774 13.2033L18.8853 14.0127L20.1093 18.3807L22.998 17.5713ZM21.7469 13.1168L20.2829 8.89278L17.4483 9.87522L18.9123 14.0992L21.7469 13.1168ZM17.8676 8.26423L13.4516 12.2002L15.4477 14.4398L19.8637 10.5038L17.8676 8.26423ZM15.6473 12.4169L12.2633 7.92893L9.86794 9.73507L13.2519 14.2231L15.6473 12.4169ZM9.70848 8.19312L5.65248 16.8091L8.36677 18.0869L12.4228 9.47088L9.70848 8.19312ZM7.28764 15.974L0.543641 14.702L-0.0123912 17.65L6.73161 18.922L7.28764 15.974ZM29.3116 0.119998V-1.38H28.0874L27.8421 -0.180596L29.3116 0.119998ZM41.0716 0.119998L42.543 0.411438L42.8979 -1.38H41.0716V0.119998ZM40.0876 5.088L40.3152 6.57063L41.3547 6.41104L41.559 5.37944L40.0876 5.088ZM34.3036 5.976L34.076 4.49337L32.8774 4.67738L32.8062 5.88792L34.3036 5.976ZM34.2316 7.2L32.7342 7.11192L32.6475 8.58523L34.1193 8.69579L34.2316 7.2ZM39.3436 7.584L40.8407 7.67815L40.9337 6.19921L39.456 6.08821L39.3436 7.584ZM39.1036 11.4L39.2373 12.894L40.5198 12.7793L40.6007 11.4942L39.1036 11.4ZM34.5436 11.808L34.4099 10.314L32.553 10.4801L33.1129 12.2584L34.5436 11.808ZM34.9516 13.104L33.5209 13.5544L33.8483 14.5945L34.9386 14.6039L34.9516 13.104ZM40.4956 13.152L41.8751 12.5628L41.4897 11.6606L40.5086 11.6521L40.4956 13.152ZM42.5356 17.928V19.428H44.8074L43.9151 17.3388L42.5356 17.928ZM29.3116 17.928L27.8211 18.0964L27.9715 19.428H29.3116V17.928ZM28.0156 6.456L26.5461 6.1554L26.4984 6.38824L26.5251 6.62438L28.0156 6.456ZM29.3116 1.62H41.0716V-1.38H29.3116V1.62ZM39.6002 -0.171441L38.6162 4.79656L41.559 5.37944L42.543 0.411438L39.6002 -0.171441ZM39.86 3.60537L34.076 4.49337L34.5312 7.45863L40.3152 6.57063L39.86 3.60537ZM32.8062 5.88792L32.7342 7.11192L35.729 7.28808L35.801 6.06408L32.8062 5.88792ZM34.1193 8.69579L39.2313 9.07979L39.456 6.08821L34.344 5.70421L34.1193 8.69579ZM37.8466 7.48985L37.6066 11.3058L40.6007 11.4942L40.8407 7.67815L37.8466 7.48985ZM38.9699 9.90597L34.4099 10.314L34.6773 13.302L39.2373 12.894L38.9699 9.90597ZM33.1129 12.2584L33.5209 13.5544L36.3824 12.6536L35.9744 11.3576L33.1129 12.2584ZM34.9386 14.6039L40.4826 14.6519L40.5086 11.6521L34.9646 11.6041L34.9386 14.6039ZM39.1162 13.7412L41.1562 18.5172L43.9151 17.3388L41.8751 12.5628L39.1162 13.7412ZM42.5356 16.428H29.3116V19.428H42.5356V16.428ZM30.8021 17.7596L29.5061 6.28761L26.5251 6.62438L27.8211 18.0964L30.8021 17.7596ZM29.4852 6.75659L30.7812 0.420593L27.8421 -0.180596L26.5461 6.1554L29.4852 6.75659ZM41.7734 17.688L40.2978 17.4188L39.9885 19.114L41.7102 19.1867L41.7734 17.688ZM44.9654 0.191999V-1.308H43.7143L43.4898 -0.0772198L44.9654 0.191999ZM48.5894 0.191999L49.8713 -0.587045L49.4331 -1.308H48.5894V0.191999ZM51.9734 5.76L50.6916 6.53904L53.22 10.6992L53.4714 5.83748L51.9734 5.76ZM52.2614 0.191999L52.4914 -1.29026L50.8493 -1.54508L50.7634 0.114516L52.2614 0.191999ZM57.8294 1.056L59.3258 1.16045L59.4218 -0.214862L58.0594 -0.426262L57.8294 1.056ZM56.6534 17.904L56.5599 19.4011L58.0461 19.494L58.1498 18.0084L56.6534 17.904ZM52.0454 17.616L50.7906 18.4378L51.2021 19.0662L51.9519 19.1131L52.0454 17.616ZM48.4934 12.192L49.7483 11.3702L47.6843 8.21839L47.0171 11.9264L48.4934 12.192ZM47.4614 17.928L47.3982 19.4267L48.706 19.4818L48.9377 18.1936L47.4614 17.928ZM43.2491 17.9572L46.4411 0.461218L43.4898 -0.0772198L40.2978 17.4188L43.2491 17.9572ZM44.9654 1.692H48.5894V-1.308H44.9654V1.692ZM47.3076 0.971043L50.6916 6.53904L53.2553 4.98095L49.8713 -0.587045L47.3076 0.971043ZM53.4714 5.83748L53.7594 0.269482L50.7634 0.114516L50.4754 5.68252L53.4714 5.83748ZM52.0314 1.67426L57.5994 2.53826L58.0594 -0.426262L52.4914 -1.29026L52.0314 1.67426ZM56.3331 0.951553L55.1571 17.7996L58.1498 18.0084L59.3258 1.16045L56.3331 0.951553ZM56.747 16.4069L52.139 16.1189L51.9519 19.1131L56.5599 19.4011L56.747 16.4069ZM53.3003 16.7942L49.7483 11.3702L47.2386 13.0138L50.7906 18.4378L53.3003 16.7942ZM47.0171 11.9264L45.9851 17.6624L48.9377 18.1936L49.9697 12.4576L47.0171 11.9264ZM47.5247 16.4293L41.8367 16.1893L41.7102 19.1867L47.3982 19.4267L47.5247 16.4293ZM58.034 0.263999V-1.236H56.534V0.263999H58.034ZM65.786 0.263999L67.2853 0.308534L67.3312 -1.236H65.786V0.263999ZM65.426 12.384L63.9267 12.3395L63.8364 15.3768L66.3025 13.6013L65.426 12.384ZM68.426 10.224L69.3025 11.4413L70.0067 10.9343L69.9182 10.0711L68.426 10.224ZM67.538 1.56V0.0599985H65.8764L66.0458 1.71294L67.538 1.56ZM74.906 1.56H76.406V0.0599985H74.906V1.56ZM74.906 13.224L76.0286 14.2188L76.406 13.793V13.224H74.906ZM70.61 18.072V19.572H71.285L71.7326 19.0668L70.61 18.072ZM61.562 18.072L60.4002 19.0208L60.8503 19.572H61.562V18.072ZM58.034 13.752H56.534V14.2867L56.8722 14.7008L58.034 13.752ZM58.034 1.764H65.786V-1.236H58.034V1.764ZM64.2867 0.219465L63.9267 12.3395L66.9253 12.4285L67.2853 0.308534L64.2867 0.219465ZM66.3025 13.6013L69.3025 11.4413L67.5495 9.0067L64.5495 11.1667L66.3025 13.6013ZM69.9182 10.0711L69.0302 1.40706L66.0458 1.71294L66.9338 10.3769L69.9182 10.0711ZM67.538 3.06H74.906V0.0599985H67.538V3.06ZM73.406 1.56V13.224H76.406V1.56H73.406ZM73.7834 12.2292L69.4874 17.0772L71.7326 19.0668L76.0286 14.2188L73.7834 12.2292ZM70.61 16.572H61.562V19.572H70.61V16.572ZM62.7238 17.1232L59.1958 12.8032L56.8722 14.7008L60.4002 19.0208L62.7238 17.1232ZM59.534 13.752V0.263999H56.534V13.752H59.534Z" fill="black"/>
</svg>
