<svg width="75" height="19" viewBox="0 0 75 19" fill="none" xmlns="http://www.w3.org/2000/svg">
<path d="M0.265625 16.176L8.83363 0.311999H13.8976L15.5776 5.112L18.5536 0.287999L23.0416 0.191999L27.9616 17.448L21.5536 17.976L20.3296 13.608L18.8656 9.384L14.4496 13.32L11.0656 8.832L7.00963 17.448L0.265625 16.176Z" fill="#009CDA"/>
<path d="M29.3116 0.119998H41.0716L40.0876 5.088L34.3036 5.976L34.2316 7.2L39.3436 7.584L39.1036 11.4L34.5436 11.808L34.9516 13.104L40.4956 13.152L42.5356 17.928H29.3116L28.0156 6.456L29.3116 0.119998Z" fill="#FCCF00"/>
<path d="M41.7734 17.688L44.9654 0.191999H48.5894L51.9734 5.76L52.2614 0.191999L57.8294 1.056L56.6534 17.904L52.0454 17.616L48.4934 12.192L47.4614 17.928L41.7734 17.688Z" fill="#E62310"/>
<path d="M58.034 0.263999H65.786L65.426 12.384L68.426 10.224L67.538 1.56H74.906V13.224L70.61 18.072H61.562L58.034 13.752V0.263999Z" fill="#44AF35"/>
<path d="M0.265625 16.176L-0.174311 15.9384L-0.499504 16.5405L0.172953 16.6673L0.265625 16.176ZM8.83363 0.311999V-0.188001H8.53541L8.39369 0.0743935L8.83363 0.311999ZM13.8976 0.311999L14.3696 0.146824L14.2524 -0.188001H13.8976V0.311999ZM15.5776 5.112L15.1057 5.27718L15.4523 6.26746L16.0032 5.37452L15.5776 5.112ZM18.5536 0.287999L18.5429 -0.211886L18.2709 -0.206068L18.1281 0.0254781L18.5536 0.287999ZM23.0416 0.191999L23.5225 0.0549034L23.4167 -0.316138L23.0309 -0.307887L23.0416 0.191999ZM27.9616 17.448L28.0027 17.9463L28.6094 17.8963L28.4425 17.3109L27.9616 17.448ZM21.5536 17.976L21.0722 18.1109L21.1835 18.5082L21.5947 18.4743L21.5536 17.976ZM20.3296 13.608L20.8111 13.4731L20.807 13.4585L20.8021 13.4443L20.3296 13.608ZM18.8656 9.384L19.3381 9.22026L19.0926 8.51195L18.5329 9.01074L18.8656 9.384ZM14.4496 13.32L14.0504 13.621L14.3771 14.0544L14.7823 13.6933L14.4496 13.32ZM11.0656 8.832L11.4649 8.53098L10.9661 7.8695L10.6132 8.61904L11.0656 8.832ZM7.00963 17.448L6.91695 17.9393L7.2972 18.0111L7.46201 17.661L7.00963 17.448ZM0.705561 16.4136L9.27356 0.549604L8.39369 0.0743935L-0.174311 15.9384L0.705561 16.4136ZM8.83363 0.811999H13.8976V-0.188001H8.83363V0.811999ZM13.4257 0.477174L15.1057 5.27718L16.0496 4.94682L14.3696 0.146824L13.4257 0.477174ZM16.0032 5.37452L18.9792 0.55052L18.1281 0.0254781L15.1521 4.84948L16.0032 5.37452ZM18.5643 0.787885L23.0523 0.691885L23.0309 -0.307887L18.5429 -0.211886L18.5643 0.787885ZM22.5608 0.329095L27.4808 17.5851L28.4425 17.3109L23.5225 0.0549034L22.5608 0.329095ZM27.9206 16.9497L21.5126 17.4777L21.5947 18.4743L28.0027 17.9463L27.9206 16.9497ZM22.0351 17.8411L20.8111 13.4731L19.8482 13.7429L21.0722 18.1109L22.0351 17.8411ZM20.8021 13.4443L19.3381 9.22026L18.3932 9.54774L19.8572 13.7717L20.8021 13.4443ZM18.5329 9.01074L14.1169 12.9467L14.7823 13.6933L19.1983 9.75726L18.5329 9.01074ZM14.8489 13.019L11.4649 8.53098L10.6664 9.13302L14.0504 13.621L14.8489 13.019ZM10.6132 8.61904L6.55724 17.235L7.46201 17.661L11.518 9.04496L10.6132 8.61904ZM7.1023 16.9567L0.358297 15.6847L0.172953 16.6673L6.91695 17.9393L7.1023 16.9567ZM29.3116 0.119998V-0.380002H28.9035L28.8218 0.0198003L29.3116 0.119998ZM41.0716 0.119998L41.5621 0.217145L41.6804 -0.380002H41.0716V0.119998ZM40.0876 5.088L40.1635 5.58221L40.51 5.52901L40.5781 5.18515L40.0876 5.088ZM34.3036 5.976L34.2278 5.48179L33.8282 5.54313L33.8045 5.94664L34.3036 5.976ZM34.2316 7.2L33.7325 7.17064L33.7036 7.66174L34.1942 7.69859L34.2316 7.2ZM39.3436 7.584L39.8426 7.61538L39.8736 7.1224L39.3811 7.0854L39.3436 7.584ZM39.1036 11.4L39.1482 11.898L39.5757 11.8598L39.6026 11.4314L39.1036 11.4ZM34.5436 11.808L34.4991 11.31L33.8801 11.3654L34.0667 11.9581L34.5436 11.808ZM34.9516 13.104L34.4747 13.2541L34.5838 13.6008L34.9473 13.604L34.9516 13.104ZM40.4956 13.152L40.9554 12.9556L40.827 12.6548L40.5 12.652L40.4956 13.152ZM42.5356 17.928V18.428H43.2929L42.9954 17.7316L42.5356 17.928ZM29.3116 17.928L28.8148 17.9841L28.8649 18.428H29.3116V17.928ZM28.0156 6.456L27.5258 6.3558L27.5099 6.43341L27.5188 6.51213L28.0156 6.456ZM29.3116 0.619998H41.0716V-0.380002H29.3116V0.619998ZM40.5812 0.0228519L39.5972 4.99085L40.5781 5.18515L41.5621 0.217145L40.5812 0.0228519ZM40.0118 4.59379L34.2278 5.48179L34.3795 6.47021L40.1635 5.58221L40.0118 4.59379ZM33.8045 5.94664L33.7325 7.17064L34.7308 7.22936L34.8028 6.00536L33.8045 5.94664ZM34.1942 7.69859L39.3062 8.08259L39.3811 7.0854L34.2691 6.7014L34.1942 7.69859ZM38.8446 7.55262L38.6046 11.3686L39.6026 11.4314L39.8426 7.61538L38.8446 7.55262ZM39.0591 10.902L34.4991 11.31L34.5882 12.306L39.1482 11.898L39.0591 10.902ZM34.0667 11.9581L34.4747 13.2541L35.4285 12.9539L35.0206 11.6579L34.0667 11.9581ZM34.9473 13.604L40.4913 13.652L40.5 12.652L34.956 12.604L34.9473 13.604ZM40.0358 13.3484L42.0758 18.1244L42.9954 17.7316L40.9554 12.9556L40.0358 13.3484ZM42.5356 17.428H29.3116V18.428H42.5356V17.428ZM29.8085 17.8719L28.5125 6.39987L27.5188 6.51213L28.8148 17.9841L29.8085 17.8719ZM28.5055 6.5562L29.8015 0.220197L28.8218 0.0198003L27.5258 6.3558L28.5055 6.5562ZM41.7734 17.688L41.2816 17.5983L41.1785 18.1633L41.7524 18.1876L41.7734 17.688ZM44.9654 0.191999V-0.308001H44.5484L44.4736 0.102259L44.9654 0.191999ZM48.5894 0.191999L49.0167 -0.0676823L48.8707 -0.308001H48.5894V0.191999ZM51.9734 5.76L51.5462 6.01968L52.3889 7.40639L52.4728 5.78583L51.9734 5.76ZM52.2614 0.191999L52.3381 -0.302088L51.7907 -0.387027L51.7621 0.166171L52.2614 0.191999ZM57.8294 1.056L58.3282 1.09081L58.3602 0.632379L57.9061 0.561912L57.8294 1.056ZM56.6534 17.904L56.6222 18.403L57.1177 18.434L57.1522 17.9388L56.6534 17.904ZM52.0454 17.616L51.6271 17.8899L51.7643 18.0994L52.0142 18.115L52.0454 17.616ZM48.4934 12.192L48.9117 11.9181L48.2237 10.8675L48.0013 12.1035L48.4934 12.192ZM47.4614 17.928L47.4404 18.4276L47.8763 18.4459L47.9535 18.0165L47.4614 17.928ZM42.2653 17.7777L45.4573 0.281739L44.4736 0.102259L41.2816 17.5983L42.2653 17.7777ZM44.9654 0.691999H48.5894V-0.308001H44.9654V0.691999ZM48.1622 0.45168L51.5462 6.01968L52.4007 5.50032L49.0167 -0.0676823L48.1622 0.45168ZM52.4728 5.78583L52.7608 0.217826L51.7621 0.166171L51.4741 5.73417L52.4728 5.78583ZM52.1848 0.686086L57.7528 1.55009L57.9061 0.561912L52.3381 -0.302088L52.1848 0.686086ZM57.3307 1.02118L56.1547 17.8692L57.1522 17.9388L58.3282 1.09081L57.3307 1.02118ZM56.6846 17.405L52.0766 17.117L52.0142 18.115L56.6222 18.403L56.6846 17.405ZM52.4637 17.3421L48.9117 11.9181L48.0751 12.4659L51.6271 17.8899L52.4637 17.3421ZM48.0013 12.1035L46.9693 17.8395L47.9535 18.0165L48.9855 12.2805L48.0013 12.1035ZM47.4825 17.4284L41.7945 17.1884L41.7524 18.1876L47.4404 18.4276L47.4825 17.4284ZM58.034 0.263999V-0.236001H57.534V0.263999H58.034ZM65.786 0.263999L66.2858 0.278844L66.3011 -0.236001H65.786V0.263999ZM65.426 12.384L64.9262 12.3692L64.8961 13.3816L65.7182 12.7898L65.426 12.384ZM68.426 10.224L68.7182 10.6298L68.9529 10.4608L68.9234 10.173L68.426 10.224ZM67.538 1.56V1.06H66.9841L67.0406 1.61098L67.538 1.56ZM74.906 1.56H75.406V1.06H74.906V1.56ZM74.906 13.224L75.2802 13.5556L75.406 13.4137V13.224H74.906ZM70.61 18.072V18.572H70.835L70.9842 18.4036L70.61 18.072ZM61.562 18.072L61.1747 18.3883L61.3248 18.572H61.562V18.072ZM58.034 13.752H57.534V13.9302L57.6467 14.0683L58.034 13.752ZM58.034 0.763999H65.786V-0.236001H58.034V0.763999ZM65.2862 0.249155L64.9262 12.3692L65.9258 12.3988L66.2858 0.278844L65.2862 0.249155ZM65.7182 12.7898L68.7182 10.6298L68.1338 9.81823L65.1338 11.9782L65.7182 12.7898ZM68.9234 10.173L68.0354 1.50902L67.0406 1.61098L67.9286 10.275L68.9234 10.173ZM67.538 2.06H74.906V1.06H67.538V2.06ZM74.406 1.56V13.224H75.406V1.56H74.406ZM74.5318 12.8924L70.2358 17.7404L70.9842 18.4036L75.2802 13.5556L74.5318 12.8924ZM70.61 17.572H61.562V18.572H70.61V17.572ZM61.9493 17.7557L58.4213 13.4357L57.6467 14.0683L61.1747 18.3883L61.9493 17.7557ZM58.534 13.752V0.263999H57.534V13.752H58.534Z" fill="black"/>
</svg>
