<svg width="182" height="20" viewBox="0 0 182 20" fill="none" xmlns="http://www.w3.org/2000/svg">
<path d="M0.519531 17.176L9.08753 1.312H14.1515L15.8315 6.112L18.8075 1.288L23.2955 1.192L28.2155 18.448L21.8075 18.976L20.5835 14.608L19.1195 10.384L14.7035 14.32L11.3195 9.832L7.26353 18.448L0.519531 17.176ZM138.184 1.408L142.144 5.632L145.864 0.927999L151.12 4.888L145.384 9.88L149.632 18.688L140.224 18.256V10.6L134.248 4.888L138.184 1.408ZM175.198 1.264L179.638 4.504L180.046 10.096L177.55 12.88L181.99 16.792L176.782 19.048L171.334 14.392L172.15 19.024H166.63L165.238 2.032L175.198 1.264ZM171.334 6.232L171.19 9.64L172.654 9.832L174.118 7.72L171.334 6.232Z" fill="#009CDA"/>
<path d="M28.0535 1.264H35.8055L35.4455 13.384L38.4455 11.224L37.5575 2.56H44.9255V14.224L40.6295 19.072H31.5815L28.0535 14.752V1.264ZM80.0927 1.264L84.7487 0.975999L88.3487 17.968L80.7167 18.808L80.0927 1.264ZM130.006 1.216L137.59 17.752L130.342 18.904L129.766 14.656L123.934 14.512L122.614 19.048L115.63 17.8L125.206 1.696L130.006 1.216ZM126.43 7.504L125.446 9.952L129.118 10.048L128.278 7.576L126.43 7.504Z" fill="#FCCF00"/>
<path d="M52.4259 1.792L51.7299 12.544L59.0979 11.656L59.7699 17.2L46.4259 18.784L45.7539 1.024L52.4259 1.792ZM99.3463 1.24L103.57 4.144L103.906 11.248L99.6343 15.376L94.3303 15.712V19.096H88.7383L89.6263 1.24H99.3463ZM95.3143 6.712L95.1463 9.616L96.7303 9.832L98.7463 7.456L95.3143 6.712Z" fill="#E62310"/>
<path d="M60.9883 1.192L78.7243 1.504V8.704L72.7243 7.72L74.3803 19.024H65.7883L67.0843 7.72L60.9883 7.408V1.192ZM110.668 1.792L109.972 12.544L117.34 11.656L118.012 17.2L104.668 18.784L103.996 1.024L110.668 1.792ZM152.776 1.12H164.536L163.552 6.088L157.768 6.976L157.696 8.2L162.808 8.584L162.568 12.4L158.008 12.808L158.416 14.104L163.96 14.152L166 18.928H152.776L151.48 7.456L152.776 1.12Z" fill="#44AF35"/>
<path d="M0.519531 17.176L-0.800277 16.4632L-1.77586 18.2695L0.241515 18.65L0.519531 17.176ZM9.08753 1.312V-0.188001H8.19287L7.76772 0.599183L9.08753 1.312ZM14.1515 1.312L15.5673 0.816473L15.2158 -0.188001H14.1515V1.312ZM15.8315 6.112L14.4157 6.60753L15.4555 9.57838L17.1081 6.89956L15.8315 6.112ZM18.8075 1.288L18.7755 -0.211658L17.9595 -0.194203L17.5309 0.500436L18.8075 1.288ZM23.2955 1.192L24.738 0.780712L24.4207 -0.332411L23.2635 -0.307658L23.2955 1.192ZM28.2155 18.448L28.3387 19.9429L30.1588 19.793L29.658 18.0367L28.2155 18.448ZM21.8075 18.976L20.3632 19.3807L20.6971 20.5726L21.9307 20.4709L21.8075 18.976ZM20.5835 14.608L22.0279 14.2033L22.0157 14.1596L22.0008 14.1168L20.5835 14.608ZM19.1195 10.384L20.5368 9.89278L19.8003 7.76785L18.1215 9.26423L19.1195 10.384ZM14.7035 14.32L13.5058 15.2231L14.4861 16.5231L15.7016 15.4398L14.7035 14.32ZM11.3195 9.832L12.5172 8.92893L11.0209 6.94449L9.96239 9.19312L11.3195 9.832ZM7.26353 18.448L6.98552 19.922L8.12625 20.1372L8.62067 19.0869L7.26353 18.448ZM1.83934 17.8888L10.4073 2.02481L7.76772 0.599183L-0.800277 16.4632L1.83934 17.8888ZM9.08753 2.812H14.1515V-0.188001H9.08753V2.812ZM12.7357 1.80752L14.4157 6.60753L17.2473 5.61647L15.5673 0.816473L12.7357 1.80752ZM17.1081 6.89956L20.0841 2.07556L17.5309 0.500436L14.5549 5.32444L17.1081 6.89956ZM18.8396 2.78766L23.3276 2.69166L23.2635 -0.307658L18.7755 -0.211658L18.8396 2.78766ZM21.853 1.60329L26.773 18.8593L29.658 18.0367L24.738 0.780712L21.853 1.60329ZM28.0924 16.9531L21.6844 17.4811L21.9307 20.4709L28.3387 19.9429L28.0924 16.9531ZM23.2519 18.5713L22.0279 14.2033L19.1392 15.0127L20.3632 19.3807L23.2519 18.5713ZM22.0008 14.1168L20.5368 9.89278L17.7022 10.8752L19.1662 15.0992L22.0008 14.1168ZM18.1215 9.26423L13.7055 13.2002L15.7016 15.4398L20.1176 11.5038L18.1215 9.26423ZM15.9012 13.4169L12.5172 8.92893L10.1218 10.7351L13.5058 15.2231L15.9012 13.4169ZM9.96239 9.19312L5.90639 17.8091L8.62067 19.0869L12.6767 10.4709L9.96239 9.19312ZM7.54155 16.974L0.797547 15.702L0.241515 18.65L6.98552 19.922L7.54155 16.974ZM28.0535 1.264V-0.236001H26.5535V1.264H28.0535ZM35.8055 1.264L37.3049 1.30853L37.3507 -0.236001H35.8055V1.264ZM35.4455 13.384L33.9462 13.3395L33.856 16.3768L36.322 14.6013L35.4455 13.384ZM38.4455 11.224L39.322 12.4413L40.0262 11.9343L39.9377 11.0711L38.4455 11.224ZM37.5575 2.56V1.06H35.8959L36.0653 2.71294L37.5575 2.56ZM44.9255 2.56H46.4255V1.06H44.9255V2.56ZM44.9255 14.224L46.0482 15.2188L46.4255 14.793V14.224H44.9255ZM40.6295 19.072V20.572H41.3045L41.7522 20.0668L40.6295 19.072ZM31.5815 19.072L30.4197 20.0208L30.8699 20.572H31.5815V19.072ZM28.0535 14.752H26.5535V15.2867L26.8917 15.7008L28.0535 14.752ZM28.0535 2.764H35.8055V-0.236001H28.0535V2.764ZM34.3062 1.21946L33.9462 13.3395L36.9449 13.4285L37.3049 1.30853L34.3062 1.21946ZM36.322 14.6013L39.322 12.4413L37.5691 10.0067L34.5691 12.1667L36.322 14.6013ZM39.9377 11.0711L39.0497 2.40706L36.0653 2.71294L36.9533 11.3769L39.9377 11.0711ZM37.5575 4.06H44.9255V1.06H37.5575V4.06ZM43.4255 2.56V14.224H46.4255V2.56H43.4255ZM43.8029 13.2292L39.5069 18.0772L41.7522 20.0668L46.0482 15.2188L43.8029 13.2292ZM40.6295 17.572H31.5815V20.572H40.6295V17.572ZM32.7433 18.1232L29.2153 13.8032L26.8917 15.7008L30.4197 20.0208L32.7433 18.1232ZM29.5535 14.752V1.264H26.5535V14.752H29.5535ZM52.4259 1.792L53.9228 1.8889L54.0149 0.465006L52.5974 0.30184L52.4259 1.792ZM51.7299 12.544L50.233 12.4471L50.1164 14.2493L51.9094 14.0332L51.7299 12.544ZM59.0979 11.656L60.587 11.4755L60.4066 9.98742L58.9184 10.1668L59.0979 11.656ZM59.7699 17.2L59.9467 18.6895L61.44 18.5123L61.259 17.0195L59.7699 17.2ZM46.4259 18.784L44.927 18.8407L44.9884 20.4652L46.6027 20.2735L46.4259 18.784ZM45.7539 1.024L45.9254 -0.466161L44.1889 -0.666051L44.255 1.08072L45.7539 1.024ZM50.929 1.6951L50.233 12.4471L53.2268 12.6409L53.9228 1.8889L50.929 1.6951ZM51.9094 14.0332L59.2774 13.1452L58.9184 10.1668L51.5504 11.0548L51.9094 14.0332ZM57.6088 11.8365L58.2808 17.3805L61.259 17.0195L60.587 11.4755L57.6088 11.8365ZM59.5931 15.7105L46.2491 17.2945L46.6027 20.2735L59.9467 18.6895L59.5931 15.7105ZM47.9248 18.7273L47.2528 0.967284L44.255 1.08072L44.927 18.8407L47.9248 18.7273ZM45.5824 2.51416L52.2544 3.28216L52.5974 0.30184L45.9254 -0.466161L45.5824 2.51416ZM60.9883 1.192L61.0147 -0.307769L59.4883 -0.33462V1.192H60.9883ZM78.7243 1.504H80.2243V0.0301542L78.7507 0.00423127L78.7243 1.504ZM78.7243 8.704L78.4815 10.1842L80.2243 10.47V8.704H78.7243ZM72.7243 7.72L72.967 6.23977L70.9428 5.9078L71.2401 7.93742L72.7243 7.72ZM74.3803 19.024V20.524H76.116L75.8644 18.8066L74.3803 19.024ZM65.7883 19.024L64.298 18.8531L64.1065 20.524H65.7883V19.024ZM67.0843 7.72L68.5745 7.89085L68.7565 6.30362L67.161 6.22196L67.0843 7.72ZM60.9883 7.408H59.4883V8.83319L60.9116 8.90604L60.9883 7.408ZM60.9619 2.69177L78.6979 3.00377L78.7507 0.00423127L61.0147 -0.307769L60.9619 2.69177ZM77.2243 1.504V8.704H80.2243V1.504H77.2243ZM78.967 7.22377L72.967 6.23977L72.4815 9.20023L78.4815 10.1842L78.967 7.22377ZM71.2401 7.93742L72.8961 19.2414L75.8644 18.8066L74.2084 7.50257L71.2401 7.93742ZM74.3803 17.524H65.7883V20.524H74.3803V17.524ZM67.2785 19.1949L68.5745 7.89085L65.594 7.54914L64.298 18.8531L67.2785 19.1949ZM67.161 6.22196L61.065 5.90996L60.9116 8.90604L67.0076 9.21804L67.161 6.22196ZM62.4883 7.408V1.192H59.4883V7.408H62.4883ZM80.0927 1.264L80 -0.233139L78.5417 -0.14293L78.5936 1.31732L80.0927 1.264ZM84.7487 0.975999L86.2161 0.665103L85.9478 -0.601044L84.656 -0.52114L84.7487 0.975999ZM88.3487 17.968L88.5128 19.459L90.1594 19.2778L89.8161 17.6571L88.3487 17.968ZM80.7167 18.808L79.2176 18.8613L79.275 20.4757L80.8808 20.299L80.7167 18.808ZM80.1853 2.76114L84.8413 2.47314L84.656 -0.52114L80 -0.233139L80.1853 2.76114ZM83.2812 1.28689L86.8812 18.2789L89.8161 17.6571L86.2161 0.665103L83.2812 1.28689ZM88.1846 16.477L80.5526 17.317L80.8808 20.299L88.5128 19.459L88.1846 16.477ZM82.2157 18.7547L81.5917 1.21068L78.5936 1.31732L79.2176 18.8613L82.2157 18.7547ZM99.3463 1.24L100.196 0.00393686L99.8122 -0.26H99.3463V1.24ZM103.57 4.144L105.069 4.07313L105.033 3.32963L104.42 2.90794L103.57 4.144ZM103.906 11.248L104.949 12.3267L105.437 11.8551L105.405 11.1771L103.906 11.248ZM99.6343 15.376L99.7291 16.873L100.28 16.8381L100.677 16.4547L99.6343 15.376ZM94.3303 15.712L94.2354 14.215L92.8303 14.304V15.712H94.3303ZM94.3303 19.096V20.596H95.8303V19.096H94.3303ZM88.7383 19.096L87.2401 19.0215L87.1618 20.596H88.7383V19.096ZM89.6263 1.24V-0.26H88.199L88.1281 1.1655L89.6263 1.24ZM95.3143 6.712L95.6321 5.24605L93.9181 4.87448L93.8168 6.62537L95.3143 6.712ZM95.1463 9.616L93.6488 9.52937L93.5686 10.9147L94.9436 11.1022L95.1463 9.616ZM96.7303 9.832L96.5276 11.3182L97.3422 11.4293L97.874 10.8025L96.7303 9.832ZM98.7463 7.456L99.89 8.42647L101.508 6.51981L99.0641 5.99005L98.7463 7.456ZM98.4965 2.47606L102.72 5.38006L104.42 2.90794L100.196 0.00393686L98.4965 2.47606ZM102.072 4.21487L102.408 11.3189L105.405 11.1771L105.069 4.07313L102.072 4.21487ZM102.864 10.1693L98.592 14.2973L100.677 16.4547L104.949 12.3267L102.864 10.1693ZM99.5394 13.879L94.2354 14.215L94.4251 17.209L99.7291 16.873L99.5394 13.879ZM92.8303 15.712V19.096H95.8303V15.712H92.8303ZM94.3303 17.596H88.7383V20.596H94.3303V17.596ZM90.2364 19.1705L91.1244 1.3145L88.1281 1.1655L87.2401 19.0215L90.2364 19.1705ZM89.6263 2.74H99.3463V-0.26H89.6263V2.74ZM93.8168 6.62537L93.6488 9.52937L96.6438 9.70263L96.8118 6.79863L93.8168 6.62537ZM94.9436 11.1022L96.5276 11.3182L96.933 8.34575L95.349 8.12975L94.9436 11.1022ZM97.874 10.8025L99.89 8.42647L97.6025 6.48553L95.5865 8.86153L97.874 10.8025ZM99.0641 5.99005L95.6321 5.24605L94.9965 8.17795L98.4285 8.92195L99.0641 5.99005ZM110.668 1.792L112.165 1.8889L112.257 0.465006L110.84 0.30184L110.668 1.792ZM109.972 12.544L108.475 12.4471L108.359 14.2493L110.152 14.0332L109.972 12.544ZM117.34 11.656L118.829 11.4755L118.649 9.98742L117.161 10.1668L117.34 11.656ZM118.012 17.2L118.189 18.6895L119.682 18.5123L119.501 17.0195L118.012 17.2ZM104.668 18.784L103.169 18.8407L103.231 20.4652L104.845 20.2735L104.668 18.784ZM103.996 1.024L104.168 -0.466161L102.431 -0.666051L102.497 1.08072L103.996 1.024ZM109.171 1.6951L108.475 12.4471L111.469 12.6409L112.165 1.8889L109.171 1.6951ZM110.152 14.0332L117.52 13.1452L117.161 10.1668L109.793 11.0548L110.152 14.0332ZM115.851 11.8365L116.523 17.3805L119.501 17.0195L118.829 11.4755L115.851 11.8365ZM117.835 15.7105L104.491 17.2945L104.845 20.2735L118.189 18.6895L117.835 15.7105ZM106.167 18.7273L105.495 0.967284L102.497 1.08072L103.169 18.8407L106.167 18.7273ZM103.825 2.51416L110.497 3.28216L110.84 0.30184L104.168 -0.466161L103.825 2.51416ZM130.006 1.216L131.37 0.590676L130.923 -0.383163L129.857 -0.276557L130.006 1.216ZM137.59 17.752L137.826 19.2334L139.778 18.9232L138.954 17.1267L137.59 17.752ZM130.342 18.904L128.856 19.1055L129.062 20.6263L130.578 20.3854L130.342 18.904ZM129.766 14.656L131.253 14.4545L131.081 13.188L129.803 13.1565L129.766 14.656ZM123.934 14.512L123.971 13.0125L122.817 12.9839L122.494 14.0929L123.934 14.512ZM122.614 19.048L122.351 20.5246L123.678 20.7618L124.055 19.4671L122.614 19.048ZM115.63 17.8L114.341 17.0333L113.234 18.8955L115.367 19.2766L115.63 17.8ZM125.206 1.696L125.057 0.203444L124.304 0.27876L123.917 0.929348L125.206 1.696ZM126.43 7.504L126.489 6.00514L125.433 5.96399L125.039 6.94456L126.43 7.504ZM125.446 9.952L124.055 9.39256L123.25 11.3951L125.407 11.4515L125.446 9.952ZM129.118 10.048L129.079 11.5475L131.231 11.6038L130.539 9.56539L129.118 10.048ZM128.278 7.576L129.699 7.09339L129.367 6.11727L128.337 6.07714L128.278 7.576ZM128.643 1.84132L136.227 18.3773L138.954 17.1267L131.37 0.590676L128.643 1.84132ZM137.355 16.2706L130.107 17.4226L130.578 20.3854L137.826 19.2334L137.355 16.2706ZM131.829 18.7025L131.253 14.4545L128.28 14.8575L128.856 19.1055L131.829 18.7025ZM129.803 13.1565L123.971 13.0125L123.897 16.0115L129.729 16.1555L129.803 13.1565ZM122.494 14.0929L121.174 18.6289L124.055 19.4671L125.375 14.9311L122.494 14.0929ZM122.878 17.5714L115.894 16.3234L115.367 19.2766L122.351 20.5246L122.878 17.5714ZM116.92 18.5667L126.496 2.46265L123.917 0.929348L114.341 17.0333L116.92 18.5667ZM125.356 3.18856L130.156 2.70855L129.857 -0.276557L125.057 0.203444L125.356 3.18856ZM125.039 6.94456L124.055 9.39256L126.838 10.5114L127.822 8.06344L125.039 6.94456ZM125.407 11.4515L129.079 11.5475L129.158 8.54851L125.486 8.45251L125.407 11.4515ZM130.539 9.56539L129.699 7.09339L126.858 8.05861L127.698 10.5306L130.539 9.56539ZM128.337 6.07714L126.489 6.00514L126.372 9.00286L128.22 9.07486L128.337 6.07714ZM138.184 1.408L139.279 0.382087L138.282 -0.68076L137.191 0.284243L138.184 1.408ZM142.144 5.632L141.05 6.65791L142.241 7.92814L143.321 6.56244L142.144 5.632ZM145.864 0.927999L146.767 -0.270028L145.597 -1.15175L144.688 -0.00243989L145.864 0.927999ZM151.12 4.888L152.105 6.0195L153.502 4.80406L152.023 3.68997L151.12 4.888ZM145.384 9.88L144.4 8.7485L143.536 9.50023L144.033 10.5316L145.384 9.88ZM149.632 18.688L149.564 20.1864L152.076 20.3018L150.984 18.0364L149.632 18.688ZM140.224 18.256H138.724V19.6887L140.156 19.7544L140.224 18.256ZM140.224 10.6H141.724V9.95874L141.261 9.51566L140.224 10.6ZM134.248 4.888L133.255 3.76424L132.033 4.84498L133.212 5.97234L134.248 4.888ZM137.09 2.43391L141.05 6.65791L143.239 4.60609L139.279 0.382087L137.09 2.43391ZM143.321 6.56244L147.041 1.85844L144.688 -0.00243989L140.968 4.70156L143.321 6.56244ZM144.962 2.12603L150.218 6.08603L152.023 3.68997L146.767 -0.270028L144.962 2.12603ZM150.136 3.7565L144.4 8.7485L146.369 11.0115L152.105 6.0195L150.136 3.7565ZM144.033 10.5316L148.281 19.3396L150.984 18.0364L146.736 9.22839L144.033 10.5316ZM149.701 17.1896L140.293 16.7576L140.156 19.7544L149.564 20.1864L149.701 17.1896ZM141.724 18.256V10.6H138.724V18.256H141.724ZM141.261 9.51566L135.285 3.80366L133.212 5.97234L139.188 11.6843L141.261 9.51566ZM135.242 6.01176L139.178 2.53176L137.191 0.284243L133.255 3.76424L135.242 6.01176ZM152.776 1.12V-0.380002H151.552L151.307 0.819404L152.776 1.12ZM164.536 1.12L166.008 1.41144L166.363 -0.380002H164.536V1.12ZM163.552 6.088L163.78 7.57063L164.82 7.41104L165.024 6.37944L163.552 6.088ZM157.768 6.976L157.541 5.49337L156.342 5.67738L156.271 6.88792L157.768 6.976ZM157.696 8.2L156.199 8.11192L156.112 9.58523L157.584 9.69579L157.696 8.2ZM162.808 8.584L164.306 8.67815L164.399 7.19921L162.921 7.08821L162.808 8.584ZM162.568 12.4L162.702 13.894L163.985 13.7793L164.066 12.4942L162.568 12.4ZM158.008 12.808L157.875 11.314L156.018 11.4801L156.578 13.2584L158.008 12.808ZM158.416 14.104L156.986 14.5544L157.313 15.5945L158.403 15.6039L158.416 14.104ZM163.96 14.152L165.34 13.5628L164.955 12.6606L163.973 12.6521L163.96 14.152ZM166 18.928V20.428H168.272L167.38 18.3388L166 18.928ZM152.776 18.928L151.286 19.0964L151.436 20.428H152.776V18.928ZM151.48 7.456L150.011 7.1554L149.963 7.38824L149.99 7.62438L151.48 7.456ZM152.776 2.62H164.536V-0.380002H152.776V2.62ZM163.065 0.828559L162.081 5.79656L165.024 6.37944L166.008 1.41144L163.065 0.828559ZM163.325 4.60537L157.541 5.49337L157.996 8.45863L163.78 7.57063L163.325 4.60537ZM156.271 6.88792L156.199 8.11192L159.194 8.28808L159.266 7.06408L156.271 6.88792ZM157.584 9.69579L162.696 10.0798L162.921 7.08821L157.809 6.70421L157.584 9.69579ZM161.311 8.48985L161.071 12.3058L164.066 12.4942L164.306 8.67815L161.311 8.48985ZM162.435 10.906L157.875 11.314L158.142 14.302L162.702 13.894L162.435 10.906ZM156.578 13.2584L156.986 14.5544L159.847 13.6536L159.439 12.3576L156.578 13.2584ZM158.403 15.6039L163.947 15.6519L163.973 12.6521L158.429 12.6041L158.403 15.6039ZM162.581 14.7412L164.621 19.5172L167.38 18.3388L165.34 13.5628L162.581 14.7412ZM166 17.428H152.776V20.428H166V17.428ZM154.267 18.7596L152.971 7.28761L149.99 7.62438L151.286 19.0964L154.267 18.7596ZM152.95 7.75659L154.246 1.42059L151.307 0.819404L150.011 7.1554L152.95 7.75659ZM175.198 1.264L176.082 0.052313L175.635 -0.274138L175.083 -0.231561L175.198 1.264ZM179.638 4.504L181.134 4.39485L181.084 3.70188L180.522 3.29231L179.638 4.504ZM180.046 10.096L181.163 11.0973L181.589 10.6227L181.542 9.98685L180.046 10.096ZM177.55 12.88L176.433 11.8787L175.423 13.0052L176.559 14.0055L177.55 12.88ZM181.99 16.792L182.587 18.1684L184.755 17.229L182.982 15.6665L181.99 16.792ZM176.782 19.048L175.808 20.1883L176.519 20.7965L177.379 20.4244L176.782 19.048ZM171.334 14.392L172.309 13.2517L169.132 10.5367L169.857 14.6522L171.334 14.392ZM172.15 19.024V20.524H173.938L173.628 18.7638L172.15 19.024ZM166.63 19.024L165.135 19.1465L165.248 20.524H166.63V19.024ZM165.238 2.032L165.123 0.536439L163.62 0.652312L163.743 2.15447L165.238 2.032ZM171.334 6.232L172.041 4.9091L169.936 3.78403L169.836 6.16868L171.334 6.232ZM171.19 9.64L169.692 9.57668L169.634 10.9487L170.995 11.1273L171.19 9.64ZM172.654 9.832L172.459 11.3193L173.366 11.4382L173.887 10.6865L172.654 9.832ZM174.118 7.72L175.351 8.57454L176.31 7.19077L174.825 6.3971L174.118 7.72ZM174.314 2.47569L178.754 5.71569L180.522 3.29231L176.082 0.052313L174.314 2.47569ZM178.142 4.61315L178.55 10.2052L181.542 9.98685L181.134 4.39485L178.142 4.61315ZM178.929 9.09468L176.433 11.8787L178.667 13.8813L181.163 11.0973L178.929 9.09468ZM176.559 14.0055L180.999 17.9175L182.982 15.6665L178.542 11.7545L176.559 14.0055ZM181.394 15.4156L176.186 17.6716L177.379 20.4244L182.587 18.1684L181.394 15.4156ZM177.757 17.9077L172.309 13.2517L170.36 15.5323L175.808 20.1883L177.757 17.9077ZM169.857 14.6522L170.673 19.2842L173.628 18.7638L172.812 14.1318L169.857 14.6522ZM172.15 17.524H166.63V20.524H172.15V17.524ZM168.125 18.9015L166.733 1.90953L163.743 2.15447L165.135 19.1465L168.125 18.9015ZM165.354 3.52756L175.314 2.75956L175.083 -0.231561L165.123 0.536439L165.354 3.52756ZM169.836 6.16868L169.692 9.57668L172.689 9.70332L172.833 6.29532L169.836 6.16868ZM170.995 11.1273L172.459 11.3193L172.849 8.34473L171.385 8.15274L170.995 11.1273ZM173.887 10.6865L175.351 8.57454L172.885 6.86546L171.421 8.97746L173.887 10.6865ZM174.825 6.3971L172.041 4.9091L170.627 7.5549L173.411 9.0429L174.825 6.3971Z" fill="black"/>
</svg>
