<svg width="182" height="20" viewBox="0 0 182 20" fill="none" xmlns="http://www.w3.org/2000/svg">
<path d="M0.519531 17.176L9.08753 1.312H14.1515L15.8315 6.112L18.8075 1.288L23.2955 1.192L28.2155 18.448L21.8075 18.976L20.5835 14.608L19.1195 10.384L14.7035 14.32L11.3195 9.832L7.26353 18.448L0.519531 17.176ZM138.184 1.408L142.144 5.632L145.864 0.927999L151.12 4.888L145.384 9.88L149.632 18.688L140.224 18.256V10.6L134.248 4.888L138.184 1.408ZM175.198 1.264L179.638 4.504L180.046 10.096L177.55 12.88L181.99 16.792L176.782 19.048L171.334 14.392L172.15 19.024H166.63L165.238 2.032L175.198 1.264ZM171.334 6.232L171.19 9.64L172.654 9.832L174.118 7.72L171.334 6.232Z" fill="#009CDA"/>
<path d="M28.0535 1.264H35.8055L35.4455 13.384L38.4455 11.224L37.5575 2.56H44.9255V14.224L40.6295 19.072H31.5815L28.0535 14.752V1.264ZM80.0927 1.264L84.7487 0.975999L88.3487 17.968L80.7167 18.808L80.0927 1.264ZM130.006 1.216L137.59 17.752L130.342 18.904L129.766 14.656L123.934 14.512L122.614 19.048L115.63 17.8L125.206 1.696L130.006 1.216ZM126.43 7.504L125.446 9.952L129.118 10.048L128.278 7.576L126.43 7.504Z" fill="#FCCF00"/>
<path d="M52.4259 1.792L51.7299 12.544L59.0979 11.656L59.7699 17.2L46.4259 18.784L45.7539 1.024L52.4259 1.792ZM99.3463 1.24L103.57 4.144L103.906 11.248L99.6343 15.376L94.3303 15.712V19.096H88.7383L89.6263 1.24H99.3463ZM95.3143 6.712L95.1463 9.616L96.7303 9.832L98.7463 7.456L95.3143 6.712Z" fill="#E62310"/>
<path d="M60.9883 1.192L78.7243 1.504V8.704L72.7243 7.72L74.3803 19.024H65.7883L67.0843 7.72L60.9883 7.408V1.192ZM110.668 1.792L109.972 12.544L117.34 11.656L118.012 17.2L104.668 18.784L103.996 1.024L110.668 1.792ZM152.776 1.12H164.536L163.552 6.088L157.768 6.976L157.696 8.2L162.808 8.584L162.568 12.4L158.008 12.808L158.416 14.104L163.96 14.152L166 18.928H152.776L151.48 7.456L152.776 1.12Z" fill="#44AF35"/>
<path d="M0.519531 17.176L0.0795952 16.9384L-0.245598 17.5405L0.426859 17.6673L0.519531 17.176ZM9.08753 1.312V0.811999H8.78931L8.6476 1.07439L9.08753 1.312ZM14.1515 1.312L14.6235 1.14682L14.5063 0.811999H14.1515V1.312ZM15.8315 6.112L15.3596 6.27718L15.7062 7.26746L16.2571 6.37452L15.8315 6.112ZM18.8075 1.288L18.7968 0.788114L18.5248 0.793932L18.382 1.02548L18.8075 1.288ZM23.2955 1.192L23.7764 1.0549L23.6706 0.683862L23.2848 0.692113L23.2955 1.192ZM28.2155 18.448L28.2566 18.9463L28.8633 18.8963L28.6964 18.3109L28.2155 18.448ZM21.8075 18.976L21.3261 19.1109L21.4374 19.5082L21.8486 19.4743L21.8075 18.976ZM20.5835 14.608L21.065 14.4731L21.0609 14.4585L21.056 14.4443L20.5835 14.608ZM19.1195 10.384L19.592 10.2203L19.3465 9.51195L18.7868 10.0107L19.1195 10.384ZM14.7035 14.32L14.3043 14.621L14.6311 15.0544L15.0362 14.6933L14.7035 14.32ZM11.3195 9.832L11.7188 9.53098L11.22 8.8695L10.8672 9.61904L11.3195 9.832ZM7.26353 18.448L7.17086 18.9393L7.5511 19.0111L7.71591 18.661L7.26353 18.448ZM0.959467 17.4136L9.52747 1.5496L8.6476 1.07439L0.0795952 16.9384L0.959467 17.4136ZM9.08753 1.812H14.1515V0.811999H9.08753V1.812ZM13.6796 1.47717L15.3596 6.27718L16.3035 5.94682L14.6235 1.14682L13.6796 1.47717ZM16.2571 6.37452L19.2331 1.55052L18.382 1.02548L15.406 5.84948L16.2571 6.37452ZM18.8182 1.78788L23.3062 1.69188L23.2848 0.692113L18.7968 0.788114L18.8182 1.78788ZM22.8147 1.32909L27.7347 18.5851L28.6964 18.3109L23.7764 1.0549L22.8147 1.32909ZM28.1745 17.9497L21.7665 18.4777L21.8486 19.4743L28.2566 18.9463L28.1745 17.9497ZM22.289 18.8411L21.065 14.4731L20.1021 14.7429L21.3261 19.1109L22.289 18.8411ZM21.056 14.4443L19.592 10.2203L18.6471 10.5477L20.1111 14.7717L21.056 14.4443ZM18.7868 10.0107L14.3708 13.9467L15.0362 14.6933L19.4522 10.7573L18.7868 10.0107ZM15.1028 14.019L11.7188 9.53098L10.9203 10.133L14.3043 14.621L15.1028 14.019ZM10.8672 9.61904L6.81115 18.235L7.71591 18.661L11.7719 10.045L10.8672 9.61904ZM7.3562 17.9567L0.612203 16.6847L0.426859 17.6673L7.17086 18.9393L7.3562 17.9567ZM28.0535 1.264V0.763999H27.5535V1.264H28.0535ZM35.8055 1.264L36.3053 1.27884L36.3206 0.763999H35.8055V1.264ZM35.4455 13.384L34.9458 13.3692L34.9157 14.3816L35.7377 13.7898L35.4455 13.384ZM38.4455 11.224L38.7377 11.6298L38.9724 11.4608L38.9429 11.173L38.4455 11.224ZM37.5575 2.56V2.06H37.0037L37.0601 2.61098L37.5575 2.56ZM44.9255 2.56H45.4255V2.06H44.9255V2.56ZM44.9255 14.224L45.2997 14.5556L45.4255 14.4137V14.224H44.9255ZM40.6295 19.072V19.572H40.8545L41.0037 19.4036L40.6295 19.072ZM31.5815 19.072L31.1943 19.3883L31.3443 19.572H31.5815V19.072ZM28.0535 14.752H27.5535V14.9302L27.6663 15.0683L28.0535 14.752ZM28.0535 1.764H35.8055V0.763999H28.0535V1.764ZM35.3058 1.24915L34.9458 13.3692L35.9453 13.3988L36.3053 1.27884L35.3058 1.24915ZM35.7377 13.7898L38.7377 11.6298L38.1534 10.8182L35.1534 12.9782L35.7377 13.7898ZM38.9429 11.173L38.0549 2.50902L37.0601 2.61098L37.9481 11.275L38.9429 11.173ZM37.5575 3.06H44.9255V2.06H37.5575V3.06ZM44.4255 2.56V14.224H45.4255V2.56H44.4255ZM44.5513 13.8924L40.2553 18.7404L41.0037 19.4036L45.2997 14.5556L44.5513 13.8924ZM40.6295 18.572H31.5815V19.572H40.6295V18.572ZM31.9688 18.7557L28.4408 14.4357L27.6663 15.0683L31.1943 19.3883L31.9688 18.7557ZM28.5535 14.752V1.264H27.5535V14.752H28.5535ZM52.4259 1.792L52.9249 1.8243L52.9556 1.34967L52.4831 1.29528L52.4259 1.792ZM51.7299 12.544L51.231 12.5117L51.1921 13.1124L51.7897 13.0404L51.7299 12.544ZM59.0979 11.656L59.5943 11.5958L59.5341 11.0998L59.0381 11.1596L59.0979 11.656ZM59.7699 17.2L59.8288 17.6965L60.3266 17.6374L60.2663 17.1398L59.7699 17.2ZM46.4259 18.784L45.9263 18.8029L45.9468 19.3444L46.4848 19.2805L46.4259 18.784ZM45.7539 1.024L45.8111 0.52728L45.2322 0.460649L45.2543 1.04291L45.7539 1.024ZM51.927 1.7597L51.231 12.5117L52.2289 12.5763L52.9249 1.8243L51.927 1.7597ZM51.7897 13.0404L59.1577 12.1524L59.0381 11.1596L51.6701 12.0476L51.7897 13.0404ZM58.6015 11.7162L59.2735 17.2602L60.2663 17.1398L59.5943 11.5958L58.6015 11.7162ZM59.711 16.7035L46.367 18.2875L46.4848 19.2805L59.8288 17.6965L59.711 16.7035ZM46.9255 18.7651L46.2535 1.00509L45.2543 1.04291L45.9263 18.8029L46.9255 18.7651ZM45.6967 1.52072L52.3687 2.28872L52.4831 1.29528L45.8111 0.52728L45.6967 1.52072ZM60.9883 1.192L60.9971 0.692076L60.4883 0.683126V1.192H60.9883ZM78.7243 1.504H79.2243V1.01272L78.7331 1.00408L78.7243 1.504ZM78.7243 8.704L78.6434 9.19741L79.2243 9.29268V8.704H78.7243ZM72.7243 7.72L72.8052 7.22659L72.1305 7.11593L72.2296 7.79247L72.7243 7.72ZM74.3803 19.024V19.524H74.9589L74.875 18.9515L74.3803 19.024ZM65.7883 19.024L65.2915 18.967L65.2277 19.524H65.7883V19.024ZM67.0843 7.72L67.581 7.77695L67.6417 7.24787L67.1098 7.22065L67.0843 7.72ZM60.9883 7.408H60.4883V7.88306L60.9627 7.90735L60.9883 7.408ZM60.9795 1.69192L78.7155 2.00392L78.7331 1.00408L60.9971 0.692076L60.9795 1.69192ZM78.2243 1.504V8.704H79.2243V1.504H78.2243ZM78.8052 8.21059L72.8052 7.22659L72.6434 8.21341L78.6434 9.19741L78.8052 8.21059ZM72.2296 7.79247L73.8856 19.0965L74.875 18.9515L73.219 7.64752L72.2296 7.79247ZM74.3803 18.524H65.7883V19.524H74.3803V18.524ZM66.285 19.081L67.581 7.77695L66.5875 7.66305L65.2915 18.967L66.285 19.081ZM67.1098 7.22065L61.0138 6.90865L60.9627 7.90735L67.0587 8.21935L67.1098 7.22065ZM61.4883 7.408V1.192H60.4883V7.408H61.4883ZM80.0927 1.264L80.0618 0.764953L79.5757 0.795023L79.593 1.28177L80.0927 1.264ZM84.7487 0.975999L85.2378 0.872367L85.1484 0.450318L84.7178 0.476953L84.7487 0.975999ZM88.3487 17.968L88.4034 18.465L88.9523 18.4046L88.8378 17.8644L88.3487 17.968ZM80.7167 18.808L80.217 18.8258L80.2361 19.3639L80.7714 19.305L80.7167 18.808ZM80.1235 1.76305L84.7795 1.47505L84.7178 0.476953L80.0618 0.764953L80.1235 1.76305ZM84.2595 1.07963L87.8595 18.0716L88.8378 17.8644L85.2378 0.872367L84.2595 1.07963ZM88.294 17.471L80.662 18.311L80.7714 19.305L88.4034 18.465L88.294 17.471ZM81.2163 18.7902L80.5923 1.24623L79.593 1.28177L80.217 18.8258L81.2163 18.7902ZM99.3463 1.24L99.6295 0.827979L99.5016 0.74H99.3463V1.24ZM103.57 4.144L104.07 4.12038L104.058 3.87254L103.854 3.73198L103.57 4.144ZM103.906 11.248L104.254 11.6076L104.416 11.4504L104.406 11.2244L103.906 11.248ZM99.6343 15.376L99.6659 15.875L99.8495 15.8634L99.9817 15.7356L99.6343 15.376ZM94.3303 15.712L94.2987 15.213L93.8303 15.2427V15.712H94.3303ZM94.3303 19.096V19.596H94.8303V19.096H94.3303ZM88.7383 19.096L88.2389 19.0712L88.2128 19.596H88.7383V19.096ZM89.6263 1.24V0.74H89.1505L89.1269 1.21516L89.6263 1.24ZM95.3143 6.712L95.4202 6.22335L94.8489 6.09949L94.8151 6.68312L95.3143 6.712ZM95.1463 9.616L94.6471 9.58712L94.6204 10.0489L95.0787 10.1114L95.1463 9.616ZM96.7303 9.832L96.6627 10.3274L96.9342 10.3644L97.1115 10.1555L96.7303 9.832ZM98.7463 7.456L99.1275 7.77949L99.6668 7.14394L98.8522 6.96735L98.7463 7.456ZM99.063 1.65202L103.287 4.55602L103.854 3.73198L99.6295 0.827979L99.063 1.65202ZM103.071 4.16762L103.407 11.2716L104.406 11.2244L104.07 4.12038L103.071 4.16762ZM103.559 10.8884L99.2868 15.0164L99.9817 15.7356L104.254 11.6076L103.559 10.8884ZM99.6027 14.877L94.2987 15.213L94.3619 16.211L99.6659 15.875L99.6027 14.877ZM93.8303 15.712V19.096H94.8303V15.712H93.8303ZM94.3303 18.596H88.7383V19.596H94.3303V18.596ZM89.2377 19.1208L90.1257 1.26483L89.1269 1.21516L88.2389 19.0712L89.2377 19.1208ZM89.6263 1.74H99.3463V0.74H89.6263V1.74ZM94.8151 6.68312L94.6471 9.58712L95.6454 9.64488L95.8134 6.74088L94.8151 6.68312ZM95.0787 10.1114L96.6627 10.3274L96.7978 9.33658L95.2138 9.12058L95.0787 10.1114ZM97.1115 10.1555L99.1275 7.77949L98.365 7.13251L96.349 9.50851L97.1115 10.1555ZM98.8522 6.96735L95.4202 6.22335L95.2084 7.20065L98.6404 7.94465L98.8522 6.96735ZM110.668 1.792L111.167 1.8243L111.198 1.34967L110.725 1.29528L110.668 1.792ZM109.972 12.544L109.473 12.5117L109.434 13.1124L110.032 13.0404L109.972 12.544ZM117.34 11.656L117.836 11.5958L117.776 11.0998L117.28 11.1596L117.34 11.656ZM118.012 17.2L118.071 17.6965L118.569 17.6374L118.508 17.1398L118.012 17.2ZM104.668 18.784L104.168 18.8029L104.189 19.3444L104.727 19.2805L104.668 18.784ZM103.996 1.024L104.053 0.52728L103.474 0.460649L103.496 1.04291L103.996 1.024ZM110.169 1.7597L109.473 12.5117L110.471 12.5763L111.167 1.8243L110.169 1.7597ZM110.032 13.0404L117.4 12.1524L117.28 11.1596L109.912 12.0476L110.032 13.0404ZM116.844 11.7162L117.516 17.2602L118.508 17.1398L117.836 11.5958L116.844 11.7162ZM117.953 16.7035L104.609 18.2875L104.727 19.2805L118.071 17.6965L117.953 16.7035ZM105.168 18.7651L104.496 1.00509L103.496 1.04291L104.168 18.8029L105.168 18.7651ZM103.939 1.52072L110.611 2.28872L110.725 1.29528L104.053 0.52728L103.939 1.52072ZM130.006 1.216L130.461 1.00756L130.312 0.682945L129.957 0.71848L130.006 1.216ZM137.59 17.752L137.669 18.2458L138.32 18.1424L138.045 17.5436L137.59 17.752ZM130.342 18.904L129.847 18.9712L129.916 19.4781L130.421 19.3978L130.342 18.904ZM129.766 14.656L130.262 14.5888L130.205 14.1667L129.779 14.1562L129.766 14.656ZM123.934 14.512L123.947 14.0122L123.562 14.0026L123.454 14.3723L123.934 14.512ZM122.614 19.048L122.527 19.5402L122.969 19.6193L123.095 19.1877L122.614 19.048ZM115.63 17.8L115.201 17.5444L114.832 18.1652L115.543 18.2922L115.63 17.8ZM125.206 1.696L125.157 1.19848L124.906 1.22359L124.777 1.44045L125.206 1.696ZM126.43 7.504L126.45 7.00438L126.098 6.99066L125.967 7.31752L126.43 7.504ZM125.446 9.952L124.983 9.76552L124.714 10.433L125.433 10.4518L125.446 9.952ZM129.118 10.048L129.105 10.5478L129.823 10.5666L129.592 9.88713L129.118 10.048ZM128.278 7.576L128.752 7.41513L128.641 7.08976L128.298 7.07638L128.278 7.576ZM129.552 1.42444L137.136 17.9604L138.045 17.5436L130.461 1.00756L129.552 1.42444ZM137.512 17.2582L130.264 18.4102L130.421 19.3978L137.669 18.2458L137.512 17.2582ZM130.838 18.8368L130.262 14.5888L129.271 14.7232L129.847 18.9712L130.838 18.8368ZM129.779 14.1562L123.947 14.0122L123.922 15.0118L129.754 15.1558L129.779 14.1562ZM123.454 14.3723L122.134 18.9083L123.095 19.1877L124.415 14.6517L123.454 14.3723ZM122.702 18.5558L115.718 17.3078L115.543 18.2922L122.527 19.5402L122.702 18.5558ZM116.06 18.0556L125.636 1.95155L124.777 1.44045L115.201 17.5444L116.06 18.0556ZM125.256 2.19352L130.056 1.71352L129.957 0.71848L125.157 1.19848L125.256 2.19352ZM125.967 7.31752L124.983 9.76552L125.91 10.1385L126.894 7.69048L125.967 7.31752ZM125.433 10.4518L129.105 10.5478L129.132 9.54817L125.46 9.45217L125.433 10.4518ZM129.592 9.88713L128.752 7.41513L127.805 7.73687L128.645 10.2089L129.592 9.88713ZM128.298 7.07638L126.45 7.00438L126.411 8.00362L128.259 8.07562L128.298 7.07638ZM138.184 1.408L138.549 1.06603L138.217 0.711746L137.853 1.03341L138.184 1.408ZM142.144 5.632L141.78 5.97397L142.177 6.39738L142.537 5.94215L142.144 5.632ZM145.864 0.927999L146.165 0.528657L145.775 0.23475L145.472 0.617853L145.864 0.927999ZM151.12 4.888L151.449 5.26517L151.914 4.86002L151.421 4.48866L151.12 4.888ZM145.384 9.88L145.056 9.50283L144.768 9.75341L144.934 10.0972L145.384 9.88ZM149.632 18.688L149.61 19.1875L150.447 19.2259L150.083 18.4708L149.632 18.688ZM140.224 18.256H139.724V18.7336L140.202 18.7555L140.224 18.256ZM140.224 10.6H140.724V10.3862L140.57 10.2386L140.224 10.6ZM134.248 4.888L133.917 4.51341L133.51 4.87366L133.903 5.24945L134.248 4.888ZM137.82 1.74997L141.78 5.97397L142.509 5.29003L138.549 1.06603L137.82 1.74997ZM142.537 5.94215L146.257 1.23815L145.472 0.617853L141.752 5.32185L142.537 5.94215ZM145.564 1.32734L150.82 5.28734L151.421 4.48866L146.165 0.528657L145.564 1.32734ZM150.792 4.51083L145.056 9.50283L145.713 10.2572L151.449 5.26517L150.792 4.51083ZM144.934 10.0972L149.182 18.9052L150.083 18.4708L145.835 9.6628L144.934 10.0972ZM149.655 18.1885L140.247 17.7565L140.202 18.7555L149.61 19.1875L149.655 18.1885ZM140.724 18.256V10.6H139.724V18.256H140.724ZM140.57 10.2386L134.594 4.52655L133.903 5.24945L139.879 10.9614L140.57 10.2386ZM134.58 5.26259L138.516 1.78258L137.853 1.03341L133.917 4.51341L134.58 5.26259ZM152.776 1.12V0.619998H152.368L152.287 1.0198L152.776 1.12ZM164.536 1.12L165.027 1.21715L165.145 0.619998H164.536V1.12ZM163.552 6.088L163.628 6.58221L163.975 6.52901L164.043 6.18515L163.552 6.088ZM157.768 6.976L157.693 6.48179L157.293 6.54313L157.269 6.94664L157.768 6.976ZM157.696 8.2L157.197 8.17064L157.168 8.66174L157.659 8.69859L157.696 8.2ZM162.808 8.584L163.307 8.61538L163.338 8.1224L162.846 8.0854L162.808 8.584ZM162.568 12.4L162.613 12.898L163.041 12.8598L163.067 12.4314L162.568 12.4ZM158.008 12.808L157.964 12.31L157.345 12.3654L157.532 12.9581L158.008 12.808ZM158.416 14.104L157.94 14.2541L158.049 14.6008L158.412 14.604L158.416 14.104ZM163.96 14.152L164.42 13.9556L164.292 13.6548L163.965 13.652L163.96 14.152ZM166 18.928V19.428H166.758L166.46 18.7316L166 18.928ZM152.776 18.928L152.28 18.9841L152.33 19.428H152.776V18.928ZM151.48 7.456L150.991 7.3558L150.975 7.43341L150.984 7.51213L151.48 7.456ZM152.776 1.62H164.536V0.619998H152.776V1.62ZM164.046 1.02285L163.062 5.99085L164.043 6.18515L165.027 1.21715L164.046 1.02285ZM163.477 5.59379L157.693 6.48179L157.844 7.47021L163.628 6.58221L163.477 5.59379ZM157.269 6.94664L157.197 8.17064L158.196 8.22936L158.268 7.00536L157.269 6.94664ZM157.659 8.69859L162.771 9.08259L162.846 8.0854L157.734 7.7014L157.659 8.69859ZM162.309 8.55262L162.069 12.3686L163.067 12.4314L163.307 8.61538L162.309 8.55262ZM162.524 11.902L157.964 12.31L158.053 13.306L162.613 12.898L162.524 11.902ZM157.532 12.9581L157.94 14.2541L158.893 13.9539L158.485 12.6579L157.532 12.9581ZM158.412 14.604L163.956 14.652L163.965 13.652L158.421 13.604L158.412 14.604ZM163.501 14.3484L165.541 19.1244L166.46 18.7316L164.42 13.9556L163.501 14.3484ZM166 18.428H152.776V19.428H166V18.428ZM153.273 18.8719L151.977 7.39987L150.984 7.51213L152.28 18.9841L153.273 18.8719ZM151.97 7.5562L153.266 1.2202L152.287 1.0198L150.991 7.3558L151.97 7.5562ZM175.198 1.264L175.493 0.860104L175.344 0.751287L175.16 0.765479L175.198 1.264ZM179.638 4.504L180.137 4.46762L180.12 4.23663L179.933 4.1001L179.638 4.504ZM180.046 10.096L180.419 10.4298L180.56 10.2716L180.545 10.0596L180.046 10.096ZM177.55 12.88L177.178 12.5462L176.841 12.9217L177.22 13.2552L177.55 12.88ZM181.99 16.792L182.189 17.2508L182.912 16.9377L182.321 16.4168L181.99 16.792ZM176.782 19.048L176.457 19.4281L176.695 19.6308L176.981 19.5068L176.782 19.048ZM171.334 14.392L171.659 14.0119L170.6 13.1069L170.842 14.4787L171.334 14.392ZM172.15 19.024V19.524H172.746L172.643 18.9373L172.15 19.024ZM166.63 19.024L166.132 19.0648L166.17 19.524H166.63V19.024ZM165.238 2.032L165.2 1.53348L164.699 1.5721L164.74 2.07282L165.238 2.032ZM171.334 6.232L171.57 5.79103L170.868 5.41601L170.835 6.21089L171.334 6.232ZM171.19 9.64L170.691 9.61889L170.671 10.0762L171.125 10.1358L171.19 9.64ZM172.654 9.832L172.589 10.3278L172.892 10.3674L173.065 10.1168L172.654 9.832ZM174.118 7.72L174.529 8.00485L174.849 7.54359L174.354 7.27903L174.118 7.72ZM174.904 1.66789L179.344 4.90789L179.933 4.1001L175.493 0.860104L174.904 1.66789ZM179.14 4.54038L179.548 10.1324L180.545 10.0596L180.137 4.46762L179.14 4.54038ZM179.674 9.76223L177.178 12.5462L177.923 13.2138L180.419 10.4298L179.674 9.76223ZM177.22 13.2552L181.66 17.1672L182.321 16.4168L177.881 12.5048L177.22 13.2552ZM181.792 16.3332L176.584 18.5892L176.981 19.5068L182.189 17.2508L181.792 16.3332ZM177.107 18.6679L171.659 14.0119L171.009 14.7721L176.457 19.4281L177.107 18.6679ZM170.842 14.4787L171.658 19.1107L172.643 18.9373L171.827 14.3053L170.842 14.4787ZM172.15 18.524H166.63V19.524H172.15V18.524ZM167.129 18.9832L165.737 1.99118L164.74 2.07282L166.132 19.0648L167.129 18.9832ZM165.277 2.53052L175.237 1.76252L175.16 0.765479L165.2 1.53348L165.277 2.53052ZM170.835 6.21089L170.691 9.61889L171.69 9.66111L171.834 6.25311L170.835 6.21089ZM171.125 10.1358L172.589 10.3278L172.719 9.33624L171.255 9.14424L171.125 10.1358ZM173.065 10.1168L174.529 8.00485L173.707 7.43515L172.243 9.54715L173.065 10.1168ZM174.354 7.27903L171.57 5.79103L171.099 6.67297L173.883 8.16097L174.354 7.27903Z" fill="black"/>
</svg>
