<svg width="80" height="19" viewBox="0 0 80 19" fill="none" xmlns="http://www.w3.org/2000/svg">
<path d="M10.8467 0.263999L15.2867 3.504L15.6947 9.096L13.1987 11.88L17.6387 15.792L12.4307 18.048L6.98272 13.392L7.79872 18.024H2.27872L0.886719 1.032L10.8467 0.263999ZM6.98272 5.232L6.83872 8.64L8.30272 8.832L9.76672 6.72L6.98272 5.232Z" fill="#009CDA"/>
<path d="M18.4249 0.119998H30.1849L29.2009 5.088L23.4169 5.976L23.3449 7.2L28.4569 7.584L28.2169 11.4L23.6569 11.808L24.0649 13.104L29.6089 13.152L31.6489 17.928H18.4249L17.1289 6.456L18.4249 0.119998ZM62.1289 0.191999L79.8649 0.503999V7.704L73.8649 6.72L75.5209 18.024H66.9289L68.2249 6.72L62.1289 6.408V0.191999Z" fill="#FCCF00"/>
<path d="M48.2867 4.656L45.1907 8.472L41.5667 6.144L40.6547 7.296L47.1347 12.048L43.9907 17.976H36.2867L30.9107 13.704L33.2387 9.792L37.8707 12.408L38.5667 11.328L31.7747 7.296L38.2067 0.0959988H43.9907L48.2867 4.656Z" fill="#E62310"/>
<path d="M49.6671 0.119998H61.4271L60.4431 5.088L54.6591 5.976L54.5871 7.2L59.6991 7.584L59.4591 11.4L54.8991 11.808L55.3071 13.104L60.8511 13.152L62.8911 17.928H49.6671L48.3711 6.456L49.6671 0.119998Z" fill="#44AF35"/>
<path d="M10.8467 0.263999L11.7309 -0.947687L11.2836 -1.27414L10.7314 -1.23156L10.8467 0.263999ZM15.2867 3.504L16.7827 3.39485L16.7322 2.70188L16.1709 2.29231L15.2867 3.504ZM15.6947 9.096L16.8116 10.0973L17.2371 9.62266L17.1907 8.98685L15.6947 9.096ZM13.1987 11.88L12.0819 10.8787L11.0719 12.0052L12.2071 13.0055L13.1987 11.88ZM17.6387 15.792L18.235 17.1684L20.4037 16.229L18.6303 14.6665L17.6387 15.792ZM12.4307 18.048L11.4562 19.1883L12.1679 19.7965L13.027 19.4244L12.4307 18.048ZM6.98272 13.392L7.95725 12.2517L4.78045 9.53673L5.50547 13.6522L6.98272 13.392ZM7.79872 18.024V19.524H9.58607L9.27597 17.7638L7.79872 18.024ZM2.27872 18.024L0.783727 18.1465L0.896575 19.524H2.27872V18.024ZM0.886719 1.032L0.771398 -0.463561L-0.731331 -0.347688L-0.608273 1.15447L0.886719 1.032ZM6.98272 5.232L7.68978 3.9091L5.58482 2.78403L5.48406 5.16868L6.98272 5.232ZM6.83872 8.64L5.34006 8.57668L5.28208 9.9487L6.64367 10.1273L6.83872 8.64ZM8.30272 8.832L8.10767 10.3193L9.01448 10.4382L9.5355 9.68654L8.30272 8.832ZM9.76672 6.72L10.9995 7.57454L11.9587 6.19077L10.4738 5.3971L9.76672 6.72ZM9.96252 1.47569L14.4025 4.71569L16.1709 2.29231L11.7309 -0.947687L9.96252 1.47569ZM13.7907 3.61315L14.1987 9.20515L17.1907 8.98685L16.7827 3.39485L13.7907 3.61315ZM14.5779 8.09468L12.0819 10.8787L14.3156 12.8813L16.8116 10.0973L14.5779 8.09468ZM12.2071 13.0055L16.6471 16.9175L18.6303 14.6665L14.1903 10.7545L12.2071 13.0055ZM17.0425 14.4156L11.8345 16.6716L13.027 19.4244L18.235 17.1684L17.0425 14.4156ZM13.4053 16.9077L7.95725 12.2517L6.00819 14.5323L11.4562 19.1883L13.4053 16.9077ZM5.50547 13.6522L6.32147 18.2842L9.27597 17.7638L8.45997 13.1318L5.50547 13.6522ZM7.79872 16.524H2.27872V19.524H7.79872V16.524ZM3.77371 17.9015L2.38171 0.909528L-0.608273 1.15447L0.783727 18.1465L3.77371 17.9015ZM1.00204 2.52756L10.962 1.75956L10.7314 -1.23156L0.771398 -0.463561L1.00204 2.52756ZM5.48406 5.16868L5.34006 8.57668L8.33738 8.70332L8.48138 5.29532L5.48406 5.16868ZM6.64367 10.1273L8.10767 10.3193L8.49777 7.34473L7.03377 7.15274L6.64367 10.1273ZM9.5355 9.68654L10.9995 7.57454L8.53394 5.86546L7.06994 7.97746L9.5355 9.68654ZM10.4738 5.3971L7.68978 3.9091L6.27565 6.5549L9.05965 8.0429L10.4738 5.3971ZM18.4249 0.119998V-1.38H17.2007L16.9553 -0.180596L18.4249 0.119998ZM30.1849 0.119998L31.6563 0.411438L32.0111 -1.38H30.1849V0.119998ZM29.2009 5.088L29.4285 6.57063L30.468 6.41104L30.6723 5.37944L29.2009 5.088ZM23.4169 5.976L23.1893 4.49337L21.9907 4.67738L21.9195 5.88792L23.4169 5.976ZM23.3449 7.2L21.8475 7.11192L21.7608 8.58523L23.2325 8.69579L23.3449 7.2ZM28.4569 7.584L29.9539 7.67815L30.047 6.19921L28.5693 6.08821L28.4569 7.584ZM28.2169 11.4L28.3506 12.894L29.6331 12.7793L29.7139 11.4942L28.2169 11.4ZM23.6569 11.808L23.5232 10.314L21.6663 10.4801L22.2261 12.2584L23.6569 11.808ZM24.0649 13.104L22.6341 13.5544L22.9616 14.5945L24.0519 14.6039L24.0649 13.104ZM29.6089 13.152L30.9883 12.5628L30.603 11.6606L29.6219 11.6521L29.6089 13.152ZM31.6489 17.928V19.428H33.9207L33.0283 17.3388L31.6489 17.928ZM18.4249 17.928L16.9344 18.0964L17.0848 19.428H18.4249V17.928ZM17.1289 6.456L15.6593 6.1554L15.6117 6.38824L15.6384 6.62438L17.1289 6.456ZM18.4249 1.62H30.1849V-1.38H18.4249V1.62ZM28.7135 -0.171441L27.7295 4.79656L30.6723 5.37944L31.6563 0.411438L28.7135 -0.171441ZM28.9733 3.60537L23.1893 4.49337L23.6445 7.45863L29.4285 6.57063L28.9733 3.60537ZM21.9195 5.88792L21.8475 7.11192L24.8423 7.28808L24.9143 6.06408L21.9195 5.88792ZM23.2325 8.69579L28.3445 9.07979L28.5693 6.08821L23.4573 5.70421L23.2325 8.69579ZM26.9599 7.48985L26.7199 11.3058L29.7139 11.4942L29.9539 7.67815L26.9599 7.48985ZM28.0832 9.90597L23.5232 10.314L23.7906 13.302L28.3506 12.894L28.0832 9.90597ZM22.2261 12.2584L22.6341 13.5544L25.4957 12.6536L25.0877 11.3576L22.2261 12.2584ZM24.0519 14.6039L29.5959 14.6519L29.6219 11.6521L24.0779 11.6041L24.0519 14.6039ZM28.2295 13.7412L30.2695 18.5172L33.0283 17.3388L30.9883 12.5628L28.2295 13.7412ZM31.6489 16.428H18.4249V19.428H31.6489V16.428ZM19.9154 17.7596L18.6194 6.28761L15.6384 6.62438L16.9344 18.0964L19.9154 17.7596ZM18.5985 6.75659L19.8945 0.420593L16.9553 -0.180596L15.6593 6.1554L18.5985 6.75659ZM48.2867 4.656L49.4516 5.60106L50.2781 4.58229L49.3785 3.62741L48.2867 4.656ZM45.1907 8.472L44.38 9.73404L45.5096 10.4597L46.3556 9.41706L45.1907 8.472ZM41.5667 6.144L42.3774 4.88196L41.2341 4.14751L40.3907 5.21294L41.5667 6.144ZM40.6547 7.296L39.4787 6.36495L38.5126 7.58522L39.7677 8.50561L40.6547 7.296ZM47.1347 12.048L48.4599 12.7508L49.0675 11.6052L48.0218 10.8384L47.1347 12.048ZM43.9907 17.976V19.476H44.8931L45.3159 18.6788L43.9907 17.976ZM36.2867 17.976L35.3535 19.1504L35.7633 19.476H36.2867V17.976ZM30.9107 13.704L29.6217 12.9369L28.9515 14.0631L29.9775 14.8784L30.9107 13.704ZM33.2387 9.792L33.9764 8.4859L32.6996 7.76482L31.9497 9.02491L33.2387 9.792ZM37.8707 12.408L37.1331 13.7141L38.3651 14.4099L39.1316 13.2206L37.8707 12.408ZM38.5667 11.328L39.8276 12.1406L40.6705 10.8325L39.3324 10.0382L38.5667 11.328ZM31.7747 7.296L30.6561 6.29668L29.4421 7.65564L31.009 8.58584L31.7747 7.296ZM38.2067 0.0959988V-1.404H37.5354L37.0881 -0.903321L38.2067 0.0959988ZM43.9907 0.0959988L45.0825 -0.932586L44.6384 -1.404H43.9907V0.0959988ZM47.1219 3.71094L44.0259 7.52694L46.3556 9.41706L49.4516 5.60106L47.1219 3.71094ZM46.0014 7.20996L42.3774 4.88196L40.756 7.40604L44.38 9.73404L46.0014 7.20996ZM40.3907 5.21294L39.4787 6.36495L41.8308 8.22705L42.7428 7.07505L40.3907 5.21294ZM39.7677 8.50561L46.2477 13.2576L48.0218 10.8384L41.5418 6.08639L39.7677 8.50561ZM45.8096 11.3452L42.6656 17.2732L45.3159 18.6788L48.4599 12.7508L45.8096 11.3452ZM43.9907 16.476H36.2867V19.476H43.9907V16.476ZM37.2199 16.8016L31.8439 12.5296L29.9775 14.8784L35.3535 19.1504L37.2199 16.8016ZM32.1997 14.4711L34.5277 10.5591L31.9497 9.02491L29.6217 12.9369L32.1997 14.4711ZM32.5011 11.0981L37.1331 13.7141L38.6084 11.1019L33.9764 8.4859L32.5011 11.0981ZM39.1316 13.2206L39.8276 12.1406L37.3059 10.5154L36.6099 11.5954L39.1316 13.2206ZM39.3324 10.0382L32.5404 6.00616L31.009 8.58584L37.801 12.6178L39.3324 10.0382ZM32.8934 8.29532L39.3254 1.09532L37.0881 -0.903321L30.6561 6.29668L32.8934 8.29532ZM38.2067 1.596H43.9907V-1.404H38.2067V1.596ZM42.8989 1.12458L47.1949 5.68458L49.3785 3.62741L45.0825 -0.932586L42.8989 1.12458ZM49.6671 0.119998V-1.38H48.4429L48.1975 -0.180596L49.6671 0.119998ZM61.4271 0.119998L62.8985 0.411438L63.2533 -1.38H61.4271V0.119998ZM60.4431 5.088L60.6707 6.57063L61.7102 6.41104L61.9145 5.37944L60.4431 5.088ZM54.6591 5.976L54.4315 4.49337L53.2329 4.67738L53.1617 5.88792L54.6591 5.976ZM54.5871 7.2L53.0897 7.11192L53.003 8.58523L54.4747 8.69579L54.5871 7.2ZM59.6991 7.584L61.1961 7.67815L61.2892 6.19921L59.8115 6.08821L59.6991 7.584ZM59.4591 11.4L59.5928 12.894L60.8753 12.7793L60.9561 11.4942L59.4591 11.4ZM54.8991 11.808L54.7654 10.314L52.9085 10.4801L53.4683 12.2584L54.8991 11.808ZM55.3071 13.104L53.8763 13.5544L54.2038 14.5945L55.2941 14.6039L55.3071 13.104ZM60.8511 13.152L62.2305 12.5628L61.8451 11.6606L60.8641 11.6521L60.8511 13.152ZM62.8911 17.928V19.428H65.1629L64.2705 17.3388L62.8911 17.928ZM49.6671 17.928L48.1766 18.0964L48.327 19.428H49.6671V17.928ZM48.3711 6.456L46.9015 6.1554L46.8539 6.38824L46.8806 6.62438L48.3711 6.456ZM49.6671 1.62H61.4271V-1.38H49.6671V1.62ZM59.9557 -0.171441L58.9717 4.79656L61.9145 5.37944L62.8985 0.411438L59.9557 -0.171441ZM60.2155 3.60537L54.4315 4.49337L54.8867 7.45863L60.6707 6.57063L60.2155 3.60537ZM53.1617 5.88792L53.0897 7.11192L56.0845 7.28808L56.1565 6.06408L53.1617 5.88792ZM54.4747 8.69579L59.5867 9.07979L59.8115 6.08821L54.6995 5.70421L54.4747 8.69579ZM58.2021 7.48985L57.9621 11.3058L60.9561 11.4942L61.1961 7.67815L58.2021 7.48985ZM59.3254 9.90597L54.7654 10.314L55.0328 13.302L59.5928 12.894L59.3254 9.90597ZM53.4683 12.2584L53.8763 13.5544L56.7379 12.6536L56.3299 11.3576L53.4683 12.2584ZM55.2941 14.6039L60.8381 14.6519L60.8641 11.6521L55.3201 11.6041L55.2941 14.6039ZM59.4717 13.7412L61.5117 18.5172L64.2705 17.3388L62.2305 12.5628L59.4717 13.7412ZM62.8911 16.428H49.6671V19.428H62.8911V16.428ZM51.1576 17.7596L49.8616 6.28761L46.8806 6.62438L48.1766 18.0964L51.1576 17.7596ZM49.8407 6.75659L51.1367 0.420593L48.1975 -0.180596L46.9015 6.1554L49.8407 6.75659ZM62.1289 0.191999L62.1553 -1.30777L60.6289 -1.33462V0.191999H62.1289ZM79.8649 0.503999H81.3649V-0.969846L79.8913 -0.995769L79.8649 0.503999ZM79.8649 7.704L79.6221 9.18423L81.3649 9.47004V7.704H79.8649ZM73.8649 6.72L74.1077 5.23977L72.0834 4.9078L72.3807 6.93742L73.8649 6.72ZM75.5209 18.024V19.524H77.2567L77.0051 17.8066L75.5209 18.024ZM66.9289 18.024L65.4387 17.8531L65.2471 19.524H66.9289V18.024ZM68.2249 6.72L69.7151 6.89085L69.8971 5.30362L68.3016 5.22196L68.2249 6.72ZM62.1289 6.408H60.6289V7.83319L62.0522 7.90604L62.1289 6.408ZM62.1025 1.69177L79.8385 2.00377L79.8913 -0.995769L62.1553 -1.30777L62.1025 1.69177ZM78.3649 0.503999V7.704H81.3649V0.503999H78.3649ZM80.1077 6.22377L74.1077 5.23977L73.6221 8.20023L79.6221 9.18423L80.1077 6.22377ZM72.3807 6.93742L74.0367 18.2414L77.0051 17.8066L75.3491 6.50257L72.3807 6.93742ZM75.5209 16.524H66.9289V19.524H75.5209V16.524ZM68.4191 18.1949L69.7151 6.89085L66.7347 6.54914L65.4387 17.8531L68.4191 18.1949ZM68.3016 5.22196L62.2056 4.90996L62.0522 7.90604L68.1482 8.21804L68.3016 5.22196ZM63.6289 6.408V0.191999H60.6289V6.408H63.6289Z" fill="black"/>
</svg>
