<svg width="80" height="19" viewBox="0 0 80 19" fill="none" xmlns="http://www.w3.org/2000/svg">
<path d="M10.8467 0.263999L15.2867 3.504L15.6947 9.096L13.1987 11.88L17.6387 15.792L12.4307 18.048L6.98272 13.392L7.79872 18.024H2.27872L0.886719 1.032L10.8467 0.263999ZM6.98272 5.232L6.83872 8.64L8.30272 8.832L9.76672 6.72L6.98272 5.232Z" fill="#009CDA"/>
<path d="M18.4249 0.119998H30.1849L29.2009 5.088L23.4169 5.976L23.3449 7.2L28.4569 7.584L28.2169 11.4L23.6569 11.808L24.0649 13.104L29.6089 13.152L31.6489 17.928H18.4249L17.1289 6.456L18.4249 0.119998ZM62.1289 0.191999L79.8649 0.503999V7.704L73.8649 6.72L75.5209 18.024H66.9289L68.2249 6.72L62.1289 6.408V0.191999Z" fill="#FCCF00"/>
<path d="M48.2867 4.656L45.1907 8.472L41.5667 6.144L40.6547 7.296L47.1347 12.048L43.9907 17.976H36.2867L30.9107 13.704L33.2387 9.792L37.8707 12.408L38.5667 11.328L31.7747 7.296L38.2067 0.0959988H43.9907L48.2867 4.656Z" fill="#E62310"/>
<path d="M49.6671 0.119998H61.4271L60.4431 5.088L54.6591 5.976L54.5871 7.2L59.6991 7.584L59.4591 11.4L54.8991 11.808L55.3071 13.104L60.8511 13.152L62.8911 17.928H49.6671L48.3711 6.456L49.6671 0.119998Z" fill="#44AF35"/>
<path d="M10.8467 0.263999L11.1415 -0.139896L10.9923 -0.248713L10.8083 -0.234521L10.8467 0.263999ZM15.2867 3.504L15.7854 3.46762L15.7685 3.23663L15.5815 3.1001L15.2867 3.504ZM15.6947 9.096L16.067 9.42977L16.2089 9.27155L16.1934 9.05962L15.6947 9.096ZM13.1987 11.88L12.8264 11.5462L12.4898 11.9217L12.8682 12.2552L13.1987 11.88ZM17.6387 15.792L17.8375 16.2508L18.5604 15.9377L17.9693 15.4168L17.6387 15.792ZM12.4307 18.048L12.1059 18.4281L12.3431 18.6308L12.6295 18.5068L12.4307 18.048ZM6.98272 13.392L7.30756 13.0119L6.24863 12.1069L6.4903 13.4787L6.98272 13.392ZM7.79872 18.024V18.524H8.3945L8.29114 17.9373L7.79872 18.024ZM2.27872 18.024L1.78039 18.0648L1.818 18.524H2.27872V18.024ZM0.886719 1.032L0.848279 0.533479L0.347369 0.572104L0.388388 1.07282L0.886719 1.032ZM6.98272 5.232L7.21841 4.79103L6.51675 4.41601L6.48316 5.21089L6.98272 5.232ZM6.83872 8.64L6.33916 8.61889L6.31984 9.07623L6.7737 9.13575L6.83872 8.64ZM8.30272 8.832L8.2377 9.32775L8.53997 9.3674L8.71365 9.11685L8.30272 8.832ZM9.76672 6.72L10.1776 7.00485L10.4974 6.54359L10.0024 6.27903L9.76672 6.72ZM10.552 0.667895L14.992 3.90789L15.5815 3.1001L11.1415 -0.139896L10.552 0.667895ZM14.788 3.54038L15.196 9.13238L16.1934 9.05962L15.7854 3.46762L14.788 3.54038ZM15.3224 8.76223L12.8264 11.5462L13.571 12.2138L16.067 9.42977L15.3224 8.76223ZM12.8682 12.2552L17.3082 16.1672L17.9693 15.4168L13.5293 11.5048L12.8682 12.2552ZM17.44 15.3332L12.232 17.5892L12.6295 18.5068L17.8375 16.2508L17.44 15.3332ZM12.7556 17.6679L7.30756 13.0119L6.65788 13.7721L12.1059 18.4281L12.7556 17.6679ZM6.4903 13.4787L7.3063 18.1107L8.29114 17.9373L7.47514 13.3053L6.4903 13.4787ZM7.79872 17.524H2.27872V18.524H7.79872V17.524ZM2.77705 17.9832L1.38505 0.991176L0.388388 1.07282L1.78039 18.0648L2.77705 17.9832ZM0.925159 1.53052L10.8852 0.76252L10.8083 -0.234521L0.848279 0.533479L0.925159 1.53052ZM6.48316 5.21089L6.33916 8.61889L7.33827 8.66111L7.48227 5.25311L6.48316 5.21089ZM6.7737 9.13575L8.2377 9.32775L8.36774 8.33624L6.90374 8.14424L6.7737 9.13575ZM8.71365 9.11685L10.1776 7.00485L9.35579 6.43515L7.89179 8.54715L8.71365 9.11685ZM10.0024 6.27903L7.21841 4.79103L6.74703 5.67297L9.53103 7.16097L10.0024 6.27903ZM18.4249 0.119998V-0.380002H18.0168L17.935 0.0198003L18.4249 0.119998ZM30.1849 0.119998L30.6754 0.217145L30.7937 -0.380002H30.1849V0.119998ZM29.2009 5.088L29.2768 5.58221L29.6233 5.52901L29.6914 5.18515L29.2009 5.088ZM23.4169 5.976L23.341 5.48179L22.9415 5.54313L22.9178 5.94664L23.4169 5.976ZM23.3449 7.2L22.8458 7.17064L22.8169 7.66174L23.3075 7.69859L23.3449 7.2ZM28.4569 7.584L28.9559 7.61538L28.9869 7.1224L28.4944 7.0854L28.4569 7.584ZM28.2169 11.4L28.2615 11.898L28.689 11.8598L28.7159 11.4314L28.2169 11.4ZM23.6569 11.808L23.6123 11.31L22.9934 11.3654L23.18 11.9581L23.6569 11.808ZM24.0649 13.104L23.588 13.2541L23.6971 13.6008L24.0606 13.604L24.0649 13.104ZM29.6089 13.152L30.0687 12.9556L29.9403 12.6548L29.6132 12.652L29.6089 13.152ZM31.6489 17.928V18.428H32.4062L32.1087 17.7316L31.6489 17.928ZM18.4249 17.928L17.9281 17.9841L17.9782 18.428H18.4249V17.928ZM17.1289 6.456L16.639 6.3558L16.6232 6.43341L16.6321 6.51213L17.1289 6.456ZM18.4249 0.619998H30.1849V-0.380002H18.4249V0.619998ZM29.6944 0.0228519L28.7104 4.99085L29.6914 5.18515L30.6754 0.217145L29.6944 0.0228519ZM29.125 4.59379L23.341 5.48179L23.4928 6.47021L29.2768 5.58221L29.125 4.59379ZM22.9178 5.94664L22.8458 7.17064L23.844 7.22936L23.916 6.00536L22.9178 5.94664ZM23.3075 7.69859L28.4195 8.08259L28.4944 7.0854L23.3824 6.7014L23.3075 7.69859ZM27.9579 7.55262L27.7179 11.3686L28.7159 11.4314L28.9559 7.61538L27.9579 7.55262ZM28.1723 10.902L23.6123 11.31L23.7015 12.306L28.2615 11.898L28.1723 10.902ZM23.18 11.9581L23.588 13.2541L24.5418 12.9539L24.1338 11.6579L23.18 11.9581ZM24.0606 13.604L29.6046 13.652L29.6132 12.652L24.0692 12.604L24.0606 13.604ZM29.1491 13.3484L31.1891 18.1244L32.1087 17.7316L30.0687 12.9556L29.1491 13.3484ZM31.6489 17.428H18.4249V18.428H31.6489V17.428ZM18.9217 17.8719L17.6257 6.39987L16.6321 6.51213L17.9281 17.9841L18.9217 17.8719ZM17.6188 6.5562L18.9148 0.220197L17.935 0.0198003L16.639 6.3558L17.6188 6.5562ZM48.2867 4.656L48.675 4.97102L48.9505 4.63143L48.6507 4.31314L48.2867 4.656ZM45.1907 8.472L44.9205 8.89268L45.297 9.13457L45.579 8.78702L45.1907 8.472ZM41.5667 6.144L41.837 5.72332L41.4559 5.4785L41.1747 5.83365L41.5667 6.144ZM40.6547 7.296L40.2627 6.98565L39.9407 7.39241L40.359 7.6992L40.6547 7.296ZM47.1347 12.048L47.5764 12.2823L47.779 11.9004L47.4304 11.6448L47.1347 12.048ZM43.9907 17.976V18.476H44.2915L44.4324 18.2103L43.9907 17.976ZM36.2867 17.976L35.9757 18.3675L36.1122 18.476H36.2867V17.976ZM30.9107 13.704L30.481 13.4483L30.2577 13.8237L30.5997 14.0955L30.9107 13.704ZM33.2387 9.792L33.4846 9.35663L33.059 9.11627L32.809 9.5363L33.2387 9.792ZM37.8707 12.408L37.6248 12.8434L38.0355 13.0753L38.291 12.6789L37.8707 12.408ZM38.5667 11.328L38.987 11.5989L39.268 11.1628L38.822 10.8981L38.5667 11.328ZM31.7747 7.296L31.4018 6.96289L30.9972 7.41588L31.5195 7.72595L31.7747 7.296ZM38.2067 0.0959988V-0.404001H37.9829L37.8338 -0.237108L38.2067 0.0959988ZM43.9907 0.0959988L44.3547 -0.246863L44.2066 -0.404001H43.9907V0.0959988ZM47.8984 4.34098L44.8024 8.15698L45.579 8.78702L48.675 4.97102L47.8984 4.34098ZM45.461 8.05132L41.837 5.72332L41.2965 6.56468L44.9205 8.89268L45.461 8.05132ZM41.1747 5.83365L40.2627 6.98565L41.0467 7.60635L41.9587 6.45435L41.1747 5.83365ZM40.359 7.6992L46.839 12.4512L47.4304 11.6448L40.9504 6.8928L40.359 7.6992ZM46.693 11.8137L43.549 17.7417L44.4324 18.2103L47.5764 12.2823L46.693 11.8137ZM43.9907 17.476H36.2867V18.476H43.9907V17.476ZM36.5978 17.5845L31.2218 13.3125L30.5997 14.0955L35.9757 18.3675L36.5978 17.5845ZM31.3404 13.9597L33.6684 10.0477L32.809 9.5363L30.481 13.4483L31.3404 13.9597ZM32.9928 10.2274L37.6248 12.8434L38.1166 11.9726L33.4846 9.35663L32.9928 10.2274ZM38.291 12.6789L38.987 11.5989L38.1464 11.0571L37.4504 12.1371L38.291 12.6789ZM38.822 10.8981L32.03 6.86605L31.5195 7.72595L38.3115 11.7579L38.822 10.8981ZM32.1476 7.62911L38.5796 0.429105L37.8338 -0.237108L31.4018 6.96289L32.1476 7.62911ZM38.2067 0.595999H43.9907V-0.404001H38.2067V0.595999ZM43.6268 0.43886L47.9228 4.99886L48.6507 4.31314L44.3547 -0.246863L43.6268 0.43886ZM49.6671 0.119998V-0.380002H49.259L49.1772 0.0198003L49.6671 0.119998ZM61.4271 0.119998L61.9176 0.217145L62.0358 -0.380002H61.4271V0.119998ZM60.4431 5.088L60.519 5.58221L60.8655 5.52901L60.9336 5.18515L60.4431 5.088ZM54.6591 5.976L54.5832 5.48179L54.1837 5.54313L54.16 5.94664L54.6591 5.976ZM54.5871 7.2L54.088 7.17064L54.0591 7.66174L54.5496 7.69859L54.5871 7.2ZM59.6991 7.584L60.1981 7.61538L60.2291 7.1224L59.7365 7.0854L59.6991 7.584ZM59.4591 11.4L59.5037 11.898L59.9312 11.8598L59.9581 11.4314L59.4591 11.4ZM54.8991 11.808L54.8545 11.31L54.2356 11.3654L54.4222 11.9581L54.8991 11.808ZM55.3071 13.104L54.8302 13.2541L54.9393 13.6008L55.3028 13.604L55.3071 13.104ZM60.8511 13.152L61.3109 12.9556L61.1824 12.6548L60.8554 12.652L60.8511 13.152ZM62.8911 17.928V18.428H63.6484L63.3509 17.7316L62.8911 17.928ZM49.6671 17.928L49.1703 17.9841L49.2204 18.428H49.6671V17.928ZM48.3711 6.456L47.8812 6.3558L47.8654 6.43341L47.8743 6.51213L48.3711 6.456ZM49.6671 0.619998H61.4271V-0.380002H49.6671V0.619998ZM60.9366 0.0228519L59.9526 4.99085L60.9336 5.18515L61.9176 0.217145L60.9366 0.0228519ZM60.3672 4.59379L54.5832 5.48179L54.735 6.47021L60.519 5.58221L60.3672 4.59379ZM54.16 5.94664L54.088 7.17064L55.0862 7.22936L55.1582 6.00536L54.16 5.94664ZM54.5496 7.69859L59.6616 8.08259L59.7365 7.0854L54.6245 6.7014L54.5496 7.69859ZM59.2001 7.55262L58.9601 11.3686L59.9581 11.4314L60.1981 7.61538L59.2001 7.55262ZM59.4145 10.902L54.8545 11.31L54.9437 12.306L59.5037 11.898L59.4145 10.902ZM54.4222 11.9581L54.8302 13.2541L55.784 12.9539L55.376 11.6579L54.4222 11.9581ZM55.3028 13.604L60.8468 13.652L60.8554 12.652L55.3114 12.604L55.3028 13.604ZM60.3913 13.3484L62.4313 18.1244L63.3509 17.7316L61.3109 12.9556L60.3913 13.3484ZM62.8911 17.428H49.6671V18.428H62.8911V17.428ZM50.1639 17.8719L48.8679 6.39987L47.8743 6.51213L49.1703 17.9841L50.1639 17.8719ZM48.861 6.5562L50.157 0.220197L49.1772 0.0198003L47.8812 6.3558L48.861 6.5562ZM62.1289 0.191999L62.1377 -0.307924L61.6289 -0.316874V0.191999H62.1289ZM79.8649 0.503999H80.3649V0.0127176L79.8737 0.00407658L79.8649 0.503999ZM79.8649 7.704L79.784 8.19741L80.3649 8.29268V7.704H79.8649ZM73.8649 6.72L73.9458 6.22659L73.2711 6.11593L73.3702 6.79247L73.8649 6.72ZM75.5209 18.024V18.524H76.0995L76.0156 17.9515L75.5209 18.024ZM66.9289 18.024L66.4322 17.967L66.3683 18.524H66.9289V18.024ZM68.2249 6.72L68.7217 6.77695L68.7823 6.24787L68.2505 6.22065L68.2249 6.72ZM62.1289 6.408H61.6289V6.88306L62.1033 6.90735L62.1289 6.408ZM62.1201 0.691922L79.8561 1.00392L79.8737 0.00407658L62.1377 -0.307924L62.1201 0.691922ZM79.3649 0.503999V7.704H80.3649V0.503999H79.3649ZM79.9458 7.21059L73.9458 6.22659L73.784 7.21341L79.784 8.19741L79.9458 7.21059ZM73.3702 6.79247L75.0262 18.0965L76.0156 17.9515L74.3596 6.64752L73.3702 6.79247ZM75.5209 17.524H66.9289V18.524H75.5209V17.524ZM67.4257 18.081L68.7217 6.77695L67.7282 6.66305L66.4322 17.967L67.4257 18.081ZM68.2505 6.22065L62.1545 5.90865L62.1033 6.90735L68.1993 7.21935L68.2505 6.22065ZM62.6289 6.408V0.191999H61.6289V6.408H62.6289Z" fill="black"/>
</svg>
