<svg width="182" height="20" viewBox="0 0 182 20" fill="none" xmlns="http://www.w3.org/2000/svg">
<path d="M17.6656 5.656L14.5696 9.472L10.9456 7.144L10.0336 8.296L16.5136 13.048L13.3696 18.976H5.66563L0.289625 14.704L2.61763 10.792L7.24963 13.408L7.94563 12.328L1.15363 8.296L7.58563 1.096H13.3696L17.6656 5.656ZM129.26 1.216L136.844 17.752L129.596 18.904L129.02 14.656L123.188 14.512L121.868 19.048L114.884 17.8L124.46 1.696L129.26 1.216ZM125.684 7.504L124.7 9.952L128.372 10.048L127.532 7.576L125.684 7.504ZM152.03 1.12H163.79L162.806 6.088L157.022 6.976L156.95 8.2L162.062 8.584L161.822 12.4L157.262 12.808L157.67 14.104L163.214 14.152L165.254 18.928H152.03L150.734 7.456L152.03 1.12Z" fill="#009CDA"/>
<path d="M17.87 1.264L22.526 0.975999L26.126 17.968L18.494 18.808L17.87 1.264ZM65.672 1.792L64.976 12.544L72.344 11.656L73.016 17.2L59.672 18.784L59 1.024L65.672 1.792ZM109.922 1.792L109.226 12.544L116.594 11.656L117.266 17.2L103.922 18.784L103.25 1.024L109.922 1.792ZM174.452 1.264L178.892 4.504L179.3 10.096L176.804 12.88L181.244 16.792L176.036 19.048L170.588 14.392L171.404 19.024H165.884L164.492 2.032L174.452 1.264ZM170.588 6.232L170.444 9.64L171.908 9.832L173.372 7.72L170.588 6.232Z" fill="#FCCF00"/>
<path d="M26.5156 18.688L29.7076 1.192H33.3316L36.7156 6.76L37.0036 1.192L42.5716 2.056L41.3956 18.904L36.7876 18.616L33.2356 13.192L32.2036 18.928L26.5156 18.688ZM75.5304 1.12H87.2904L86.3064 6.088L80.5224 6.976L80.4504 8.2L85.5624 8.584L85.3224 12.4L80.7624 12.808L81.1704 14.104L86.7144 14.152L88.7544 18.928H75.5304L74.2344 7.456L75.5304 1.12Z" fill="#E62310"/>
<path d="M58.0402 4.816L53.9362 7.12L52.2802 6.208L49.8322 6.952L48.3682 10.432L49.9042 13.672L54.3202 13.144L54.4162 12.352L51.0082 12.664L51.4402 7.84L58.5442 7.936V17.416L46.6162 18.952L42.9922 11.584L44.3122 4.816L49.4002 1.12L55.6402 1.552L58.0402 4.816ZM98.6002 1.24L102.824 4.144L103.16 11.248L98.8882 15.376L93.5842 15.712V19.096H87.9922L88.8802 1.24H98.6002ZM94.5682 6.712L94.4002 9.616L95.9842 9.832L98.0002 7.456L94.5682 6.712ZM137.438 1.408L141.398 5.632L145.118 0.927999L150.374 4.888L144.638 9.88L148.886 18.688L139.478 18.256V10.6L133.502 4.888L137.438 1.408Z" fill="#44AF35"/>
<path d="M17.6656 5.656L18.0539 5.97102L18.3294 5.63143L18.0296 5.31314L17.6656 5.656ZM14.5696 9.472L14.2994 9.89268L14.6759 10.1346L14.9579 9.78702L14.5696 9.472ZM10.9456 7.144L11.2159 6.72332L10.8348 6.4785L10.5536 6.83365L10.9456 7.144ZM10.0336 8.296L9.6416 7.98565L9.31959 8.39241L9.73794 8.6992L10.0336 8.296ZM16.5136 13.048L16.9553 13.2823L17.1579 12.9004L16.8093 12.6448L16.5136 13.048ZM13.3696 18.976V19.476H13.6704L13.8113 19.2103L13.3696 18.976ZM5.66563 18.976L5.35456 19.3675L5.49115 19.476H5.66563V18.976ZM0.289625 14.704L-0.140049 14.4483L-0.363438 14.8237L-0.0214421 15.0955L0.289625 14.704ZM2.61763 10.792L2.86351 10.3566L2.43791 10.1163L2.18795 10.5363L2.61763 10.792ZM7.24963 13.408L7.00375 13.8434L7.41442 14.0753L7.66991 13.6789L7.24963 13.408ZM7.94563 12.328L8.36591 12.5989L8.6469 12.1628L8.20086 11.8981L7.94563 12.328ZM1.15363 8.296L0.780744 7.96289L0.376075 8.41588L0.898391 8.72595L1.15363 8.296ZM7.58563 1.096V0.595999H7.36184L7.21274 0.762892L7.58563 1.096ZM13.3696 1.096L13.7336 0.753137L13.5855 0.595999H13.3696V1.096ZM17.2773 5.34098L14.1813 9.15698L14.9579 9.78702L18.0539 5.97102L17.2773 5.34098ZM14.8399 9.05132L11.2159 6.72332L10.6754 7.56468L14.2994 9.89268L14.8399 9.05132ZM10.5536 6.83365L9.6416 7.98565L10.4256 8.60635L11.3376 7.45435L10.5536 6.83365ZM9.73794 8.6992L16.2179 13.4512L16.8093 12.6448L10.3293 7.8928L9.73794 8.6992ZM16.0719 12.8137L12.9279 18.7417L13.8113 19.2103L16.9553 13.2823L16.0719 12.8137ZM13.3696 18.476H5.66563V19.476H13.3696V18.476ZM5.97669 18.5845L0.600692 14.3125L-0.0214421 15.0955L5.35456 19.3675L5.97669 18.5845ZM0.719299 14.9597L3.0473 11.0477L2.18795 10.5363L-0.140049 14.4483L0.719299 14.9597ZM2.37175 11.2274L7.00375 13.8434L7.49551 12.9726L2.86351 10.3566L2.37175 11.2274ZM7.66991 13.6789L8.36591 12.5989L7.52534 12.0571L6.82934 13.1371L7.66991 13.6789ZM8.20086 11.8981L1.40886 7.86605L0.898391 8.72595L7.69039 12.7579L8.20086 11.8981ZM1.52651 8.62911L7.95851 1.42911L7.21274 0.762892L0.780744 7.96289L1.52651 8.62911ZM7.58563 1.596H13.3696V0.595999H7.58563V1.596ZM13.0057 1.43886L17.3017 5.99886L18.0296 5.31314L13.7336 0.753137L13.0057 1.43886ZM17.87 1.264L17.8391 0.764953L17.353 0.795023L17.3703 1.28177L17.87 1.264ZM22.526 0.975999L23.0151 0.872367L22.9257 0.450318L22.4951 0.476953L22.526 0.975999ZM26.126 17.968L26.1807 18.465L26.7296 18.4046L26.6151 17.8644L26.126 17.968ZM18.494 18.808L17.9943 18.8258L18.0135 19.3639L18.5487 19.305L18.494 18.808ZM17.9009 1.76305L22.5569 1.47505L22.4951 0.476953L17.8391 0.764953L17.9009 1.76305ZM22.0369 1.07963L25.6369 18.0716L26.6151 17.8644L23.0151 0.872367L22.0369 1.07963ZM26.0713 17.471L18.4393 18.311L18.5487 19.305L26.1807 18.465L26.0713 17.471ZM18.9937 18.7902L18.3697 1.24623L17.3703 1.28177L17.9943 18.8258L18.9937 18.7902ZM26.5156 18.688L26.0237 18.5983L25.9206 19.1633L26.4945 19.1876L26.5156 18.688ZM29.7076 1.192V0.691999H29.2906L29.2157 1.10226L29.7076 1.192ZM33.3316 1.192L33.7589 0.932318L33.6128 0.691999H33.3316V1.192ZM36.7156 6.76L36.2883 7.01968L37.1311 8.40639L37.215 6.78583L36.7156 6.76ZM37.0036 1.192L37.0803 0.697912L36.5329 0.612973L36.5043 1.16617L37.0036 1.192ZM42.5716 2.056L43.0704 2.09081L43.1024 1.63238L42.6483 1.56191L42.5716 2.056ZM41.3956 18.904L41.3644 19.403L41.8598 19.434L41.8944 18.9388L41.3956 18.904ZM36.7876 18.616L36.3693 18.8899L36.5065 19.0994L36.7564 19.115L36.7876 18.616ZM33.2356 13.192L33.6539 12.9181L32.9659 11.8675L32.7435 13.1035L33.2356 13.192ZM32.2036 18.928L32.1825 19.4276L32.6185 19.4459L32.6957 19.0165L32.2036 18.928ZM27.0075 18.7777L30.1995 1.28174L29.2157 1.10226L26.0237 18.5983L27.0075 18.7777ZM29.7076 1.692H33.3316V0.691999H29.7076V1.692ZM32.9043 1.45168L36.2883 7.01968L37.1429 6.50032L33.7589 0.932318L32.9043 1.45168ZM37.215 6.78583L37.503 1.21783L36.5043 1.16617L36.2163 6.73417L37.215 6.78583ZM36.927 1.68609L42.495 2.55009L42.6483 1.56191L37.0803 0.697912L36.927 1.68609ZM42.0728 2.02118L40.8968 18.8692L41.8944 18.9388L43.0704 2.09081L42.0728 2.02118ZM41.4268 18.405L36.8188 18.117L36.7564 19.115L41.3644 19.403L41.4268 18.405ZM37.2059 18.3421L33.6539 12.9181L32.8173 13.4659L36.3693 18.8899L37.2059 18.3421ZM32.7435 13.1035L31.7115 18.8395L32.6957 19.0165L33.7277 13.2805L32.7435 13.1035ZM32.2247 18.4284L26.5367 18.1884L26.4945 19.1876L32.1825 19.4276L32.2247 18.4284ZM58.0402 4.816L58.285 5.25199L58.7779 4.97525L58.443 4.5198L58.0402 4.816ZM53.9362 7.12L53.695 7.55797L53.9385 7.69209L54.181 7.55599L53.9362 7.12ZM52.2802 6.208L52.5214 5.77002L52.3366 5.66827L52.1348 5.72961L52.2802 6.208ZM49.8322 6.952L49.6868 6.47361L49.4623 6.54184L49.3713 6.75811L49.8322 6.952ZM48.3682 10.432L47.9073 10.2381L47.8206 10.4442L47.9164 10.6462L48.3682 10.432ZM49.9042 13.672L49.4524 13.8862L49.6064 14.2112L49.9635 14.1685L49.9042 13.672ZM54.3202 13.144L54.3795 13.6405L54.7693 13.5939L54.8166 13.2042L54.3202 13.144ZM54.4162 12.352L54.9126 12.4122L54.987 11.7976L54.3706 11.8541L54.4162 12.352ZM51.0082 12.664L50.5102 12.6194L50.4567 13.2166L51.0538 13.1619L51.0082 12.664ZM51.4402 7.84L51.4469 7.34004L50.9835 7.33378L50.9422 7.7954L51.4402 7.84ZM58.5442 7.936H59.0442V7.44271L58.5509 7.43605L58.5442 7.936ZM58.5442 17.416L58.608 17.9119L59.0442 17.8557V17.416H58.5442ZM46.6162 18.952L46.1675 19.1727L46.3254 19.4936L46.68 19.4479L46.6162 18.952ZM42.9922 11.584L42.5014 11.4883L42.4692 11.6536L42.5435 11.8047L42.9922 11.584ZM44.3122 4.816L44.0183 4.41147L43.8591 4.52713L43.8214 4.72029L44.3122 4.816ZM49.4002 1.12L49.4347 0.621192L49.2534 0.608639L49.1063 0.715465L49.4002 1.12ZM55.6402 1.552L56.043 1.2558L55.9058 1.06919L55.6747 1.05319L55.6402 1.552ZM57.7954 4.38001L53.6914 6.68401L54.181 7.55599L58.285 5.25199L57.7954 4.38001ZM54.1774 6.68203L52.5214 5.77002L52.039 6.64597L53.695 7.55797L54.1774 6.68203ZM52.1348 5.72961L49.6868 6.47361L49.9776 7.43039L52.4256 6.68639L52.1348 5.72961ZM49.3713 6.75811L47.9073 10.2381L48.8291 10.6259L50.2931 7.14589L49.3713 6.75811ZM47.9164 10.6462L49.4524 13.8862L50.356 13.4578L48.82 10.2178L47.9164 10.6462ZM49.9635 14.1685L54.3795 13.6405L54.2608 12.6475L49.8448 13.1755L49.9635 14.1685ZM54.8166 13.2042L54.9126 12.4122L53.9198 12.2918L53.8238 13.0838L54.8166 13.2042ZM54.3706 11.8541L50.9626 12.1661L51.0538 13.1619L54.4618 12.8499L54.3706 11.8541ZM51.5062 12.7086L51.9382 7.8846L50.9422 7.7954L50.5102 12.6194L51.5062 12.7086ZM51.4334 8.33995L58.5374 8.43595L58.5509 7.43605L51.4469 7.34004L51.4334 8.33995ZM58.0442 7.936V17.416H59.0442V7.936H58.0442ZM58.4803 16.9201L46.5523 18.4561L46.68 19.4479L58.608 17.9119L58.4803 16.9201ZM47.0649 18.7313L43.4409 11.3633L42.5435 11.8047L46.1675 19.1727L47.0649 18.7313ZM43.4829 11.6797L44.8029 4.91171L43.8214 4.72029L42.5014 11.4883L43.4829 11.6797ZM44.606 5.22053L49.694 1.52453L49.1063 0.715465L44.0183 4.41147L44.606 5.22053ZM49.3657 1.6188L55.6057 2.0508L55.6747 1.05319L49.4347 0.621192L49.3657 1.6188ZM55.2374 1.84819L57.6374 5.11219L58.443 4.5198L56.043 1.2558L55.2374 1.84819ZM65.672 1.792L66.171 1.8243L66.2017 1.34967L65.7292 1.29528L65.672 1.792ZM64.976 12.544L64.477 12.5117L64.4382 13.1124L65.0358 13.0404L64.976 12.544ZM72.344 11.656L72.8404 11.5958L72.7802 11.0998L72.2842 11.1596L72.344 11.656ZM73.016 17.2L73.0749 17.6965L73.5727 17.6374L73.5124 17.1398L73.016 17.2ZM59.672 18.784L59.1724 18.8029L59.1928 19.3444L59.7309 19.2805L59.672 18.784ZM59 1.024L59.0572 0.52728L58.4783 0.460649L58.5004 1.04291L59 1.024ZM65.173 1.7597L64.477 12.5117L65.475 12.5763L66.171 1.8243L65.173 1.7597ZM65.0358 13.0404L72.4038 12.1524L72.2842 11.1596L64.9162 12.0476L65.0358 13.0404ZM71.8476 11.7162L72.5196 17.2602L73.5124 17.1398L72.8404 11.5958L71.8476 11.7162ZM72.9571 16.7035L59.6131 18.2875L59.7309 19.2805L73.0749 17.6965L72.9571 16.7035ZM60.1716 18.7651L59.4996 1.00509L58.5004 1.04291L59.1724 18.8029L60.1716 18.7651ZM58.9428 1.52072L65.6148 2.28872L65.7292 1.29528L59.0572 0.52728L58.9428 1.52072ZM75.5304 1.12V0.619998H75.1223L75.0405 1.0198L75.5304 1.12ZM87.2904 1.12L87.7808 1.21715L87.8991 0.619998H87.2904V1.12ZM86.3064 6.088L86.3822 6.58221L86.7287 6.52901L86.7968 6.18515L86.3064 6.088ZM80.5224 6.976L80.4465 6.48179L80.047 6.54313L80.0232 6.94664L80.5224 6.976ZM80.4504 8.2L79.9512 8.17064L79.9223 8.66174L80.4129 8.69859L80.4504 8.2ZM85.5624 8.584L86.0614 8.61538L86.0924 8.1224L85.5998 8.0854L85.5624 8.584ZM85.3224 12.4L85.3669 12.898L85.7944 12.8598L85.8214 12.4314L85.3224 12.4ZM80.7624 12.808L80.7178 12.31L80.0988 12.3654L80.2855 12.9581L80.7624 12.808ZM81.1704 14.104L80.6935 14.2541L80.8026 14.6008L81.166 14.604L81.1704 14.104ZM86.7144 14.152L87.1742 13.9556L87.0457 13.6548L86.7187 13.652L86.7144 14.152ZM88.7544 18.928V19.428H89.5116L89.2142 18.7316L88.7544 18.928ZM75.5304 18.928L75.0335 18.9841L75.0837 19.428H75.5304V18.928ZM74.2344 7.456L73.7445 7.3558L73.7286 7.43341L73.7375 7.51213L74.2344 7.456ZM75.5304 1.62H87.2904V0.619998H75.5304V1.62ZM86.7999 1.02285L85.8159 5.99085L86.7968 6.18515L87.7808 1.21715L86.7999 1.02285ZM86.2305 5.59379L80.4465 6.48179L80.5983 7.47021L86.3822 6.58221L86.2305 5.59379ZM80.0232 6.94664L79.9512 8.17064L80.9495 8.22936L81.0215 7.00536L80.0232 6.94664ZM80.4129 8.69859L85.5249 9.08259L85.5998 8.0854L80.4878 7.7014L80.4129 8.69859ZM85.0634 8.55262L84.8234 12.3686L85.8214 12.4314L86.0614 8.61538L85.0634 8.55262ZM85.2778 11.902L80.7178 12.31L80.8069 13.306L85.3669 12.898L85.2778 11.902ZM80.2855 12.9581L80.6935 14.2541L81.6473 13.9539L81.2393 12.6579L80.2855 12.9581ZM81.166 14.604L86.71 14.652L86.7187 13.652L81.1747 13.604L81.166 14.604ZM86.2546 14.3484L88.2946 19.1244L89.2142 18.7316L87.1742 13.9556L86.2546 14.3484ZM88.7544 18.428H75.5304V19.428H88.7544V18.428ZM76.0272 18.8719L74.7312 7.39987L73.7375 7.51213L75.0335 18.9841L76.0272 18.8719ZM74.7242 7.5562L76.0202 1.2202L75.0405 1.0198L73.7445 7.3558L74.7242 7.5562ZM98.6002 1.24L98.8835 0.827979L98.7555 0.74H98.6002V1.24ZM102.824 4.144L103.324 4.12038L103.312 3.87254L103.107 3.73198L102.824 4.144ZM103.16 11.248L103.508 11.6076L103.67 11.4504L103.66 11.2244L103.16 11.248ZM98.8882 15.376L98.9198 15.875L99.1034 15.8634L99.2356 15.7356L98.8882 15.376ZM93.5842 15.712L93.5526 15.213L93.0842 15.2427V15.712H93.5842ZM93.5842 19.096V19.596H94.0842V19.096H93.5842ZM87.9922 19.096L87.4928 19.0712L87.4667 19.596H87.9922V19.096ZM88.8802 1.24V0.74H88.4044L88.3808 1.21516L88.8802 1.24ZM94.5682 6.712L94.6741 6.22335L94.1028 6.09949L94.069 6.68312L94.5682 6.712ZM94.4002 9.616L93.901 9.58712L93.8743 10.0489L94.3326 10.1114L94.4002 9.616ZM95.9842 9.832L95.9166 10.3274L96.1881 10.3644L96.3654 10.1555L95.9842 9.832ZM98.0002 7.456L98.3814 7.77949L98.9207 7.14394L98.1061 6.96735L98.0002 7.456ZM98.3169 1.65202L102.541 4.55602L103.107 3.73198L98.8835 0.827979L98.3169 1.65202ZM102.325 4.16762L102.661 11.2716L103.66 11.2244L103.324 4.12038L102.325 4.16762ZM102.813 10.8884L98.5407 15.0164L99.2356 15.7356L103.508 11.6076L102.813 10.8884ZM98.8566 14.877L93.5526 15.213L93.6158 16.211L98.9198 15.875L98.8566 14.877ZM93.0842 15.712V19.096H94.0842V15.712H93.0842ZM93.5842 18.596H87.9922V19.596H93.5842V18.596ZM88.4916 19.1208L89.3796 1.26483L88.3808 1.21516L87.4928 19.0712L88.4916 19.1208ZM88.8802 1.74H98.6002V0.74H88.8802V1.74ZM94.069 6.68312L93.901 9.58712L94.8994 9.64488L95.0674 6.74088L94.069 6.68312ZM94.3326 10.1114L95.9166 10.3274L96.0517 9.33658L94.4677 9.12058L94.3326 10.1114ZM96.3654 10.1555L98.3814 7.77949L97.6189 7.13251L95.6029 9.50851L96.3654 10.1555ZM98.1061 6.96735L94.6741 6.22335L94.4623 7.20065L97.8943 7.94465L98.1061 6.96735ZM109.922 1.792L110.421 1.8243L110.452 1.34967L109.979 1.29528L109.922 1.792ZM109.226 12.544L108.727 12.5117L108.688 13.1124L109.286 13.0404L109.226 12.544ZM116.594 11.656L117.09 11.5958L117.03 11.0998L116.534 11.1596L116.594 11.656ZM117.266 17.2L117.325 17.6965L117.823 17.6374L117.762 17.1398L117.266 17.2ZM103.922 18.784L103.422 18.8029L103.443 19.3444L103.981 19.2805L103.922 18.784ZM103.25 1.024L103.307 0.52728L102.728 0.460649L102.75 1.04291L103.25 1.024ZM109.423 1.7597L108.727 12.5117L109.725 12.5763L110.421 1.8243L109.423 1.7597ZM109.286 13.0404L116.654 12.1524L116.534 11.1596L109.166 12.0476L109.286 13.0404ZM116.098 11.7162L116.77 17.2602L117.762 17.1398L117.09 11.5958L116.098 11.7162ZM117.207 16.7035L103.863 18.2875L103.981 19.2805L117.325 17.6965L117.207 16.7035ZM104.422 18.7651L103.75 1.00509L102.75 1.04291L103.422 18.8029L104.422 18.7651ZM103.193 1.52072L109.865 2.28872L109.979 1.29528L103.307 0.52728L103.193 1.52072ZM129.26 1.216L129.715 1.00756L129.566 0.682945L129.211 0.71848L129.26 1.216ZM136.844 17.752L136.923 18.2458L137.574 18.1424L137.299 17.5436L136.844 17.752ZM129.596 18.904L129.101 18.9712L129.17 19.4781L129.675 19.3978L129.596 18.904ZM129.02 14.656L129.516 14.5888L129.459 14.1667L129.033 14.1562L129.02 14.656ZM123.188 14.512L123.201 14.0122L122.816 14.0026L122.708 14.3723L123.188 14.512ZM121.868 19.048L121.78 19.5402L122.223 19.6193L122.348 19.1877L121.868 19.048ZM114.884 17.8L114.455 17.5444L114.086 18.1652L114.796 18.2922L114.884 17.8ZM124.46 1.696L124.411 1.19848L124.16 1.22359L124.031 1.44045L124.46 1.696ZM125.684 7.504L125.704 7.00438L125.352 6.99066L125.22 7.31752L125.684 7.504ZM124.7 9.952L124.236 9.76552L123.968 10.433L124.687 10.4518L124.7 9.952ZM128.372 10.048L128.359 10.5478L129.077 10.5666L128.846 9.88713L128.372 10.048ZM127.532 7.576L128.006 7.41513L127.895 7.08976L127.552 7.07638L127.532 7.576ZM128.806 1.42444L136.39 17.9604L137.299 17.5436L129.715 1.00756L128.806 1.42444ZM136.766 17.2582L129.518 18.4102L129.675 19.3978L136.923 18.2458L136.766 17.2582ZM130.092 18.8368L129.516 14.5888L128.525 14.7232L129.101 18.9712L130.092 18.8368ZM129.033 14.1562L123.201 14.0122L123.176 15.0118L129.008 15.1558L129.033 14.1562ZM122.708 14.3723L121.388 18.9083L122.348 19.1877L123.668 14.6517L122.708 14.3723ZM121.956 18.5558L114.972 17.3078L114.796 18.2922L121.78 19.5402L121.956 18.5558ZM115.314 18.0556L124.89 1.95155L124.031 1.44045L114.455 17.5444L115.314 18.0556ZM124.51 2.19352L129.31 1.71352L129.211 0.71848L124.411 1.19848L124.51 2.19352ZM125.22 7.31752L124.236 9.76552L125.164 10.1385L126.148 7.69048L125.22 7.31752ZM124.687 10.4518L128.359 10.5478L128.385 9.54817L124.713 9.45217L124.687 10.4518ZM128.846 9.88713L128.006 7.41513L127.059 7.73687L127.899 10.2089L128.846 9.88713ZM127.552 7.07638L125.704 7.00438L125.665 8.00362L127.513 8.07562L127.552 7.07638ZM137.438 1.408L137.803 1.06603L137.471 0.711746L137.107 1.03341L137.438 1.408ZM141.398 5.632L141.034 5.97397L141.431 6.39738L141.791 5.94215L141.398 5.632ZM145.118 0.927999L145.419 0.528657L145.029 0.23475L144.726 0.617853L145.118 0.927999ZM150.374 4.888L150.703 5.26517L151.168 4.86002L150.675 4.48866L150.374 4.888ZM144.638 9.88L144.31 9.50283L144.022 9.75341L144.188 10.0972L144.638 9.88ZM148.886 18.688L148.863 19.1875L149.701 19.2259L149.337 18.4708L148.886 18.688ZM139.478 18.256H138.978V18.7336L139.455 18.7555L139.478 18.256ZM139.478 10.6H139.978V10.3862L139.824 10.2386L139.478 10.6ZM133.502 4.888L133.171 4.51341L132.764 4.87366L133.157 5.24945L133.502 4.888ZM137.074 1.74997L141.034 5.97397L141.763 5.29003L137.803 1.06603L137.074 1.74997ZM141.791 5.94215L145.511 1.23815L144.726 0.617853L141.006 5.32185L141.791 5.94215ZM144.818 1.32734L150.074 5.28734L150.675 4.48866L145.419 0.528657L144.818 1.32734ZM150.046 4.51083L144.31 9.50283L144.967 10.2572L150.703 5.26517L150.046 4.51083ZM144.188 10.0972L148.436 18.9052L149.337 18.4708L145.089 9.6628L144.188 10.0972ZM148.909 18.1885L139.501 17.7565L139.455 18.7555L148.863 19.1875L148.909 18.1885ZM139.978 18.256V10.6H138.978V18.256H139.978ZM139.824 10.2386L133.848 4.52655L133.157 5.24945L139.133 10.9614L139.824 10.2386ZM133.834 5.26259L137.77 1.78258L137.107 1.03341L133.171 4.51341L133.834 5.26259ZM152.03 1.12V0.619998H151.622L151.541 1.0198L152.03 1.12ZM163.79 1.12L164.281 1.21715L164.399 0.619998H163.79V1.12ZM162.806 6.088L162.882 6.58221L163.229 6.52901L163.297 6.18515L162.806 6.088ZM157.022 6.976L156.947 6.48179L156.547 6.54313L156.523 6.94664L157.022 6.976ZM156.95 8.2L156.451 8.17064L156.422 8.66174L156.913 8.69859L156.95 8.2ZM162.062 8.584L162.561 8.61538L162.592 8.1224L162.1 8.0854L162.062 8.584ZM161.822 12.4L161.867 12.898L162.294 12.8598L162.321 12.4314L161.822 12.4ZM157.262 12.808L157.218 12.31L156.599 12.3654L156.785 12.9581L157.262 12.808ZM157.67 14.104L157.193 14.2541L157.303 14.6008L157.666 14.604L157.67 14.104ZM163.214 14.152L163.674 13.9556L163.546 13.6548L163.219 13.652L163.214 14.152ZM165.254 18.928V19.428H166.012L165.714 18.7316L165.254 18.928ZM152.03 18.928L151.534 18.9841L151.584 19.428H152.03V18.928ZM150.734 7.456L150.245 7.3558L150.229 7.43341L150.238 7.51213L150.734 7.456ZM152.03 1.62H163.79V0.619998H152.03V1.62ZM163.3 1.02285L162.316 5.99085L163.297 6.18515L164.281 1.21715L163.3 1.02285ZM162.731 5.59379L156.947 6.48179L157.098 7.47021L162.882 6.58221L162.731 5.59379ZM156.523 6.94664L156.451 8.17064L157.45 8.22936L157.522 7.00536L156.523 6.94664ZM156.913 8.69859L162.025 9.08259L162.1 8.0854L156.988 7.7014L156.913 8.69859ZM161.563 8.55262L161.323 12.3686L162.321 12.4314L162.561 8.61538L161.563 8.55262ZM161.778 11.902L157.218 12.31L157.307 13.306L161.867 12.898L161.778 11.902ZM156.785 12.9581L157.193 14.2541L158.147 13.9539L157.739 12.6579L156.785 12.9581ZM157.666 14.604L163.21 14.652L163.219 13.652L157.675 13.604L157.666 14.604ZM162.755 14.3484L164.795 19.1244L165.714 18.7316L163.674 13.9556L162.755 14.3484ZM165.254 18.428H152.03V19.428H165.254V18.428ZM152.527 18.8719L151.231 7.39987L150.238 7.51213L151.534 18.9841L152.527 18.8719ZM151.224 7.5562L152.52 1.2202L151.541 1.0198L150.245 7.3558L151.224 7.5562ZM174.452 1.264L174.747 0.860104L174.598 0.751287L174.414 0.765479L174.452 1.264ZM178.892 4.504L179.391 4.46762L179.374 4.23663L179.187 4.1001L178.892 4.504ZM179.3 10.096L179.672 10.4298L179.814 10.2716L179.799 10.0596L179.3 10.096ZM176.804 12.88L176.432 12.5462L176.095 12.9217L176.474 13.2552L176.804 12.88ZM181.244 16.792L181.443 17.2508L182.166 16.9377L181.575 16.4168L181.244 16.792ZM176.036 19.048L175.711 19.4281L175.949 19.6308L176.235 19.5068L176.036 19.048ZM170.588 14.392L170.913 14.0119L169.854 13.1069L170.096 14.4787L170.588 14.392ZM171.404 19.024V19.524H172L171.897 18.9373L171.404 19.024ZM165.884 19.024L165.386 19.0648L165.423 19.524H165.884V19.024ZM164.492 2.032L164.454 1.53348L163.953 1.5721L163.994 2.07282L164.492 2.032ZM170.588 6.232L170.824 5.79103L170.122 5.41601L170.089 6.21089L170.588 6.232ZM170.444 9.64L169.945 9.61889L169.925 10.0762L170.379 10.1358L170.444 9.64ZM171.908 9.832L171.843 10.3278L172.145 10.3674L172.319 10.1168L171.908 9.832ZM173.372 7.72L173.783 8.00485L174.103 7.54359L173.608 7.27903L173.372 7.72ZM174.157 1.66789L178.597 4.90789L179.187 4.1001L174.747 0.860104L174.157 1.66789ZM178.394 4.54038L178.802 10.1324L179.799 10.0596L179.391 4.46762L178.394 4.54038ZM178.928 9.76223L176.432 12.5462L177.176 13.2138L179.672 10.4298L178.928 9.76223ZM176.474 13.2552L180.914 17.1672L181.575 16.4168L177.135 12.5048L176.474 13.2552ZM181.045 16.3332L175.837 18.5892L176.235 19.5068L181.443 17.2508L181.045 16.3332ZM176.361 18.6679L170.913 14.0119L170.263 14.7721L175.711 19.4281L176.361 18.6679ZM170.096 14.4787L170.912 19.1107L171.897 18.9373L171.081 14.3053L170.096 14.4787ZM171.404 18.524H165.884V19.524H171.404V18.524ZM166.383 18.9832L164.991 1.99118L163.994 2.07282L165.386 19.0648L166.383 18.9832ZM164.531 2.53052L174.491 1.76252L174.414 0.765479L164.454 1.53348L164.531 2.53052ZM170.089 6.21089L169.945 9.61889L170.944 9.66111L171.088 6.25311L170.089 6.21089ZM170.379 10.1358L171.843 10.3278L171.973 9.33624L170.509 9.14424L170.379 10.1358ZM172.319 10.1168L173.783 8.00485L172.961 7.43515L171.497 9.54715L172.319 10.1168ZM173.608 7.27903L170.824 5.79103L170.352 6.67297L173.136 8.16097L173.608 7.27903Z" fill="black"/>
</svg>
