<svg width="182" height="20" viewBox="0 0 182 20" fill="none" xmlns="http://www.w3.org/2000/svg">
<path d="M17.6656 5.656L14.5696 9.472L10.9456 7.144L10.0336 8.296L16.5136 13.048L13.3696 18.976H5.66563L0.289625 14.704L2.61763 10.792L7.24963 13.408L7.94563 12.328L1.15363 8.296L7.58563 1.096H13.3696L17.6656 5.656ZM129.26 1.216L136.844 17.752L129.596 18.904L129.02 14.656L123.188 14.512L121.868 19.048L114.884 17.8L124.46 1.696L129.26 1.216ZM125.684 7.504L124.7 9.952L128.372 10.048L127.532 7.576L125.684 7.504ZM152.03 1.12H163.79L162.806 6.088L157.022 6.976L156.95 8.2L162.062 8.584L161.822 12.4L157.262 12.808L157.67 14.104L163.214 14.152L165.254 18.928H152.03L150.734 7.456L152.03 1.12Z" fill="#009CDA"/>
<path d="M17.87 1.264L22.526 0.975999L26.126 17.968L18.494 18.808L17.87 1.264ZM65.672 1.792L64.976 12.544L72.344 11.656L73.016 17.2L59.672 18.784L59 1.024L65.672 1.792ZM109.922 1.792L109.226 12.544L116.594 11.656L117.266 17.2L103.922 18.784L103.25 1.024L109.922 1.792ZM174.452 1.264L178.892 4.504L179.3 10.096L176.804 12.88L181.244 16.792L176.036 19.048L170.588 14.392L171.404 19.024H165.884L164.492 2.032L174.452 1.264ZM170.588 6.232L170.444 9.64L171.908 9.832L173.372 7.72L170.588 6.232Z" fill="#FCCF00"/>
<path d="M26.5156 18.688L29.7076 1.192H33.3316L36.7156 6.76L37.0036 1.192L42.5716 2.056L41.3956 18.904L36.7876 18.616L33.2356 13.192L32.2036 18.928L26.5156 18.688ZM75.5304 1.12H87.2904L86.3064 6.088L80.5224 6.976L80.4504 8.2L85.5624 8.584L85.3224 12.4L80.7624 12.808L81.1704 14.104L86.7144 14.152L88.7544 18.928H75.5304L74.2344 7.456L75.5304 1.12Z" fill="#E62310"/>
<path d="M58.0402 4.816L53.9362 7.12L52.2802 6.208L49.8322 6.952L48.3682 10.432L49.9042 13.672L54.3202 13.144L54.4162 12.352L51.0082 12.664L51.4402 7.84L58.5442 7.936V17.416L46.6162 18.952L42.9922 11.584L44.3122 4.816L49.4002 1.12L55.6402 1.552L58.0402 4.816ZM98.6002 1.24L102.824 4.144L103.16 11.248L98.8882 15.376L93.5842 15.712V19.096H87.9922L88.8802 1.24H98.6002ZM94.5682 6.712L94.4002 9.616L95.9842 9.832L98.0002 7.456L94.5682 6.712ZM137.438 1.408L141.398 5.632L145.118 0.927999L150.374 4.888L144.638 9.88L148.886 18.688L139.478 18.256V10.6L133.502 4.888L137.438 1.408Z" fill="#44AF35"/>
<path d="M17.6656 5.656L18.8305 6.60106L19.657 5.58229L18.7574 4.62741L17.6656 5.656ZM14.5696 9.472L13.7589 10.734L14.8886 11.4597L15.7345 10.4171L14.5696 9.472ZM10.9456 7.144L11.7563 5.88196L10.613 5.14751L9.76956 6.21294L10.9456 7.144ZM10.0336 8.296L8.85756 7.36495L7.89151 8.58522L9.14658 9.50561L10.0336 8.296ZM16.5136 13.048L17.8388 13.7508L18.4464 12.6052L17.4007 11.8384L16.5136 13.048ZM13.3696 18.976V20.476H14.272L14.6948 19.6788L13.3696 18.976ZM5.66563 18.976L4.73242 20.1504L5.14221 20.476H5.66563V18.976ZM0.289625 14.704L-0.999397 13.9369L-1.66956 15.0631L-0.643576 15.8784L0.289625 14.704ZM2.61763 10.792L3.35526 9.4859L2.07848 8.76482L1.3286 10.0249L2.61763 10.792ZM7.24963 13.408L6.51199 14.7141L7.74401 15.4099L8.51048 14.2206L7.24963 13.408ZM7.94563 12.328L9.20648 13.1406L10.0494 11.8325L8.71133 11.0382L7.94563 12.328ZM1.15363 8.296L0.0349831 7.29668L-1.17902 8.65564L0.387922 9.58584L1.15363 8.296ZM7.58563 1.096V-0.404001H6.91426L6.46698 0.0966788L7.58563 1.096ZM13.3696 1.096L14.4614 0.067414L14.0173 -0.404001H13.3696V1.096ZM16.5008 4.71094L13.4048 8.52694L15.7345 10.4171L18.8305 6.60106L16.5008 4.71094ZM15.3803 8.20996L11.7563 5.88196L10.1349 8.40604L13.7589 10.734L15.3803 8.20996ZM9.76956 6.21294L8.85756 7.36495L11.2097 9.22705L12.1217 8.07505L9.76956 6.21294ZM9.14658 9.50561L15.6266 14.2576L17.4007 11.8384L10.9207 7.08639L9.14658 9.50561ZM15.1885 12.3452L12.0445 18.2732L14.6948 19.6788L17.8388 13.7508L15.1885 12.3452ZM13.3696 17.476H5.66563V20.476H13.3696V17.476ZM6.59883 17.8016L1.22283 13.5296L-0.643576 15.8784L4.73242 20.1504L6.59883 17.8016ZM1.57865 15.4711L3.90665 11.5591L1.3286 10.0249L-0.999397 13.9369L1.57865 15.4711ZM1.87999 12.0981L6.51199 14.7141L7.98727 12.1019L3.35526 9.4859L1.87999 12.0981ZM8.51048 14.2206L9.20648 13.1406L6.68477 11.5154L5.98877 12.5954L8.51048 14.2206ZM8.71133 11.0382L1.91933 7.00616L0.387922 9.58584L7.17992 13.6178L8.71133 11.0382ZM2.27227 9.29532L8.70427 2.09532L6.46698 0.0966788L0.0349831 7.29668L2.27227 9.29532ZM7.58563 2.596H13.3696V-0.404001H7.58563V2.596ZM12.2778 2.12458L16.5738 6.68458L18.7574 4.62741L14.4614 0.067414L12.2778 2.12458ZM17.87 1.264L17.7774 -0.233139L16.319 -0.14293L16.3709 1.31732L17.87 1.264ZM22.526 0.975999L23.9934 0.665103L23.7252 -0.601044L22.4334 -0.52114L22.526 0.975999ZM26.126 17.968L26.2901 19.459L27.9368 19.2778L27.5934 17.6571L26.126 17.968ZM18.494 18.808L16.9949 18.8613L17.0524 20.4757L18.6581 20.299L18.494 18.808ZM17.9626 2.76114L22.6186 2.47314L22.4334 -0.52114L17.7774 -0.233139L17.9626 2.76114ZM21.0586 1.28689L24.6586 18.2789L27.5934 17.6571L23.9934 0.665103L21.0586 1.28689ZM25.9619 16.477L18.3299 17.317L18.6581 20.299L26.2901 19.459L25.9619 16.477ZM19.9931 18.7547L19.3691 1.21068L16.3709 1.31732L16.9949 18.8613L19.9931 18.7547ZM26.5156 18.688L25.04 18.4188L24.7307 20.114L26.4524 20.1867L26.5156 18.688ZM29.7076 1.192V-0.308001H28.4565L28.232 0.92278L29.7076 1.192ZM33.3316 1.192L34.6135 0.412955L34.1753 -0.308001H33.3316V1.192ZM36.7156 6.76L35.4338 7.53904L37.9622 11.6992L38.2136 6.83748L36.7156 6.76ZM37.0036 1.192L37.2336 -0.290262L35.5915 -0.54508L35.5056 1.11452L37.0036 1.192ZM42.5716 2.056L44.068 2.16045L44.164 0.785138L42.8016 0.573738L42.5716 2.056ZM41.3956 18.904L41.3021 20.4011L42.7883 20.494L42.892 19.0084L41.3956 18.904ZM36.7876 18.616L35.5328 19.4378L35.9443 20.0662L36.6941 20.1131L36.7876 18.616ZM33.2356 13.192L34.4905 12.3702L32.4265 9.21839L31.7593 12.9264L33.2356 13.192ZM32.2036 18.928L32.1404 20.4267L33.4481 20.4818L33.6799 19.1936L32.2036 18.928ZM27.9913 18.9572L31.1833 1.46122L28.232 0.92278L25.04 18.4188L27.9913 18.9572ZM29.7076 2.692H33.3316V-0.308001H29.7076V2.692ZM32.0498 1.97104L35.4338 7.53904L37.9975 5.98095L34.6135 0.412955L32.0498 1.97104ZM38.2136 6.83748L38.5016 1.26948L35.5056 1.11452L35.2176 6.68252L38.2136 6.83748ZM36.7736 2.67426L42.3416 3.53826L42.8016 0.573738L37.2336 -0.290262L36.7736 2.67426ZM41.0753 1.95155L39.8993 18.7996L42.892 19.0084L44.068 2.16045L41.0753 1.95155ZM41.4892 17.4069L36.8812 17.1189L36.6941 20.1131L41.3021 20.4011L41.4892 17.4069ZM38.0425 17.7942L34.4905 12.3702L31.9808 14.0138L35.5328 19.4378L38.0425 17.7942ZM31.7593 12.9264L30.7273 18.6624L33.6799 19.1936L34.7119 13.4576L31.7593 12.9264ZM32.2669 17.4293L26.5789 17.1893L26.4524 20.1867L32.1404 20.4267L32.2669 17.4293ZM58.0402 4.816L58.7745 6.12398L60.2533 5.29375L59.2487 3.92741L58.0402 4.816ZM53.9362 7.12L53.2126 8.43392L53.9432 8.83629L54.6705 8.42797L53.9362 7.12ZM52.2802 6.208L53.0038 4.89408L52.4495 4.5888L51.844 4.77282L52.2802 6.208ZM49.8322 6.952L49.396 5.51682L48.7225 5.72151L48.4496 6.37034L49.8322 6.952ZM48.3682 10.432L46.9856 9.85034L46.7255 10.4685L47.0128 11.0746L48.3682 10.432ZM49.9042 13.672L48.5488 14.3146L49.011 15.2895L50.0823 15.1614L49.9042 13.672ZM54.3202 13.144L54.4983 14.6334L55.6676 14.4936L55.8093 13.3245L54.3202 13.144ZM54.4162 12.352L55.9053 12.5325L56.1287 10.6889L54.2794 10.8582L54.4162 12.352ZM51.0082 12.664L49.5142 12.5302L49.3537 14.3217L51.1449 14.1578L51.0082 12.664ZM51.4402 7.84L51.4605 6.34014L50.0702 6.32135L49.9462 7.70621L51.4402 7.84ZM58.5442 7.936H60.0442V6.45613L58.5645 6.43614L58.5442 7.936ZM58.5442 17.416L58.7358 18.9037L60.0442 18.7352V17.416H58.5442ZM46.6162 18.952L45.2702 19.614L45.7437 20.5767L46.8078 20.4397L46.6162 18.952ZM42.9922 11.584L41.5199 11.2969L41.4232 11.7927L41.6462 12.246L42.9922 11.584ZM44.3122 4.816L43.4306 3.6024L42.9529 3.94938L42.8399 4.52886L44.3122 4.816ZM49.4002 1.12L49.5038 -0.37642L48.9598 -0.414081L48.5186 -0.0936005L49.4002 1.12ZM55.6402 1.552L56.8487 0.663413L56.437 0.103573L55.7438 0.0555804L55.6402 1.552ZM57.3059 3.50802L53.2019 5.81202L54.6705 8.42797L58.7745 6.12398L57.3059 3.50802ZM54.6598 5.80608L53.0038 4.89408L51.5566 7.52192L53.2126 8.43392L54.6598 5.80608ZM51.844 4.77282L49.396 5.51682L50.2684 8.38718L52.7164 7.64318L51.844 4.77282ZM48.4496 6.37034L46.9856 9.85034L49.7508 11.0137L51.2148 7.53366L48.4496 6.37034ZM47.0128 11.0746L48.5488 14.3146L51.2596 13.0294L49.7236 9.78944L47.0128 11.0746ZM50.0823 15.1614L54.4983 14.6334L54.1421 11.6546L49.7261 12.1826L50.0823 15.1614ZM55.8093 13.3245L55.9053 12.5325L52.9271 12.1715L52.8311 12.9635L55.8093 13.3245ZM54.2794 10.8582L50.8714 11.1702L51.1449 14.1578L54.5529 13.8458L54.2794 10.8582ZM52.5022 12.7978L52.9342 7.97379L49.9462 7.70621L49.5142 12.5302L52.5022 12.7978ZM51.4199 9.33986L58.5239 9.43586L58.5645 6.43614L51.4605 6.34014L51.4199 9.33986ZM57.0442 7.936V17.416H60.0442V7.936H57.0442ZM58.3526 15.9283L46.4246 17.4643L46.8078 20.4397L58.7358 18.9037L58.3526 15.9283ZM47.9622 18.29L44.3382 10.922L41.6462 12.246L45.2702 19.614L47.9622 18.29ZM44.4644 11.8711L45.7844 5.10314L42.8399 4.52886L41.5199 11.2969L44.4644 11.8711ZM45.1938 6.0296L50.2818 2.3336L48.5186 -0.0936005L43.4306 3.6024L45.1938 6.0296ZM49.2966 2.61642L55.5366 3.04842L55.7438 0.0555804L49.5038 -0.37642L49.2966 2.61642ZM54.4317 2.44058L56.8317 5.70459L59.2487 3.92741L56.8487 0.663413L54.4317 2.44058ZM65.672 1.792L67.1689 1.8889L67.261 0.465006L65.8435 0.30184L65.672 1.792ZM64.976 12.544L63.4791 12.4471L63.3625 14.2493L65.1555 14.0332L64.976 12.544ZM72.344 11.656L73.8331 11.4755L73.6527 9.98742L72.1645 10.1668L72.344 11.656ZM73.016 17.2L73.1928 18.6895L74.686 18.5123L74.5051 17.0195L73.016 17.2ZM59.672 18.784L58.1731 18.8407L58.2345 20.4652L59.8488 20.2735L59.672 18.784ZM59 1.024L59.1715 -0.466161L57.435 -0.666051L57.5011 1.08072L59 1.024ZM64.1751 1.6951L63.4791 12.4471L66.4729 12.6409L67.1689 1.8889L64.1751 1.6951ZM65.1555 14.0332L72.5235 13.1452L72.1645 10.1668L64.7965 11.0548L65.1555 14.0332ZM70.8549 11.8365L71.5269 17.3805L74.5051 17.0195L73.8331 11.4755L70.8549 11.8365ZM72.8392 15.7105L59.4952 17.2945L59.8488 20.2735L73.1928 18.6895L72.8392 15.7105ZM61.1709 18.7273L60.4989 0.967284L57.5011 1.08072L58.1731 18.8407L61.1709 18.7273ZM58.8285 2.51416L65.5005 3.28216L65.8435 0.30184L59.1715 -0.466161L58.8285 2.51416ZM75.5304 1.12V-0.380002H74.3061L74.0608 0.819404L75.5304 1.12ZM87.2904 1.12L88.7618 1.41144L89.1166 -0.380002H87.2904V1.12ZM86.3064 6.088L86.534 7.57063L87.5735 7.41104L87.7778 6.37944L86.3064 6.088ZM80.5224 6.976L80.2948 5.49337L79.0962 5.67738L79.025 6.88792L80.5224 6.976ZM80.4504 8.2L78.953 8.11192L78.8663 9.58523L80.338 9.69579L80.4504 8.2ZM85.5624 8.584L87.0594 8.67815L87.1524 7.19921L85.6747 7.08821L85.5624 8.584ZM85.3224 12.4L85.4561 13.894L86.7386 13.7793L86.8194 12.4942L85.3224 12.4ZM80.7624 12.808L80.6287 11.314L78.7718 11.4801L79.3316 13.2584L80.7624 12.808ZM81.1704 14.104L79.7396 14.5544L80.067 15.5945L81.1574 15.6039L81.1704 14.104ZM86.7144 14.152L88.0938 13.5628L87.7084 12.6606L86.7274 12.6521L86.7144 14.152ZM88.7544 18.928V20.428H91.0262L90.1338 18.3388L88.7544 18.928ZM75.5304 18.928L74.0399 19.0964L74.1903 20.428H75.5304V18.928ZM74.2344 7.456L72.7648 7.1554L72.7172 7.38824L72.7439 7.62438L74.2344 7.456ZM75.5304 2.62H87.2904V-0.380002H75.5304V2.62ZM85.819 0.828559L84.835 5.79656L87.7778 6.37944L88.7618 1.41144L85.819 0.828559ZM86.0788 4.60537L80.2948 5.49337L80.75 8.45863L86.534 7.57063L86.0788 4.60537ZM79.025 6.88792L78.953 8.11192L81.9478 8.28808L82.0198 7.06408L79.025 6.88792ZM80.338 9.69579L85.45 10.0798L85.6747 7.08821L80.5627 6.70421L80.338 9.69579ZM84.0653 8.48985L83.8253 12.3058L86.8194 12.4942L87.0594 8.67815L84.0653 8.48985ZM85.1887 10.906L80.6287 11.314L80.8961 14.302L85.4561 13.894L85.1887 10.906ZM79.3316 13.2584L79.7396 14.5544L82.6011 13.6536L82.1931 12.3576L79.3316 13.2584ZM81.1574 15.6039L86.7014 15.6519L86.7274 12.6521L81.1834 12.6041L81.1574 15.6039ZM85.3349 14.7412L87.3749 19.5172L90.1338 18.3388L88.0938 13.5628L85.3349 14.7412ZM88.7544 17.428H75.5304V20.428H88.7544V17.428ZM77.0209 18.7596L75.7249 7.28761L72.7439 7.62438L74.0399 19.0964L77.0209 18.7596ZM75.7039 7.75659L76.9999 1.42059L74.0608 0.819404L72.7648 7.1554L75.7039 7.75659ZM98.6002 1.24L99.45 0.00393686L99.0661 -0.26H98.6002V1.24ZM102.824 4.144L104.323 4.07313L104.287 3.32963L103.674 2.90794L102.824 4.144ZM103.16 11.248L104.203 12.3267L104.691 11.8551L104.659 11.1771L103.16 11.248ZM98.8882 15.376L98.983 16.873L99.5337 16.8381L99.9305 16.4547L98.8882 15.376ZM93.5842 15.712L93.4894 14.215L92.0842 14.304V15.712H93.5842ZM93.5842 19.096V20.596H95.0842V19.096H93.5842ZM87.9922 19.096L86.494 19.0215L86.4157 20.596H87.9922V19.096ZM88.8802 1.24V-0.26H87.4529L87.382 1.1655L88.8802 1.24ZM94.5682 6.712L94.886 5.24605L93.172 4.87448L93.0707 6.62537L94.5682 6.712ZM94.4002 9.616L92.9027 9.52937L92.8225 10.9147L94.1975 11.1022L94.4002 9.616ZM95.9842 9.832L95.7815 11.3182L96.5961 11.4293L97.128 10.8025L95.9842 9.832ZM98.0002 7.456L99.144 8.42647L100.762 6.51981L98.318 5.99005L98.0002 7.456ZM97.7504 2.47606L101.974 5.38006L103.674 2.90794L99.45 0.00393686L97.7504 2.47606ZM101.326 4.21487L101.662 11.3189L104.659 11.1771L104.323 4.07313L101.326 4.21487ZM102.118 10.1693L97.8459 14.2973L99.9305 16.4547L104.203 12.3267L102.118 10.1693ZM98.7934 13.879L93.4894 14.215L93.679 17.209L98.983 16.873L98.7934 13.879ZM92.0842 15.712V19.096H95.0842V15.712H92.0842ZM93.5842 17.596H87.9922V20.596H93.5842V17.596ZM89.4903 19.1705L90.3783 1.3145L87.382 1.1655L86.494 19.0215L89.4903 19.1705ZM88.8802 2.74H98.6002V-0.26H88.8802V2.74ZM93.0707 6.62537L92.9027 9.52937L95.8977 9.70263L96.0657 6.79863L93.0707 6.62537ZM94.1975 11.1022L95.7815 11.3182L96.1869 8.34575L94.6029 8.12975L94.1975 11.1022ZM97.128 10.8025L99.144 8.42647L96.8564 6.48553L94.8404 8.86153L97.128 10.8025ZM98.318 5.99005L94.886 5.24605L94.2504 8.17795L97.6824 8.92195L98.318 5.99005ZM109.922 1.792L111.419 1.8889L111.511 0.465006L110.094 0.30184L109.922 1.792ZM109.226 12.544L107.729 12.4471L107.612 14.2493L109.405 14.0332L109.226 12.544ZM116.594 11.656L118.083 11.4755L117.903 9.98742L116.415 10.1668L116.594 11.656ZM117.266 17.2L117.443 18.6895L118.936 18.5123L118.755 17.0195L117.266 17.2ZM103.922 18.784L102.423 18.8407L102.485 20.4652L104.099 20.2735L103.922 18.784ZM103.25 1.024L103.422 -0.466161L101.685 -0.666051L101.751 1.08072L103.25 1.024ZM108.425 1.6951L107.729 12.4471L110.723 12.6409L111.419 1.8889L108.425 1.6951ZM109.405 14.0332L116.773 13.1452L116.415 10.1668L109.047 11.0548L109.405 14.0332ZM115.105 11.8365L115.777 17.3805L118.755 17.0195L118.083 11.4755L115.105 11.8365ZM117.089 15.7105L103.745 17.2945L104.099 20.2735L117.443 18.6895L117.089 15.7105ZM105.421 18.7273L104.749 0.967284L101.751 1.08072L102.423 18.8407L105.421 18.7273ZM103.078 2.51416L109.75 3.28216L110.094 0.30184L103.422 -0.466161L103.078 2.51416ZM129.26 1.216L130.624 0.590676L130.177 -0.383163L129.111 -0.276557L129.26 1.216ZM136.844 17.752L137.08 19.2334L139.032 18.9232L138.208 17.1267L136.844 17.752ZM129.596 18.904L128.11 19.1055L128.316 20.6263L129.832 20.3854L129.596 18.904ZM129.02 14.656L130.507 14.4545L130.335 13.188L129.057 13.1565L129.02 14.656ZM123.188 14.512L123.225 13.0125L122.071 12.9839L121.748 14.0929L123.188 14.512ZM121.868 19.048L121.605 20.5246L122.932 20.7618L123.309 19.4671L121.868 19.048ZM114.884 17.8L113.595 17.0333L112.488 18.8955L114.621 19.2766L114.884 17.8ZM124.46 1.696L124.311 0.203444L123.558 0.27876L123.171 0.929348L124.46 1.696ZM125.684 7.504L125.743 6.00514L124.687 5.96399L124.293 6.94456L125.684 7.504ZM124.7 9.952L123.309 9.39256L122.504 11.3951L124.661 11.4515L124.7 9.952ZM128.372 10.048L128.333 11.5475L130.485 11.6038L129.793 9.56539L128.372 10.048ZM127.532 7.576L128.953 7.09339L128.621 6.11727L127.591 6.07714L127.532 7.576ZM127.897 1.84132L135.481 18.3773L138.208 17.1267L130.624 0.590676L127.897 1.84132ZM136.609 16.2706L129.361 17.4226L129.832 20.3854L137.08 19.2334L136.609 16.2706ZM131.083 18.7025L130.507 14.4545L127.534 14.8575L128.11 19.1055L131.083 18.7025ZM129.057 13.1565L123.225 13.0125L123.151 16.0115L128.983 16.1555L129.057 13.1565ZM121.748 14.0929L120.428 18.6289L123.309 19.4671L124.629 14.9311L121.748 14.0929ZM122.132 17.5714L115.148 16.3234L114.621 19.2766L121.605 20.5246L122.132 17.5714ZM116.174 18.5667L125.75 2.46265L123.171 0.929348L113.595 17.0333L116.174 18.5667ZM124.61 3.18856L129.41 2.70855L129.111 -0.276557L124.311 0.203444L124.61 3.18856ZM124.293 6.94456L123.309 9.39256L126.092 10.5114L127.076 8.06344L124.293 6.94456ZM124.661 11.4515L128.333 11.5475L128.412 8.54851L124.74 8.45251L124.661 11.4515ZM129.793 9.56539L128.953 7.09339L126.112 8.05861L126.952 10.5306L129.793 9.56539ZM127.591 6.07714L125.743 6.00514L125.626 9.00286L127.474 9.07486L127.591 6.07714ZM137.438 1.408L138.533 0.382087L137.536 -0.68076L136.445 0.284243L137.438 1.408ZM141.398 5.632L140.304 6.65791L141.495 7.92814L142.575 6.56244L141.398 5.632ZM145.118 0.927999L146.021 -0.270028L144.851 -1.15175L143.942 -0.00243989L145.118 0.927999ZM150.374 4.888L151.359 6.0195L152.756 4.80406L151.277 3.68997L150.374 4.888ZM144.638 9.88L143.654 8.7485L142.79 9.50023L143.287 10.5316L144.638 9.88ZM148.886 18.688L148.818 20.1864L151.33 20.3018L150.237 18.0364L148.886 18.688ZM139.478 18.256H137.978V19.6887L139.41 19.7544L139.478 18.256ZM139.478 10.6H140.978V9.95874L140.515 9.51566L139.478 10.6ZM133.502 4.888L132.509 3.76424L131.286 4.84498L132.466 5.97234L133.502 4.888ZM136.344 2.43391L140.304 6.65791L142.493 4.60609L138.533 0.382087L136.344 2.43391ZM142.575 6.56244L146.295 1.85844L143.942 -0.00243989L140.222 4.70156L142.575 6.56244ZM144.216 2.12603L149.472 6.08603L151.277 3.68997L146.021 -0.270028L144.216 2.12603ZM149.39 3.7565L143.654 8.7485L145.623 11.0115L151.359 6.0195L149.39 3.7565ZM143.287 10.5316L147.535 19.3396L150.237 18.0364L145.989 9.22839L143.287 10.5316ZM148.955 17.1896L139.547 16.7576L139.41 19.7544L148.818 20.1864L148.955 17.1896ZM140.978 18.256V10.6H137.978V18.256H140.978ZM140.515 9.51566L134.539 3.80366L132.466 5.97234L138.442 11.6843L140.515 9.51566ZM134.496 6.01176L138.432 2.53176L136.445 0.284243L132.509 3.76424L134.496 6.01176ZM152.03 1.12V-0.380002H150.806L150.561 0.819404L152.03 1.12ZM163.79 1.12L165.262 1.41144L165.617 -0.380002H163.79V1.12ZM162.806 6.088L163.034 7.57063L164.073 7.41104L164.278 6.37944L162.806 6.088ZM157.022 6.976L156.795 5.49337L155.596 5.67738L155.525 6.88792L157.022 6.976ZM156.95 8.2L155.453 8.11192L155.366 9.58523L156.838 9.69579L156.95 8.2ZM162.062 8.584L163.559 8.67815L163.652 7.19921L162.175 7.08821L162.062 8.584ZM161.822 12.4L161.956 13.894L163.239 13.7793L163.319 12.4942L161.822 12.4ZM157.262 12.808L157.129 11.314L155.272 11.4801L155.832 13.2584L157.262 12.808ZM157.67 14.104L156.24 14.5544L156.567 15.5945L157.657 15.6039L157.67 14.104ZM163.214 14.152L164.594 13.5628L164.208 12.6606L163.227 12.6521L163.214 14.152ZM165.254 18.928V20.428H167.526L166.634 18.3388L165.254 18.928ZM152.03 18.928L150.54 19.0964L150.69 20.428H152.03V18.928ZM150.734 7.456L149.265 7.1554L149.217 7.38824L149.244 7.62438L150.734 7.456ZM152.03 2.62H163.79V-0.380002H152.03V2.62ZM162.319 0.828559L161.335 5.79656L164.278 6.37944L165.262 1.41144L162.319 0.828559ZM162.579 4.60537L156.795 5.49337L157.25 8.45863L163.034 7.57063L162.579 4.60537ZM155.525 6.88792L155.453 8.11192L158.448 8.28808L158.52 7.06408L155.525 6.88792ZM156.838 9.69579L161.95 10.0798L162.175 7.08821L157.063 6.70421L156.838 9.69579ZM160.565 8.48985L160.325 12.3058L163.319 12.4942L163.559 8.67815L160.565 8.48985ZM161.689 10.906L157.129 11.314L157.396 14.302L161.956 13.894L161.689 10.906ZM155.832 13.2584L156.24 14.5544L159.101 13.6536L158.693 12.3576L155.832 13.2584ZM157.657 15.6039L163.201 15.6519L163.227 12.6521L157.683 12.6041L157.657 15.6039ZM161.835 14.7412L163.875 19.5172L166.634 18.3388L164.594 13.5628L161.835 14.7412ZM165.254 17.428H152.03V20.428H165.254V17.428ZM153.521 18.7596L152.225 7.28761L149.244 7.62438L150.54 19.0964L153.521 18.7596ZM152.204 7.75659L153.5 1.42059L150.561 0.819404L149.265 7.1554L152.204 7.75659ZM174.452 1.264L175.336 0.052313L174.889 -0.274138L174.337 -0.231561L174.452 1.264ZM178.892 4.504L180.388 4.39485L180.338 3.70188L179.776 3.29231L178.892 4.504ZM179.3 10.096L180.417 11.0973L180.843 10.6227L180.796 9.98685L179.3 10.096ZM176.804 12.88L175.687 11.8787L174.677 13.0052L175.813 14.0055L176.804 12.88ZM181.244 16.792L181.84 18.1684L184.009 17.229L182.236 15.6665L181.244 16.792ZM176.036 19.048L175.062 20.1883L175.773 20.7965L176.632 20.4244L176.036 19.048ZM170.588 14.392L171.563 13.2517L168.386 10.5367L169.111 14.6522L170.588 14.392ZM171.404 19.024V20.524H173.192L172.881 18.7638L171.404 19.024ZM165.884 19.024L164.389 19.1465L164.502 20.524H165.884V19.024ZM164.492 2.032L164.377 0.536439L162.874 0.652312L162.997 2.15447L164.492 2.032ZM170.588 6.232L171.295 4.9091L169.19 3.78403L169.09 6.16868L170.588 6.232ZM170.444 9.64L168.946 9.57668L168.888 10.9487L170.249 11.1273L170.444 9.64ZM171.908 9.832L171.713 11.3193L172.62 11.4382L173.141 10.6865L171.908 9.832ZM173.372 7.72L174.605 8.57454L175.564 7.19077L174.079 6.3971L173.372 7.72ZM173.568 2.47569L178.008 5.71569L179.776 3.29231L175.336 0.052313L173.568 2.47569ZM177.396 4.61315L177.804 10.2052L180.796 9.98685L180.388 4.39485L177.396 4.61315ZM178.183 9.09468L175.687 11.8787L177.921 13.8813L180.417 11.0973L178.183 9.09468ZM175.813 14.0055L180.253 17.9175L182.236 15.6665L177.796 11.7545L175.813 14.0055ZM180.648 15.4156L175.44 17.6716L176.632 20.4244L181.84 18.1684L180.648 15.4156ZM177.011 17.9077L171.563 13.2517L169.614 15.5323L175.062 20.1883L177.011 17.9077ZM169.111 14.6522L169.927 19.2842L172.881 18.7638L172.065 14.1318L169.111 14.6522ZM171.404 17.524H165.884V20.524H171.404V17.524ZM167.379 18.9015L165.987 1.90953L162.997 2.15447L164.389 19.1465L167.379 18.9015ZM164.608 3.52756L174.568 2.75956L174.337 -0.231561L164.377 0.536439L164.608 3.52756ZM169.09 6.16868L168.946 9.57668L171.943 9.70332L172.087 6.29532L169.09 6.16868ZM170.249 11.1273L171.713 11.3193L172.103 8.34473L170.639 8.15274L170.249 11.1273ZM173.141 10.6865L174.605 8.57454L172.139 6.86546L170.675 8.97746L173.141 10.6865ZM174.079 6.3971L171.295 4.9091L169.881 7.5549L172.665 9.0429L174.079 6.3971Z" fill="black"/>
</svg>
