<svg width="156" height="19" viewBox="0 0 156 19" fill="none" xmlns="http://www.w3.org/2000/svg">
<path d="M18.2906 4.656L15.1946 8.472L11.5706 6.144L10.6586 7.296L17.1386 12.048L13.9946 17.976H6.29063L0.914625 13.704L3.24263 9.792L7.87463 12.408L8.57063 11.328L1.77863 7.296L8.21063 0.0959988H13.9946L18.2906 4.656ZM129.063 0.792L128.367 11.544L135.735 10.656L136.407 16.2L123.063 17.784L122.391 0.0239997L129.063 0.792Z" fill="#009CDA"/>
<path d="M28.983 0.24L33.207 3.144L33.543 10.248L29.271 14.376L23.967 14.712V18.096H18.375L19.263 0.24H28.983ZM24.951 5.712L24.783 8.616L26.367 8.832L28.383 6.456L24.951 5.712ZM72.585 0.263999L77.025 3.504L77.433 9.096L74.937 11.88L79.377 15.792L74.169 18.048L68.721 13.392L69.537 18.024H64.017L62.625 1.032L72.585 0.263999ZM68.721 5.232L68.577 8.64L70.041 8.832L71.505 6.72L68.721 5.232ZM109.929 0.119998H121.689L120.705 5.088L114.921 5.976L114.849 7.2L119.961 7.584L119.721 11.4L115.161 11.808L115.569 13.104L121.113 13.152L123.153 17.928H109.929L108.633 6.456L109.929 0.119998Z" fill="#FCCF00"/>
<path d="M34.9288 0.119998H46.6888L45.7048 5.088L39.9208 5.976L39.8488 7.2L44.9608 7.584L44.7208 11.4L40.1608 11.808L40.5688 13.104L46.1128 13.152L48.1528 17.928H34.9288L33.6328 6.456L34.9288 0.119998ZM80.1632 0.119998H91.9232L90.9392 5.088L85.1552 5.976L85.0832 7.2L90.1952 7.584L89.9552 11.4L85.3952 11.808L85.8032 13.104L91.3472 13.152L93.3872 17.928H80.1632L78.8672 6.456L80.1632 0.119998Z" fill="#E62310"/>
<path d="M54.0626 0.792L53.3666 11.544L60.7346 10.656L61.4066 16.2L48.0626 17.784L47.3906 0.0239997L54.0626 0.792ZM107.673 3.816L103.569 6.12L101.913 5.208L99.465 5.952L98.001 9.432L99.537 12.672L103.953 12.144L104.049 11.352L100.641 11.664L101.073 6.84L108.177 6.936V16.416L96.249 17.952L92.625 10.584L93.945 3.816L99.033 0.119998L105.273 0.551999L107.673 3.816ZM155.025 4.656L151.929 8.472L148.305 6.144L147.393 7.296L153.873 12.048L150.729 17.976H143.025L137.649 13.704L139.977 9.792L144.609 12.408L145.305 11.328L138.513 7.296L144.945 0.0959988H150.729L155.025 4.656Z" fill="#44AF35"/>
<path d="M18.2906 4.656L18.6789 4.97102L18.9544 4.63143L18.6546 4.31314L18.2906 4.656ZM15.1946 8.472L14.9244 8.89268L15.3009 9.13457L15.5829 8.78702L15.1946 8.472ZM11.5706 6.144L11.8409 5.72332L11.4598 5.4785L11.1786 5.83365L11.5706 6.144ZM10.6586 7.296L10.2666 6.98565L9.94459 7.39241L10.3629 7.6992L10.6586 7.296ZM17.1386 12.048L17.5803 12.2823L17.7829 11.9004L17.4343 11.6448L17.1386 12.048ZM13.9946 17.976V18.476H14.2954L14.4363 18.2103L13.9946 17.976ZM6.29063 17.976L5.97956 18.3675L6.11615 18.476H6.29063V17.976ZM0.914625 13.704L0.484951 13.4483L0.261562 13.8237L0.603558 14.0955L0.914625 13.704ZM3.24263 9.792L3.48851 9.35663L3.06291 9.11627L2.81295 9.5363L3.24263 9.792ZM7.87463 12.408L7.62875 12.8434L8.03942 13.0753L8.29491 12.6789L7.87463 12.408ZM8.57063 11.328L8.99091 11.5989L9.2719 11.1628L8.82586 10.8981L8.57063 11.328ZM1.77863 7.296L1.40574 6.96289L1.00108 7.41588L1.52339 7.72595L1.77863 7.296ZM8.21063 0.0959988V-0.404001H7.98684L7.83774 -0.237108L8.21063 0.0959988ZM13.9946 0.0959988L14.3586 -0.246863L14.2105 -0.404001H13.9946V0.0959988ZM17.9023 4.34098L14.8063 8.15698L15.5829 8.78702L18.6789 4.97102L17.9023 4.34098ZM15.4649 8.05132L11.8409 5.72332L11.3004 6.56468L14.9244 8.89268L15.4649 8.05132ZM11.1786 5.83365L10.2666 6.98565L11.0506 7.60635L11.9626 6.45435L11.1786 5.83365ZM10.3629 7.6992L16.8429 12.4512L17.4343 11.6448L10.9543 6.8928L10.3629 7.6992ZM16.6969 11.8137L13.5529 17.7417L14.4363 18.2103L17.5803 12.2823L16.6969 11.8137ZM13.9946 17.476H6.29063V18.476H13.9946V17.476ZM6.60169 17.5845L1.22569 13.3125L0.603558 14.0955L5.97956 18.3675L6.60169 17.5845ZM1.3443 13.9597L3.6723 10.0477L2.81295 9.5363L0.484951 13.4483L1.3443 13.9597ZM2.99675 10.2274L7.62875 12.8434L8.12051 11.9726L3.48851 9.35663L2.99675 10.2274ZM8.29491 12.6789L8.99091 11.5989L8.15034 11.0571L7.45434 12.1371L8.29491 12.6789ZM8.82586 10.8981L2.03386 6.86605L1.52339 7.72595L8.31539 11.7579L8.82586 10.8981ZM2.15151 7.62911L8.58351 0.429105L7.83774 -0.237108L1.40574 6.96289L2.15151 7.62911ZM8.21063 0.595999H13.9946V-0.404001H8.21063V0.595999ZM13.6307 0.43886L17.9267 4.99886L18.6546 4.31314L14.3586 -0.246863L13.6307 0.43886ZM28.983 0.24L29.2663 -0.172021L29.1383 -0.26H28.983V0.24ZM33.207 3.144L33.7064 3.12038L33.6947 2.87254L33.4903 2.73198L33.207 3.144ZM33.543 10.248L33.8904 10.6076L34.0531 10.4504L34.0424 10.2244L33.543 10.248ZM29.271 14.376L29.3026 14.875L29.4862 14.8634L29.6184 14.7356L29.271 14.376ZM23.967 14.712L23.9354 14.213L23.467 14.2427V14.712H23.967ZM23.967 18.096V18.596H24.467V18.096H23.967ZM18.375 18.096L17.8756 18.0712L17.8495 18.596H18.375V18.096ZM19.263 0.24V-0.26H18.7872L18.7636 0.215165L19.263 0.24ZM24.951 5.712L25.0569 5.22335L24.4856 5.09949L24.4518 5.68312L24.951 5.712ZM24.783 8.616L24.2838 8.58712L24.2571 9.04892L24.7154 9.11141L24.783 8.616ZM26.367 8.832L26.2994 9.32741L26.571 9.36444L26.7483 9.15549L26.367 8.832ZM28.383 6.456L28.7643 6.77949L29.3035 6.14394L28.4889 5.96735L28.383 6.456ZM28.6997 0.652021L32.9237 3.55602L33.4903 2.73198L29.2663 -0.172021L28.6997 0.652021ZM32.7076 3.16762L33.0436 10.2716L34.0424 10.2244L33.7064 3.12038L32.7076 3.16762ZM33.1956 9.88844L28.9236 14.0164L29.6184 14.7356L33.8904 10.6076L33.1956 9.88844ZM29.2394 13.877L23.9354 14.213L23.9986 15.211L29.3026 14.875L29.2394 13.877ZM23.467 14.712V18.096H24.467V14.712H23.467ZM23.967 17.596H18.375V18.596H23.967V17.596ZM18.8744 18.1208L19.7624 0.264835L18.7636 0.215165L17.8756 18.0712L18.8744 18.1208ZM19.263 0.74H28.983V-0.26H19.263V0.74ZM24.4518 5.68312L24.2838 8.58712L25.2822 8.64488L25.4502 5.74088L24.4518 5.68312ZM24.7154 9.11141L26.2994 9.32741L26.4346 8.33658L24.8506 8.12058L24.7154 9.11141ZM26.7483 9.15549L28.7643 6.77949L28.0017 6.13251L25.9857 8.50851L26.7483 9.15549ZM28.4889 5.96735L25.0569 5.22335L24.8451 6.20065L28.2771 6.94465L28.4889 5.96735ZM34.9288 0.119998V-0.380002H34.5207L34.439 0.0198003L34.9288 0.119998ZM46.6888 0.119998L47.1793 0.217145L47.2976 -0.380002H46.6888V0.119998ZM45.7048 5.088L45.7807 5.58221L46.1272 5.52901L46.1953 5.18515L45.7048 5.088ZM39.9208 5.976L39.8449 5.48179L39.4454 5.54313L39.4217 5.94664L39.9208 5.976ZM39.8488 7.2L39.3497 7.17064L39.3208 7.66174L39.8114 7.69859L39.8488 7.2ZM44.9608 7.584L45.4598 7.61538L45.4908 7.1224L44.9983 7.0854L44.9608 7.584ZM44.7208 11.4L44.7654 11.898L45.1929 11.8598L45.2198 11.4314L44.7208 11.4ZM40.1608 11.808L40.1163 11.31L39.4973 11.3654L39.6839 11.9581L40.1608 11.808ZM40.5688 13.104L40.0919 13.2541L40.201 13.6008L40.5645 13.604L40.5688 13.104ZM46.1128 13.152L46.5726 12.9556L46.4442 12.6548L46.1171 12.652L46.1128 13.152ZM48.1528 17.928V18.428H48.9101L48.6126 17.7316L48.1528 17.928ZM34.9288 17.928L34.432 17.9841L34.4821 18.428H34.9288V17.928ZM33.6328 6.456L33.143 6.3558L33.1271 6.43341L33.136 6.51213L33.6328 6.456ZM34.9288 0.619998H46.6888V-0.380002H34.9288V0.619998ZM46.1983 0.0228519L45.2143 4.99085L46.1953 5.18515L47.1793 0.217145L46.1983 0.0228519ZM45.6289 4.59379L39.8449 5.48179L39.9967 6.47021L45.7807 5.58221L45.6289 4.59379ZM39.4217 5.94664L39.3497 7.17064L40.3479 7.22936L40.42 6.00536L39.4217 5.94664ZM39.8114 7.69859L44.9234 8.08259L44.9983 7.0854L39.8863 6.7014L39.8114 7.69859ZM44.4618 7.55262L44.2218 11.3686L45.2198 11.4314L45.4598 7.61538L44.4618 7.55262ZM44.6763 10.902L40.1163 11.31L40.2054 12.306L44.7654 11.898L44.6763 10.902ZM39.6839 11.9581L40.0919 13.2541L41.0457 12.9539L40.6377 11.6579L39.6839 11.9581ZM40.5645 13.604L46.1085 13.652L46.1171 12.652L40.5731 12.604L40.5645 13.604ZM45.653 13.3484L47.693 18.1244L48.6126 17.7316L46.5726 12.9556L45.653 13.3484ZM48.1528 17.428H34.9288V18.428H48.1528V17.428ZM35.4257 17.8719L34.1297 6.39987L33.136 6.51213L34.432 17.9841L35.4257 17.8719ZM34.1227 6.5562L35.4187 0.220197L34.439 0.0198003L33.143 6.3558L34.1227 6.5562ZM54.0626 0.792L54.5616 0.824298L54.5923 0.349669L54.1198 0.29528L54.0626 0.792ZM53.3666 11.544L52.8677 11.5117L52.8288 12.1124L53.4265 12.0404L53.3666 11.544ZM60.7346 10.656L61.231 10.5958L61.1709 10.0998L60.6748 10.1596L60.7346 10.656ZM61.4066 16.2L61.4656 16.6965L61.9633 16.6374L61.903 16.1398L61.4066 16.2ZM48.0626 17.784L47.563 17.8029L47.5835 18.3444L48.1216 18.2805L48.0626 17.784ZM47.3906 0.0239997L47.4478 -0.47272L46.869 -0.539351L46.891 0.0429051L47.3906 0.0239997ZM53.5637 0.759701L52.8677 11.5117L53.8656 11.5763L54.5616 0.824298L53.5637 0.759701ZM53.4265 12.0404L60.7945 11.1524L60.6748 10.1596L53.3068 11.0476L53.4265 12.0404ZM60.2383 10.7162L60.9103 16.2602L61.903 16.1398L61.231 10.5958L60.2383 10.7162ZM61.3477 15.7035L48.0037 17.2875L48.1216 18.2805L61.4656 16.6965L61.3477 15.7035ZM48.5623 17.7651L47.8903 0.0050943L46.891 0.0429051L47.563 17.8029L48.5623 17.7651ZM47.3334 0.52072L54.0054 1.28872L54.1198 0.29528L47.4478 -0.47272L47.3334 0.52072ZM72.585 0.263999L72.8797 -0.139896L72.7306 -0.248713L72.5466 -0.234521L72.585 0.263999ZM77.025 3.504L77.5237 3.46762L77.5068 3.23663L77.3197 3.1001L77.025 3.504ZM77.433 9.096L77.8053 9.42977L77.9471 9.27155L77.9317 9.05962L77.433 9.096ZM74.937 11.88L74.5647 11.5462L74.228 11.9217L74.6065 12.2552L74.937 11.88ZM79.377 15.792L79.5757 16.2508L80.2986 15.9377L79.7075 15.4168L79.377 15.792ZM74.169 18.048L73.8442 18.4281L74.0814 18.6308L74.3677 18.5068L74.169 18.048ZM68.721 13.392L69.0458 13.0119L67.9869 12.1069L68.2286 13.4787L68.721 13.392ZM69.537 18.024V18.524H70.1328L70.0294 17.9373L69.537 18.024ZM64.017 18.024L63.5187 18.0648L63.5563 18.524H64.017V18.024ZM62.625 1.032L62.5866 0.533479L62.0856 0.572104L62.1267 1.07282L62.625 1.032ZM68.721 5.232L68.9567 4.79103L68.255 4.41601L68.2214 5.21089L68.721 5.232ZM68.577 8.64L68.0774 8.61889L68.0581 9.07623L68.512 9.13575L68.577 8.64ZM70.041 8.832L69.976 9.32775L70.2783 9.3674L70.4519 9.11685L70.041 8.832ZM71.505 6.72L71.9159 7.00485L72.2357 6.54359L71.7407 6.27903L71.505 6.72ZM72.2903 0.667895L76.7303 3.90789L77.3197 3.1001L72.8797 -0.139896L72.2903 0.667895ZM76.5263 3.54038L76.9343 9.13238L77.9317 9.05962L77.5237 3.46762L76.5263 3.54038ZM77.0607 8.76223L74.5647 11.5462L75.3093 12.2138L77.8053 9.42977L77.0607 8.76223ZM74.6065 12.2552L79.0465 16.1672L79.7075 15.4168L75.2675 11.5048L74.6065 12.2552ZM79.1783 15.3332L73.9703 17.5892L74.3677 18.5068L79.5757 16.2508L79.1783 15.3332ZM74.4938 17.6679L69.0458 13.0119L68.3962 13.7721L73.8442 18.4281L74.4938 17.6679ZM68.2286 13.4787L69.0446 18.1107L70.0294 17.9373L69.2134 13.3053L68.2286 13.4787ZM69.537 17.524H64.017V18.524H69.537V17.524ZM64.5153 17.9832L63.1233 0.991176L62.1267 1.07282L63.5187 18.0648L64.5153 17.9832ZM62.6634 1.53052L72.6234 0.76252L72.5466 -0.234521L62.5866 0.533479L62.6634 1.53052ZM68.2214 5.21089L68.0774 8.61889L69.0766 8.66111L69.2206 5.25311L68.2214 5.21089ZM68.512 9.13575L69.976 9.32775L70.106 8.33624L68.642 8.14424L68.512 9.13575ZM70.4519 9.11685L71.9159 7.00485L71.0941 6.43515L69.6301 8.54715L70.4519 9.11685ZM71.7407 6.27903L68.9567 4.79103L68.4853 5.67297L71.2693 7.16097L71.7407 6.27903ZM80.1632 0.119998V-0.380002H79.7551L79.6733 0.0198003L80.1632 0.119998ZM91.9232 0.119998L92.4137 0.217145L92.5319 -0.380002H91.9232V0.119998ZM90.9392 5.088L91.0151 5.58221L91.3616 5.52901L91.4297 5.18515L90.9392 5.088ZM85.1552 5.976L85.0793 5.48179L84.6798 5.54313L84.6561 5.94664L85.1552 5.976ZM85.0832 7.2L84.5841 7.17064L84.5552 7.66174L85.0457 7.69859L85.0832 7.2ZM90.1952 7.584L90.6942 7.61538L90.7252 7.1224L90.2326 7.0854L90.1952 7.584ZM89.9552 11.4L89.9997 11.898L90.4273 11.8598L90.4542 11.4314L89.9552 11.4ZM85.3952 11.808L85.3506 11.31L84.7317 11.3654L84.9183 11.9581L85.3952 11.808ZM85.8032 13.104L85.3263 13.2541L85.4354 13.6008L85.7989 13.604L85.8032 13.104ZM91.3472 13.152L91.807 12.9556L91.6785 12.6548L91.3515 12.652L91.3472 13.152ZM93.3872 17.928V18.428H94.1445L93.847 17.7316L93.3872 17.928ZM80.1632 17.928L79.6663 17.9841L79.7165 18.428H80.1632V17.928ZM78.8672 6.456L78.3773 6.3558L78.3615 6.43341L78.3703 6.51213L78.8672 6.456ZM80.1632 0.619998H91.9232V-0.380002H80.1632V0.619998ZM91.4327 0.0228519L90.4487 4.99085L91.4297 5.18515L92.4137 0.217145L91.4327 0.0228519ZM90.8633 4.59379L85.0793 5.48179L85.2311 6.47021L91.0151 5.58221L90.8633 4.59379ZM84.6561 5.94664L84.5841 7.17064L85.5823 7.22936L85.6543 6.00536L84.6561 5.94664ZM85.0457 7.69859L90.1577 8.08259L90.2326 7.0854L85.1206 6.7014L85.0457 7.69859ZM89.6962 7.55262L89.4562 11.3686L90.4542 11.4314L90.6942 7.61538L89.6962 7.55262ZM89.9106 10.902L85.3506 11.31L85.4397 12.306L89.9997 11.898L89.9106 10.902ZM84.9183 11.9581L85.3263 13.2541L86.2801 12.9539L85.8721 11.6579L84.9183 11.9581ZM85.7989 13.604L91.3429 13.652L91.3515 12.652L85.8075 12.604L85.7989 13.604ZM90.8874 13.3484L92.9274 18.1244L93.847 17.7316L91.807 12.9556L90.8874 13.3484ZM93.3872 17.428H80.1632V18.428H93.3872V17.428ZM80.66 17.8719L79.364 6.39987L78.3703 6.51213L79.6663 17.9841L80.66 17.8719ZM79.357 6.5562L80.653 0.220197L79.6733 0.0198003L78.3773 6.3558L79.357 6.5562ZM107.673 3.816L107.918 4.25199L108.411 3.97525L108.076 3.5198L107.673 3.816ZM103.569 6.12L103.328 6.55797L103.571 6.69209L103.814 6.55599L103.569 6.12ZM101.913 5.208L102.154 4.77002L101.969 4.66827L101.768 4.72961L101.913 5.208ZM99.465 5.952L99.3196 5.47361L99.0951 5.54184L99.0041 5.75811L99.465 5.952ZM98.001 9.432L97.5401 9.23811L97.4534 9.44418L97.5492 9.64619L98.001 9.432ZM99.537 12.672L99.0852 12.8862L99.2393 13.2112L99.5964 13.1685L99.537 12.672ZM103.953 12.144L104.012 12.6405L104.402 12.5939L104.449 12.2042L103.953 12.144ZM104.049 11.352L104.545 11.4122L104.62 10.7976L104.003 10.8541L104.049 11.352ZM100.641 11.664L100.143 11.6194L100.09 12.2166L100.687 12.1619L100.641 11.664ZM101.073 6.84L101.08 6.34004L100.616 6.33378L100.575 6.7954L101.073 6.84ZM108.177 6.936H108.677V6.44271L108.184 6.43605L108.177 6.936ZM108.177 16.416L108.241 16.9119L108.677 16.8557V16.416H108.177ZM96.249 17.952L95.8003 18.1727L95.9582 18.4936L96.3129 18.4479L96.249 17.952ZM92.625 10.584L92.1342 10.4883L92.102 10.6536L92.1763 10.8047L92.625 10.584ZM93.945 3.816L93.6511 3.41147L93.4919 3.52713L93.4542 3.72029L93.945 3.816ZM99.033 0.119998L99.0675 -0.378808L98.8862 -0.391361L98.7391 -0.284535L99.033 0.119998ZM105.273 0.551999L105.676 0.255803L105.539 0.0691902L105.308 0.0531926L105.273 0.551999ZM107.428 3.38001L103.324 5.68401L103.814 6.55599L107.918 4.25199L107.428 3.38001ZM103.81 5.68203L102.154 4.77002L101.672 5.64597L103.328 6.55797L103.81 5.68203ZM101.768 4.72961L99.3196 5.47361L99.6104 6.43039L102.058 5.68639L101.768 4.72961ZM99.0041 5.75811L97.5401 9.23811L98.4619 9.62589L99.9259 6.14589L99.0041 5.75811ZM97.5492 9.64619L99.0852 12.8862L99.9888 12.4578L98.4528 9.21781L97.5492 9.64619ZM99.5964 13.1685L104.012 12.6405L103.894 11.6475L99.4776 12.1755L99.5964 13.1685ZM104.449 12.2042L104.545 11.4122L103.553 11.2918L103.457 12.0838L104.449 12.2042ZM104.003 10.8541L100.595 11.1661L100.687 12.1619L104.095 11.8499L104.003 10.8541ZM101.139 11.7086L101.571 6.8846L100.575 6.7954L100.143 11.6194L101.139 11.7086ZM101.066 7.33995L108.17 7.43595L108.184 6.43605L101.08 6.34004L101.066 7.33995ZM107.677 6.936V16.416H108.677V6.936H107.677ZM108.113 15.9201L96.1851 17.4561L96.3129 18.4479L108.241 16.9119L108.113 15.9201ZM96.6977 17.7313L93.0737 10.3633L92.1763 10.8047L95.8003 18.1727L96.6977 17.7313ZM93.1158 10.6797L94.4358 3.91171L93.4542 3.72029L92.1342 10.4883L93.1158 10.6797ZM94.2389 4.22053L99.3269 0.524531L98.7391 -0.284535L93.6511 3.41147L94.2389 4.22053ZM98.9985 0.618805L105.238 1.0508L105.308 0.0531926L99.0675 -0.378808L98.9985 0.618805ZM104.87 0.848194L107.27 4.11219L108.076 3.5198L105.676 0.255803L104.87 0.848194ZM109.929 0.119998V-0.380002H109.521L109.439 0.0198003L109.929 0.119998ZM121.689 0.119998L122.179 0.217145L122.298 -0.380002H121.689V0.119998ZM120.705 5.088L120.781 5.58221L121.127 5.52901L121.195 5.18515L120.705 5.088ZM114.921 5.976L114.845 5.48179L114.445 5.54313L114.422 5.94664L114.921 5.976ZM114.849 7.2L114.35 7.17064L114.321 7.66174L114.811 7.69859L114.849 7.2ZM119.961 7.584L120.46 7.61538L120.491 7.1224L119.998 7.0854L119.961 7.584ZM119.721 11.4L119.765 11.898L120.193 11.8598L120.22 11.4314L119.721 11.4ZM115.161 11.808L115.116 11.31L114.497 11.3654L114.684 11.9581L115.161 11.808ZM115.569 13.104L115.092 13.2541L115.201 13.6008L115.564 13.604L115.569 13.104ZM121.113 13.152L121.573 12.9556L121.444 12.6548L121.117 12.652L121.113 13.152ZM123.153 17.928V18.428H123.91L123.613 17.7316L123.153 17.928ZM109.929 17.928L109.432 17.9841L109.482 18.428H109.929V17.928ZM108.633 6.456L108.143 6.3558L108.127 6.43341L108.136 6.51213L108.633 6.456ZM109.929 0.619998H121.689V-0.380002H109.929V0.619998ZM121.198 0.0228519L120.214 4.99085L121.195 5.18515L122.179 0.217145L121.198 0.0228519ZM120.629 4.59379L114.845 5.48179L114.997 6.47021L120.781 5.58221L120.629 4.59379ZM114.422 5.94664L114.35 7.17064L115.348 7.22936L115.42 6.00536L114.422 5.94664ZM114.811 7.69859L119.923 8.08259L119.998 7.0854L114.886 6.7014L114.811 7.69859ZM119.462 7.55262L119.222 11.3686L120.22 11.4314L120.46 7.61538L119.462 7.55262ZM119.676 10.902L115.116 11.31L115.205 12.306L119.765 11.898L119.676 10.902ZM114.684 11.9581L115.092 13.2541L116.046 12.9539L115.638 11.6579L114.684 11.9581ZM115.564 13.604L121.108 13.652L121.117 12.652L115.573 12.604L115.564 13.604ZM120.653 13.3484L122.693 18.1244L123.613 17.7316L121.573 12.9556L120.653 13.3484ZM123.153 17.428H109.929V18.428H123.153V17.428ZM110.426 17.8719L109.13 6.39987L108.136 6.51213L109.432 17.9841L110.426 17.8719ZM109.123 6.5562L110.419 0.220197L109.439 0.0198003L108.143 6.3558L109.123 6.5562ZM129.063 0.792L129.562 0.824298L129.592 0.349669L129.12 0.29528L129.063 0.792ZM128.367 11.544L127.868 11.5117L127.829 12.1124L128.426 12.0404L128.367 11.544ZM135.735 10.656L136.231 10.5958L136.171 10.0998L135.675 10.1596L135.735 10.656ZM136.407 16.2L136.466 16.6965L136.963 16.6374L136.903 16.1398L136.407 16.2ZM123.063 17.784L122.563 17.8029L122.583 18.3444L123.122 18.2805L123.063 17.784ZM122.391 0.0239997L122.448 -0.47272L121.869 -0.539351L121.891 0.0429051L122.391 0.0239997ZM128.564 0.759701L127.868 11.5117L128.866 11.5763L129.562 0.824298L128.564 0.759701ZM128.426 12.0404L135.794 11.1524L135.675 10.1596L128.307 11.0476L128.426 12.0404ZM135.238 10.7162L135.91 16.2602L136.903 16.1398L136.231 10.5958L135.238 10.7162ZM136.348 15.7035L123.004 17.2875L123.122 18.2805L136.466 16.6965L136.348 15.7035ZM123.562 17.7651L122.89 0.0050943L121.891 0.0429051L122.563 17.8029L123.562 17.7651ZM122.333 0.52072L129.005 1.28872L129.12 0.29528L122.448 -0.47272L122.333 0.52072ZM155.025 4.656L155.413 4.97102L155.689 4.63143L155.389 4.31314L155.025 4.656ZM151.929 8.472L151.659 8.89268L152.035 9.13457L152.317 8.78702L151.929 8.472ZM148.305 6.144L148.575 5.72332L148.194 5.4785L147.913 5.83365L148.305 6.144ZM147.393 7.296L147.001 6.98565L146.679 7.39241L147.097 7.6992L147.393 7.296ZM153.873 12.048L154.315 12.2823L154.517 11.9004L154.169 11.6448L153.873 12.048ZM150.729 17.976V18.476H151.03L151.171 18.2103L150.729 17.976ZM143.025 17.976L142.714 18.3675L142.851 18.476H143.025V17.976ZM137.649 13.704L137.219 13.4483L136.996 13.8237L137.338 14.0955L137.649 13.704ZM139.977 9.792L140.223 9.35663L139.797 9.11627L139.547 9.5363L139.977 9.792ZM144.609 12.408L144.363 12.8434L144.774 13.0753L145.029 12.6789L144.609 12.408ZM145.305 11.328L145.725 11.5989L146.006 11.1628L145.56 10.8981L145.305 11.328ZM138.513 7.296L138.14 6.96289L137.735 7.41588L138.258 7.72595L138.513 7.296ZM144.945 0.0959988V-0.404001H144.721L144.572 -0.237108L144.945 0.0959988ZM150.729 0.0959988L151.093 -0.246863L150.945 -0.404001H150.729V0.0959988ZM154.637 4.34098L151.541 8.15698L152.317 8.78702L155.413 4.97102L154.637 4.34098ZM152.199 8.05132L148.575 5.72332L148.035 6.56468L151.659 8.89268L152.199 8.05132ZM147.913 5.83365L147.001 6.98565L147.785 7.60635L148.697 6.45435L147.913 5.83365ZM147.097 7.6992L153.577 12.4512L154.169 11.6448L147.689 6.8928L147.097 7.6992ZM153.431 11.8137L150.287 17.7417L151.171 18.2103L154.315 12.2823L153.431 11.8137ZM150.729 17.476H143.025V18.476H150.729V17.476ZM143.336 17.5845L137.96 13.3125L137.338 14.0955L142.714 18.3675L143.336 17.5845ZM138.079 13.9597L140.407 10.0477L139.547 9.5363L137.219 13.4483L138.079 13.9597ZM139.731 10.2274L144.363 12.8434L144.855 11.9726L140.223 9.35663L139.731 10.2274ZM145.029 12.6789L145.725 11.5989L144.885 11.0571L144.189 12.1371L145.029 12.6789ZM145.56 10.8981L138.768 6.86605L138.258 7.72595L145.05 11.7579L145.56 10.8981ZM138.886 7.62911L145.318 0.429105L144.572 -0.237108L138.14 6.96289L138.886 7.62911ZM144.945 0.595999H150.729V-0.404001H144.945V0.595999ZM150.365 0.43886L154.661 4.99886L155.389 4.31314L151.093 -0.246863L150.365 0.43886Z" fill="black"/>
</svg>
