<svg width="156" height="19" viewBox="0 0 156 19" fill="none" xmlns="http://www.w3.org/2000/svg">
<path d="M18.2906 4.656L15.1946 8.472L11.5706 6.144L10.6586 7.296L17.1386 12.048L13.9946 17.976H6.29063L0.914625 13.704L3.24263 9.792L7.87463 12.408L8.57063 11.328L1.77863 7.296L8.21063 0.0959988H13.9946L18.2906 4.656ZM129.063 0.792L128.367 11.544L135.735 10.656L136.407 16.2L123.063 17.784L122.391 0.0239997L129.063 0.792Z" fill="#009CDA"/>
<path d="M28.983 0.24L33.207 3.144L33.543 10.248L29.271 14.376L23.967 14.712V18.096H18.375L19.263 0.24H28.983ZM24.951 5.712L24.783 8.616L26.367 8.832L28.383 6.456L24.951 5.712ZM72.585 0.263999L77.025 3.504L77.433 9.096L74.937 11.88L79.377 15.792L74.169 18.048L68.721 13.392L69.537 18.024H64.017L62.625 1.032L72.585 0.263999ZM68.721 5.232L68.577 8.64L70.041 8.832L71.505 6.72L68.721 5.232ZM109.929 0.119998H121.689L120.705 5.088L114.921 5.976L114.849 7.2L119.961 7.584L119.721 11.4L115.161 11.808L115.569 13.104L121.113 13.152L123.153 17.928H109.929L108.633 6.456L109.929 0.119998Z" fill="#FCCF00"/>
<path d="M34.9288 0.119998H46.6888L45.7048 5.088L39.9208 5.976L39.8488 7.2L44.9608 7.584L44.7208 11.4L40.1608 11.808L40.5688 13.104L46.1128 13.152L48.1528 17.928H34.9288L33.6328 6.456L34.9288 0.119998ZM80.1632 0.119998H91.9232L90.9392 5.088L85.1552 5.976L85.0832 7.2L90.1952 7.584L89.9552 11.4L85.3952 11.808L85.8032 13.104L91.3472 13.152L93.3872 17.928H80.1632L78.8672 6.456L80.1632 0.119998Z" fill="#E62310"/>
<path d="M54.0626 0.792L53.3666 11.544L60.7346 10.656L61.4066 16.2L48.0626 17.784L47.3906 0.0239997L54.0626 0.792ZM107.673 3.816L103.569 6.12L101.913 5.208L99.465 5.952L98.001 9.432L99.537 12.672L103.953 12.144L104.049 11.352L100.641 11.664L101.073 6.84L108.177 6.936V16.416L96.249 17.952L92.625 10.584L93.945 3.816L99.033 0.119998L105.273 0.551999L107.673 3.816ZM155.025 4.656L151.929 8.472L148.305 6.144L147.393 7.296L153.873 12.048L150.729 17.976H143.025L137.649 13.704L139.977 9.792L144.609 12.408L145.305 11.328L138.513 7.296L144.945 0.0959988H150.729L155.025 4.656Z" fill="#44AF35"/>
<path d="M18.2906 4.656L19.4555 5.60106L20.282 4.58229L19.3824 3.62741L18.2906 4.656ZM15.1946 8.472L14.3839 9.73404L15.5136 10.4597L16.3595 9.41706L15.1946 8.472ZM11.5706 6.144L12.3813 4.88196L11.238 4.14751L10.3946 5.21294L11.5706 6.144ZM10.6586 7.296L9.48256 6.36495L8.51651 7.58522L9.77158 8.50561L10.6586 7.296ZM17.1386 12.048L18.4638 12.7508L19.0714 11.6052L18.0257 10.8384L17.1386 12.048ZM13.9946 17.976V19.476H14.897L15.3198 18.6788L13.9946 17.976ZM6.29063 17.976L5.35742 19.1504L5.76721 19.476H6.29063V17.976ZM0.914625 13.704L-0.374397 12.9369L-1.04456 14.0631L-0.0185764 14.8784L0.914625 13.704ZM3.24263 9.792L3.98026 8.4859L2.70348 7.76482L1.9536 9.02491L3.24263 9.792ZM7.87463 12.408L7.13699 13.7141L8.36901 14.4099L9.13548 13.2206L7.87463 12.408ZM8.57063 11.328L9.83148 12.1406L10.6744 10.8325L9.33633 10.0382L8.57063 11.328ZM1.77863 7.296L0.659983 6.29668L-0.554024 7.65564L1.01292 8.58584L1.77863 7.296ZM8.21063 0.0959988V-1.404H7.53926L7.09198 -0.903321L8.21063 0.0959988ZM13.9946 0.0959988L15.0864 -0.932586L14.6423 -1.404H13.9946V0.0959988ZM17.1258 3.71094L14.0298 7.52694L16.3595 9.41706L19.4555 5.60106L17.1258 3.71094ZM16.0053 7.20996L12.3813 4.88196L10.7599 7.40604L14.3839 9.73404L16.0053 7.20996ZM10.3946 5.21294L9.48256 6.36495L11.8347 8.22705L12.7467 7.07505L10.3946 5.21294ZM9.77158 8.50561L16.2516 13.2576L18.0257 10.8384L11.5457 6.08639L9.77158 8.50561ZM15.8135 11.3452L12.6695 17.2732L15.3198 18.6788L18.4638 12.7508L15.8135 11.3452ZM13.9946 16.476H6.29063V19.476H13.9946V16.476ZM7.22383 16.8016L1.84783 12.5296L-0.0185764 14.8784L5.35742 19.1504L7.22383 16.8016ZM2.20365 14.4711L4.53165 10.5591L1.9536 9.02491L-0.374397 12.9369L2.20365 14.4711ZM2.50499 11.0981L7.13699 13.7141L8.61227 11.1019L3.98026 8.4859L2.50499 11.0981ZM9.13548 13.2206L9.83148 12.1406L7.30977 10.5154L6.61377 11.5954L9.13548 13.2206ZM9.33633 10.0382L2.54433 6.00616L1.01292 8.58584L7.80492 12.6178L9.33633 10.0382ZM2.89727 8.29532L9.32927 1.09532L7.09198 -0.903321L0.659983 6.29668L2.89727 8.29532ZM8.21063 1.596H13.9946V-1.404H8.21063V1.596ZM12.9028 1.12458L17.1988 5.68458L19.3824 3.62741L15.0864 -0.932586L12.9028 1.12458ZM28.983 0.24L29.8328 -0.996063L29.4489 -1.26H28.983V0.24ZM33.207 3.144L34.7053 3.07313L34.6702 2.32963L34.0568 1.90794L33.207 3.144ZM33.543 10.248L34.5853 11.3267L35.0734 10.8551L35.0413 10.1771L33.543 10.248ZM29.271 14.376L29.3658 15.873L29.9165 15.8381L30.3133 15.4547L29.271 14.376ZM23.967 14.712L23.8722 13.215L22.467 13.304V14.712H23.967ZM23.967 18.096V19.596H25.467V18.096H23.967ZM18.375 18.096L16.8769 18.0215L16.7985 19.596H18.375V18.096ZM19.263 0.24V-1.26H17.8357L17.7649 0.165495L19.263 0.24ZM24.951 5.712L25.2688 4.24605L23.5548 3.87448L23.4535 5.62537L24.951 5.712ZM24.783 8.616L23.2855 8.52937L23.2054 9.91475L24.5803 10.1022L24.783 8.616ZM26.367 8.832L26.1643 10.3182L26.9789 10.4293L27.5108 9.80247L26.367 8.832ZM28.383 6.456L29.5268 7.42647L31.1445 5.51981L28.7008 4.99005L28.383 6.456ZM28.1332 1.47606L32.3572 4.38006L34.0568 1.90794L29.8328 -0.996063L28.1332 1.47606ZM31.7087 3.21487L32.0447 10.3189L35.0413 10.1771L34.7053 3.07313L31.7087 3.21487ZM32.5007 9.16932L28.2287 13.2973L30.3133 15.4547L34.5853 11.3267L32.5007 9.16932ZM29.1762 12.879L23.8722 13.215L24.0618 16.209L29.3658 15.873L29.1762 12.879ZM22.467 14.712V18.096H25.467V14.712H22.467ZM23.967 16.596H18.375V19.596H23.967V16.596ZM19.8731 18.1705L20.7611 0.314504L17.7649 0.165495L16.8769 18.0215L19.8731 18.1705ZM19.263 1.74H28.983V-1.26H19.263V1.74ZM23.4535 5.62537L23.2855 8.52937L26.2805 8.70263L26.4485 5.79863L23.4535 5.62537ZM24.5803 10.1022L26.1643 10.3182L26.5697 7.34575L24.9857 7.12975L24.5803 10.1022ZM27.5108 9.80247L29.5268 7.42647L27.2392 5.48553L25.2232 7.86153L27.5108 9.80247ZM28.7008 4.99005L25.2688 4.24605L24.6332 7.17795L28.0652 7.92195L28.7008 4.99005ZM34.9288 0.119998V-1.38H33.7046L33.4592 -0.180596L34.9288 0.119998ZM46.6888 0.119998L48.1602 0.411438L48.5151 -1.38H46.6888V0.119998ZM45.7048 5.088L45.9324 6.57063L46.9719 6.41104L47.1762 5.37944L45.7048 5.088ZM39.9208 5.976L39.6932 4.49337L38.4946 4.67738L38.4234 5.88792L39.9208 5.976ZM39.8488 7.2L38.3514 7.11192L38.2647 8.58523L39.7365 8.69579L39.8488 7.2ZM44.9608 7.584L46.4579 7.67815L46.5509 6.19921L45.0732 6.08821L44.9608 7.584ZM44.7208 11.4L44.8545 12.894L46.137 12.7793L46.2179 11.4942L44.7208 11.4ZM40.1608 11.808L40.0271 10.314L38.1702 10.4801L38.73 12.2584L40.1608 11.808ZM40.5688 13.104L39.138 13.5544L39.4655 14.5945L40.5558 14.6039L40.5688 13.104ZM46.1128 13.152L47.4922 12.5628L47.1069 11.6606L46.1258 11.6521L46.1128 13.152ZM48.1528 17.928V19.428H50.4246L49.5322 17.3388L48.1528 17.928ZM34.9288 17.928L33.4383 18.0964L33.5887 19.428H34.9288V17.928ZM33.6328 6.456L32.1632 6.1554L32.1156 6.38824L32.1423 6.62438L33.6328 6.456ZM34.9288 1.62H46.6888V-1.38H34.9288V1.62ZM45.2174 -0.171441L44.2334 4.79656L47.1762 5.37944L48.1602 0.411438L45.2174 -0.171441ZM45.4772 3.60537L39.6932 4.49337L40.1484 7.45863L45.9324 6.57063L45.4772 3.60537ZM38.4234 5.88792L38.3514 7.11192L41.3462 7.28808L41.4182 6.06408L38.4234 5.88792ZM39.7365 8.69579L44.8485 9.07979L45.0732 6.08821L39.9612 5.70421L39.7365 8.69579ZM43.4638 7.48985L43.2238 11.3058L46.2179 11.4942L46.4579 7.67815L43.4638 7.48985ZM44.5871 9.90597L40.0271 10.314L40.2945 13.302L44.8545 12.894L44.5871 9.90597ZM38.73 12.2584L39.138 13.5544L41.9996 12.6536L41.5916 11.3576L38.73 12.2584ZM40.5558 14.6039L46.0998 14.6519L46.1258 11.6521L40.5818 11.6041L40.5558 14.6039ZM44.7334 13.7412L46.7734 18.5172L49.5322 17.3388L47.4922 12.5628L44.7334 13.7412ZM48.1528 16.428H34.9288V19.428H48.1528V16.428ZM36.4193 17.7596L35.1233 6.28761L32.1423 6.62438L33.4383 18.0964L36.4193 17.7596ZM35.1024 6.75659L36.3984 0.420593L33.4592 -0.180596L32.1632 6.1554L35.1024 6.75659ZM54.0626 0.792L55.5595 0.888895L55.6517 -0.534994L54.2342 -0.69816L54.0626 0.792ZM53.3666 11.544L51.8698 11.4471L51.7531 13.2493L53.5461 13.0332L53.3666 11.544ZM60.7346 10.656L62.2237 10.4755L62.0434 8.98742L60.5551 9.16678L60.7346 10.656ZM61.4066 16.2L61.5834 17.6895L63.0767 17.5123L62.8957 16.0195L61.4066 16.2ZM48.0626 17.784L46.5637 17.8407L46.6252 19.4652L48.2394 19.2735L48.0626 17.784ZM47.3906 0.0239997L47.5622 -1.46616L45.8256 -1.66605L45.8917 0.0807159L47.3906 0.0239997ZM52.5658 0.695104L51.8698 11.4471L54.8635 11.6409L55.5595 0.888895L52.5658 0.695104ZM53.5461 13.0332L60.9141 12.1452L60.5551 9.16678L53.1871 10.0548L53.5461 13.0332ZM59.2455 10.8365L59.9175 16.3805L62.8957 16.0195L62.2237 10.4755L59.2455 10.8365ZM61.2298 14.7105L47.8858 16.2945L48.2394 19.2735L61.5834 17.6895L61.2298 14.7105ZM49.5616 17.7273L48.8896 -0.0327165L45.8917 0.0807159L46.5637 17.8407L49.5616 17.7273ZM47.2191 1.51416L53.8911 2.28216L54.2342 -0.69816L47.5622 -1.46616L47.2191 1.51416ZM72.585 0.263999L73.4692 -0.947687L73.0218 -1.27414L72.4697 -1.23156L72.585 0.263999ZM77.025 3.504L78.521 3.39485L78.4705 2.70188L77.9092 2.29231L77.025 3.504ZM77.433 9.096L78.5499 10.0973L78.9754 9.62266L78.929 8.98685L77.433 9.096ZM74.937 11.88L73.8201 10.8787L72.8101 12.0052L73.9454 13.0055L74.937 11.88ZM79.377 15.792L79.9732 17.1684L82.1419 16.229L80.3686 14.6665L79.377 15.792ZM74.169 18.048L73.1945 19.1883L73.9062 19.7965L74.7652 19.4244L74.169 18.048ZM68.721 13.392L69.6955 12.2517L66.5187 9.53673L67.2437 13.6522L68.721 13.392ZM69.537 18.024V19.524H71.3243L71.0143 17.7638L69.537 18.024ZM64.017 18.024L62.522 18.1465L62.6349 19.524H64.017V18.024ZM62.625 1.032L62.5097 -0.463561L61.0069 -0.347688L61.13 1.15447L62.625 1.032ZM68.721 5.232L69.4281 3.9091L67.3231 2.78403L67.2223 5.16868L68.721 5.232ZM68.577 8.64L67.0783 8.57668L67.0204 9.9487L68.3819 10.1273L68.577 8.64ZM70.041 8.832L69.8459 10.3193L70.7528 10.4382L71.2738 9.68654L70.041 8.832ZM71.505 6.72L72.7378 7.57454L73.697 6.19077L72.2121 5.3971L71.505 6.72ZM71.7008 1.47569L76.1408 4.71569L77.9092 2.29231L73.4692 -0.947687L71.7008 1.47569ZM75.529 3.61315L75.937 9.20515L78.929 8.98685L78.521 3.39485L75.529 3.61315ZM76.3161 8.09468L73.8201 10.8787L76.0539 12.8813L78.5499 10.0973L76.3161 8.09468ZM73.9454 13.0055L78.3854 16.9175L80.3686 14.6665L75.9286 10.7545L73.9454 13.0055ZM78.7808 14.4156L73.5728 16.6716L74.7652 19.4244L79.9732 17.1684L78.7808 14.4156ZM75.1435 16.9077L69.6955 12.2517L67.7465 14.5323L73.1945 19.1883L75.1435 16.9077ZM67.2437 13.6522L68.0597 18.2842L71.0143 17.7638L70.1983 13.1318L67.2437 13.6522ZM69.537 16.524H64.017V19.524H69.537V16.524ZM65.512 17.9015L64.12 0.909528L61.13 1.15447L62.522 18.1465L65.512 17.9015ZM62.7403 2.52756L72.7003 1.75956L72.4697 -1.23156L62.5097 -0.463561L62.7403 2.52756ZM67.2223 5.16868L67.0783 8.57668L70.0757 8.70332L70.2197 5.29532L67.2223 5.16868ZM68.3819 10.1273L69.8459 10.3193L70.2361 7.34473L68.7721 7.15274L68.3819 10.1273ZM71.2738 9.68654L72.7378 7.57454L70.2722 5.86546L68.8082 7.97746L71.2738 9.68654ZM72.2121 5.3971L69.4281 3.9091L68.0139 6.5549L70.7979 8.0429L72.2121 5.3971ZM80.1632 0.119998V-1.38H78.9389L78.6936 -0.180596L80.1632 0.119998ZM91.9232 0.119998L93.3946 0.411438L93.7494 -1.38H91.9232V0.119998ZM90.9392 5.088L91.1668 6.57063L92.2063 6.41104L92.4106 5.37944L90.9392 5.088ZM85.1552 5.976L84.9276 4.49337L83.729 4.67738L83.6578 5.88792L85.1552 5.976ZM85.0832 7.2L83.5858 7.11192L83.4991 8.58523L84.9708 8.69579L85.0832 7.2ZM90.1952 7.584L91.6922 7.67815L91.7852 6.19921L90.3075 6.08821L90.1952 7.584ZM89.9552 11.4L90.0889 12.894L91.3714 12.7793L91.4522 11.4942L89.9552 11.4ZM85.3952 11.808L85.2615 10.314L83.4046 10.4801L83.9644 12.2584L85.3952 11.808ZM85.8032 13.104L84.3724 13.5544L84.6998 14.5945L85.7902 14.6039L85.8032 13.104ZM91.3472 13.152L92.7266 12.5628L92.3412 11.6606L91.3602 11.6521L91.3472 13.152ZM93.3872 17.928V19.428H95.659L94.7666 17.3388L93.3872 17.928ZM80.1632 17.928L78.6727 18.0964L78.8231 19.428H80.1632V17.928ZM78.8672 6.456L77.3976 6.1554L77.35 6.38824L77.3767 6.62438L78.8672 6.456ZM80.1632 1.62H91.9232V-1.38H80.1632V1.62ZM90.4518 -0.171441L89.4678 4.79656L92.4106 5.37944L93.3946 0.411438L90.4518 -0.171441ZM90.7116 3.60537L84.9276 4.49337L85.3828 7.45863L91.1668 6.57063L90.7116 3.60537ZM83.6578 5.88792L83.5858 7.11192L86.5806 7.28808L86.6526 6.06408L83.6578 5.88792ZM84.9708 8.69579L90.0828 9.07979L90.3075 6.08821L85.1955 5.70421L84.9708 8.69579ZM88.6981 7.48985L88.4581 11.3058L91.4522 11.4942L91.6922 7.67815L88.6981 7.48985ZM89.8215 9.90597L85.2615 10.314L85.5289 13.302L90.0889 12.894L89.8215 9.90597ZM83.9644 12.2584L84.3724 13.5544L87.234 12.6536L86.826 11.3576L83.9644 12.2584ZM85.7902 14.6039L91.3342 14.6519L91.3602 11.6521L85.8162 11.6041L85.7902 14.6039ZM89.9678 13.7412L92.0078 18.5172L94.7666 17.3388L92.7266 12.5628L89.9678 13.7412ZM93.3872 16.428H80.1632V19.428H93.3872V16.428ZM81.6537 17.7596L80.3577 6.28761L77.3767 6.62438L78.6727 18.0964L81.6537 17.7596ZM80.3368 6.75659L81.6328 0.420593L78.6936 -0.180596L77.3976 6.1554L80.3368 6.75659ZM107.673 3.816L108.407 5.12398L109.886 4.29375L108.881 2.92741L107.673 3.816ZM103.569 6.12L102.845 7.43392L103.576 7.83629L104.303 7.42797L103.569 6.12ZM101.913 5.208L102.637 3.89408L102.082 3.5888L101.477 3.77282L101.913 5.208ZM99.465 5.952L99.0288 4.51682L98.3553 4.72151L98.0824 5.37034L99.465 5.952ZM98.001 9.432L96.6184 8.85034L96.3583 9.46854L96.6456 10.0746L98.001 9.432ZM99.537 12.672L98.1816 13.3146L98.6438 14.2895L99.7151 14.1614L99.537 12.672ZM103.953 12.144L104.131 13.6334L105.3 13.4936L105.442 12.3245L103.953 12.144ZM104.049 11.352L105.538 11.5325L105.762 9.68894L103.912 9.85825L104.049 11.352ZM100.641 11.664L99.147 11.5302L98.9865 13.3217L100.778 13.1578L100.641 11.664ZM101.073 6.84L101.093 5.34014L99.703 5.32135L99.579 6.70621L101.073 6.84ZM108.177 6.936H109.677V5.45613L108.197 5.43614L108.177 6.936ZM108.177 16.416L108.369 17.9037L109.677 17.7352V16.416H108.177ZM96.249 17.952L94.903 18.614L95.3765 19.5767L96.4406 19.4397L96.249 17.952ZM92.625 10.584L91.1527 10.2969L91.056 10.7927L91.279 11.246L92.625 10.584ZM93.945 3.816L93.0634 2.6024L92.5858 2.94938L92.4727 3.52886L93.945 3.816ZM99.033 0.119998L99.1366 -1.37642L98.5926 -1.41408L98.1514 -1.0936L99.033 0.119998ZM105.273 0.551999L106.481 -0.336587L106.07 -0.896427L105.377 -0.94442L105.273 0.551999ZM106.939 2.50802L102.835 4.81202L104.303 7.42797L108.407 5.12398L106.939 2.50802ZM104.293 4.80608L102.637 3.89408L101.189 6.52192L102.845 7.43392L104.293 4.80608ZM101.477 3.77282L99.0288 4.51682L99.9012 7.38718L102.349 6.64318L101.477 3.77282ZM98.0824 5.37034L96.6184 8.85034L99.3836 10.0137L100.848 6.53366L98.0824 5.37034ZM96.6456 10.0746L98.1816 13.3146L100.892 12.0294L99.3564 8.78944L96.6456 10.0746ZM99.7151 14.1614L104.131 13.6334L103.775 10.6546L99.3589 11.1826L99.7151 14.1614ZM105.442 12.3245L105.538 11.5325L102.56 11.1715L102.464 11.9635L105.442 12.3245ZM103.912 9.85825L100.504 10.1702L100.778 13.1578L104.186 12.8458L103.912 9.85825ZM102.135 11.7978L102.567 6.97379L99.579 6.70621L99.147 11.5302L102.135 11.7978ZM101.053 8.33986L108.157 8.43586L108.197 5.43614L101.093 5.34014L101.053 8.33986ZM106.677 6.936V16.416H109.677V6.936H106.677ZM107.985 14.9283L96.0574 16.4643L96.4406 19.4397L108.369 17.9037L107.985 14.9283ZM97.595 17.29L93.971 9.92196L91.279 11.246L94.903 18.614L97.595 17.29ZM94.0973 10.8711L95.4173 4.10314L92.4727 3.52886L91.1527 10.2969L94.0973 10.8711ZM94.8266 5.0296L99.9146 1.3336L98.1514 -1.0936L93.0634 2.6024L94.8266 5.0296ZM98.9294 1.61642L105.169 2.04842L105.377 -0.94442L99.1366 -1.37642L98.9294 1.61642ZM104.065 1.44058L106.465 4.70459L108.881 2.92741L106.481 -0.336587L104.065 1.44058ZM109.929 0.119998V-1.38H108.705L108.459 -0.180596L109.929 0.119998ZM121.689 0.119998L123.16 0.411438L123.515 -1.38H121.689V0.119998ZM120.705 5.088L120.932 6.57063L121.972 6.41104L122.176 5.37944L120.705 5.088ZM114.921 5.976L114.693 4.49337L113.495 4.67738L113.423 5.88792L114.921 5.976ZM114.849 7.2L113.351 7.11192L113.265 8.58523L114.736 8.69579L114.849 7.2ZM119.961 7.584L121.458 7.67815L121.551 6.19921L120.073 6.08821L119.961 7.584ZM119.721 11.4L119.854 12.894L121.137 12.7793L121.218 11.4942L119.721 11.4ZM115.161 11.808L115.027 10.314L113.17 10.4801L113.73 12.2584L115.161 11.808ZM115.569 13.104L114.138 13.5544L114.465 14.5945L115.556 14.6039L115.569 13.104ZM121.113 13.152L122.492 12.5628L122.107 11.6606L121.126 11.6521L121.113 13.152ZM123.153 17.928V19.428H125.425L124.532 17.3388L123.153 17.928ZM109.929 17.928L108.438 18.0964L108.589 19.428H109.929V17.928ZM108.633 6.456L107.163 6.1554L107.116 6.38824L107.142 6.62438L108.633 6.456ZM109.929 1.62H121.689V-1.38H109.929V1.62ZM120.217 -0.171441L119.233 4.79656L122.176 5.37944L123.16 0.411438L120.217 -0.171441ZM120.477 3.60537L114.693 4.49337L115.148 7.45863L120.932 6.57063L120.477 3.60537ZM113.423 5.88792L113.351 7.11192L116.346 7.28808L116.418 6.06408L113.423 5.88792ZM114.736 8.69579L119.848 9.07979L120.073 6.08821L114.961 5.70421L114.736 8.69579ZM118.464 7.48985L118.224 11.3058L121.218 11.4942L121.458 7.67815L118.464 7.48985ZM119.587 9.90597L115.027 10.314L115.294 13.302L119.854 12.894L119.587 9.90597ZM113.73 12.2584L114.138 13.5544L117 12.6536L116.592 11.3576L113.73 12.2584ZM115.556 14.6039L121.1 14.6519L121.126 11.6521L115.582 11.6041L115.556 14.6039ZM119.733 13.7412L121.773 18.5172L124.532 17.3388L122.492 12.5628L119.733 13.7412ZM123.153 16.428H109.929V19.428H123.153V16.428ZM111.419 17.7596L110.123 6.28761L107.142 6.62438L108.438 18.0964L111.419 17.7596ZM110.102 6.75659L111.398 0.420593L108.459 -0.180596L107.163 6.1554L110.102 6.75659ZM129.063 0.792L130.559 0.888895L130.652 -0.534994L129.234 -0.69816L129.063 0.792ZM128.367 11.544L126.87 11.4471L126.753 13.2493L128.546 13.0332L128.367 11.544ZM135.735 10.656L137.224 10.4755L137.043 8.98742L135.555 9.16678L135.735 10.656ZM136.407 16.2L136.583 17.6895L138.077 17.5123L137.896 16.0195L136.407 16.2ZM123.063 17.784L121.564 17.8407L121.625 19.4652L123.239 19.2735L123.063 17.784ZM122.391 0.0239997L122.562 -1.46616L120.826 -1.66605L120.892 0.0807159L122.391 0.0239997ZM127.566 0.695104L126.87 11.4471L129.863 11.6409L130.559 0.888895L127.566 0.695104ZM128.546 13.0332L135.914 12.1452L135.555 9.16678L128.187 10.0548L128.546 13.0332ZM134.246 10.8365L134.918 16.3805L137.896 16.0195L137.224 10.4755L134.246 10.8365ZM136.23 14.7105L122.886 16.2945L123.239 19.2735L136.583 17.6895L136.23 14.7105ZM124.562 17.7273L123.89 -0.0327165L120.892 0.0807159L121.564 17.8407L124.562 17.7273ZM122.219 1.51416L128.891 2.28216L129.234 -0.69816L122.562 -1.46616L122.219 1.51416ZM155.025 4.656L156.19 5.60106L157.016 4.58229L156.117 3.62741L155.025 4.656ZM151.929 8.472L151.118 9.73404L152.248 10.4597L153.094 9.41706L151.929 8.472ZM148.305 6.144L149.116 4.88196L147.972 4.14751L147.129 5.21294L148.305 6.144ZM147.393 7.296L146.217 6.36495L145.251 7.58522L146.506 8.50561L147.393 7.296ZM153.873 12.048L155.198 12.7508L155.806 11.6052L154.76 10.8384L153.873 12.048ZM150.729 17.976V19.476H151.631L152.054 18.6788L150.729 17.976ZM143.025 17.976L142.092 19.1504L142.502 19.476H143.025V17.976ZM137.649 13.704L136.36 12.9369L135.69 14.0631L136.716 14.8784L137.649 13.704ZM139.977 9.792L140.715 8.4859L139.438 7.76482L138.688 9.02491L139.977 9.792ZM144.609 12.408L143.871 13.7141L145.103 14.4099L145.87 13.2206L144.609 12.408ZM145.305 11.328L146.566 12.1406L147.409 10.8325L146.071 10.0382L145.305 11.328ZM138.513 7.296L137.394 6.29668L136.18 7.65564L137.747 8.58584L138.513 7.296ZM144.945 0.0959988V-1.404H144.274L143.826 -0.903321L144.945 0.0959988ZM150.729 0.0959988L151.821 -0.932586L151.377 -1.404H150.729V0.0959988ZM153.86 3.71094L150.764 7.52694L153.094 9.41706L156.19 5.60106L153.86 3.71094ZM152.74 7.20996L149.116 4.88196L147.494 7.40604L151.118 9.73404L152.74 7.20996ZM147.129 5.21294L146.217 6.36495L148.569 8.22705L149.481 7.07505L147.129 5.21294ZM146.506 8.50561L152.986 13.2576L154.76 10.8384L148.28 6.08639L146.506 8.50561ZM152.548 11.3452L149.404 17.2732L152.054 18.6788L155.198 12.7508L152.548 11.3452ZM150.729 16.476H143.025V19.476H150.729V16.476ZM143.958 16.8016L138.582 12.5296L136.716 14.8784L142.092 19.1504L143.958 16.8016ZM138.938 14.4711L141.266 10.5591L138.688 9.02491L136.36 12.9369L138.938 14.4711ZM139.239 11.0981L143.871 13.7141L145.347 11.1019L140.715 8.4859L139.239 11.0981ZM145.87 13.2206L146.566 12.1406L144.044 10.5154L143.348 11.5954L145.87 13.2206ZM146.071 10.0382L139.279 6.00616L137.747 8.58584L144.539 12.6178L146.071 10.0382ZM139.632 8.29532L146.064 1.09532L143.826 -0.903321L137.394 6.29668L139.632 8.29532ZM144.945 1.596H150.729V-1.404H144.945V1.596ZM149.637 1.12458L153.933 5.68458L156.117 3.62741L151.821 -0.932586L149.637 1.12458Z" fill="black"/>
</svg>
