<svg width="397" height="32" viewBox="0 0 397 32" fill="none" xmlns="http://www.w3.org/2000/svg">
<path d="M29.7539 8.76L24.5939 15.12L18.5539 11.24L17.0339 13.16L27.8339 21.08L22.5939 30.96H9.75391L0.793906 23.84L4.67391 17.32L12.3939 21.68L13.5539 19.88L2.23391 13.16L12.9539 1.16H22.5939L29.7539 8.76ZM154.465 1.32L184.025 1.84V13.84L174.025 12.2L176.785 31.04H162.465L164.625 12.2L154.465 11.68V1.32ZM374.476 1.2H394.076L392.436 9.48L382.796 10.96L382.676 13L391.196 13.64L390.796 20L383.196 20.68L383.876 22.84L393.116 22.92L396.516 30.88H374.476L372.316 11.76L374.476 1.2Z" fill="#009CDA"/>
<path d="M29.5345 1.44H42.4545L41.8545 21.64L46.8545 18.04L45.3745 3.6H57.6545V23.04L50.4945 31.12H35.4145L29.5345 23.92V1.44ZM123.995 1.44L131.395 6.84L132.075 16.16L127.915 20.8L135.315 27.32L126.635 31.08L117.555 23.32L118.915 31.04H109.715L107.395 2.72L123.995 1.44ZM117.555 9.72L117.315 15.4L119.755 15.72L122.195 12.2L117.555 9.72ZM186.305 1.44L194.065 0.959998L200.065 29.28L187.345 30.68L186.305 1.44ZM274.925 1.36L287.565 28.92L275.485 30.84L274.525 23.76L264.805 23.52L262.605 31.08L250.965 29L266.925 2.16L274.925 1.36ZM268.965 11.84L267.325 15.92L273.445 16.08L272.045 11.96L268.965 11.84ZM362.845 1.68L371.565 12.52L369.085 26.8L353.285 30.92L340.685 19.8L342.565 7.28L351.965 1.32L362.845 1.68ZM354.325 11.76L352.285 16.32L355.805 18.68L359.525 17.32L359.325 12.88L354.325 11.76Z" fill="#FCCF00"/>
<path d="M76.7152 1.4L83.7552 6.24L84.3152 18.08L77.1952 24.96L68.3552 25.52V31.16H59.0352L60.5152 1.4H76.7152ZM69.9952 10.52L69.7152 15.36L72.3552 15.72L75.7152 11.76L69.9952 10.52ZM212.195 1.24L223.235 1.96L222.795 12.56L215.595 9.2L209.315 12.12L209.035 18.92L214.555 22.68L222.675 18.44L225.395 29.6L209.435 31L201.635 24.16L199.315 15.56L202.915 6.32L212.195 1.24ZM297.195 1.24L308.235 1.96L307.795 12.56L300.595 9.2L294.315 12.12L294.035 18.92L299.555 22.68L307.675 18.44L310.395 29.6L294.435 31L286.635 24.16L284.315 15.56L287.915 6.32L297.195 1.24Z" fill="#E62310"/>
<path d="M86.6248 1.2H106.225L104.585 9.48L94.9448 10.96L94.8248 13L103.345 13.64L102.945 20L95.3448 20.68L96.0248 22.84L105.265 22.92L108.665 30.88H86.6248L84.4648 11.76L86.6248 1.2ZM225.324 1.32L254.884 1.84V13.84L244.884 12.2L247.644 31.04H233.324L235.484 12.2L225.324 11.68V1.32ZM310.324 1.32L339.884 1.84V13.84L329.884 12.2L332.644 31.04H318.324L320.484 12.2L310.324 11.68V1.32Z" fill="#44AF35"/>
<path d="M29.7539 8.76L30.1422 9.07502L30.4177 8.73543L30.1178 8.41714L29.7539 8.76ZM24.5939 15.12L24.3237 15.5407L24.7002 15.7826L24.9822 15.435L24.5939 15.12ZM18.5539 11.24L18.8241 10.8193L18.443 10.5745L18.1619 10.9296L18.5539 11.24ZM17.0339 13.16L16.6419 12.8496L16.3199 13.2564L16.7382 13.5632L17.0339 13.16ZM27.8339 21.08L28.2756 21.3143L28.4782 20.9324L28.1296 20.6768L27.8339 21.08ZM22.5939 30.96V31.46H22.8947L23.0356 31.1943L22.5939 30.96ZM9.75391 30.96L9.44284 31.3515L9.57944 31.46H9.75391V30.96ZM0.793906 23.84L0.364232 23.5843L0.140843 23.9597L0.482839 24.2315L0.793906 23.84ZM4.67391 17.32L4.91979 16.8846L4.49419 16.6443L4.24423 17.0643L4.67391 17.32ZM12.3939 21.68L12.148 22.1154L12.5587 22.3473L12.8142 21.9509L12.3939 21.68ZM13.5539 19.88L13.9742 20.1508L14.2552 19.7148L13.8091 19.4501L13.5539 19.88ZM2.23391 13.16L1.86103 12.8269L1.45636 13.2799L1.97867 13.5899L2.23391 13.16ZM12.9539 1.16V0.659998H12.7301L12.581 0.826891L12.9539 1.16ZM22.5939 1.16L22.9578 0.817136L22.8098 0.659998H22.5939V1.16ZM29.3656 8.44498L24.2056 14.805L24.9822 15.435L30.1422 9.07502L29.3656 8.44498ZM24.8641 14.6993L18.8241 10.8193L18.2837 11.6607L24.3237 15.5407L24.8641 14.6993ZM18.1619 10.9296L16.6419 12.8496L17.4259 13.4704L18.9459 11.5504L18.1619 10.9296ZM16.7382 13.5632L27.5382 21.4832L28.1296 20.6768L17.3296 12.7568L16.7382 13.5632ZM27.3922 20.8457L22.1522 30.7257L23.0356 31.1943L28.2756 21.3143L27.3922 20.8457ZM22.5939 30.46H9.75391V31.46H22.5939V30.46ZM10.065 30.5685L1.10497 23.4485L0.482839 24.2315L9.44284 31.3515L10.065 30.5685ZM1.22358 24.0957L5.10358 17.5757L4.24423 17.0643L0.364232 23.5843L1.22358 24.0957ZM4.42803 17.7554L12.148 22.1154L12.6398 21.2446L4.91979 16.8846L4.42803 17.7554ZM12.8142 21.9509L13.9742 20.1508L13.1336 19.6091L11.9736 21.4091L12.8142 21.9509ZM13.8091 19.4501L2.48914 12.7301L1.97867 13.5899L13.2987 20.3099L13.8091 19.4501ZM2.60679 13.4931L13.3268 1.4931L12.581 0.826891L1.86103 12.8269L2.60679 13.4931ZM12.9539 1.66H22.5939V0.659998H12.9539V1.66ZM22.23 1.50286L29.39 9.10286L30.1178 8.41714L22.9578 0.817136L22.23 1.50286ZM29.5345 1.44V0.939999H29.0345V1.44H29.5345ZM42.4545 1.44L42.9543 1.45484L42.9696 0.939999H42.4545V1.44ZM41.8545 21.64L41.3548 21.6252L41.3247 22.6376L42.1467 22.0458L41.8545 21.64ZM46.8545 18.04L47.1467 18.4458L47.3814 18.2768L47.3519 17.989L46.8545 18.04ZM45.3745 3.6V3.1H44.8207L44.8771 3.65098L45.3745 3.6ZM57.6545 3.6H58.1545V3.1H57.6545V3.6ZM57.6545 23.04L58.0287 23.3716L58.1545 23.2297V23.04H57.6545ZM50.4945 31.12V31.62H50.7195L50.8687 31.4516L50.4945 31.12ZM35.4145 31.12L35.0273 31.4363L35.1773 31.62H35.4145V31.12ZM29.5345 23.92H29.0345V24.0982L29.1473 24.2363L29.5345 23.92ZM29.5345 1.94H42.4545V0.939999H29.5345V1.94ZM41.9548 1.42515L41.3548 21.6252L42.3543 21.6548L42.9543 1.45484L41.9548 1.42515ZM42.1467 22.0458L47.1467 18.4458L46.5624 17.6342L41.5624 21.2342L42.1467 22.0458ZM47.3519 17.989L45.8719 3.54902L44.8771 3.65098L46.3571 18.091L47.3519 17.989ZM45.3745 4.1H57.6545V3.1H45.3745V4.1ZM57.1545 3.6V23.04H58.1545V3.6H57.1545ZM57.2803 22.7084L50.1203 30.7884L50.8687 31.4516L58.0287 23.3716L57.2803 22.7084ZM50.4945 30.62H35.4145V31.62H50.4945V30.62ZM35.8018 30.8037L29.9218 23.6037L29.1473 24.2363L35.0273 31.4363L35.8018 30.8037ZM30.0345 23.92V1.44H29.0345V23.92H30.0345ZM76.7152 1.4L76.9984 0.987979L76.8705 0.9H76.7152V1.4ZM83.7552 6.24L84.2546 6.21638L84.2429 5.96854L84.0384 5.82798L83.7552 6.24ZM84.3152 18.08L84.6626 18.4396L84.8253 18.2824L84.8146 18.0564L84.3152 18.08ZM77.1952 24.96L77.2268 25.459L77.4103 25.4474L77.5426 25.3196L77.1952 24.96ZM68.3552 25.52L68.3235 25.021L67.8552 25.0507V25.52H68.3552ZM68.3552 31.16V31.66H68.8552V31.16H68.3552ZM59.0352 31.16L58.5358 31.1352L58.5097 31.66H59.0352V31.16ZM60.5152 1.4V0.9H60.0394L60.0158 1.37516L60.5152 1.4ZM69.9952 10.52L70.1011 10.0313L69.5298 9.90749L69.496 10.4911L69.9952 10.52ZM69.7152 15.36L69.216 15.3311L69.1893 15.7929L69.6476 15.8554L69.7152 15.36ZM72.3552 15.72L72.2876 16.2154L72.5591 16.2524L72.7364 16.0435L72.3552 15.72ZM75.7152 11.76L76.0964 12.0835L76.6357 11.4479L75.8211 11.2713L75.7152 11.76ZM76.4319 1.81202L83.4719 6.65202L84.0384 5.82798L76.9984 0.987979L76.4319 1.81202ZM83.2557 6.26362L83.8157 18.1036L84.8146 18.0564L84.2546 6.21638L83.2557 6.26362ZM83.9677 17.7204L76.8477 24.6004L77.5426 25.3196L84.6626 18.4396L83.9677 17.7204ZM77.1635 24.461L68.3235 25.021L68.3868 26.019L77.2268 25.459L77.1635 24.461ZM67.8552 25.52V31.16H68.8552V25.52H67.8552ZM68.3552 30.66H59.0352V31.66H68.3552V30.66ZM59.5345 31.1848L61.0145 1.42483L60.0158 1.37516L58.5358 31.1352L59.5345 31.1848ZM60.5152 1.9H76.7152V0.9H60.5152V1.9ZM69.496 10.4911L69.216 15.3311L70.2143 15.3889L70.4943 10.5489L69.496 10.4911ZM69.6476 15.8554L72.2876 16.2154L72.4227 15.2246L69.7827 14.8646L69.6476 15.8554ZM72.7364 16.0435L76.0964 12.0835L75.3339 11.4365L71.9739 15.3965L72.7364 16.0435ZM75.8211 11.2713L70.1011 10.0313L69.8892 11.0086L75.6092 12.2486L75.8211 11.2713ZM86.6248 1.2V0.699997H86.2168L86.135 1.0998L86.6248 1.2ZM106.225 1.2L106.715 1.29714L106.834 0.699997H106.225V1.2ZM104.585 9.48L104.661 9.97421L105.007 9.92101L105.075 9.57714L104.585 9.48ZM94.9448 10.96L94.869 10.4658L94.4694 10.5271L94.4457 10.9306L94.9448 10.96ZM94.8248 13L94.3257 12.9706L94.2968 13.4617L94.7874 13.4986L94.8248 13ZM103.345 13.64L103.844 13.6714L103.875 13.1784L103.382 13.1414L103.345 13.64ZM102.945 20L102.989 20.498L103.417 20.4598L103.444 20.0314L102.945 20ZM95.3448 20.68L95.3003 20.182L94.6813 20.2374L94.8679 20.8301L95.3448 20.68ZM96.0248 22.84L95.5479 22.9901L95.6571 23.3368L96.0205 23.34L96.0248 22.84ZM105.265 22.92L105.725 22.7236L105.596 22.4228L105.269 22.42L105.265 22.92ZM108.665 30.88V31.38H109.422L109.125 30.6836L108.665 30.88ZM86.6248 30.88L86.128 30.9361L86.1781 31.38H86.6248V30.88ZM84.4648 11.76L83.975 11.6598L83.9591 11.7374L83.968 11.8161L84.4648 11.76ZM86.6248 1.7H106.225V0.699997H86.6248V1.7ZM105.734 1.10285L104.094 9.38285L105.075 9.57714L106.715 1.29714L105.734 1.10285ZM104.509 8.98579L94.869 10.4658L95.0207 11.4542L104.661 9.97421L104.509 8.98579ZM94.4457 10.9306L94.3257 12.9706L95.324 13.0294L95.444 10.9894L94.4457 10.9306ZM94.7874 13.4986L103.307 14.1386L103.382 13.1414L94.8623 12.5014L94.7874 13.4986ZM102.846 13.6086L102.446 19.9686L103.444 20.0314L103.844 13.6714L102.846 13.6086ZM102.9 19.502L95.3003 20.182L95.3894 21.178L102.989 20.498L102.9 19.502ZM94.8679 20.8301L95.5479 22.9901L96.5018 22.6899L95.8218 20.5299L94.8679 20.8301ZM96.0205 23.34L105.261 23.42L105.269 22.42L96.0292 22.34L96.0205 23.34ZM104.805 23.1164L108.205 31.0764L109.125 30.6836L105.725 22.7236L104.805 23.1164ZM108.665 30.38H86.6248V31.38H108.665V30.38ZM87.1217 30.8239L84.9617 11.7039L83.968 11.8161L86.128 30.9361L87.1217 30.8239ZM84.9547 11.8602L87.1147 1.3002L86.135 1.0998L83.975 11.6598L84.9547 11.8602ZM123.995 1.44L124.289 1.0361L124.14 0.927287L123.956 0.941479L123.995 1.44ZM131.395 6.84L131.893 6.80361L131.876 6.57263L131.689 6.4361L131.395 6.84ZM132.075 16.16L132.447 16.4938L132.589 16.3356L132.573 16.1236L132.075 16.16ZM127.915 20.8L127.542 20.4662L127.206 20.8417L127.584 21.1752L127.915 20.8ZM135.315 27.32L135.513 27.7788L136.236 27.4657L135.645 26.9448L135.315 27.32ZM126.635 31.08L126.31 31.4601L126.547 31.6628L126.833 31.5388L126.635 31.08ZM117.555 23.32L117.879 22.9399L116.82 22.0349L117.062 23.4067L117.555 23.32ZM118.915 31.04V31.54H119.51L119.407 30.9533L118.915 31.04ZM109.715 31.04L109.216 31.0808L109.254 31.54H109.715V31.04ZM107.395 2.72L107.356 2.22148L106.855 2.2601L106.896 2.76082L107.395 2.72ZM117.555 9.72L117.79 9.27903L117.089 8.90401L117.055 9.69889L117.555 9.72ZM117.315 15.4L116.815 15.3789L116.796 15.8362L117.25 15.8958L117.315 15.4ZM119.755 15.72L119.69 16.2158L119.992 16.2554L120.165 16.0048L119.755 15.72ZM122.195 12.2L122.605 12.4848L122.925 12.0236L122.43 11.759L122.195 12.2ZM123.7 1.84389L131.1 7.24389L131.689 6.4361L124.289 1.0361L123.7 1.84389ZM130.896 6.87638L131.576 16.1964L132.573 16.1236L131.893 6.80361L130.896 6.87638ZM131.702 15.8262L127.542 20.4662L128.287 21.1338L132.447 16.4938L131.702 15.8262ZM127.584 21.1752L134.984 27.6952L135.645 26.9448L128.245 20.4248L127.584 21.1752ZM135.116 26.8612L126.436 30.6212L126.833 31.5388L135.513 27.7788L135.116 26.8612ZM126.959 30.6999L117.879 22.9399L117.23 23.7001L126.31 31.4601L126.959 30.6999ZM117.062 23.4067L118.422 31.1267L119.407 30.9533L118.047 23.2333L117.062 23.4067ZM118.915 30.54H109.715V31.54H118.915V30.54ZM110.213 30.9992L107.893 2.67918L106.896 2.76082L109.216 31.0808L110.213 30.9992ZM107.433 3.21852L124.033 1.93852L123.956 0.941479L107.356 2.22148L107.433 3.21852ZM117.055 9.69889L116.815 15.3789L117.814 15.4211L118.054 9.74111L117.055 9.69889ZM117.25 15.8958L119.69 16.2158L119.82 15.2242L117.38 14.9042L117.25 15.8958ZM120.165 16.0048L122.605 12.4848L121.784 11.9152L119.344 15.4352L120.165 16.0048ZM122.43 11.759L117.79 9.27903L117.319 10.161L121.959 12.641L122.43 11.759ZM154.465 1.32L154.474 0.820076L153.965 0.811125V1.32H154.465ZM184.025 1.84H184.525V1.34872L184.034 1.34008L184.025 1.84ZM184.025 13.84L183.944 14.3334L184.525 14.4287V13.84H184.025ZM174.025 12.2L174.106 11.7066L173.431 11.5959L173.53 12.2725L174.025 12.2ZM176.785 31.04V31.54H177.363L177.28 30.9675L176.785 31.04ZM162.465 31.04L161.968 30.983L161.904 31.54H162.465V31.04ZM164.625 12.2L165.122 12.257L165.182 11.7279L164.65 11.7007L164.625 12.2ZM154.465 11.68H153.965V12.1551L154.439 12.1793L154.465 11.68ZM154.456 1.81992L184.016 2.33992L184.034 1.34008L154.474 0.820076L154.456 1.81992ZM183.525 1.84V13.84H184.525V1.84H183.525ZM184.106 13.3466L174.106 11.7066L173.944 12.6934L183.944 14.3334L184.106 13.3466ZM173.53 12.2725L176.29 31.1125L177.28 30.9675L174.52 12.1275L173.53 12.2725ZM176.785 30.54H162.465V31.54H176.785V30.54ZM162.962 31.097L165.122 12.257L164.128 12.143L161.968 30.983L162.962 31.097ZM164.65 11.7007L154.49 11.1807L154.439 12.1793L164.599 12.6993L164.65 11.7007ZM154.965 11.68V1.32H153.965V11.68H154.965ZM186.305 1.44L186.275 0.940953L185.788 0.971023L185.806 1.45777L186.305 1.44ZM194.065 0.959998L194.555 0.856366L194.465 0.434317L194.035 0.460952L194.065 0.959998ZM200.065 29.28L200.12 29.777L200.669 29.7166L200.555 29.1764L200.065 29.28ZM187.345 30.68L186.846 30.6978L186.865 31.2359L187.4 31.177L187.345 30.68ZM186.336 1.93905L194.096 1.45904L194.035 0.460952L186.275 0.940953L186.336 1.93905ZM193.576 1.06363L199.576 29.3836L200.555 29.1764L194.555 0.856366L193.576 1.06363ZM200.011 28.783L187.291 30.183L187.4 31.177L200.12 29.777L200.011 28.783ZM187.845 30.6622L186.805 1.42223L185.806 1.45777L186.846 30.6978L187.845 30.6622ZM212.195 1.24L212.227 0.741059L212.082 0.731597L211.955 0.801413L212.195 1.24ZM223.235 1.96L223.734 1.98074L223.755 1.49284L223.267 1.46106L223.235 1.96ZM222.795 12.56L222.583 13.0131L223.263 13.3304L223.294 12.5807L222.795 12.56ZM215.595 9.2L215.806 8.74691L215.595 8.64841L215.384 8.74661L215.595 9.2ZM209.315 12.12L209.104 11.6666L208.828 11.7951L208.815 12.0994L209.315 12.12ZM209.035 18.92L208.535 18.8994L208.524 19.1769L208.753 19.3332L209.035 18.92ZM214.555 22.68L214.273 23.0932L214.521 23.2618L214.786 23.1232L214.555 22.68ZM222.675 18.44L223.161 18.3216L223.009 17.7012L222.443 17.9968L222.675 18.44ZM225.395 29.6L225.439 30.0981L226.018 30.0472L225.881 29.4816L225.395 29.6ZM209.435 31L209.105 31.3759L209.266 31.5168L209.479 31.4981L209.435 31ZM201.635 24.16L201.152 24.2902L201.191 24.4362L201.305 24.5359L201.635 24.16ZM199.315 15.56L198.849 15.3785L198.789 15.5316L198.832 15.6902L199.315 15.56ZM202.915 6.32L202.675 5.88141L202.515 5.96884L202.449 6.13848L202.915 6.32ZM212.162 1.73894L223.202 2.45894L223.267 1.46106L212.227 0.741059L212.162 1.73894ZM222.735 1.93926L222.295 12.5393L223.294 12.5807L223.734 1.98074L222.735 1.93926ZM223.006 12.1069L215.806 8.74691L215.383 9.65309L222.583 13.0131L223.006 12.1069ZM215.384 8.74661L209.104 11.6666L209.526 12.5734L215.806 9.65339L215.384 8.74661ZM208.815 12.0994L208.535 18.8994L209.534 18.9406L209.814 12.1406L208.815 12.0994ZM208.753 19.3332L214.273 23.0932L214.836 22.2668L209.316 18.5068L208.753 19.3332ZM214.786 23.1232L222.906 18.8832L222.443 17.9968L214.323 22.2368L214.786 23.1232ZM222.189 18.5584L224.909 29.7184L225.881 29.4816L223.161 18.3216L222.189 18.5584ZM225.351 29.1019L209.391 30.5019L209.479 31.4981L225.439 30.0981L225.351 29.1019ZM209.765 30.6241L201.965 23.7841L201.305 24.5359L209.105 31.3759L209.765 30.6241ZM202.118 24.0298L199.798 15.4298L198.832 15.6902L201.152 24.2902L202.118 24.0298ZM199.781 15.7415L203.381 6.50151L202.449 6.13848L198.849 15.3785L199.781 15.7415ZM203.155 6.75858L212.435 1.67859L211.955 0.801413L202.675 5.88141L203.155 6.75858ZM225.324 1.32L225.333 0.820076L224.824 0.811125V1.32H225.324ZM254.884 1.84H255.384V1.34872L254.893 1.34008L254.884 1.84ZM254.884 13.84L254.803 14.3334L255.384 14.4287V13.84H254.884ZM244.884 12.2L244.965 11.7066L244.29 11.5959L244.39 12.2725L244.884 12.2ZM247.644 31.04V31.54H248.223L248.139 30.9675L247.644 31.04ZM233.324 31.04L232.827 30.983L232.764 31.54H233.324V31.04ZM235.484 12.2L235.981 12.257L236.042 11.7279L235.51 11.7007L235.484 12.2ZM225.324 11.68H224.824V12.1551L225.299 12.1793L225.324 11.68ZM225.315 1.81992L254.875 2.33992L254.893 1.34008L225.333 0.820076L225.315 1.81992ZM254.384 1.84V13.84H255.384V1.84H254.384ZM254.965 13.3466L244.965 11.7066L244.803 12.6934L254.803 14.3334L254.965 13.3466ZM244.39 12.2725L247.15 31.1125L248.139 30.9675L245.379 12.1275L244.39 12.2725ZM247.644 30.54H233.324V31.54H247.644V30.54ZM233.821 31.097L235.981 12.257L234.987 12.143L232.827 30.983L233.821 31.097ZM235.51 11.7007L225.35 11.1807L225.299 12.1793L235.459 12.6993L235.51 11.7007ZM225.824 11.68V1.32H224.824V11.68H225.824ZM274.925 1.36L275.379 1.15156L275.23 0.826944L274.875 0.862479L274.925 1.36ZM287.565 28.92L287.643 29.4138L288.294 29.3104L288.019 28.7116L287.565 28.92ZM275.485 30.84L274.989 30.9072L275.058 31.4141L275.563 31.3338L275.485 30.84ZM274.525 23.76L275.02 23.6928L274.963 23.2707L274.537 23.2602L274.525 23.76ZM264.805 23.52L264.817 23.0202L264.432 23.0106L264.325 23.3803L264.805 23.52ZM262.605 31.08L262.517 31.5722L262.959 31.6513L263.085 31.2197L262.605 31.08ZM250.965 29L250.535 28.7444L250.166 29.3652L250.877 29.4922L250.965 29ZM266.925 2.16L266.875 1.66248L266.624 1.68759L266.495 1.90445L266.925 2.16ZM268.965 11.84L268.984 11.3404L268.632 11.3267L268.501 11.6535L268.965 11.84ZM267.325 15.92L266.861 15.7335L266.593 16.401L267.312 16.4198L267.325 15.92ZM273.445 16.08L273.432 16.5798L274.149 16.5986L273.918 15.9191L273.445 16.08ZM272.045 11.96L272.518 11.7991L272.408 11.4738L272.064 11.4604L272.045 11.96ZM274.47 1.56844L287.11 29.1284L288.019 28.7116L275.379 1.15156L274.47 1.56844ZM287.486 28.4262L275.406 30.3462L275.563 31.3338L287.643 29.4138L287.486 28.4262ZM275.98 30.7728L275.02 23.6928L274.029 23.8272L274.989 30.9072L275.98 30.7728ZM274.537 23.2602L264.817 23.0202L264.793 24.0198L274.513 24.2598L274.537 23.2602ZM264.325 23.3803L262.125 30.9403L263.085 31.2197L265.285 23.6597L264.325 23.3803ZM262.693 30.5878L251.053 28.5078L250.877 29.4922L262.517 31.5722L262.693 30.5878ZM251.395 29.2556L267.355 2.41555L266.495 1.90445L250.535 28.7444L251.395 29.2556ZM266.975 2.65752L274.975 1.85752L274.875 0.862479L266.875 1.66248L266.975 2.65752ZM268.501 11.6535L266.861 15.7335L267.789 16.1065L269.429 12.0265L268.501 11.6535ZM267.312 16.4198L273.432 16.5798L273.458 15.5802L267.338 15.4202L267.312 16.4198ZM273.918 15.9191L272.518 11.7991L271.571 12.1209L272.971 16.2409L273.918 15.9191ZM272.064 11.4604L268.984 11.3404L268.945 12.3396L272.025 12.4596L272.064 11.4604ZM297.195 1.24L297.227 0.741059L297.082 0.731597L296.955 0.801413L297.195 1.24ZM308.235 1.96L308.734 1.98074L308.755 1.49284L308.267 1.46106L308.235 1.96ZM307.795 12.56L307.583 13.0131L308.263 13.3304L308.294 12.5807L307.795 12.56ZM300.595 9.2L300.806 8.74691L300.595 8.64841L300.384 8.74661L300.595 9.2ZM294.315 12.12L294.104 11.6666L293.828 11.7951L293.815 12.0994L294.315 12.12ZM294.035 18.92L293.535 18.8994L293.524 19.1769L293.753 19.3332L294.035 18.92ZM299.555 22.68L299.273 23.0932L299.521 23.2618L299.786 23.1232L299.555 22.68ZM307.675 18.44L308.161 18.3216L308.009 17.7012L307.443 17.9968L307.675 18.44ZM310.395 29.6L310.439 30.0981L311.018 30.0472L310.881 29.4816L310.395 29.6ZM294.435 31L294.105 31.3759L294.266 31.5168L294.479 31.4981L294.435 31ZM286.635 24.16L286.152 24.2902L286.191 24.4362L286.305 24.5359L286.635 24.16ZM284.315 15.56L283.849 15.3785L283.789 15.5316L283.832 15.6902L284.315 15.56ZM287.915 6.32L287.675 5.88141L287.515 5.96884L287.449 6.13848L287.915 6.32ZM297.162 1.73894L308.202 2.45894L308.267 1.46106L297.227 0.741059L297.162 1.73894ZM307.735 1.93926L307.295 12.5393L308.294 12.5807L308.734 1.98074L307.735 1.93926ZM308.006 12.1069L300.806 8.74691L300.383 9.65309L307.583 13.0131L308.006 12.1069ZM300.384 8.74661L294.104 11.6666L294.526 12.5734L300.806 9.65339L300.384 8.74661ZM293.815 12.0994L293.535 18.8994L294.534 18.9406L294.814 12.1406L293.815 12.0994ZM293.753 19.3332L299.273 23.0932L299.836 22.2668L294.316 18.5068L293.753 19.3332ZM299.786 23.1232L307.906 18.8832L307.443 17.9968L299.323 22.2368L299.786 23.1232ZM307.189 18.5584L309.909 29.7184L310.881 29.4816L308.161 18.3216L307.189 18.5584ZM310.351 29.1019L294.391 30.5019L294.479 31.4981L310.439 30.0981L310.351 29.1019ZM294.765 30.6241L286.965 23.7841L286.305 24.5359L294.105 31.3759L294.765 30.6241ZM287.118 24.0298L284.798 15.4298L283.832 15.6902L286.152 24.2902L287.118 24.0298ZM284.781 15.7415L288.381 6.50151L287.449 6.13848L283.849 15.3785L284.781 15.7415ZM288.155 6.75858L297.435 1.67859L296.955 0.801413L287.675 5.88141L288.155 6.75858ZM310.324 1.32L310.333 0.820076L309.824 0.811125V1.32H310.324ZM339.884 1.84H340.384V1.34872L339.893 1.34008L339.884 1.84ZM339.884 13.84L339.803 14.3334L340.384 14.4287V13.84H339.884ZM329.884 12.2L329.965 11.7066L329.29 11.5959L329.39 12.2725L329.884 12.2ZM332.644 31.04V31.54H333.223L333.139 30.9675L332.644 31.04ZM318.324 31.04L317.827 30.983L317.764 31.54H318.324V31.04ZM320.484 12.2L320.981 12.257L321.042 11.7279L320.51 11.7007L320.484 12.2ZM310.324 11.68H309.824V12.1551L310.299 12.1793L310.324 11.68ZM310.315 1.81992L339.875 2.33992L339.893 1.34008L310.333 0.820076L310.315 1.81992ZM339.384 1.84V13.84H340.384V1.84H339.384ZM339.965 13.3466L329.965 11.7066L329.803 12.6934L339.803 14.3334L339.965 13.3466ZM329.39 12.2725L332.15 31.1125L333.139 30.9675L330.379 12.1275L329.39 12.2725ZM332.644 30.54H318.324V31.54H332.644V30.54ZM318.821 31.097L320.981 12.257L319.987 12.143L317.827 30.983L318.821 31.097ZM320.51 11.7007L310.35 11.1807L310.299 12.1793L320.459 12.6993L320.51 11.7007ZM310.824 11.68V1.32H309.824V11.68H310.824ZM362.845 1.68L363.234 1.3666L363.091 1.18786L362.861 1.18027L362.845 1.68ZM371.565 12.52L372.057 12.6056L372.096 12.3828L371.954 12.2066L371.565 12.52ZM369.085 26.8L369.211 27.2838L369.522 27.2026L369.577 26.8856L369.085 26.8ZM353.285 30.92L352.954 31.2949L353.154 31.471L353.411 31.4038L353.285 30.92ZM340.685 19.8L340.19 19.7258L340.15 19.9948L340.354 20.1749L340.685 19.8ZM342.565 7.28L342.297 6.85772L342.104 6.97998L342.07 7.20575L342.565 7.28ZM351.965 1.32L351.981 0.820272L351.827 0.815174L351.697 0.897724L351.965 1.32ZM354.325 11.76L354.434 11.2721L354.035 11.1828L353.868 11.5558L354.325 11.76ZM352.285 16.32L351.828 16.1158L351.656 16.5006L352.006 16.7353L352.285 16.32ZM355.805 18.68L355.526 19.0953L355.738 19.2369L355.977 19.1496L355.805 18.68ZM359.525 17.32L359.697 17.7896L360.041 17.6637L360.024 17.2975L359.525 17.32ZM359.325 12.88L359.824 12.8575L359.807 12.4756L359.434 12.3921L359.325 12.88ZM362.455 1.9934L371.175 12.8334L371.954 12.2066L363.234 1.3666L362.455 1.9934ZM371.072 12.4344L368.592 26.7144L369.577 26.8856L372.057 12.6056L371.072 12.4344ZM368.959 26.3162L353.159 30.4362L353.411 31.4038L369.211 27.2838L368.959 26.3162ZM353.616 30.5451L341.016 19.4251L340.354 20.1749L352.954 31.2949L353.616 30.5451ZM341.179 19.8742L343.059 7.35425L342.07 7.20575L340.19 19.7258L341.179 19.8742ZM342.833 7.70227L352.233 1.74227L351.697 0.897724L342.297 6.85772L342.833 7.70227ZM351.948 1.81972L362.828 2.17972L362.861 1.18027L351.981 0.820272L351.948 1.81972ZM353.868 11.5558L351.828 16.1158L352.741 16.5242L354.781 11.9642L353.868 11.5558ZM352.006 16.7353L355.526 19.0953L356.083 18.2647L352.563 15.9047L352.006 16.7353ZM355.977 19.1496L359.697 17.7896L359.353 16.8504L355.633 18.2104L355.977 19.1496ZM360.024 17.2975L359.824 12.8575L358.825 12.9025L359.025 17.3425L360.024 17.2975ZM359.434 12.3921L354.434 11.2721L354.216 12.2479L359.216 13.3679L359.434 12.3921ZM374.476 1.2V0.699997H374.068L373.987 1.0998L374.476 1.2ZM394.076 1.2L394.567 1.29714L394.685 0.699997H394.076V1.2ZM392.436 9.48L392.512 9.97421L392.859 9.92101L392.927 9.57714L392.436 9.48ZM382.796 10.96L382.721 10.4658L382.321 10.5271L382.297 10.9306L382.796 10.96ZM382.676 13L382.177 12.9706L382.148 13.4617L382.639 13.4986L382.676 13ZM391.196 13.64L391.695 13.6714L391.726 13.1784L391.234 13.1414L391.196 13.64ZM390.796 20L390.841 20.498L391.268 20.4598L391.295 20.0314L390.796 20ZM383.196 20.68L383.152 20.182L382.533 20.2374L382.719 20.8301L383.196 20.68ZM383.876 22.84L383.399 22.9901L383.509 23.3368L383.872 23.34L383.876 22.84ZM393.116 22.92L393.576 22.7236L393.448 22.4228L393.121 22.42L393.116 22.92ZM396.516 30.88V31.38H397.274L396.976 30.6836L396.516 30.88ZM374.476 30.88L373.98 30.9361L374.03 31.38H374.476V30.88ZM372.316 11.76L371.827 11.6598L371.811 11.7374L371.82 11.8161L372.316 11.76ZM374.476 1.7H394.076V0.699997H374.476V1.7ZM393.586 1.10285L391.946 9.38285L392.927 9.57714L394.567 1.29714L393.586 1.10285ZM392.361 8.98579L382.721 10.4658L382.872 11.4542L392.512 9.97421L392.361 8.98579ZM382.297 10.9306L382.177 12.9706L383.176 13.0294L383.296 10.9894L382.297 10.9306ZM382.639 13.4986L391.159 14.1386L391.234 13.1414L382.714 12.5014L382.639 13.4986ZM390.697 13.6086L390.297 19.9686L391.295 20.0314L391.695 13.6714L390.697 13.6086ZM390.752 19.502L383.152 20.182L383.241 21.178L390.841 20.498L390.752 19.502ZM382.719 20.8301L383.399 22.9901L384.353 22.6899L383.673 20.5299L382.719 20.8301ZM383.872 23.34L393.112 23.42L393.121 22.42L383.881 22.34L383.872 23.34ZM392.657 23.1164L396.057 31.0764L396.976 30.6836L393.576 22.7236L392.657 23.1164ZM396.516 30.38H374.476V31.38H396.516V30.38ZM374.973 30.8239L372.813 11.7039L371.82 11.8161L373.98 30.9361L374.973 30.8239ZM372.806 11.8602L374.966 1.3002L373.987 1.0998L371.827 11.6598L372.806 11.8602Z" fill="black"/>
</svg>
