<svg width="146" height="43" viewBox="0 0 146 43" fill="none" xmlns="http://www.w3.org/2000/svg">
<path d="M49.7867 4.656L46.6907 8.472L43.0667 6.144L42.1547 7.296L48.6347 12.048L45.4907 17.976H37.7867L32.4107 13.704L34.7387 9.792L39.3707 12.408L40.0667 11.328L33.2747 7.296L39.7067 0.0959988H45.4907L49.7867 4.656ZM0.265625 24.192L18.0016 24.504V31.704L12.0016 30.72L13.6576 42.024H5.06563L6.36163 30.72L0.265625 30.408V24.192ZM132.273 24.12H144.033L143.049 29.088L137.265 29.976L137.193 31.2L142.305 31.584L142.065 35.4L137.505 35.808L137.913 37.104L143.457 37.152L145.497 41.928H132.273L130.977 30.456L132.273 24.12Z" fill="#009CDA"/>
<path d="M49.6551 0.263999H57.4071L57.0471 12.384L60.0471 10.224L59.1591 1.56H66.5271V13.224L62.2311 18.072H53.1831L49.6551 13.752V0.263999ZM106.331 0.263999L110.771 3.504L111.179 9.096L108.683 11.88L113.123 15.792L107.915 18.048L102.467 13.392L103.283 18.024H97.7631L96.3711 1.032L106.331 0.263999ZM102.467 5.232L102.323 8.64L103.787 8.832L105.251 6.72L102.467 5.232ZM19.37 24.264L24.026 23.976L27.626 40.968L19.994 41.808L19.37 24.264ZM72.5416 24.216L80.1256 40.752L72.8776 41.904L72.3016 37.656L66.4696 37.512L65.1496 42.048L58.1656 40.8L67.7416 24.696L72.5416 24.216ZM68.9656 30.504L67.9816 32.952L71.6536 33.048L70.8136 30.576L68.9656 30.504ZM125.294 24.408L130.526 30.912L129.038 39.48L119.558 41.952L111.998 35.28L113.126 27.768L118.766 24.192L125.294 24.408ZM120.182 30.456L118.958 33.192L121.07 34.608L123.302 33.792L123.182 31.128L120.182 30.456Z" fill="#FCCF00"/>
<path d="M77.9635 0.24L82.1875 3.144L82.5235 10.248L78.2515 14.376L72.9475 14.712V18.096H67.3555L68.2435 0.24H77.9635ZM73.9315 5.712L73.7635 8.616L75.3475 8.832L77.3635 6.456L73.9315 5.712ZM34.9036 24.144L41.5276 24.576L41.2636 30.936L36.9436 28.92L33.1756 30.672L33.0076 34.752L36.3196 37.008L41.1916 34.464L42.8236 41.16L33.2476 42L28.5676 37.896L27.1756 32.736L29.3356 27.192L34.9036 24.144ZM85.9036 24.144L92.5276 24.576L92.2636 30.936L87.9436 28.92L84.1756 30.672L84.0076 34.752L87.3196 37.008L92.1916 34.464L93.8236 41.16L84.2476 42L79.5676 37.896L78.1756 32.736L80.3356 27.192L85.9036 24.144Z" fill="#E62310"/>
<path d="M83.9093 0.119998H95.6693L94.6853 5.088L88.9013 5.976L88.8293 7.2L93.9413 7.584L93.7013 11.4L89.1413 11.808L89.5493 13.104L95.0933 13.152L97.1333 17.928H83.9093L82.6133 6.456L83.9093 0.119998ZM42.7812 24.192L60.5173 24.504V31.704L54.5173 30.72L56.1733 42.024H47.5813L48.8773 30.72L42.7812 30.408V24.192ZM93.7812 24.192L111.517 24.504V31.704L105.517 30.72L107.173 42.024H98.5813L99.8773 30.72L93.7812 30.408V24.192Z" fill="#44AF35"/>
<path d="M49.7867 4.656L51.3398 5.91608L52.4419 4.55772L51.2424 3.28455L49.7867 4.656ZM46.6907 8.472L45.6098 10.1547L47.116 11.1223L48.2438 9.73208L46.6907 8.472ZM43.0667 6.144L44.1477 4.46128L42.6233 3.48202L41.4986 4.90259L43.0667 6.144ZM42.1547 7.296L40.5866 6.05459L39.2986 7.68163L40.972 8.90881L42.1547 7.296ZM48.6347 12.048L50.4016 12.9851L51.2117 11.4576L49.8174 10.4352L48.6347 12.048ZM45.4907 17.976V19.976H46.6939L47.2576 18.9131L45.4907 17.976ZM37.7867 17.976L36.5425 19.5418L37.0888 19.976H37.7867V17.976ZM32.4107 13.704L30.692 12.6812L29.7985 14.1828L31.1665 15.2698L32.4107 13.704ZM34.7387 9.792L35.7222 8.05054L34.0199 7.08909L33.02 8.76922L34.7387 9.792ZM39.3707 12.408L38.3872 14.1495L40.0299 15.0772L41.0519 13.4914L39.3707 12.408ZM40.0667 11.328L41.7479 12.4114L42.8718 10.6673L41.0877 9.60821L40.0667 11.328ZM33.2747 7.296L31.7832 5.96357L30.1645 7.77552L32.2538 9.01579L33.2747 7.296ZM39.7067 0.0959988V-1.904H38.8116L38.2152 -1.23643L39.7067 0.0959988ZM45.4907 0.0959988L46.9464 -1.27545L46.3543 -1.904H45.4907V0.0959988ZM48.2336 3.39592L45.1376 7.21192L48.2438 9.73208L51.3398 5.91608L48.2336 3.39592ZM47.7717 6.78928L44.1477 4.46128L41.9858 7.82672L45.6098 10.1547L47.7717 6.78928ZM41.4986 4.90259L40.5866 6.05459L43.7228 8.53741L44.6348 7.38541L41.4986 4.90259ZM40.972 8.90881L47.452 13.6608L49.8174 10.4352L43.3374 5.68319L40.972 8.90881ZM46.8678 11.1109L43.7238 17.0389L47.2576 18.9131L50.4016 12.9851L46.8678 11.1109ZM45.4907 15.976H37.7867V19.976H45.4907V15.976ZM39.031 16.4102L33.655 12.1382L31.1665 15.2698L36.5425 19.5418L39.031 16.4102ZM34.1294 14.7268L36.4574 10.8148L33.02 8.76922L30.692 12.6812L34.1294 14.7268ZM33.7552 11.5335L38.3872 14.1495L40.3542 10.6665L35.7222 8.05054L33.7552 11.5335ZM41.0519 13.4914L41.7479 12.4114L38.3856 10.2446L37.6896 11.3246L41.0519 13.4914ZM41.0877 9.60821L34.2957 5.57621L32.2538 9.01579L39.0458 13.0478L41.0877 9.60821ZM34.7662 8.62843L41.1982 1.42843L38.2152 -1.23643L31.7832 5.96357L34.7662 8.62843ZM39.7067 2.096H45.4907V-1.904H39.7067V2.096ZM44.035 1.46745L48.331 6.02744L51.2424 3.28455L46.9464 -1.27545L44.035 1.46745ZM49.6551 0.263999V-1.736H47.6551V0.263999H49.6551ZM57.4071 0.263999L59.4062 0.323379L59.4674 -1.736H57.4071V0.263999ZM57.0471 12.384L55.048 12.3246L54.9277 16.3744L58.2157 14.0071L57.0471 12.384ZM60.0471 10.224L61.2157 11.8471L62.1546 11.171L62.0367 10.0201L60.0471 10.224ZM59.1591 1.56V-0.440001H56.9436L57.1695 1.76392L59.1591 1.56ZM66.5271 1.56H68.5271V-0.440001H66.5271V1.56ZM66.5271 13.224L68.024 14.5504L68.5271 13.9826V13.224H66.5271ZM62.2311 18.072V20.072H63.1311L63.728 19.3984L62.2311 18.072ZM53.1831 18.072L51.634 19.3371L52.2342 20.072H53.1831V18.072ZM49.6551 13.752H47.6551V14.4649L48.106 15.0171L49.6551 13.752ZM49.6551 2.264H57.4071V-1.736H49.6551V2.264ZM55.408 0.20462L55.048 12.3246L59.0462 12.4434L59.4062 0.323379L55.408 0.20462ZM58.2157 14.0071L61.2157 11.8471L58.8785 8.60093L55.8785 10.7609L58.2157 14.0071ZM62.0367 10.0201L61.1487 1.35608L57.1695 1.76392L58.0575 10.4279L62.0367 10.0201ZM59.1591 3.56H66.5271V-0.440001H59.1591V3.56ZM64.5271 1.56V13.224H68.5271V1.56H64.5271ZM65.0302 11.8976L60.7342 16.7456L63.728 19.3984L68.024 14.5504L65.0302 11.8976ZM62.2311 16.072H53.1831V20.072H62.2311V16.072ZM54.7322 16.8069L51.2042 12.4869L48.106 15.0171L51.634 19.3371L54.7322 16.8069ZM51.6551 13.752V0.263999H47.6551V13.752H51.6551ZM77.9635 0.24L79.0965 -1.40808L78.5846 -1.76H77.9635V0.24ZM82.1875 3.144L84.1852 3.04951L84.1383 2.05817L83.3205 1.49592L82.1875 3.144ZM82.5235 10.248L83.9132 11.6862L84.564 11.0574L84.5212 10.1535L82.5235 10.248ZM78.2515 14.376L78.3779 16.372L79.1122 16.3255L79.6412 15.8142L78.2515 14.376ZM72.9475 14.712L72.821 12.716L70.9475 12.8347V14.712H72.9475ZM72.9475 18.096V20.096H74.9475V18.096H72.9475ZM67.3555 18.096L65.3579 17.9967L65.2535 20.096H67.3555V18.096ZM68.2435 0.24V-1.76H66.3405L66.2459 0.14066L68.2435 0.24ZM73.9315 5.712L74.3552 3.7574L72.0699 3.26198L71.9348 5.59649L73.9315 5.712ZM73.7635 8.616L71.7668 8.50049L71.6599 10.3477L73.4932 10.5977L73.7635 8.616ZM75.3475 8.832L75.0772 10.8137L76.1633 10.9618L76.8725 10.126L75.3475 8.832ZM77.3635 6.456L78.8885 7.74995L81.0455 5.20775L77.7872 4.5014L77.3635 6.456ZM76.8304 1.88808L81.0544 4.79208L83.3205 1.49592L79.0965 -1.40808L76.8304 1.88808ZM80.1897 3.23849L80.5257 10.3425L84.5212 10.1535L84.1852 3.04951L80.1897 3.23849ZM81.1337 8.80975L76.8617 12.9378L79.6412 15.8142L83.9132 11.6862L81.1337 8.80975ZM78.125 12.38L72.821 12.716L73.0739 16.708L78.3779 16.372L78.125 12.38ZM70.9475 14.712V18.096H74.9475V14.712H70.9475ZM72.9475 16.096H67.3555V20.096H72.9475V16.096ZM69.353 18.1953L70.241 0.339339L66.2459 0.14066L65.3579 17.9967L69.353 18.1953ZM68.2435 2.24H77.9635V-1.76H68.2435V2.24ZM71.9348 5.59649L71.7668 8.50049L75.7601 8.73151L75.9281 5.82751L71.9348 5.59649ZM73.4932 10.5977L75.0772 10.8137L75.6177 6.85034L74.0337 6.63434L73.4932 10.5977ZM76.8725 10.126L78.8885 7.74995L75.8385 5.16204L73.8225 7.53804L76.8725 10.126ZM77.7872 4.5014L74.3552 3.7574L73.5077 7.6666L76.9397 8.4106L77.7872 4.5014ZM83.9093 0.119998V-1.88H82.277L81.9499 -0.280794L83.9093 0.119998ZM95.6693 0.119998L97.6312 0.508585L98.1043 -1.88H95.6693V0.119998ZM94.6853 5.088L94.9888 7.06484L96.3747 6.85206L96.6472 5.47659L94.6853 5.088ZM88.9013 5.976L88.5978 3.99916L86.9997 4.24451L86.9047 5.85855L88.9013 5.976ZM88.8293 7.2L86.8327 7.08255L86.7172 9.04698L88.6795 9.19438L88.8293 7.2ZM93.9413 7.584L95.9373 7.70954L96.0614 5.73762L94.0911 5.58962L93.9413 7.584ZM93.7013 11.4L93.8795 13.392L95.5896 13.239L95.6973 11.5255L93.7013 11.4ZM89.1413 11.808L88.963 9.81596L86.4871 10.0375L87.2336 12.4086L89.1413 11.808ZM89.5493 13.104L87.6416 13.7046L88.0782 15.0913L89.532 15.1039L89.5493 13.104ZM95.0933 13.152L96.9325 12.3664L96.4187 11.1634L95.1106 11.1521L95.0933 13.152ZM97.1333 17.928V19.928H100.162L98.9725 17.1424L97.1333 17.928ZM83.9093 17.928L81.9219 18.1525L82.1225 19.928H83.9093V17.928ZM82.6133 6.456L80.6539 6.05521L80.5904 6.36565L80.6259 6.68051L82.6133 6.456ZM83.9093 2.12H95.6693V-1.88H83.9093V2.12ZM93.7074 -0.268588L92.7234 4.69941L96.6472 5.47659L97.6312 0.508585L93.7074 -0.268588ZM94.3818 3.11116L88.5978 3.99916L89.2048 7.95284L94.9888 7.06484L94.3818 3.11116ZM86.9047 5.85855L86.8327 7.08255L90.8258 7.31744L90.8978 6.09344L86.9047 5.85855ZM88.6795 9.19438L93.7915 9.57838L94.0911 5.58962L88.9791 5.20562L88.6795 9.19438ZM91.9452 7.45846L91.7052 11.2745L95.6973 11.5255L95.9373 7.70954L91.9452 7.45846ZM93.523 9.40796L88.963 9.81596L89.3195 13.8L93.8795 13.392L93.523 9.40796ZM87.2336 12.4086L87.6416 13.7046L91.457 12.5034L91.049 11.2074L87.2336 12.4086ZM89.532 15.1039L95.076 15.1519L95.1106 11.1521L89.5666 11.1041L89.532 15.1039ZM93.254 13.9376L95.294 18.7136L98.9725 17.1424L96.9325 12.3664L93.254 13.9376ZM97.1333 15.928H83.9093V19.928H97.1333V15.928ZM85.8966 17.7035L84.6006 6.23149L80.6259 6.68051L81.9219 18.1525L85.8966 17.7035ZM84.5727 6.85679L85.8687 0.520791L81.9499 -0.280794L80.6539 6.05521L84.5727 6.85679ZM106.331 0.263999L107.51 -1.35158L106.914 -1.78685L106.177 -1.73008L106.331 0.263999ZM110.771 3.504L112.766 3.35846L112.698 2.43451L111.95 1.88842L110.771 3.504ZM111.179 9.096L112.668 10.4311L113.236 9.79821L113.174 8.95046L111.179 9.096ZM108.683 11.88L107.194 10.5449L105.847 12.047L107.361 13.3806L108.683 11.88ZM113.123 15.792L113.918 17.6272L116.81 16.3746L114.445 14.2914L113.123 15.792ZM107.915 18.048L106.616 19.5684L107.565 20.3794L108.71 19.8832L107.915 18.048ZM102.467 13.392L103.766 11.8716L99.5307 8.25164L100.497 13.739L102.467 13.392ZM103.283 18.024V20.024H105.666L105.253 17.677L103.283 18.024ZM97.7631 18.024L95.7698 18.1873L95.9202 20.024H97.7631V18.024ZM96.3711 1.032L96.2173 -0.962081L94.2137 -0.807584L94.3778 1.19529L96.3711 1.032ZM102.467 5.232L103.41 3.46814L100.603 1.96804L100.469 5.14757L102.467 5.232ZM102.323 8.64L100.325 8.55557L100.248 10.3849L102.063 10.623L102.323 8.64ZM103.787 8.832L103.527 10.815L104.736 10.9736L105.431 9.97139L103.787 8.832ZM105.251 6.72L106.895 7.85939L108.174 6.01436L106.194 4.95614L105.251 6.72ZM105.152 1.87958L109.592 5.11958L111.95 1.88842L107.51 -1.35158L105.152 1.87958ZM108.776 3.64954L109.184 9.24154L113.174 8.95046L112.766 3.35846L108.776 3.64954ZM109.69 7.76091L107.194 10.5449L110.172 13.2151L112.668 10.4311L109.69 7.76091ZM107.361 13.3806L111.801 17.2926L114.445 14.2914L110.005 10.3794L107.361 13.3806ZM112.328 13.9568L107.12 16.2128L108.71 19.8832L113.918 17.6272L112.328 13.9568ZM109.214 16.5276L103.766 11.8716L101.168 14.9124L106.616 19.5684L109.214 16.5276ZM100.497 13.739L101.313 18.371L105.253 17.677L104.437 13.045L100.497 13.739ZM103.283 16.024H97.7631V20.024H103.283V16.024ZM99.7564 17.8607L98.3644 0.868705L94.3778 1.19529L95.7698 18.1873L99.7564 17.8607ZM96.5249 3.02608L106.485 2.25808L106.177 -1.73008L96.2173 -0.962081L96.5249 3.02608ZM100.469 5.14757L100.325 8.55557L104.321 8.72443L104.465 5.31643L100.469 5.14757ZM102.063 10.623L103.527 10.815L104.047 6.84898L102.583 6.65698L102.063 10.623ZM105.431 9.97139L106.895 7.85939L103.607 5.58061L102.143 7.69261L105.431 9.97139ZM106.194 4.95614L103.41 3.46814L101.524 6.99586L104.308 8.48386L106.194 4.95614ZM0.265625 24.192L0.300802 22.1923L-1.73438 22.1565V24.192H0.265625ZM18.0016 24.504H20.0016V22.5389L18.0368 22.5043L18.0016 24.504ZM18.0016 31.704L17.6779 33.6776L20.0016 34.0587V31.704H18.0016ZM12.0016 30.72L12.3253 28.7464L9.6263 28.3037L10.0227 31.0099L12.0016 30.72ZM13.6576 42.024V44.024H15.972L15.6365 41.7341L13.6576 42.024ZM5.06563 42.024L3.07864 41.7962L2.82322 44.024H5.06563V42.024ZM6.36163 30.72L8.34861 30.9478L8.59124 28.8315L6.46385 28.7226L6.36163 30.72ZM0.265625 30.408H-1.73438V32.3083L0.163397 32.4054L0.265625 30.408ZM0.230448 26.1917L17.9664 26.5037L18.0368 22.5043L0.300802 22.1923L0.230448 26.1917ZM16.0016 24.504V31.704H20.0016V24.504H16.0016ZM18.3253 29.7304L12.3253 28.7464L11.6779 32.6936L17.6779 33.6776L18.3253 29.7304ZM10.0227 31.0099L11.6787 42.3139L15.6365 41.7341L13.9805 30.4301L10.0227 31.0099ZM13.6576 40.024H5.06563V44.024H13.6576V40.024ZM7.05261 42.2518L8.34861 30.9478L4.37464 30.4922L3.07864 41.7962L7.05261 42.2518ZM6.46385 28.7226L0.367853 28.4106L0.163397 32.4054L6.2594 32.7174L6.46385 28.7226ZM2.26562 30.408V24.192H-1.73438V30.408H2.26562ZM19.37 24.264L19.2465 22.2678L17.302 22.3881L17.3713 24.3351L19.37 24.264ZM24.026 23.976L25.9826 23.5615L25.6249 21.8733L23.9025 21.9798L24.026 23.976ZM27.626 40.968L27.8448 42.956L30.0404 42.7143L29.5826 40.5535L27.626 40.968ZM19.994 41.808L17.9953 41.8791L18.0718 44.0316L20.2128 43.796L19.994 41.808ZM19.4935 26.2602L24.1495 25.9722L23.9025 21.9798L19.2465 22.2678L19.4935 26.2602ZM22.0694 24.3905L25.6694 41.3825L29.5826 40.5535L25.9826 23.5615L22.0694 24.3905ZM27.4072 38.98L19.7752 39.82L20.2128 43.796L27.8448 42.956L27.4072 38.98ZM21.9927 41.7369L21.3687 24.1929L17.3713 24.3351L17.9953 41.8791L21.9927 41.7369ZM34.9036 24.144L35.0338 22.1482L34.4534 22.1104L33.9433 22.3897L34.9036 24.144ZM41.5276 24.576L43.5259 24.6589L43.6069 22.7074L41.6578 22.5802L41.5276 24.576ZM41.2636 30.936L40.4179 32.7484L43.1374 34.0175L43.2619 31.0189L41.2636 30.936ZM36.9436 28.92L37.7894 27.1076L36.9452 26.7137L36.1004 27.1065L36.9436 28.92ZM33.1756 30.672L32.3324 28.8585L31.2275 29.3722L31.1773 30.5897L33.1756 30.672ZM33.0076 34.752L31.0093 34.6697L30.9636 35.7796L31.8817 36.405L33.0076 34.752ZM36.3196 37.008L35.1937 38.661L36.1836 39.3353L37.2454 38.7809L36.3196 37.008ZM41.1916 34.464L43.1347 33.9904L42.5299 31.5089L40.2659 32.6911L41.1916 34.464ZM42.8236 41.16L42.9984 43.1523L45.3182 42.9489L44.7667 40.6864L42.8236 41.16ZM33.2476 42L31.929 43.5037L32.5713 44.067L33.4224 43.9923L33.2476 42ZM28.5676 37.896L26.6367 38.4169L26.7942 39.0009L27.249 39.3997L28.5676 37.896ZM27.1756 32.736L25.3121 32.0099L25.0735 32.6223L25.2447 33.2569L27.1756 32.736ZM29.3356 27.192L28.3753 25.4377L27.7365 25.7874L27.4721 26.4659L29.3356 27.192ZM34.7735 26.1398L41.3975 26.5718L41.6578 22.5802L35.0338 22.1482L34.7735 26.1398ZM39.5293 24.4931L39.2653 30.8531L43.2619 31.0189L43.5259 24.6589L39.5293 24.4931ZM42.1094 29.1236L37.7894 27.1076L36.0979 30.7324L40.4179 32.7484L42.1094 29.1236ZM36.1004 27.1065L32.3324 28.8585L34.0189 32.4855L37.7869 30.7335L36.1004 27.1065ZM31.1773 30.5897L31.0093 34.6697L35.0059 34.8343L35.1739 30.7543L31.1773 30.5897ZM31.8817 36.405L35.1937 38.661L37.4456 35.355L34.1336 33.099L31.8817 36.405ZM37.2454 38.7809L42.1174 36.2369L40.2659 32.6911L35.3939 35.2351L37.2454 38.7809ZM39.2485 34.9376L40.8805 41.6336L44.7667 40.6864L43.1347 33.9904L39.2485 34.9376ZM42.6489 39.1677L33.0729 40.0077L33.4224 43.9923L42.9984 43.1523L42.6489 39.1677ZM34.5663 40.4963L29.8863 36.3923L27.249 39.3997L31.929 43.5037L34.5663 40.4963ZM30.4986 37.3751L29.1066 32.2151L25.2447 33.2569L26.6367 38.4169L30.4986 37.3751ZM29.0392 33.4621L31.1992 27.9181L27.4721 26.4659L25.3121 32.0099L29.0392 33.4621ZM30.296 28.9463L35.864 25.8983L33.9433 22.3897L28.3753 25.4377L30.296 28.9463ZM42.7812 24.192L42.8164 22.1923L40.7812 22.1565V24.192H42.7812ZM60.5173 24.504H62.5173V22.5389L60.5524 22.5043L60.5173 24.504ZM60.5173 31.704L60.1936 33.6776L62.5173 34.0587V31.704H60.5173ZM54.5173 30.72L54.8409 28.7464L52.1419 28.3037L52.5384 31.0099L54.5173 30.72ZM56.1733 42.024V44.024H58.4876L58.1521 41.7341L56.1733 42.024ZM47.5813 42.024L45.5943 41.7962L45.3388 44.024H47.5813V42.024ZM48.8773 30.72L50.8642 30.9478L51.1069 28.8315L48.9795 28.7226L48.8773 30.72ZM42.7812 30.408H40.7812V32.3083L42.679 32.4054L42.7812 30.408ZM42.7461 26.1917L60.4821 26.5037L60.5524 22.5043L42.8164 22.1923L42.7461 26.1917ZM58.5173 24.504V31.704H62.5173V24.504H58.5173ZM60.8409 29.7304L54.8409 28.7464L54.1936 32.6936L60.1936 33.6776L60.8409 29.7304ZM52.5384 31.0099L54.1944 42.3139L58.1521 41.7341L56.4961 30.4301L52.5384 31.0099ZM56.1733 40.024H47.5813V44.024H56.1733V40.024ZM49.5682 42.2518L50.8642 30.9478L46.8903 30.4922L45.5943 41.7962L49.5682 42.2518ZM48.9795 28.7226L42.8835 28.4106L42.679 32.4054L48.775 32.7174L48.9795 28.7226ZM44.7812 30.408V24.192H40.7812V30.408H44.7812ZM72.5416 24.216L74.3595 23.3822L73.764 22.0838L72.3426 22.2259L72.5416 24.216ZM80.1256 40.752L80.4396 42.7272L83.0421 42.3136L81.9435 39.9182L80.1256 40.752ZM72.8776 41.904L70.8958 42.1727L71.1707 44.2004L73.1916 43.8792L72.8776 41.904ZM72.3016 37.656L74.2835 37.3873L74.0545 35.6987L72.351 35.6566L72.3016 37.656ZM66.4696 37.512L66.519 35.5126L64.9796 35.4746L64.5493 36.9532L66.4696 37.512ZM65.1496 42.048L64.7978 44.0168L66.5676 44.3331L67.07 42.6068L65.1496 42.048ZM58.1656 40.8L56.4466 39.7778L54.9702 42.2607L57.8138 42.7688L58.1656 40.8ZM67.7416 24.696L67.5426 22.7059L66.5384 22.8063L66.0226 23.6738L67.7416 24.696ZM68.9656 30.504L69.0435 28.5055L67.6355 28.4507L67.1099 29.7581L68.9656 30.504ZM67.9816 32.952L66.1259 32.2061L65.0527 34.8761L67.9294 34.9513L67.9816 32.952ZM71.6536 33.048L71.6014 35.0473L74.4708 35.1223L73.5473 32.4045L71.6536 33.048ZM70.8136 30.576L72.7073 29.9325L72.265 28.631L70.8915 28.5775L70.8136 30.576ZM70.7237 25.0498L78.3077 41.5858L81.9435 39.9182L74.3595 23.3822L70.7237 25.0498ZM79.8117 38.7768L72.5637 39.9288L73.1916 43.8792L80.4396 42.7272L79.8117 38.7768ZM74.8595 41.6353L74.2835 37.3873L70.3198 37.9247L70.8958 42.1727L74.8595 41.6353ZM72.351 35.6566L66.519 35.5126L66.4203 39.5114L72.2523 39.6554L72.351 35.6566ZM64.5493 36.9532L63.2293 41.4892L67.07 42.6068L68.39 38.0708L64.5493 36.9532ZM65.5014 40.0792L58.5174 38.8312L57.8138 42.7688L64.7978 44.0168L65.5014 40.0792ZM59.8847 41.8222L69.4607 25.7182L66.0226 23.6738L56.4466 39.7778L59.8847 41.8222ZM67.9406 26.6861L72.7406 26.2061L72.3426 22.2259L67.5426 22.7059L67.9406 26.6861ZM67.1099 29.7581L66.1259 32.2061L69.8373 33.6979L70.8213 31.2499L67.1099 29.7581ZM67.9294 34.9513L71.6014 35.0473L71.7059 31.0487L68.0339 30.9527L67.9294 34.9513ZM73.5473 32.4045L72.7073 29.9325L68.92 31.2195L69.76 33.6915L73.5473 32.4045ZM70.8915 28.5775L69.0435 28.5055L68.8878 32.5025L70.7358 32.5745L70.8915 28.5775ZM85.9036 24.144L86.0338 22.1482L85.4534 22.1104L84.9433 22.3897L85.9036 24.144ZM92.5276 24.576L94.5259 24.6589L94.6069 22.7074L92.6578 22.5802L92.5276 24.576ZM92.2636 30.936L91.4179 32.7484L94.1374 34.0175L94.2619 31.0189L92.2636 30.936ZM87.9436 28.92L88.7894 27.1076L87.9452 26.7137L87.1004 27.1065L87.9436 28.92ZM84.1756 30.672L83.3324 28.8585L82.2275 29.3722L82.1773 30.5897L84.1756 30.672ZM84.0076 34.752L82.0093 34.6697L81.9636 35.7796L82.8817 36.405L84.0076 34.752ZM87.3196 37.008L86.1937 38.661L87.1836 39.3353L88.2454 38.7809L87.3196 37.008ZM92.1916 34.464L94.1347 33.9904L93.5299 31.5089L91.2659 32.6911L92.1916 34.464ZM93.8236 41.16L93.9984 43.1523L96.3182 42.9489L95.7667 40.6864L93.8236 41.16ZM84.2476 42L82.929 43.5037L83.5713 44.067L84.4224 43.9923L84.2476 42ZM79.5676 37.896L77.6367 38.4169L77.7942 39.0009L78.249 39.3997L79.5676 37.896ZM78.1756 32.736L76.3121 32.0099L76.0735 32.6223L76.2447 33.2569L78.1756 32.736ZM80.3356 27.192L79.3753 25.4377L78.7365 25.7874L78.4721 26.4659L80.3356 27.192ZM85.7735 26.1398L92.3975 26.5718L92.6578 22.5802L86.0338 22.1482L85.7735 26.1398ZM90.5293 24.4931L90.2653 30.8531L94.2619 31.0189L94.5259 24.6589L90.5293 24.4931ZM93.1094 29.1236L88.7894 27.1076L87.0979 30.7324L91.4179 32.7484L93.1094 29.1236ZM87.1004 27.1065L83.3324 28.8585L85.0189 32.4855L88.7869 30.7335L87.1004 27.1065ZM82.1773 30.5897L82.0093 34.6697L86.0059 34.8343L86.1739 30.7543L82.1773 30.5897ZM82.8817 36.405L86.1937 38.661L88.4456 35.355L85.1336 33.099L82.8817 36.405ZM88.2454 38.7809L93.1174 36.2369L91.2659 32.6911L86.3939 35.2351L88.2454 38.7809ZM90.2485 34.9376L91.8805 41.6336L95.7667 40.6864L94.1347 33.9904L90.2485 34.9376ZM93.6489 39.1677L84.0729 40.0077L84.4224 43.9923L93.9984 43.1523L93.6489 39.1677ZM85.5663 40.4963L80.8863 36.3923L78.249 39.3997L82.929 43.5037L85.5663 40.4963ZM81.4986 37.3751L80.1066 32.2151L76.2447 33.2569L77.6367 38.4169L81.4986 37.3751ZM80.0392 33.4621L82.1992 27.9181L78.4721 26.4659L76.3121 32.0099L80.0392 33.4621ZM81.296 28.9463L86.864 25.8983L84.9433 22.3897L79.3753 25.4377L81.296 28.9463ZM93.7812 24.192L93.8164 22.1923L91.7812 22.1565V24.192H93.7812ZM111.517 24.504H113.517V22.5389L111.552 22.5043L111.517 24.504ZM111.517 31.704L111.194 33.6776L113.517 34.0587V31.704H111.517ZM105.517 30.72L105.841 28.7464L103.142 28.3037L103.538 31.0099L105.517 30.72ZM107.173 42.024V44.024H109.488L109.152 41.7341L107.173 42.024ZM98.5813 42.024L96.5943 41.7962L96.3388 44.024H98.5813V42.024ZM99.8773 30.72L101.864 30.9478L102.107 28.8315L99.9795 28.7226L99.8773 30.72ZM93.7812 30.408H91.7812V32.3083L93.679 32.4054L93.7812 30.408ZM93.7461 26.1917L111.482 26.5037L111.552 22.5043L93.8164 22.1923L93.7461 26.1917ZM109.517 24.504V31.704H113.517V24.504H109.517ZM111.841 29.7304L105.841 28.7464L105.194 32.6936L111.194 33.6776L111.841 29.7304ZM103.538 31.0099L105.194 42.3139L109.152 41.7341L107.496 30.4301L103.538 31.0099ZM107.173 40.024H98.5813V44.024H107.173V40.024ZM100.568 42.2518L101.864 30.9478L97.8903 30.4922L96.5943 41.7962L100.568 42.2518ZM99.9795 28.7226L93.8835 28.4106L93.679 32.4054L99.775 32.7174L99.9795 28.7226ZM95.7812 30.408V24.192H91.7812V30.408H95.7812ZM125.294 24.408L126.852 23.1544L126.277 22.4394L125.36 22.4091L125.294 24.408ZM130.526 30.912L132.496 31.2542L132.651 30.3631L132.084 29.6584L130.526 30.912ZM129.038 39.48L129.542 41.4153L130.788 41.0905L131.008 39.8222L129.038 39.48ZM119.558 41.952L118.234 43.4515L119.032 44.1559L120.062 43.8873L119.558 41.952ZM111.998 35.28L110.02 34.983L109.858 36.0593L110.674 36.7795L111.998 35.28ZM113.126 27.768L112.055 26.0789L111.283 26.5679L111.148 27.471L113.126 27.768ZM118.766 24.192L118.832 22.1931L118.215 22.1727L117.695 22.5029L118.766 24.192ZM120.182 30.456L120.619 28.5044L119.024 28.147L118.356 29.6393L120.182 30.456ZM118.958 33.192L117.132 32.3753L116.443 33.9143L117.844 34.8532L118.958 33.192ZM121.07 34.608L119.956 36.2692L120.801 36.8357L121.756 36.4864L121.07 34.608ZM123.302 33.792L123.988 35.6704L125.366 35.1669L125.3 33.702L123.302 33.792ZM123.182 31.128L125.18 31.038L125.111 29.5106L123.619 29.1764L123.182 31.128ZM123.735 25.6616L128.967 32.1656L132.084 29.6584L126.852 23.1544L123.735 25.6616ZM128.555 30.5698L127.067 39.1378L131.008 39.8222L132.496 31.2542L128.555 30.5698ZM128.533 37.5447L119.053 40.0167L120.062 43.8873L129.542 41.4153L128.533 37.5447ZM120.881 40.4525L113.321 33.7805L110.674 36.7795L118.234 43.4515L120.881 40.4525ZM113.975 35.577L115.103 28.065L111.148 27.471L110.02 34.983L113.975 35.577ZM114.197 29.4571L119.837 25.8811L117.695 22.5029L112.055 26.0789L114.197 29.4571ZM118.699 26.1909L125.227 26.4069L125.36 22.4091L118.832 22.1931L118.699 26.1909ZM118.356 29.6393L117.132 32.3753L120.783 34.0087L122.007 31.2727L118.356 29.6393ZM117.844 34.8532L119.956 36.2692L122.183 32.9468L120.071 31.5308L117.844 34.8532ZM121.756 36.4864L123.988 35.6704L122.615 31.9136L120.383 32.7296L121.756 36.4864ZM125.3 33.702L125.18 31.038L121.184 31.218L121.304 33.882L125.3 33.702ZM123.619 29.1764L120.619 28.5044L119.744 32.4076L122.744 33.0796L123.619 29.1764ZM132.273 24.12V22.12H130.64L130.313 23.7192L132.273 24.12ZM144.033 24.12L145.994 24.5086L146.468 22.12H144.033V24.12ZM143.049 29.088L143.352 31.0648L144.738 30.8521L145.01 29.4766L143.049 29.088ZM137.265 29.976L136.961 27.9992L135.363 28.2445L135.268 29.8586L137.265 29.976ZM137.193 31.2L135.196 31.0826L135.08 33.047L137.043 33.1944L137.193 31.2ZM142.305 31.584L144.301 31.7095L144.425 29.7376L142.454 29.5896L142.305 31.584ZM142.065 35.4L142.243 37.392L143.953 37.239L144.061 35.5255L142.065 35.4ZM137.505 35.808L137.326 33.816L134.85 34.0375L135.597 36.4086L137.505 35.808ZM137.913 37.104L136.005 37.7046L136.441 39.0913L137.895 39.1039L137.913 37.104ZM143.457 37.152L145.296 36.3664L144.782 35.1634L143.474 35.1521L143.457 37.152ZM145.497 41.928V43.928H148.526L147.336 41.1424L145.497 41.928ZM132.273 41.928L130.285 42.1525L130.486 43.928H132.273V41.928ZM130.977 30.456L129.017 30.0552L128.954 30.3656L128.989 30.6805L130.977 30.456ZM132.273 26.12H144.033V22.12H132.273V26.12ZM142.071 23.7314L141.087 28.6994L145.01 29.4766L145.994 24.5086L142.071 23.7314ZM142.745 27.1112L136.961 27.9992L137.568 31.9528L143.352 31.0648L142.745 27.1112ZM135.268 29.8586L135.196 31.0826L139.189 31.3174L139.261 30.0934L135.268 29.8586ZM137.043 33.1944L142.155 33.5784L142.454 29.5896L137.342 29.2056L137.043 33.1944ZM140.309 31.4585L140.069 35.2745L144.061 35.5255L144.301 31.7095L140.309 31.4585ZM141.886 33.408L137.326 33.816L137.683 37.8L142.243 37.392L141.886 33.408ZM135.597 36.4086L136.005 37.7046L139.82 36.5034L139.412 35.2074L135.597 36.4086ZM137.895 39.1039L143.439 39.1519L143.474 35.1521L137.93 35.1041L137.895 39.1039ZM141.617 37.9376L143.657 42.7136L147.336 41.1424L145.296 36.3664L141.617 37.9376ZM145.497 39.928H132.273V43.928H145.497V39.928ZM134.26 41.7035L132.964 30.2315L128.989 30.6805L130.285 42.1525L134.26 41.7035ZM132.936 30.8568L134.232 24.5208L130.313 23.7192L129.017 30.0552L132.936 30.8568Z" fill="black"/>
</svg>
