<svg width="389" height="113" viewBox="0 0 389 113" fill="none" xmlns="http://www.w3.org/2000/svg">
<path d="M132.931 12.416L124.675 22.592L115.011 16.384L112.579 19.456L129.859 32.128L121.475 47.936H100.931L86.5953 36.544L92.8033 26.112L105.155 33.088L107.011 30.208L88.8993 19.456L106.051 0.255997H121.475L132.931 12.416ZM0.875 64.512L48.171 65.344V84.544L32.171 81.92L36.587 112.064H13.675L17.131 81.92L0.875 81.088V64.512ZM352.894 64.32H384.254L381.63 77.568L366.206 79.936L366.014 83.2L379.646 84.224L379.006 94.4L366.846 95.488L367.934 98.944L382.718 99.072L388.158 111.808H352.894L349.438 81.216L352.894 64.32Z" fill="#009CDA"/>
<path d="M132.58 0.703999H153.252L152.292 33.024L160.292 27.264L157.924 4.16H177.572V35.264L166.116 48.192H141.988L132.58 36.672V0.703999ZM283.716 0.703999L295.556 9.344L296.644 24.256L289.988 31.68L301.828 42.112L287.94 48.128L273.412 35.712L275.588 48.064H260.868L257.156 2.752L283.716 0.703999ZM273.412 13.952L273.028 23.04L276.932 23.552L280.836 17.92L273.412 13.952ZM51.82 64.704L64.236 63.936L73.836 109.248L53.484 111.488L51.82 64.704ZM193.611 64.576L213.835 108.672L194.507 111.744L192.971 100.416L177.419 100.032L173.899 112.128L155.275 108.8L180.811 65.856L193.611 64.576ZM184.075 81.344L181.451 87.872L191.243 88.128L189.003 81.536L184.075 81.344ZM334.283 65.088L348.235 82.432L344.267 105.28L318.987 111.872L298.827 94.08L301.835 74.048L316.875 64.512L334.283 65.088ZM320.651 81.216L317.387 88.512L323.019 92.288L328.971 90.112L328.651 83.008L320.651 81.216Z" fill="#FCCF00"/>
<path d="M208.069 0.639999L219.333 8.384L220.229 27.328L208.837 38.336L194.693 39.232V48.256H179.781L182.149 0.639999H208.069ZM197.317 15.232L196.869 22.976L201.093 23.552L206.469 17.216L197.317 15.232ZM93.243 64.384L110.907 65.536L110.203 82.496L98.683 77.12L88.635 81.792L88.187 92.672L97.019 98.688L110.011 91.904L114.363 109.76L88.827 112L76.347 101.056L72.635 87.296L78.395 72.512L93.243 64.384ZM229.243 64.384L246.907 65.536L246.203 82.496L234.683 77.12L224.635 81.792L224.187 92.672L233.019 98.688L246.011 91.904L250.363 109.76L224.827 112L212.347 101.056L208.635 87.296L214.395 72.512L229.243 64.384Z" fill="#E62310"/>
<path d="M223.925 0.319996H255.285L252.661 13.568L237.237 15.936L237.045 19.2L250.677 20.224L250.037 30.4L237.877 31.488L238.965 34.944L253.749 35.072L259.189 47.808H223.925L220.469 17.216L223.925 0.319996ZM114.25 64.512L161.546 65.344V84.544L145.546 81.92L149.962 112.064H127.05L130.506 81.92L114.25 81.088V64.512ZM250.25 64.512L297.546 65.344V84.544L281.546 81.92L285.962 112.064H263.05L266.506 81.92L250.25 81.088V64.512Z" fill="#44AF35"/>
<path d="M132.931 12.416L135.261 14.3061L136.914 12.2686L135.115 10.3588L132.931 12.416ZM124.675 22.592L123.054 25.1161L125.313 26.5674L127.005 24.4821L124.675 22.592ZM115.011 16.384L116.633 13.8599L114.346 12.391L112.659 14.5219L115.011 16.384ZM112.579 19.456L110.227 17.5939L108.295 20.0344L110.805 21.8752L112.579 19.456ZM129.859 32.128L132.51 33.5336L133.725 31.2425L131.633 29.7088L129.859 32.128ZM121.475 47.936V50.936H123.28L124.126 49.3416L121.475 47.936ZM100.931 47.936L99.0648 50.2847L99.8844 50.936H100.931V47.936ZM86.5953 36.544L84.0172 35.0098L82.6769 37.2621L84.7288 38.8927L86.5953 36.544ZM92.8033 26.112L94.2785 23.4998L91.725 22.0576L90.2252 24.5778L92.8033 26.112ZM105.155 33.088L103.68 35.7002L106.144 37.0918L107.677 34.7131L105.155 33.088ZM107.011 30.208L109.533 31.8331L111.219 29.217L108.543 27.6283L107.011 30.208ZM88.8993 19.456L86.662 17.4574L84.234 20.1753L87.3678 22.0357L88.8993 19.456ZM106.051 0.255997V-2.744H104.709L103.814 -1.74264L106.051 0.255997ZM121.475 0.255997L123.659 -1.80117L122.771 -2.744H121.475V0.255997ZM130.602 10.5259L122.346 20.7019L127.005 24.4821L135.261 14.3061L130.602 10.5259ZM126.297 20.0679L116.633 13.8599L113.39 18.9081L123.054 25.1161L126.297 20.0679ZM112.659 14.5219L110.227 17.5939L114.931 21.3181L117.363 18.2461L112.659 14.5219ZM110.805 21.8752L128.085 34.5472L131.633 29.7088L114.353 17.0368L110.805 21.8752ZM127.209 30.7224L118.825 46.5304L124.126 49.3416L132.51 33.5336L127.209 30.7224ZM121.475 44.936H100.931V50.936H121.475V44.936ZM102.798 45.5873L88.4617 34.1953L84.7288 38.8927L99.0648 50.2847L102.798 45.5873ZM89.1733 38.0782L95.3813 27.6462L90.2252 24.5778L84.0172 35.0098L89.1733 38.0782ZM91.328 28.7242L103.68 35.7002L106.631 30.4758L94.2785 23.4998L91.328 28.7242ZM107.677 34.7131L109.533 31.8331L104.49 28.5829L102.634 31.4629L107.677 34.7131ZM108.543 27.6283L90.4307 16.8763L87.3678 22.0357L105.48 32.7877L108.543 27.6283ZM91.1365 21.4546L108.289 2.25464L103.814 -1.74264L86.662 17.4574L91.1365 21.4546ZM106.051 3.256H121.475V-2.744H106.051V3.256ZM119.292 2.31317L130.748 14.4732L135.115 10.3588L123.659 -1.80117L119.292 2.31317ZM132.58 0.703999V-2.296H129.58V0.703999H132.58ZM153.252 0.703999L156.251 0.793068L156.343 -2.296H153.252V0.703999ZM152.292 33.024L149.294 32.9349L149.113 39.0097L154.045 35.4586L152.292 33.024ZM160.292 27.264L162.045 29.6986L163.454 28.6846L163.277 26.9581L160.292 27.264ZM157.924 4.16V1.16H154.601L154.94 4.46587L157.924 4.16ZM177.572 4.16H180.572V1.16H177.572V4.16ZM177.572 35.264L179.818 37.2536L180.572 36.402V35.264H177.572ZM166.116 48.192V51.192H167.466L168.362 50.1816L166.116 48.192ZM141.988 48.192L139.665 50.0896L140.565 51.192H141.988V48.192ZM132.58 36.672H129.58V37.7414L130.257 38.5696L132.58 36.672ZM132.58 3.704H153.252V-2.296H132.58V3.704ZM150.254 0.614929L149.294 32.9349L155.291 33.1131L156.251 0.793068L150.254 0.614929ZM154.045 35.4586L162.045 29.6986L158.539 24.8294L150.539 30.5894L154.045 35.4586ZM163.277 26.9581L160.909 3.85412L154.94 4.46587L157.308 27.5699L163.277 26.9581ZM157.924 7.16H177.572V1.16H157.924V7.16ZM174.572 4.16V35.264H180.572V4.16H174.572ZM175.327 33.2744L163.871 46.2024L168.362 50.1816L179.818 37.2536L175.327 33.2744ZM166.116 45.192H141.988V51.192H166.116V45.192ZM144.312 46.2944L134.904 34.7744L130.257 38.5696L139.665 50.0896L144.312 46.2944ZM135.58 36.672V0.703999H129.58V36.672H135.58ZM208.069 0.639999L209.769 -1.83213L209.001 -2.36H208.069V0.639999ZM219.333 8.384L222.33 8.24227L222.26 6.75525L221.033 5.91187L219.333 8.384ZM220.229 27.328L222.314 29.4854L223.29 28.5421L223.226 27.1863L220.229 27.328ZM208.837 38.336L209.027 41.33L210.128 41.2602L210.922 40.4934L208.837 38.336ZM194.693 39.232L194.504 36.238L191.693 36.416V39.232H194.693ZM194.693 48.256V51.256H197.693V48.256H194.693ZM179.781 48.256L176.785 48.107L176.628 51.256H179.781V48.256ZM182.149 0.639999V-2.36H179.295L179.153 0.49099L182.149 0.639999ZM197.317 15.232L197.953 12.3001L194.525 11.557L194.322 15.0587L197.317 15.232ZM196.869 22.976L193.874 22.8027L193.714 25.5735L196.464 25.9485L196.869 22.976ZM201.093 23.552L200.688 26.5245L202.317 26.7466L203.381 25.4929L201.093 23.552ZM206.469 17.216L208.757 19.1569L211.992 15.3436L207.105 14.2841L206.469 17.216ZM206.37 3.11213L217.634 10.8561L221.033 5.91187L209.769 -1.83213L206.37 3.11213ZM216.337 8.52573L217.233 27.4697L223.226 27.1863L222.33 8.24227L216.337 8.52573ZM218.145 25.1706L206.753 36.1786L210.922 40.4934L222.314 29.4854L218.145 25.1706ZM208.648 35.342L194.504 36.238L194.883 42.226L209.027 41.33L208.648 35.342ZM191.693 39.232V48.256H197.693V39.232H191.693ZM194.693 45.256H179.781V51.256H194.693V45.256ZM182.778 48.405L185.146 0.789009L179.153 0.49099L176.785 48.107L182.778 48.405ZM182.149 3.64H208.069V-2.36H182.149V3.64ZM194.322 15.0587L193.874 22.8027L199.864 23.1493L200.312 15.4053L194.322 15.0587ZM196.464 25.9485L200.688 26.5245L201.499 20.5795L197.275 20.0035L196.464 25.9485ZM203.381 25.4929L208.757 19.1569L204.182 15.2751L198.806 21.6111L203.381 25.4929ZM207.105 14.2841L197.953 12.3001L196.682 18.1639L205.834 20.1479L207.105 14.2841ZM223.925 0.319996V-2.68H221.476L220.986 -0.281193L223.925 0.319996ZM255.285 0.319996L258.228 0.902875L258.937 -2.68H255.285V0.319996ZM252.661 13.568L253.116 16.5333L255.195 16.2141L255.604 14.1509L252.661 13.568ZM237.237 15.936L236.782 12.9707L234.384 13.3388L234.242 15.7598L237.237 15.936ZM237.045 19.2L234.05 19.0238L233.877 21.9705L236.82 22.1916L237.045 19.2ZM250.677 20.224L253.671 20.4123L253.857 17.4544L250.901 17.2324L250.677 20.224ZM250.037 30.4L250.304 33.3881L252.869 33.1586L253.031 30.5883L250.037 30.4ZM237.877 31.488L237.609 28.4999L233.896 28.8322L235.015 32.3889L237.877 31.488ZM238.965 34.944L236.103 35.8449L236.758 37.925L238.939 37.9439L238.965 34.944ZM253.749 35.072L256.508 33.8936L255.737 32.0891L253.775 32.0721L253.749 35.072ZM259.189 47.808V50.808H263.732L261.948 46.6296L259.189 47.808ZM223.925 47.808L220.944 48.1448L221.245 50.808H223.925V47.808ZM220.469 17.216L217.53 16.6148L217.434 17.0805L217.488 17.5528L220.469 17.216ZM223.925 3.32H255.285V-2.68H223.925V3.32ZM252.342 -0.262884L249.718 12.9851L255.604 14.1509L258.228 0.902875L252.342 -0.262884ZM252.206 10.6027L236.782 12.9707L237.692 18.9013L253.116 16.5333L252.206 10.6027ZM234.242 15.7598L234.05 19.0238L240.04 19.3762L240.232 16.1122L234.242 15.7598ZM236.82 22.1916L250.452 23.2156L250.901 17.2324L237.269 16.2084L236.82 22.1916ZM247.683 20.0357L247.043 30.2117L253.031 30.5883L253.671 20.4123L247.683 20.0357ZM249.769 27.4119L237.609 28.4999L238.144 34.4761L250.304 33.3881L249.769 27.4119ZM235.015 32.3889L236.103 35.8449L241.826 34.0431L240.738 30.5871L235.015 32.3889ZM238.939 37.9439L253.723 38.0719L253.775 32.0721L238.991 31.9441L238.939 37.9439ZM250.99 36.2504L256.43 48.9864L261.948 46.6296L256.508 33.8936L250.99 36.2504ZM259.189 44.808H223.925V50.808H259.189V44.808ZM226.906 47.4712L223.45 16.8792L217.488 17.5528L220.944 48.1448L226.906 47.4712ZM223.408 17.8172L226.864 0.921185L220.986 -0.281193L217.53 16.6148L223.408 17.8172ZM283.716 0.703999L285.485 -1.71937L284.59 -2.37228L283.486 -2.28712L283.716 0.703999ZM295.556 9.344L298.548 9.12569L298.447 7.73976L297.325 6.92063L295.556 9.344ZM296.644 24.256L298.878 26.2586L299.729 25.3093L299.636 24.0377L296.644 24.256ZM289.988 31.68L287.755 29.6774L285.735 31.9305L288.005 33.9309L289.988 31.68ZM301.828 42.112L303.021 44.8648L307.358 42.9859L303.812 39.8611L301.828 42.112ZM287.94 48.128L285.991 50.4086L287.415 51.6251L289.133 50.8808L287.94 48.128ZM273.412 35.712L275.361 33.4314L269.008 28.0015L270.458 36.2325L273.412 35.712ZM275.588 48.064V51.064H279.163L278.543 47.5435L275.588 48.064ZM260.868 48.064L257.878 48.3089L258.104 51.064H260.868V48.064ZM257.156 2.752L256.926 -0.239122L253.92 -0.0073758L254.166 2.99694L257.156 2.752ZM273.412 13.952L274.826 11.3062L270.616 9.05607L270.415 13.8254L273.412 13.952ZM273.028 23.04L270.031 22.9134L269.915 25.6574L272.638 26.0145L273.028 23.04ZM276.932 23.552L276.542 26.5265L278.356 26.7644L279.398 25.2611L276.932 23.552ZM280.836 17.92L283.302 19.6291L285.22 16.8615L282.25 15.2742L280.836 17.92ZM281.948 3.12737L293.788 11.7674L297.325 6.92063L285.485 -1.71937L281.948 3.12737ZM292.564 9.5623L293.652 24.4743L299.636 24.0377L298.548 9.12569L292.564 9.5623ZM294.411 22.2534L287.755 29.6774L292.222 33.6826L298.878 26.2586L294.411 22.2534ZM288.005 33.9309L299.845 44.3629L303.812 39.8611L291.972 29.4291L288.005 33.9309ZM300.636 39.3592L286.748 45.3752L289.133 50.8808L303.021 44.8648L300.636 39.3592ZM289.889 45.8474L275.361 33.4314L271.463 37.9926L285.991 50.4086L289.889 45.8474ZM270.458 36.2325L272.634 48.5845L278.543 47.5435L276.367 35.1915L270.458 36.2325ZM275.588 45.064H260.868V51.064H275.588V45.064ZM263.858 47.8191L260.146 2.50706L254.166 2.99694L257.878 48.3089L263.858 47.8191ZM257.387 5.74312L283.947 3.69512L283.486 -2.28712L256.926 -0.239122L257.387 5.74312ZM270.415 13.8254L270.031 22.9134L276.026 23.1666L276.41 14.0786L270.415 13.8254ZM272.638 26.0145L276.542 26.5265L277.322 20.5775L273.418 20.0655L272.638 26.0145ZM279.398 25.2611L283.302 19.6291L278.371 16.2109L274.467 21.8429L279.398 25.2611ZM282.25 15.2742L274.826 11.3062L271.998 16.5978L279.422 20.5658L282.25 15.2742ZM0.875 64.512L0.927766 61.5125L-2.125 61.4588V64.512H0.875ZM48.171 65.344H51.171V62.3963L48.2238 62.3445L48.171 65.344ZM48.171 84.544L47.6855 87.5045L51.171 88.0761V84.544H48.171ZM32.171 81.92L32.6565 78.9595L28.608 78.2956L29.2027 82.3548L32.171 81.92ZM36.587 112.064V115.064H40.0585L39.5553 111.629L36.587 112.064ZM13.675 112.064L10.6945 111.722L10.3114 115.064H13.675V112.064ZM17.131 81.92L20.1115 82.2617L20.4754 79.0872L17.2843 78.9239L17.131 81.92ZM0.875 81.088H-2.125V83.9384L0.721658 84.0841L0.875 81.088ZM0.822234 67.5115L48.1182 68.3435L48.2238 62.3445L0.927766 61.5125L0.822234 67.5115ZM45.171 65.344V84.544H51.171V65.344H45.171ZM48.6565 81.5835L32.6565 78.9595L31.6855 84.8805L47.6855 87.5045L48.6565 81.5835ZM29.2027 82.3548L33.6187 112.499L39.5553 111.629L35.1393 81.4851L29.2027 82.3548ZM36.587 109.064H13.675V115.064H36.587V109.064ZM16.6555 112.406L20.1115 82.2617L14.1505 81.5783L10.6945 111.722L16.6555 112.406ZM17.2843 78.9239L1.02834 78.0919L0.721658 84.0841L16.9777 84.9161L17.2843 78.9239ZM3.875 81.088V64.512H-2.125V81.088H3.875ZM51.82 64.704L51.6348 61.7097L48.718 61.8901L48.8219 64.8106L51.82 64.704ZM64.236 63.936L67.1709 63.3142L66.6344 60.7819L64.0508 60.9417L64.236 63.936ZM73.836 109.248L74.1642 112.23L77.4576 111.868L76.7709 108.626L73.836 109.248ZM53.484 111.488L50.4859 111.595L50.6007 114.823L53.8122 114.47L53.484 111.488ZM52.0052 67.6983L64.4212 66.9303L64.0508 60.9417L51.6348 61.7097L52.0052 67.6983ZM61.3011 64.5578L70.9011 109.87L76.7709 108.626L67.1709 63.3142L61.3011 64.5578ZM73.5078 106.266L53.1558 108.506L53.8122 114.47L74.1642 112.23L73.5078 106.266ZM56.4821 111.381L54.8181 64.5974L48.8219 64.8106L50.4859 111.595L56.4821 111.381ZM93.243 64.384L93.4382 61.3904L92.5677 61.3336L91.8025 61.7525L93.243 64.384ZM110.907 65.536L113.904 65.6604L114.026 62.733L111.102 62.5424L110.907 65.536ZM110.203 82.496L108.934 85.2145L113.014 87.1183L113.2 82.6204L110.203 82.496ZM98.683 77.12L99.9517 74.4014L98.6853 73.8105L97.4181 74.3997L98.683 77.12ZM88.635 81.792L87.3701 79.0717L85.7127 79.8423L85.6375 81.6686L88.635 81.792ZM88.187 92.672L85.1895 92.5486L85.121 94.2134L86.4981 95.1514L88.187 92.672ZM97.019 98.688L95.3301 101.167L96.815 102.179L98.4076 101.347L97.019 98.688ZM110.011 91.904L112.926 91.1936L112.018 87.4714L108.622 89.2447L110.011 91.904ZM114.363 109.76L114.625 112.749L118.105 112.443L117.278 109.05L114.363 109.76ZM88.827 112L86.849 114.256L87.8125 115.101L89.0892 114.989L88.827 112ZM76.347 101.056L73.4505 101.837L73.6869 102.713L74.369 103.312L76.347 101.056ZM72.635 87.296L69.8397 86.2069L69.4818 87.1255L69.7385 88.0774L72.635 87.296ZM78.395 72.512L76.9545 69.8805L75.9962 70.405L75.5997 71.4229L78.395 72.512ZM93.0478 67.3776L110.712 68.5296L111.102 62.5424L93.4382 61.3904L93.0478 67.3776ZM107.91 65.4116L107.206 82.3716L113.2 82.6204L113.904 65.6604L107.91 65.4116ZM111.472 79.7774L99.9517 74.4014L97.4143 79.8385L108.934 85.2145L111.472 79.7774ZM97.4181 74.3997L87.3701 79.0717L89.8999 84.5123L99.9479 79.8403L97.4181 74.3997ZM85.6375 81.6686L85.1895 92.5486L91.1845 92.7954L91.6325 81.9154L85.6375 81.6686ZM86.4981 95.1514L95.3301 101.167L98.7079 96.2086L89.8759 90.1926L86.4981 95.1514ZM98.4076 101.347L111.4 94.5633L108.622 89.2447L95.6304 96.0287L98.4076 101.347ZM107.096 92.6144L111.448 110.47L117.278 109.05L112.926 91.1936L107.096 92.6144ZM114.101 106.771L88.5648 109.011L89.0892 114.989L114.625 112.749L114.101 106.771ZM90.805 109.744L78.325 98.8004L74.369 103.312L86.849 114.256L90.805 109.744ZM79.2435 100.275L75.5315 86.5146L69.7385 88.0774L73.4505 101.837L79.2435 100.275ZM75.4303 88.3851L81.1903 73.6011L75.5997 71.4229L69.8397 86.2069L75.4303 88.3851ZM79.8355 75.1435L94.6835 67.0155L91.8025 61.7525L76.9545 69.8805L79.8355 75.1435ZM114.25 64.512L114.303 61.5125L111.25 61.4588V64.512H114.25ZM161.546 65.344H164.546V62.3963L161.599 62.3445L161.546 65.344ZM161.546 84.544L161.06 87.5045L164.546 88.0761V84.544H161.546ZM145.546 81.92L146.032 78.9595L141.983 78.2956L142.578 82.3548L145.546 81.92ZM149.962 112.064V115.064H153.434L152.93 111.629L149.962 112.064ZM127.05 112.064L124.07 111.722L123.686 115.064H127.05V112.064ZM130.506 81.92L133.486 82.2617L133.85 79.0872L130.659 78.9239L130.506 81.92ZM114.25 81.088H111.25V83.9384L114.097 84.0841L114.25 81.088ZM114.197 67.5115L161.493 68.3435L161.599 62.3445L114.303 61.5125L114.197 67.5115ZM158.546 65.344V84.544H164.546V65.344H158.546ZM162.032 81.5835L146.032 78.9595L145.06 84.8805L161.06 87.5045L162.032 81.5835ZM142.578 82.3548L146.994 112.499L152.93 111.629L148.514 81.4851L142.578 82.3548ZM149.962 109.064H127.05V115.064H149.962V109.064ZM130.03 112.406L133.486 82.2617L127.526 81.5783L124.07 111.722L130.03 112.406ZM130.659 78.9239L114.403 78.0919L114.097 84.0841L130.353 84.9161L130.659 78.9239ZM117.25 81.088V64.512H111.25V81.088H117.25ZM193.611 64.576L196.338 63.3254L195.445 61.3777L193.312 61.5909L193.611 64.576ZM213.835 108.672L214.306 111.635L218.21 111.014L216.562 107.421L213.835 108.672ZM194.507 111.744L191.534 112.147L191.947 115.189L194.978 114.707L194.507 111.744ZM192.971 100.416L195.944 100.013L195.6 97.48L193.045 97.4169L192.971 100.416ZM177.419 100.032L177.493 97.0329L175.184 96.9759L174.538 99.1938L177.419 100.032ZM173.899 112.128L173.371 115.081L176.026 115.556L176.78 112.966L173.899 112.128ZM155.275 108.8L152.696 107.267L150.482 110.991L154.747 111.753L155.275 108.8ZM180.811 65.856L180.512 62.8709L179.006 63.0215L178.232 64.3227L180.811 65.856ZM184.075 81.344L184.192 78.3463L182.08 78.264L181.291 80.2251L184.075 81.344ZM181.451 87.872L178.667 86.7531L177.058 90.7582L181.373 90.871L181.451 87.872ZM191.243 88.128L191.165 91.127L195.469 91.2395L194.083 87.1628L191.243 88.128ZM189.003 81.536L191.843 80.5708L191.18 78.6185L189.12 78.5383L189.003 81.536ZM190.884 65.8266L211.108 109.923L216.562 107.421L196.338 63.3254L190.884 65.8266ZM213.364 105.709L194.036 108.781L194.978 114.707L214.306 111.635L213.364 105.709ZM197.48 111.341L195.944 100.013L189.998 100.819L191.534 112.147L197.48 111.341ZM193.045 97.4169L177.493 97.0329L177.345 103.031L192.897 103.415L193.045 97.4169ZM174.538 99.1938L171.018 111.29L176.78 112.966L180.3 100.87L174.538 99.1938ZM174.427 109.175L155.803 105.847L154.747 111.753L173.371 115.081L174.427 109.175ZM157.854 110.333L183.39 67.3893L178.232 64.3227L152.696 107.267L157.854 110.333ZM181.11 68.8411L193.91 67.5611L193.312 61.5909L180.512 62.8709L181.11 68.8411ZM181.291 80.2251L178.667 86.7531L184.235 88.9909L186.859 82.4629L181.291 80.2251ZM181.373 90.871L191.165 91.127L191.321 85.129L181.529 84.873L181.373 90.871ZM194.083 87.1628L191.843 80.5708L186.163 82.5012L188.403 89.0932L194.083 87.1628ZM189.12 78.5383L184.192 78.3463L183.958 84.3417L188.886 84.5337L189.12 78.5383ZM229.243 64.384L229.438 61.3904L228.568 61.3336L227.802 61.7525L229.243 64.384ZM246.907 65.536L249.904 65.6604L250.026 62.733L247.102 62.5424L246.907 65.536ZM246.203 82.496L244.934 85.2145L249.014 87.1183L249.2 82.6204L246.203 82.496ZM234.683 77.12L235.952 74.4014L234.685 73.8105L233.418 74.3997L234.683 77.12ZM224.635 81.792L223.37 79.0717L221.713 79.8423L221.638 81.6686L224.635 81.792ZM224.187 92.672L221.19 92.5486L221.121 94.2134L222.498 95.1514L224.187 92.672ZM233.019 98.688L231.33 101.167L232.815 102.179L234.408 101.347L233.019 98.688ZM246.011 91.904L248.926 91.1936L248.018 87.4714L244.622 89.2447L246.011 91.904ZM250.363 109.76L250.625 112.749L254.105 112.443L253.278 109.05L250.363 109.76ZM224.827 112L222.849 114.256L223.813 115.101L225.089 114.989L224.827 112ZM212.347 101.056L209.451 101.837L209.687 102.713L210.369 103.312L212.347 101.056ZM208.635 87.296L205.84 86.2069L205.482 87.1255L205.739 88.0774L208.635 87.296ZM214.395 72.512L212.954 69.8805L211.996 70.405L211.6 71.4229L214.395 72.512ZM229.048 67.3776L246.712 68.5296L247.102 62.5424L229.438 61.3904L229.048 67.3776ZM243.91 65.4116L243.206 82.3716L249.2 82.6204L249.904 65.6604L243.91 65.4116ZM247.472 79.7774L235.952 74.4014L233.414 79.8385L244.934 85.2145L247.472 79.7774ZM233.418 74.3997L223.37 79.0717L225.9 84.5123L235.948 79.8403L233.418 74.3997ZM221.638 81.6686L221.19 92.5486L227.184 92.7954L227.632 81.9154L221.638 81.6686ZM222.498 95.1514L231.33 101.167L234.708 96.2086L225.876 90.1926L222.498 95.1514ZM234.408 101.347L247.4 94.5633L244.622 89.2447L231.63 96.0287L234.408 101.347ZM243.096 92.6144L247.448 110.47L253.278 109.05L248.926 91.1936L243.096 92.6144ZM250.101 106.771L224.565 109.011L225.089 114.989L250.625 112.749L250.101 106.771ZM226.805 109.744L214.325 98.8004L210.369 103.312L222.849 114.256L226.805 109.744ZM215.243 100.275L211.531 86.5146L205.739 88.0774L209.451 101.837L215.243 100.275ZM211.43 88.3851L217.19 73.6011L211.6 71.4229L205.84 86.2069L211.43 88.3851ZM215.836 75.1435L230.684 67.0155L227.802 61.7525L212.954 69.8805L215.836 75.1435ZM250.25 64.512L250.303 61.5125L247.25 61.4588V64.512H250.25ZM297.546 65.344H300.546V62.3963L297.599 62.3445L297.546 65.344ZM297.546 84.544L297.06 87.5045L300.546 88.0761V84.544H297.546ZM281.546 81.92L282.032 78.9595L277.983 78.2956L278.578 82.3548L281.546 81.92ZM285.962 112.064V115.064H289.434L288.93 111.629L285.962 112.064ZM263.05 112.064L260.07 111.722L259.686 115.064H263.05V112.064ZM266.506 81.92L269.486 82.2617L269.85 79.0872L266.659 78.9239L266.506 81.92ZM250.25 81.088H247.25V83.9384L250.097 84.0841L250.25 81.088ZM250.197 67.5115L297.493 68.3435L297.599 62.3445L250.303 61.5125L250.197 67.5115ZM294.546 65.344V84.544H300.546V65.344H294.546ZM298.032 81.5835L282.032 78.9595L281.06 84.8805L297.06 87.5045L298.032 81.5835ZM278.578 82.3548L282.994 112.499L288.93 111.629L284.514 81.4851L278.578 82.3548ZM285.962 109.064H263.05V115.064H285.962V109.064ZM266.03 112.406L269.486 82.2617L263.526 81.5783L260.07 111.722L266.03 112.406ZM266.659 78.9239L250.403 78.0919L250.097 84.0841L266.353 84.9161L266.659 78.9239ZM253.25 81.088V64.512H247.25V81.088H253.25ZM334.283 65.088L336.621 63.2076L335.758 62.1352L334.382 62.0896L334.283 65.088ZM348.235 82.432L351.191 82.9453L351.423 81.6087L350.573 80.5516L348.235 82.432ZM344.267 105.28L345.024 108.183L346.892 107.696L347.223 105.793L344.267 105.28ZM318.987 111.872L317.002 114.121L318.199 115.178L319.744 114.775L318.987 111.872ZM298.827 94.08L295.86 93.6345L295.618 95.249L296.842 96.3293L298.827 94.08ZM301.835 74.048L300.229 71.5144L299.072 72.2479L298.868 73.6025L301.835 74.048ZM316.875 64.512L316.974 61.5136L316.05 61.483L315.269 61.9784L316.875 64.512ZM320.651 81.216L321.307 78.2885L318.914 77.7525L317.913 79.9909L320.651 81.216ZM317.387 88.512L314.649 87.2869L313.616 89.5954L315.716 91.0038L317.387 88.512ZM323.019 92.288L321.348 94.7798L322.616 95.6296L324.049 95.1056L323.019 92.288ZM328.971 90.112L330.001 92.9296L332.067 92.1744L331.968 89.977L328.971 90.112ZM328.651 83.008L331.648 82.873L331.545 80.5819L329.307 80.0805L328.651 83.008ZM331.945 66.9684L345.897 84.3124L350.573 80.5516L336.621 63.2076L331.945 66.9684ZM345.279 81.9187L341.311 104.767L347.223 105.793L351.191 82.9453L345.279 81.9187ZM343.51 102.377L318.23 108.969L319.744 114.775L345.024 108.183L343.51 102.377ZM320.972 109.623L300.812 91.8307L296.842 96.3293L317.002 114.121L320.972 109.623ZM301.794 94.5255L304.802 74.4935L298.868 73.6025L295.86 93.6345L301.794 94.5255ZM303.441 76.5816L318.481 67.0456L315.269 61.9784L300.229 71.5144L303.441 76.5816ZM316.776 67.5104L334.184 68.0864L334.382 62.0896L316.974 61.5136L316.776 67.5104ZM317.913 79.9909L314.649 87.2869L320.125 89.7371L323.389 82.4411L317.913 79.9909ZM315.716 91.0038L321.348 94.7798L324.69 89.7962L319.058 86.0202L315.716 91.0038ZM324.049 95.1056L330.001 92.9296L327.941 87.2944L321.989 89.4704L324.049 95.1056ZM331.968 89.977L331.648 82.873L325.654 83.143L325.974 90.247L331.968 89.977ZM329.307 80.0805L321.307 78.2885L319.995 84.1435L327.995 85.9355L329.307 80.0805ZM352.894 64.32V61.32H350.445L349.954 63.7188L352.894 64.32ZM384.254 64.32L387.196 64.9029L387.906 61.32H384.254V64.32ZM381.63 77.568L382.085 80.5333L384.164 80.2141L384.572 78.1509L381.63 77.568ZM366.206 79.936L365.75 76.9707L363.353 77.3388L363.211 79.7598L366.206 79.936ZM366.014 83.2L363.019 83.0238L362.845 85.9705L365.789 86.1916L366.014 83.2ZM379.646 84.224L382.64 84.4123L382.826 81.4544L379.87 81.2324L379.646 84.224ZM379.006 94.4L379.273 97.3881L381.838 97.1586L382 94.5883L379.006 94.4ZM366.846 95.488L366.578 92.4999L362.864 92.8322L363.984 96.3889L366.846 95.488ZM367.934 98.944L365.072 99.8449L365.727 101.925L367.908 101.944L367.934 98.944ZM382.718 99.072L385.476 97.8936L384.706 96.0891L382.743 96.0721L382.718 99.072ZM388.158 111.808V114.808H392.701L390.916 110.63L388.158 111.808ZM352.894 111.808L349.912 112.145L350.213 114.808H352.894V111.808ZM349.438 81.216L346.498 80.6148L346.403 81.0805L346.456 81.5528L349.438 81.216ZM352.894 67.32H384.254V61.32H352.894V67.32ZM381.311 63.7371L378.687 76.9851L384.572 78.1509L387.196 64.9029L381.311 63.7371ZM381.174 74.6027L365.75 76.9707L366.661 82.9013L382.085 80.5333L381.174 74.6027ZM363.211 79.7598L363.019 83.0238L369.008 83.3762L369.2 80.1122L363.211 79.7598ZM365.789 86.1916L379.421 87.2156L379.87 81.2324L366.238 80.2084L365.789 86.1916ZM376.651 84.0357L376.011 94.2117L382 94.5883L382.64 84.4123L376.651 84.0357ZM378.738 91.4119L366.578 92.4999L367.113 98.4761L379.273 97.3881L378.738 91.4119ZM363.984 96.3889L365.072 99.8449L370.795 98.0431L369.707 94.5871L363.984 96.3889ZM367.908 101.944L382.692 102.072L382.743 96.0721L367.959 95.9441L367.908 101.944ZM379.959 100.25L385.399 112.986L390.916 110.63L385.476 97.8936L379.959 100.25ZM388.158 108.808H352.894V114.808H388.158V108.808ZM355.875 111.471L352.419 80.8792L346.456 81.5528L349.912 112.145L355.875 111.471ZM352.377 81.8172L355.833 64.9212L349.954 63.7188L346.498 80.6148L352.377 81.8172Z" fill="black"/>
</svg>
