<svg width="389" height="113" viewBox="0 0 389 113" fill="none" xmlns="http://www.w3.org/2000/svg">
<path d="M132.931 12.416L124.675 22.592L115.011 16.384L112.579 19.456L129.859 32.128L121.475 47.936H100.931L86.5953 36.544L92.8033 26.112L105.155 33.088L107.011 30.208L88.8993 19.456L106.051 0.255997H121.475L132.931 12.416ZM0.875 64.512L48.171 65.344V84.544L32.171 81.92L36.587 112.064H13.675L17.131 81.92L0.875 81.088V64.512ZM352.894 64.32H384.254L381.63 77.568L366.206 79.936L366.014 83.2L379.646 84.224L379.006 94.4L366.846 95.488L367.934 98.944L382.718 99.072L388.158 111.808H352.894L349.438 81.216L352.894 64.32Z" fill="#009CDA"/>
<path d="M132.58 0.703999H153.252L152.292 33.024L160.292 27.264L157.924 4.16H177.572V35.264L166.116 48.192H141.988L132.58 36.672V0.703999ZM283.716 0.703999L295.556 9.344L296.644 24.256L289.988 31.68L301.828 42.112L287.94 48.128L273.412 35.712L275.588 48.064H260.868L257.156 2.752L283.716 0.703999ZM273.412 13.952L273.028 23.04L276.932 23.552L280.836 17.92L273.412 13.952ZM51.82 64.704L64.236 63.936L73.836 109.248L53.484 111.488L51.82 64.704ZM193.611 64.576L213.835 108.672L194.507 111.744L192.971 100.416L177.419 100.032L173.899 112.128L155.275 108.8L180.811 65.856L193.611 64.576ZM184.075 81.344L181.451 87.872L191.243 88.128L189.003 81.536L184.075 81.344ZM334.283 65.088L348.235 82.432L344.267 105.28L318.987 111.872L298.827 94.08L301.835 74.048L316.875 64.512L334.283 65.088ZM320.651 81.216L317.387 88.512L323.019 92.288L328.971 90.112L328.651 83.008L320.651 81.216Z" fill="#FCCF00"/>
<path d="M208.069 0.639999L219.333 8.384L220.229 27.328L208.837 38.336L194.693 39.232V48.256H179.781L182.149 0.639999H208.069ZM197.317 15.232L196.869 22.976L201.093 23.552L206.469 17.216L197.317 15.232ZM93.243 64.384L110.907 65.536L110.203 82.496L98.683 77.12L88.635 81.792L88.187 92.672L97.019 98.688L110.011 91.904L114.363 109.76L88.827 112L76.347 101.056L72.635 87.296L78.395 72.512L93.243 64.384ZM229.243 64.384L246.907 65.536L246.203 82.496L234.683 77.12L224.635 81.792L224.187 92.672L233.019 98.688L246.011 91.904L250.363 109.76L224.827 112L212.347 101.056L208.635 87.296L214.395 72.512L229.243 64.384Z" fill="#E62310"/>
<path d="M223.925 0.319996H255.285L252.661 13.568L237.237 15.936L237.045 19.2L250.677 20.224L250.037 30.4L237.877 31.488L238.965 34.944L253.749 35.072L259.189 47.808H223.925L220.469 17.216L223.925 0.319996ZM114.25 64.512L161.546 65.344V84.544L145.546 81.92L149.962 112.064H127.05L130.506 81.92L114.25 81.088V64.512ZM250.25 64.512L297.546 65.344V84.544L281.546 81.92L285.962 112.064H263.05L266.506 81.92L250.25 81.088V64.512Z" fill="#44AF35"/>
<path d="M132.931 12.416L133.708 13.046L134.259 12.3669L133.659 11.7303L132.931 12.416ZM124.675 22.592L124.135 23.4334L124.888 23.9171L125.452 23.222L124.675 22.592ZM115.011 16.384L115.552 15.5426L114.79 15.053L114.227 15.7633L115.011 16.384ZM112.579 19.456L111.795 18.8353L111.151 19.6488L111.988 20.2624L112.579 19.456ZM129.859 32.128L130.743 32.5965L131.148 31.8328L130.451 31.3216L129.859 32.128ZM121.475 47.936V48.936H122.077L122.359 48.4045L121.475 47.936ZM100.931 47.936L100.309 48.7189L100.582 48.936H100.931V47.936ZM86.5953 36.544L85.7359 36.0326L85.2891 36.7834L85.9731 37.3269L86.5953 36.544ZM92.8033 26.112L93.295 25.2413L92.4438 24.7605L91.9439 25.6006L92.8033 26.112ZM105.155 33.088L104.663 33.9587L105.485 34.4226L105.996 33.6297L105.155 33.088ZM107.011 30.208L107.852 30.7497L108.414 29.8777L107.522 29.3481L107.011 30.208ZM88.8993 19.456L88.1535 18.7898L87.3442 19.6958L88.3888 20.3159L88.8993 19.456ZM106.051 0.255997V-0.744003H105.604L105.305 -0.410217L106.051 0.255997ZM121.475 0.255997L122.203 -0.429726L121.907 -0.744003H121.475V0.255997ZM132.155 11.786L123.899 21.962L125.452 23.222L133.708 13.046L132.155 11.786ZM125.216 21.7506L115.552 15.5426L114.471 17.2254L124.135 23.4334L125.216 21.7506ZM114.227 15.7633L111.795 18.8353L113.363 20.0767L115.795 17.0047L114.227 15.7633ZM111.988 20.2624L129.268 32.9344L130.451 31.3216L113.171 18.6496L111.988 20.2624ZM128.976 31.6595L120.592 47.4675L122.359 48.4045L130.743 32.5965L128.976 31.6595ZM121.475 46.936H100.931V48.936H121.475V46.936ZM101.553 47.1531L87.2174 35.7611L85.9731 37.3269L100.309 48.7189L101.553 47.1531ZM87.4546 37.0554L93.6626 26.6234L91.9439 25.6006L85.7359 36.0326L87.4546 37.0554ZM92.3115 26.9827L104.663 33.9587L105.647 32.2173L93.295 25.2413L92.3115 26.9827ZM105.996 33.6297L107.852 30.7497L106.171 29.6663L104.315 32.5463L105.996 33.6297ZM107.522 29.3481L89.4097 18.5961L88.3888 20.3159L106.501 31.0679L107.522 29.3481ZM89.645 20.1222L106.797 0.92221L105.305 -0.410217L88.1535 18.7898L89.645 20.1222ZM106.051 1.256H121.475V-0.744003H106.051V1.256ZM120.747 0.94172L132.203 13.1017L133.659 11.7303L122.203 -0.429726L120.747 0.94172ZM132.58 0.703999V-0.296001H131.58V0.703999H132.58ZM153.252 0.703999L154.252 0.733688L154.282 -0.296001H153.252V0.703999ZM152.292 33.024L151.293 32.9943L151.233 35.0192L152.877 33.8355L152.292 33.024ZM160.292 27.264L160.877 28.0755L161.346 27.7375L161.287 27.162L160.292 27.264ZM157.924 4.16V3.16H156.817L156.929 4.26195L157.924 4.16ZM177.572 4.16H178.572V3.16H177.572V4.16ZM177.572 35.264L178.321 35.9272L178.572 35.6433V35.264H177.572ZM166.116 48.192V49.192H166.566L166.865 48.8552L166.116 48.192ZM141.988 48.192L141.214 48.8245L141.514 49.192H141.988V48.192ZM132.58 36.672H131.58V37.0285L131.806 37.3045L132.58 36.672ZM132.58 1.704H153.252V-0.296001H132.58V1.704ZM152.253 0.674309L151.293 32.9943L153.292 33.0537L154.252 0.733688L152.253 0.674309ZM152.877 33.8355L160.877 28.0755L159.708 26.4525L151.708 32.2125L152.877 33.8355ZM161.287 27.162L158.919 4.05804L156.929 4.26195L159.297 27.366L161.287 27.162ZM157.924 5.16H177.572V3.16H157.924V5.16ZM176.572 4.16V35.264H178.572V4.16H176.572ZM176.824 34.6008L165.368 47.5288L166.865 48.8552L178.321 35.9272L176.824 34.6008ZM166.116 47.192H141.988V49.192H166.116V47.192ZM142.763 47.5595L133.355 36.0395L131.806 37.3045L141.214 48.8245L142.763 47.5595ZM133.58 36.672V0.703999H131.58V36.672H133.58ZM208.069 0.639999L208.636 -0.184043L208.38 -0.360001H208.069V0.639999ZM219.333 8.384L220.332 8.33675L220.309 7.84108L219.9 7.55996L219.333 8.384ZM220.229 27.328L220.924 28.0471L221.25 27.7327L221.228 27.2808L220.229 27.328ZM208.837 38.336L208.9 39.334L209.268 39.3107L209.532 39.0551L208.837 38.336ZM194.693 39.232L194.63 38.234L193.693 38.2933V39.232H194.693ZM194.693 48.256V49.256H195.693V48.256H194.693ZM179.781 48.256L178.782 48.2063L178.73 49.256H179.781V48.256ZM182.149 0.639999V-0.360001H181.198L181.15 0.59033L182.149 0.639999ZM197.317 15.232L197.529 14.2547L196.386 14.007L196.319 15.1742L197.317 15.232ZM196.869 22.976L195.871 22.9182L195.817 23.8418L196.734 23.9668L196.869 22.976ZM201.093 23.552L200.958 24.5428L201.501 24.6169L201.856 24.199L201.093 23.552ZM206.469 17.216L207.232 17.863L208.31 16.5919L206.681 16.2387L206.469 17.216ZM207.503 1.46404L218.767 9.20804L219.9 7.55996L208.636 -0.184043L207.503 1.46404ZM218.334 8.43124L219.23 27.3752L221.228 27.2808L220.332 8.33675L218.334 8.43124ZM219.534 26.6089L208.142 37.6169L209.532 39.0551L220.924 28.0471L219.534 26.6089ZM208.774 37.338L194.63 38.234L194.756 40.23L208.9 39.334L208.774 37.338ZM193.693 39.232V48.256H195.693V39.232H193.693ZM194.693 47.256H179.781V49.256H194.693V47.256ZM180.78 48.3057L183.148 0.689669L181.15 0.59033L178.782 48.2063L180.78 48.3057ZM182.149 1.64H208.069V-0.360001H182.149V1.64ZM196.319 15.1742L195.871 22.9182L197.868 23.0338L198.316 15.2898L196.319 15.1742ZM196.734 23.9668L200.958 24.5428L201.228 22.5612L197.004 21.9852L196.734 23.9668ZM201.856 24.199L207.232 17.863L205.707 16.569L200.331 22.905L201.856 24.199ZM206.681 16.2387L197.529 14.2547L197.105 16.2093L206.257 18.1933L206.681 16.2387ZM223.925 0.319996V-0.680004H223.109L222.945 0.1196L223.925 0.319996ZM255.285 0.319996L256.266 0.514289L256.502 -0.680004H255.285V0.319996ZM252.661 13.568L252.813 14.5564L253.505 14.45L253.642 13.7623L252.661 13.568ZM237.237 15.936L237.085 14.9476L236.286 15.0703L236.238 15.8773L237.237 15.936ZM237.045 19.2L236.046 19.1413L235.989 20.1235L236.97 20.1972L237.045 19.2ZM250.677 20.224L251.675 20.2868L251.737 19.3008L250.752 19.2268L250.677 20.224ZM250.037 30.4L250.126 31.396L250.981 31.3195L251.035 30.4628L250.037 30.4ZM237.877 31.488L237.788 30.492L236.55 30.6027L236.923 31.7883L237.877 31.488ZM238.965 34.944L238.011 35.2443L238.229 35.9377L238.956 35.944L238.965 34.944ZM253.749 35.072L254.668 34.6792L254.411 34.0777L253.757 34.072L253.749 35.072ZM259.189 47.808V48.808H260.703L260.108 47.4152L259.189 47.808ZM223.925 47.808L222.931 47.9203L223.031 48.808H223.925V47.808ZM220.469 17.216L219.489 17.0156L219.457 17.1708L219.475 17.3283L220.469 17.216ZM223.925 1.32H255.285V-0.680004H223.925V1.32ZM254.304 0.125703L251.68 13.3737L253.642 13.7623L256.266 0.514289L254.304 0.125703ZM252.509 12.5796L237.085 14.9476L237.389 16.9244L252.813 14.5564L252.509 12.5796ZM236.238 15.8773L236.046 19.1413L238.043 19.2587L238.235 15.9947L236.238 15.8773ZM236.97 20.1972L250.602 21.2212L250.752 19.2268L237.12 18.2028L236.97 20.1972ZM249.679 20.1612L249.039 30.3372L251.035 30.4628L251.675 20.2868L249.679 20.1612ZM249.948 29.404L237.788 30.492L237.966 32.484L250.126 31.396L249.948 29.404ZM236.923 31.7883L238.011 35.2443L239.919 34.6437L238.831 31.1877L236.923 31.7883ZM238.956 35.944L253.74 36.072L253.757 34.072L238.973 33.944L238.956 35.944ZM252.829 35.4648L258.269 48.2008L260.108 47.4152L254.668 34.6792L252.829 35.4648ZM259.189 46.808H223.925V48.808H259.189V46.808ZM224.918 47.6957L221.462 17.1037L219.475 17.3283L222.931 47.9203L224.918 47.6957ZM221.448 17.4164L224.904 0.520392L222.945 0.1196L219.489 17.0156L221.448 17.4164ZM283.716 0.703999L284.306 -0.103792L284.007 -0.321426L283.639 -0.293042L283.716 0.703999ZM295.556 9.344L296.554 9.27123L296.52 8.80925L296.146 8.53621L295.556 9.344ZM296.644 24.256L297.389 24.9235L297.673 24.6071L297.642 24.1832L296.644 24.256ZM289.988 31.68L289.244 31.0125L288.57 31.7635L289.327 32.4303L289.988 31.68ZM301.828 42.112L302.226 43.0296L303.672 42.4033L302.489 41.3617L301.828 42.112ZM287.94 48.128L287.291 48.8882L287.765 49.2937L288.338 49.0456L287.94 48.128ZM273.412 35.712L274.062 34.9518L271.944 33.1418L272.427 35.8855L273.412 35.712ZM275.588 48.064V49.064H276.78L276.573 47.8905L275.588 48.064ZM260.868 48.064L259.872 48.1456L259.947 49.064H260.868V48.064ZM257.156 2.752L257.079 1.75496L256.078 1.83221L256.16 2.83365L257.156 2.752ZM273.412 13.952L273.884 13.0701L272.48 12.32L272.413 13.9098L273.412 13.952ZM273.028 23.04L272.029 22.9978L271.99 23.9125L272.898 24.0315L273.028 23.04ZM276.932 23.552L276.802 24.5435L277.407 24.6228L277.754 24.1217L276.932 23.552ZM280.836 17.92L281.658 18.4897L282.298 17.5672L281.308 17.0381L280.836 17.92ZM283.127 1.51179L294.967 10.1518L296.146 8.53621L284.306 -0.103792L283.127 1.51179ZM294.559 9.41677L295.647 24.3288L297.642 24.1832L296.554 9.27123L294.559 9.41677ZM295.9 23.5885L289.244 31.0125L290.733 32.3475L297.389 24.9235L295.9 23.5885ZM289.327 32.4303L301.167 42.8623L302.489 41.3617L290.649 30.9297L289.327 32.4303ZM301.431 41.1944L287.543 47.2104L288.338 49.0456L302.226 43.0296L301.431 41.1944ZM288.59 47.3678L274.062 34.9518L272.763 36.4722L287.291 48.8882L288.59 47.3678ZM272.427 35.8855L274.603 48.2375L276.573 47.8905L274.397 35.5385L272.427 35.8855ZM275.588 47.064H260.868V49.064H275.588V47.064ZM261.865 47.9824L258.153 2.67035L256.16 2.83365L259.872 48.1456L261.865 47.9824ZM257.233 3.74904L283.793 1.70104L283.639 -0.293042L257.079 1.75496L257.233 3.74904ZM272.413 13.9098L272.029 22.9978L274.027 23.0822L274.411 13.9942L272.413 13.9098ZM272.898 24.0315L276.802 24.5435L277.062 22.5605L273.158 22.0485L272.898 24.0315ZM277.754 24.1217L281.658 18.4897L280.014 17.3503L276.11 22.9823L277.754 24.1217ZM281.308 17.0381L273.884 13.0701L272.941 14.8339L280.365 18.8019L281.308 17.0381ZM0.875 64.512L0.892589 63.5122L-0.125 63.4943V64.512H0.875ZM48.171 65.344H49.171V64.3614L48.1886 64.3442L48.171 65.344ZM48.171 84.544L48.0092 85.5308L49.171 85.7214V84.544H48.171ZM32.171 81.92L32.3328 80.9332L30.9833 80.7119L31.1816 82.0649L32.171 81.92ZM36.587 112.064V113.064H37.7442L37.5764 111.919L36.587 112.064ZM13.675 112.064L12.6815 111.95L12.5538 113.064H13.675V112.064ZM17.131 81.92L18.1245 82.0339L18.2458 80.9757L17.1821 80.9213L17.131 81.92ZM0.875 81.088H-0.125V82.0381L0.823886 82.0867L0.875 81.088ZM0.857411 65.5118L48.1534 66.3438L48.1886 64.3442L0.892589 63.5122L0.857411 65.5118ZM47.171 65.344V84.544H49.171V65.344H47.171ZM48.3328 83.5572L32.3328 80.9332L32.0092 82.9068L48.0092 85.5308L48.3328 83.5572ZM31.1816 82.0649L35.5976 112.209L37.5764 111.919L33.1604 81.775L31.1816 82.0649ZM36.587 111.064H13.675V113.064H36.587V111.064ZM14.6685 112.178L18.1245 82.0339L16.1375 81.8061L12.6815 111.95L14.6685 112.178ZM17.1821 80.9213L0.926114 80.0893L0.823886 82.0867L17.0799 82.9187L17.1821 80.9213ZM1.875 81.088V64.512H-0.125V81.088H1.875ZM51.82 64.704L51.7583 63.7059L50.786 63.766L50.8206 64.7395L51.82 64.704ZM64.236 63.936L65.2143 63.7287L65.0355 62.8846L64.1743 62.9379L64.236 63.936ZM73.836 109.248L73.9454 110.242L75.0432 110.121L74.8143 109.041L73.836 109.248ZM53.484 111.488L52.4846 111.524L52.5229 112.6L53.5934 112.482L53.484 111.488ZM51.8817 65.7021L64.2977 64.9341L64.1743 62.9379L51.7583 63.7059L51.8817 65.7021ZM63.2577 64.1433L72.8577 109.455L74.8143 109.041L65.2143 63.7287L63.2577 64.1433ZM73.7266 108.254L53.3746 110.494L53.5934 112.482L73.9454 110.242L73.7266 108.254ZM54.4834 111.452L52.8194 64.6685L50.8206 64.7395L52.4846 111.524L54.4834 111.452ZM93.243 64.384L93.3081 63.3861L93.0179 63.3672L92.7628 63.5068L93.243 64.384ZM110.907 65.536L111.906 65.5775L111.947 64.6017L110.972 64.5381L110.907 65.536ZM110.203 82.496L109.78 83.4022L111.14 84.0368L111.202 82.5375L110.203 82.496ZM98.683 77.12L99.1059 76.2138L98.6838 76.0168L98.2614 76.2132L98.683 77.12ZM88.635 81.792L88.2134 80.8852L87.6609 81.1421L87.6358 81.7509L88.635 81.792ZM88.187 92.672L87.1878 92.6309L87.165 93.1858L87.624 93.4985L88.187 92.672ZM97.019 98.688L96.456 99.5145L96.951 99.8516L97.4819 99.5744L97.019 98.688ZM110.011 91.904L110.983 91.6672L110.68 90.4265L109.548 91.0176L110.011 91.904ZM114.363 109.76L114.45 110.756L115.61 110.654L115.335 109.523L114.363 109.76ZM88.827 112L88.1677 112.752L88.4888 113.034L88.9144 112.996L88.827 112ZM76.347 101.056L75.3815 101.316L75.4603 101.608L75.6877 101.808L76.347 101.056ZM72.635 87.296L71.7032 86.933L71.5839 87.2392L71.6695 87.5565L72.635 87.296ZM78.395 72.512L77.9148 71.6348L77.5954 71.8097L77.4632 72.149L78.395 72.512ZM93.1779 65.3819L110.842 66.5339L110.972 64.5381L93.3081 63.3861L93.1779 65.3819ZM109.908 65.4945L109.204 82.4545L111.202 82.5375L111.906 65.5775L109.908 65.4945ZM110.626 81.5898L99.1059 76.2138L98.2601 78.0262L109.78 83.4022L110.626 81.5898ZM98.2614 76.2132L88.2134 80.8852L89.0566 82.6988L99.1046 78.0268L98.2614 76.2132ZM87.6358 81.7509L87.1878 92.6309L89.1862 92.7131L89.6342 81.8331L87.6358 81.7509ZM87.624 93.4985L96.456 99.5145L97.582 97.8615L88.75 91.8455L87.624 93.4985ZM97.4819 99.5744L110.474 92.7904L109.548 91.0176L96.5561 97.8016L97.4819 99.5744ZM109.039 92.1408L113.391 109.997L115.335 109.523L110.983 91.6672L109.039 92.1408ZM114.276 108.764L88.7396 111.004L88.9144 112.996L114.45 110.756L114.276 108.764ZM89.4863 111.248L77.0063 100.304L75.6877 101.808L88.1677 112.752L89.4863 111.248ZM77.3125 100.796L73.6005 87.0355L71.6695 87.5565L75.3815 101.316L77.3125 100.796ZM73.5668 87.659L79.3268 72.875L77.4632 72.149L71.7032 86.933L73.5668 87.659ZM78.8752 73.3892L93.7232 65.2612L92.7628 63.5068L77.9148 71.6348L78.8752 73.3892ZM114.25 64.512L114.268 63.5122L113.25 63.4943V64.512H114.25ZM161.546 65.344H162.546V64.3614L161.564 64.3442L161.546 65.344ZM161.546 84.544L161.384 85.5308L162.546 85.7214V84.544H161.546ZM145.546 81.92L145.708 80.9332L144.358 80.7119L144.557 82.0649L145.546 81.92ZM149.962 112.064V113.064H151.119L150.951 111.919L149.962 112.064ZM127.05 112.064L126.057 111.95L125.929 113.064H127.05V112.064ZM130.506 81.92L131.499 82.0339L131.621 80.9757L130.557 80.9213L130.506 81.92ZM114.25 81.088H113.25V82.0381L114.199 82.0867L114.25 81.088ZM114.232 65.5118L161.528 66.3438L161.564 64.3442L114.268 63.5122L114.232 65.5118ZM160.546 65.344V84.544H162.546V65.344H160.546ZM161.708 83.5572L145.708 80.9332L145.384 82.9068L161.384 85.5308L161.708 83.5572ZM144.557 82.0649L148.973 112.209L150.951 111.919L146.535 81.775L144.557 82.0649ZM149.962 111.064H127.05V113.064H149.962V111.064ZM128.043 112.178L131.499 82.0339L129.513 81.8061L126.057 111.95L128.043 112.178ZM130.557 80.9213L114.301 80.0893L114.199 82.0867L130.455 82.9187L130.557 80.9213ZM115.25 81.088V64.512H113.25V81.088H115.25ZM193.611 64.576L194.52 64.1591L194.222 63.5099L193.511 63.581L193.611 64.576ZM213.835 108.672L213.992 109.66L215.293 109.453L214.744 108.255L213.835 108.672ZM194.507 111.744L193.516 111.878L193.654 112.892L194.664 112.732L194.507 111.744ZM192.971 100.416L193.962 100.282L193.847 99.4373L192.996 99.4163L192.971 100.416ZM177.419 100.032L177.444 99.0323L176.674 99.0133L176.459 99.7526L177.419 100.032ZM173.899 112.128L173.723 113.112L174.608 113.271L174.859 112.407L173.899 112.128ZM155.275 108.8L154.415 108.289L153.677 109.53L155.099 109.784L155.275 108.8ZM180.811 65.856L180.711 64.861L180.209 64.9112L179.951 65.3449L180.811 65.856ZM184.075 81.344L184.114 80.3448L183.41 80.3173L183.147 80.971L184.075 81.344ZM181.451 87.872L180.523 87.499L179.987 88.8341L181.425 88.8717L181.451 87.872ZM191.243 88.128L191.217 89.1277L192.652 89.1652L192.19 87.8063L191.243 88.128ZM189.003 81.536L189.95 81.2143L189.729 80.5635L189.042 80.5368L189.003 81.536ZM192.702 64.9929L212.926 109.089L214.744 108.255L194.52 64.1591L192.702 64.9929ZM213.678 107.684L194.35 110.756L194.664 112.732L213.992 109.66L213.678 107.684ZM195.498 111.61L193.962 100.282L191.98 100.55L193.516 111.878L195.498 111.61ZM192.996 99.4163L177.444 99.0323L177.394 101.032L192.946 101.416L192.996 99.4163ZM176.459 99.7526L172.939 111.849L174.859 112.407L178.379 100.311L176.459 99.7526ZM174.075 111.144L155.451 107.816L155.099 109.784L173.723 113.112L174.075 111.144ZM156.135 109.311L181.671 66.3671L179.951 65.3449L154.415 108.289L156.135 109.311ZM180.911 66.851L193.711 65.571L193.511 63.581L180.711 64.861L180.911 66.851ZM183.147 80.971L180.523 87.499L182.379 88.245L185.003 81.717L183.147 80.971ZM181.425 88.8717L191.217 89.1277L191.269 87.1283L181.477 86.8723L181.425 88.8717ZM192.19 87.8063L189.95 81.2143L188.056 81.8577L190.296 88.4497L192.19 87.8063ZM189.042 80.5368L184.114 80.3448L184.036 82.3432L188.964 82.5352L189.042 80.5368ZM229.243 64.384L229.308 63.3861L229.018 63.3672L228.763 63.5068L229.243 64.384ZM246.907 65.536L247.906 65.5775L247.947 64.6017L246.972 64.5381L246.907 65.536ZM246.203 82.496L245.78 83.4022L247.14 84.0368L247.202 82.5375L246.203 82.496ZM234.683 77.12L235.106 76.2138L234.684 76.0168L234.261 76.2132L234.683 77.12ZM224.635 81.792L224.213 80.8852L223.661 81.1421L223.636 81.7509L224.635 81.792ZM224.187 92.672L223.188 92.6309L223.165 93.1858L223.624 93.4985L224.187 92.672ZM233.019 98.688L232.456 99.5145L232.951 99.8516L233.482 99.5744L233.019 98.688ZM246.011 91.904L246.983 91.6672L246.68 90.4265L245.548 91.0176L246.011 91.904ZM250.363 109.76L250.45 110.756L251.61 110.654L251.335 109.523L250.363 109.76ZM224.827 112L224.168 112.752L224.489 113.034L224.914 112.996L224.827 112ZM212.347 101.056L211.382 101.316L211.46 101.608L211.688 101.808L212.347 101.056ZM208.635 87.296L207.703 86.933L207.584 87.2392L207.67 87.5565L208.635 87.296ZM214.395 72.512L213.915 71.6348L213.595 71.8097L213.463 72.149L214.395 72.512ZM229.178 65.3819L246.842 66.5339L246.972 64.5381L229.308 63.3861L229.178 65.3819ZM245.908 65.4945L245.204 82.4545L247.202 82.5375L247.906 65.5775L245.908 65.4945ZM246.626 81.5898L235.106 76.2138L234.26 78.0262L245.78 83.4022L246.626 81.5898ZM234.261 76.2132L224.213 80.8852L225.057 82.6988L235.105 78.0268L234.261 76.2132ZM223.636 81.7509L223.188 92.6309L225.186 92.7131L225.634 81.8331L223.636 81.7509ZM223.624 93.4985L232.456 99.5145L233.582 97.8615L224.75 91.8455L223.624 93.4985ZM233.482 99.5744L246.474 92.7904L245.548 91.0176L232.556 97.8016L233.482 99.5744ZM245.039 92.1408L249.391 109.997L251.335 109.523L246.983 91.6672L245.039 92.1408ZM250.276 108.764L224.74 111.004L224.914 112.996L250.45 110.756L250.276 108.764ZM225.486 111.248L213.006 100.304L211.688 101.808L224.168 112.752L225.486 111.248ZM213.312 100.796L209.6 87.0355L207.67 87.5565L211.382 101.316L213.312 100.796ZM209.567 87.659L215.327 72.875L213.463 72.149L207.703 86.933L209.567 87.659ZM214.875 73.3892L229.723 65.2612L228.763 63.5068L213.915 71.6348L214.875 73.3892ZM250.25 64.512L250.268 63.5122L249.25 63.4943V64.512H250.25ZM297.546 65.344H298.546V64.3614L297.564 64.3442L297.546 65.344ZM297.546 84.544L297.384 85.5308L298.546 85.7214V84.544H297.546ZM281.546 81.92L281.708 80.9332L280.358 80.7119L280.557 82.0649L281.546 81.92ZM285.962 112.064V113.064H287.119L286.951 111.919L285.962 112.064ZM263.05 112.064L262.057 111.95L261.929 113.064H263.05V112.064ZM266.506 81.92L267.499 82.0339L267.621 80.9757L266.557 80.9213L266.506 81.92ZM250.25 81.088H249.25V82.0381L250.199 82.0867L250.25 81.088ZM250.232 65.5118L297.528 66.3438L297.564 64.3442L250.268 63.5122L250.232 65.5118ZM296.546 65.344V84.544H298.546V65.344H296.546ZM297.708 83.5572L281.708 80.9332L281.384 82.9068L297.384 85.5308L297.708 83.5572ZM280.557 82.0649L284.973 112.209L286.951 111.919L282.535 81.775L280.557 82.0649ZM285.962 111.064H263.05V113.064H285.962V111.064ZM264.043 112.178L267.499 82.0339L265.513 81.8061L262.057 111.95L264.043 112.178ZM266.557 80.9213L250.301 80.0893L250.199 82.0867L266.455 82.9187L266.557 80.9213ZM251.25 81.088V64.512H249.25V81.088H251.25ZM334.283 65.088L335.062 64.4612L334.775 64.1037L334.316 64.0885L334.283 65.088ZM348.235 82.432L349.22 82.6031L349.298 82.1576L349.014 81.8052L348.235 82.432ZM344.267 105.28L344.519 106.248L345.142 106.085L345.252 105.451L344.267 105.28ZM318.987 111.872L318.325 112.622L318.724 112.974L319.239 112.84L318.987 111.872ZM298.827 94.08L297.838 93.9315L297.757 94.4697L298.165 94.8298L298.827 94.08ZM301.835 74.048L301.3 73.2034L300.914 73.448L300.846 73.8995L301.835 74.048ZM316.875 64.512L316.908 63.5125L316.6 63.5023L316.34 63.6674L316.875 64.512ZM320.651 81.216L320.87 80.2402L320.072 80.0615L319.738 80.8076L320.651 81.216ZM317.387 88.512L316.474 88.1036L316.13 88.8731L316.83 89.3426L317.387 88.512ZM323.019 92.288L322.462 93.1186L322.885 93.4019L323.362 93.2272L323.019 92.288ZM328.971 90.112L329.314 91.0512L330.003 90.7994L329.97 90.067L328.971 90.112ZM328.651 83.008L329.65 82.963L329.616 82.1993L328.87 82.0322L328.651 83.008ZM333.504 65.7148L347.456 83.0588L349.014 81.8052L335.062 64.4612L333.504 65.7148ZM347.25 82.2609L343.282 105.109L345.252 105.451L349.22 82.6031L347.25 82.2609ZM344.015 104.312L318.735 110.904L319.239 112.84L344.519 106.248L344.015 104.312ZM319.649 111.122L299.489 93.3302L298.165 94.8298L318.325 112.622L319.649 111.122ZM299.816 94.2285L302.824 74.1965L300.846 73.8995L297.838 93.9315L299.816 94.2285ZM302.37 74.8925L317.41 65.3565L316.34 63.6674L301.3 73.2034L302.37 74.8925ZM316.842 65.5115L334.25 66.0875L334.316 64.0885L316.908 63.5125L316.842 65.5115ZM319.738 80.8076L316.474 88.1036L318.3 88.9204L321.564 81.6244L319.738 80.8076ZM316.83 89.3426L322.462 93.1186L323.576 91.4574L317.944 87.6814L316.83 89.3426ZM323.362 93.2272L329.314 91.0512L328.628 89.1728L322.676 91.3488L323.362 93.2272ZM329.97 90.067L329.65 82.963L327.652 83.053L327.972 90.157L329.97 90.067ZM328.87 82.0322L320.87 80.2402L320.432 82.1918L328.432 83.9838L328.87 82.0322ZM352.894 64.32V63.32H352.077L351.914 64.1196L352.894 64.32ZM384.254 64.32L385.234 64.5143L385.471 63.32H384.254V64.32ZM381.63 77.568L381.781 78.5564L382.474 78.45L382.61 77.7623L381.63 77.568ZM366.206 79.936L366.054 78.9476L365.255 79.0703L365.207 79.8773L366.206 79.936ZM366.014 83.2L365.015 83.1413L364.957 84.1235L365.939 84.1972L366.014 83.2ZM379.646 84.224L380.644 84.2868L380.706 83.3008L379.72 83.2268L379.646 84.224ZM379.006 94.4L379.095 95.396L379.95 95.3195L380.004 94.4628L379.006 94.4ZM366.846 95.488L366.756 94.492L365.518 94.6027L365.892 95.7883L366.846 95.488ZM367.934 98.944L366.98 99.2443L367.198 99.9377L367.925 99.944L367.934 98.944ZM382.718 99.072L383.637 98.6792L383.38 98.0777L382.726 98.072L382.718 99.072ZM388.158 111.808V112.808H389.672L389.077 111.415L388.158 111.808ZM352.894 111.808L351.9 111.92L352 112.808H352.894V111.808ZM349.438 81.216L348.458 81.0156L348.426 81.1708L348.444 81.3283L349.438 81.216ZM352.894 65.32H384.254V63.32H352.894V65.32ZM383.273 64.1257L380.649 77.3737L382.61 77.7623L385.234 64.5143L383.273 64.1257ZM381.478 76.5796L366.054 78.9476L366.357 80.9244L381.781 78.5564L381.478 76.5796ZM365.207 79.8773L365.015 83.1413L367.012 83.2587L367.204 79.9947L365.207 79.8773ZM365.939 84.1972L379.571 85.2212L379.72 83.2268L366.088 82.2028L365.939 84.1972ZM378.647 84.1612L378.007 94.3372L380.004 94.4628L380.644 84.2868L378.647 84.1612ZM378.916 93.404L366.756 94.492L366.935 96.484L379.095 95.396L378.916 93.404ZM365.892 95.7883L366.98 99.2443L368.887 98.6437L367.799 95.1877L365.892 95.7883ZM367.925 99.944L382.709 100.072L382.726 98.072L367.942 97.944L367.925 99.944ZM381.798 99.4648L387.238 112.201L389.077 111.415L383.637 98.6792L381.798 99.4648ZM388.158 110.808H352.894V112.808H388.158V110.808ZM353.887 111.696L350.431 81.1037L348.444 81.3283L351.9 111.92L353.887 111.696ZM350.417 81.4164L353.873 64.5204L351.914 64.1196L348.458 81.0156L350.417 81.4164Z" fill="black"/>
</svg>
