<svg width="243" height="71" viewBox="0 0 243 71" fill="none" xmlns="http://www.w3.org/2000/svg">
<path d="M82.6445 7.76L77.4845 14.12L71.4445 10.24L69.9245 12.16L80.7245 20.08L75.4845 29.96H62.6445L53.6845 22.84L57.5645 16.32L65.2845 20.68L66.4445 18.88L55.1245 12.16L65.8445 0.159998H75.4845L82.6445 7.76ZM0.109375 40.32L29.6694 40.84V52.84L19.6694 51.2L22.4294 70.04H8.10938L10.2694 51.2L0.109375 50.68V40.32ZM220.121 40.2H239.721L238.081 48.48L228.441 49.96L228.321 52L236.841 52.64L236.441 59L228.841 59.68L229.521 61.84L238.761 61.92L242.161 69.88H220.121L217.961 50.76L220.121 40.2Z" fill="#009CDA"/>
<path d="M82.4252 0.439999H95.3452L94.7452 20.64L99.7452 17.04L98.2652 2.6H110.545V22.04L103.385 30.12H88.3052L82.4252 22.92V0.439999ZM176.885 0.439999L184.285 5.84L184.965 15.16L180.805 19.8L188.205 26.32L179.525 30.08L170.445 22.32L171.805 30.04H162.605L160.285 1.72L176.885 0.439999ZM170.445 8.72L170.205 14.4L172.645 14.72L175.085 11.2L170.445 8.72ZM31.95 40.44L39.71 39.96L45.71 68.28L32.99 69.68L31.95 40.44ZM120.569 40.36L133.209 67.92L121.129 69.84L120.169 62.76L110.449 62.52L108.249 70.08L96.6094 68L112.569 41.16L120.569 40.36ZM114.609 50.84L112.969 54.92L119.089 55.08L117.689 50.96L114.609 50.84ZM208.489 40.68L217.209 51.52L214.729 65.8L198.929 69.92L186.329 58.8L188.209 46.28L197.609 40.32L208.489 40.68ZM199.969 50.76L197.929 55.32L201.449 57.68L205.169 56.32L204.969 51.88L199.969 50.76Z" fill="#FCCF00"/>
<path d="M129.606 0.4L136.646 5.24L137.206 17.08L130.086 23.96L121.246 24.52V30.16H111.926L113.406 0.4H129.606ZM122.886 9.52L122.606 14.36L125.246 14.72L128.606 10.76L122.886 9.52ZM57.8394 40.24L68.8794 40.96L68.4394 51.56L61.2394 48.2L54.9594 51.12L54.6794 57.92L60.1994 61.68L68.3194 57.44L71.0394 68.6L55.0794 70L47.2794 63.16L44.9594 54.56L48.5594 45.32L57.8394 40.24ZM142.839 40.24L153.879 40.96L153.439 51.56L146.239 48.2L139.959 51.12L139.679 57.92L145.199 61.68L153.319 57.44L156.039 68.6L140.079 70L132.279 63.16L129.959 54.56L133.559 45.32L142.839 40.24Z" fill="#E62310"/>
<path d="M139.515 0.199997H159.115L157.475 8.48L147.835 9.96L147.715 12L156.235 12.64L155.835 19L148.235 19.68L148.915 21.84L158.155 21.92L161.555 29.88H139.515L137.355 10.76L139.515 0.199997ZM70.9688 40.32L100.529 40.84V52.84L90.5288 51.2L93.2888 70.04H78.9688L81.1288 51.2L70.9688 50.68V40.32ZM155.969 40.32L185.529 40.84V52.84L175.529 51.2L178.289 70.04H163.969L166.129 51.2L155.969 50.68V40.32Z" fill="#44AF35"/>
<path d="M82.6445 7.76L83.4211 8.39004L83.9721 7.71086L83.3724 7.07427L82.6445 7.76ZM77.4845 14.12L76.9441 14.9614L77.6971 15.4451L78.2611 14.75L77.4845 14.12ZM71.4445 10.24L71.985 9.39864L71.2228 8.90901L70.6605 9.6193L71.4445 10.24ZM69.9245 12.16L69.1405 11.5393L68.4965 12.3528L69.3332 12.9664L69.9245 12.16ZM80.7245 20.08L81.608 20.5485L82.013 19.7848L81.3159 19.2736L80.7245 20.08ZM75.4845 29.96V30.96H76.0861L76.368 30.4285L75.4845 29.96ZM62.6445 29.96L62.0224 30.7429L62.2956 30.96H62.6445V29.96ZM53.6845 22.84L52.8252 22.3286L52.3784 23.0794L53.0624 23.6229L53.6845 22.84ZM57.5645 16.32L58.0563 15.4493L57.2051 14.9685L56.7052 15.8086L57.5645 16.32ZM65.2845 20.68L64.7928 21.5507L65.6141 22.0146L66.1251 21.2217L65.2845 20.68ZM66.4445 18.88L67.2851 19.4217L67.8471 18.5497L66.955 18.0201L66.4445 18.88ZM55.1245 12.16L54.3788 11.4938L53.5694 12.3998L54.6141 13.0199L55.1245 12.16ZM65.8445 0.159998V-0.840002H65.397L65.0988 -0.506215L65.8445 0.159998ZM75.4845 0.159998L76.2124 -0.525725L75.9163 -0.840002H75.4845V0.159998ZM81.868 7.12996L76.708 13.49L78.2611 14.75L83.4211 8.39004L81.868 7.12996ZM78.025 13.2786L71.985 9.39864L70.9041 11.0814L76.9441 14.9614L78.025 13.2786ZM70.6605 9.6193L69.1405 11.5393L70.7086 12.7807L72.2286 10.8607L70.6605 9.6193ZM69.3332 12.9664L80.1332 20.8864L81.3159 19.2736L70.5159 11.3536L69.3332 12.9664ZM79.8411 19.6115L74.6011 29.4915L76.368 30.4285L81.608 20.5485L79.8411 19.6115ZM75.4845 28.96H62.6445V30.96H75.4845V28.96ZM63.2667 29.1771L54.3067 22.0571L53.0624 23.6229L62.0224 30.7429L63.2667 29.1771ZM54.5439 23.3514L58.4239 16.8314L56.7052 15.8086L52.8252 22.3286L54.5439 23.3514ZM57.0728 17.1907L64.7928 21.5507L65.7763 19.8093L58.0563 15.4493L57.0728 17.1907ZM66.1251 21.2217L67.2851 19.4217L65.604 18.3383L64.444 20.1383L66.1251 21.2217ZM66.955 18.0201L55.635 11.3001L54.6141 13.0199L65.9341 19.7399L66.955 18.0201ZM55.8703 12.8262L66.5903 0.826211L65.0988 -0.506215L54.3788 11.4938L55.8703 12.8262ZM65.8445 1.16H75.4845V-0.840002H65.8445V1.16ZM74.7567 0.845721L81.9167 8.44572L83.3724 7.07427L76.2124 -0.525725L74.7567 0.845721ZM82.4252 0.439999V-0.560001H81.4252V0.439999H82.4252ZM95.3452 0.439999L96.3447 0.469689L96.3753 -0.560001H95.3452V0.439999ZM94.7452 20.64L93.7456 20.6103L93.6855 22.6352L95.3295 21.4515L94.7452 20.64ZM99.7452 17.04L100.329 17.8515L100.799 17.5135L100.74 16.938L99.7452 17.04ZM98.2652 2.6V1.6H97.1574L97.2704 2.70196L98.2652 2.6ZM110.545 2.6H111.545V1.6H110.545V2.6ZM110.545 22.04L111.294 22.7032L111.545 22.4193V22.04H110.545ZM103.385 30.12V31.12H103.835L104.134 30.7832L103.385 30.12ZM88.3052 30.12L87.5306 30.7525L87.8307 31.12H88.3052V30.12ZM82.4252 22.92H81.4252V23.2765L81.6506 23.5525L82.4252 22.92ZM82.4252 1.44H95.3452V-0.560001H82.4252V1.44ZM94.3456 0.410309L93.7456 20.6103L95.7447 20.6697L96.3447 0.469689L94.3456 0.410309ZM95.3295 21.4515L100.329 17.8515L99.1609 16.2285L94.1609 19.8285L95.3295 21.4515ZM100.74 16.938L99.2599 2.49804L97.2704 2.70196L98.7504 17.142L100.74 16.938ZM98.2652 3.6H110.545V1.6H98.2652V3.6ZM109.545 2.6V22.04H111.545V2.6H109.545ZM109.797 21.3768L102.637 29.4568L104.134 30.7832L111.294 22.7032L109.797 21.3768ZM103.385 29.12H88.3052V31.12H103.385V29.12ZM89.0797 29.4875L83.1997 22.2875L81.6506 23.5525L87.5306 30.7525L89.0797 29.4875ZM83.4252 22.92V0.439999H81.4252V22.92H83.4252ZM129.606 0.4L130.172 -0.424042L129.916 -0.6H129.606V0.4ZM136.646 5.24L137.645 5.19275L137.621 4.69708L137.212 4.41596L136.646 5.24ZM137.206 17.08L137.901 17.7991L138.226 17.4847L138.205 17.0328L137.206 17.08ZM130.086 23.96L130.149 24.958L130.516 24.9347L130.781 24.6791L130.086 23.96ZM121.246 24.52L121.183 23.522L120.246 23.5813V24.52H121.246ZM121.246 30.16V31.16H122.246V30.16H121.246ZM111.926 30.16L110.927 30.1103L110.875 31.16H111.926V30.16ZM113.406 0.4V-0.6H112.454L112.407 0.35033L113.406 0.4ZM122.886 9.52L123.098 8.5427L121.955 8.29499L121.887 9.46224L122.886 9.52ZM122.606 14.36L121.607 14.3022L121.554 15.2258L122.471 15.3508L122.606 14.36ZM125.246 14.72L125.111 15.7108L125.654 15.7849L126.008 15.367L125.246 14.72ZM128.606 10.76L129.368 11.407L130.447 10.1359L128.818 9.7827L128.606 10.76ZM129.039 1.22404L136.079 6.06404L137.212 4.41596L130.172 -0.424042L129.039 1.22404ZM135.647 5.28724L136.207 17.1272L138.205 17.0328L137.645 5.19275L135.647 5.28724ZM136.511 16.3609L129.391 23.2409L130.781 24.6791L137.901 17.7991L136.511 16.3609ZM130.023 22.962L121.183 23.522L121.309 25.518L130.149 24.958L130.023 22.962ZM120.246 24.52V30.16H122.246V24.52H120.246ZM121.246 29.16H111.926V31.16H121.246V29.16ZM112.925 30.2097L114.405 0.449669L112.407 0.35033L110.927 30.1103L112.925 30.2097ZM113.406 1.4H129.606V-0.6H113.406V1.4ZM121.887 9.46224L121.607 14.3022L123.604 14.4178L123.884 9.57775L121.887 9.46224ZM122.471 15.3508L125.111 15.7108L125.381 13.7292L122.741 13.3692L122.471 15.3508ZM126.008 15.367L129.368 11.407L127.843 10.113L124.483 14.073L126.008 15.367ZM128.818 9.7827L123.098 8.5427L122.674 10.4973L128.394 11.7373L128.818 9.7827ZM139.515 0.199997V-0.800003H138.699L138.536 -0.000398795L139.515 0.199997ZM159.115 0.199997L160.096 0.394291L160.333 -0.800003H159.115V0.199997ZM157.475 8.48L157.627 9.46842L158.32 9.36203L158.456 8.67429L157.475 8.48ZM147.835 9.96L147.684 8.97158L146.885 9.09426L146.837 9.90128L147.835 9.96ZM147.715 12L146.717 11.9413L146.659 12.9235L147.641 12.9972L147.715 12ZM156.235 12.64L157.233 12.7028L157.296 11.7168L156.31 11.6428L156.235 12.64ZM155.835 19L155.925 19.996L156.78 19.9195L156.833 19.0628L155.835 19ZM148.235 19.68L148.146 18.684L146.908 18.7947L147.282 19.9803L148.235 19.68ZM148.915 21.84L147.962 22.1403L148.18 22.8337L148.907 22.84L148.915 21.84ZM158.155 21.92L159.075 21.5272L158.818 20.9257L158.164 20.92L158.155 21.92ZM161.555 29.88V30.88H163.07L162.475 29.4872L161.555 29.88ZM139.515 29.88L138.522 29.9923L138.622 30.88H139.515V29.88ZM137.355 10.76L136.376 10.5596L136.344 10.7148L136.362 10.8723L137.355 10.76ZM139.515 1.2H159.115V-0.800003H139.515V1.2ZM158.135 0.00570424L156.495 8.2857L158.456 8.67429L160.096 0.394291L158.135 0.00570424ZM157.324 7.49158L147.684 8.97158L147.987 10.9484L157.627 9.46842L157.324 7.49158ZM146.837 9.90128L146.717 11.9413L148.714 12.0587L148.834 10.0187L146.837 9.90128ZM147.641 12.9972L156.161 13.6372L156.31 11.6428L147.79 11.0028L147.641 12.9972ZM155.237 12.5772L154.837 18.9372L156.833 19.0628L157.233 12.7028L155.237 12.5772ZM155.746 18.004L148.146 18.684L148.325 20.676L155.925 19.996L155.746 18.004ZM147.282 19.9803L147.962 22.1403L149.869 21.5397L149.189 19.3797L147.282 19.9803ZM148.907 22.84L158.147 22.92L158.164 20.92L148.924 20.84L148.907 22.84ZM157.236 22.3128L160.636 30.2728L162.475 29.4872L159.075 21.5272L157.236 22.3128ZM161.555 28.88H139.515V30.88H161.555V28.88ZM140.509 29.7677L138.349 10.6477L136.362 10.8723L138.522 29.9923L140.509 29.7677ZM138.335 10.9604L140.495 0.400394L138.536 -0.000398795L136.376 10.5596L138.335 10.9604ZM176.885 0.439999L177.475 -0.367792L177.176 -0.585426L176.808 -0.557041L176.885 0.439999ZM184.285 5.84L185.283 5.76723L185.249 5.30525L184.875 5.03221L184.285 5.84ZM184.965 15.16L185.71 15.8275L185.993 15.5111L185.963 15.0872L184.965 15.16ZM180.805 19.8L180.061 19.1325L179.387 19.8835L180.144 20.5503L180.805 19.8ZM188.205 26.32L188.603 27.2376L190.048 26.6113L188.866 25.5697L188.205 26.32ZM179.525 30.08L178.875 30.8402L179.35 31.2457L179.923 30.9976L179.525 30.08ZM170.445 22.32L171.095 21.5598L168.977 19.7498L169.46 22.4935L170.445 22.32ZM171.805 30.04V31.04H172.997L172.79 29.8665L171.805 30.04ZM162.605 30.04L161.608 30.1216L161.684 31.04H162.605V30.04ZM160.285 1.72L160.208 0.722959L159.206 0.800208L159.288 1.80165L160.285 1.72ZM170.445 8.72L170.917 7.83807L169.513 7.08802L169.446 8.67778L170.445 8.72ZM170.205 14.4L169.206 14.3578L169.167 15.2725L170.075 15.3915L170.205 14.4ZM172.645 14.72L172.515 15.7115L173.12 15.7908L173.467 15.2897L172.645 14.72ZM175.085 11.2L175.907 11.7697L176.546 10.8472L175.557 10.3181L175.085 11.2ZM176.296 1.24779L183.696 6.64779L184.875 5.03221L177.475 -0.367792L176.296 1.24779ZM183.288 5.91277L183.968 15.2328L185.963 15.0872L185.283 5.76723L183.288 5.91277ZM184.221 14.4925L180.061 19.1325L181.55 20.4675L185.71 15.8275L184.221 14.4925ZM180.144 20.5503L187.544 27.0703L188.866 25.5697L181.466 19.0497L180.144 20.5503ZM187.808 25.4024L179.128 29.1624L179.923 30.9976L188.603 27.2376L187.808 25.4024ZM180.175 29.3198L171.095 21.5598L169.795 23.0802L178.875 30.8402L180.175 29.3198ZM169.46 22.4935L170.82 30.2135L172.79 29.8665L171.43 22.1465L169.46 22.4935ZM171.805 29.04H162.605V31.04H171.805V29.04ZM163.602 29.9584L161.282 1.63835L159.288 1.80165L161.608 30.1216L163.602 29.9584ZM160.362 2.71704L176.962 1.43704L176.808 -0.557041L160.208 0.722959L160.362 2.71704ZM169.446 8.67778L169.206 14.3578L171.204 14.4422L171.444 8.76222L169.446 8.67778ZM170.075 15.3915L172.515 15.7115L172.775 13.7285L170.335 13.4085L170.075 15.3915ZM173.467 15.2897L175.907 11.7697L174.263 10.6303L171.823 14.1503L173.467 15.2897ZM175.557 10.3181L170.917 7.83807L169.974 9.60193L174.614 12.0819L175.557 10.3181ZM0.109375 40.32L0.126964 39.3202L-0.890625 39.3023V40.32H0.109375ZM29.6694 40.84H30.6694V39.8574L29.687 39.8402L29.6694 40.84ZM29.6694 52.84L29.5075 53.8268L30.6694 54.0174V52.84H29.6694ZM19.6694 51.2L19.8312 50.2132L18.4817 49.9919L18.6799 51.3449L19.6694 51.2ZM22.4294 70.04V71.04H23.5865L23.4188 69.8951L22.4294 70.04ZM8.10938 70.04L7.11588 69.9261L6.98817 71.04H8.10938V70.04ZM10.2694 51.2L11.2629 51.3139L11.3842 50.2557L10.3205 50.2013L10.2694 51.2ZM0.109375 50.68H-0.890625V51.6301L0.0582609 51.6787L0.109375 50.68ZM0.0917864 41.3198L29.6518 41.8398L29.687 39.8402L0.126964 39.3202L0.0917864 41.3198ZM28.6694 40.84V52.84H30.6694V40.84H28.6694ZM29.8312 51.8532L19.8312 50.2132L19.5075 52.1868L29.5075 53.8268L29.8312 51.8532ZM18.6799 51.3449L21.4399 70.1849L23.4188 69.8951L20.6588 51.055L18.6799 51.3449ZM22.4294 69.04H8.10938V71.04H22.4294V69.04ZM9.10287 70.1539L11.2629 51.3139L9.27588 51.0861L7.11588 69.9261L9.10287 70.1539ZM10.3205 50.2013L0.160489 49.6813L0.0582609 51.6787L10.2183 52.1987L10.3205 50.2013ZM1.10938 50.68V40.32H-0.890625V50.68H1.10938ZM31.95 40.44L31.8883 39.4419L30.916 39.502L30.9506 40.4755L31.95 40.44ZM39.71 39.96L40.6883 39.7527L40.5095 38.9086L39.6483 38.9619L39.71 39.96ZM45.71 68.28L45.8194 69.274L46.9172 69.1532L46.6883 68.0727L45.71 68.28ZM32.99 69.68L31.9906 69.7155L32.0289 70.7918L33.0994 70.674L32.99 69.68ZM32.0117 41.4381L39.7717 40.9581L39.6483 38.9619L31.8883 39.4419L32.0117 41.4381ZM38.7317 40.1673L44.7317 68.4873L46.6883 68.0727L40.6883 39.7527L38.7317 40.1673ZM45.6006 67.286L32.8806 68.686L33.0994 70.674L45.8194 69.274L45.6006 67.286ZM33.9894 69.6445L32.9494 40.4045L30.9506 40.4755L31.9906 69.7155L33.9894 69.6445ZM57.8394 40.24L57.9045 39.2421L57.6143 39.2232L57.3592 39.3628L57.8394 40.24ZM68.8794 40.96L69.8785 41.0015L69.919 40.0257L68.9445 39.9621L68.8794 40.96ZM68.4394 51.56L68.0165 52.4662L69.3763 53.1008L69.4385 51.6015L68.4394 51.56ZM61.2394 48.2L61.6623 47.2938L61.2401 47.0968L60.8178 47.2932L61.2394 48.2ZM54.9594 51.12L54.5378 50.2132L53.9853 50.4701L53.9602 51.0789L54.9594 51.12ZM54.6794 57.92L53.6802 57.8789L53.6574 58.4338L54.1164 58.7465L54.6794 57.92ZM60.1994 61.68L59.6364 62.5065L60.1314 62.8436L60.6622 62.5664L60.1994 61.68ZM68.3194 57.44L69.2909 57.2032L68.9885 55.9625L67.8565 56.5536L68.3194 57.44ZM71.0394 68.6L71.1268 69.5962L72.2866 69.4944L72.0109 68.3632L71.0394 68.6ZM55.0794 70L54.4201 70.7519L54.7412 71.0335L55.1668 70.9962L55.0794 70ZM47.2794 63.16L46.3139 63.4205L46.3927 63.7125L46.6201 63.9119L47.2794 63.16ZM44.9594 54.56L44.0276 54.197L43.9083 54.5032L43.9939 54.8205L44.9594 54.56ZM48.5594 45.32L48.0792 44.4428L47.7598 44.6177L47.6276 44.957L48.5594 45.32ZM57.7743 41.2379L68.8143 41.9579L68.9445 39.9621L57.9045 39.2421L57.7743 41.2379ZM67.8802 40.9185L67.4402 51.5185L69.4385 51.6015L69.8785 41.0015L67.8802 40.9185ZM68.8623 50.6538L61.6623 47.2938L60.8165 49.1062L68.0165 52.4662L68.8623 50.6538ZM60.8178 47.2932L54.5378 50.2132L55.381 52.0268L61.661 49.1068L60.8178 47.2932ZM53.9602 51.0789L53.6802 57.8789L55.6785 57.9611L55.9585 51.1611L53.9602 51.0789ZM54.1164 58.7465L59.6364 62.5065L60.7623 60.8535L55.2423 57.0935L54.1164 58.7465ZM60.6622 62.5664L68.7822 58.3264L67.8565 56.5536L59.7365 60.7936L60.6622 62.5664ZM67.3478 57.6768L70.0678 68.8368L72.0109 68.3632L69.2909 57.2032L67.3478 57.6768ZM70.952 67.6038L54.992 69.0038L55.1668 70.9962L71.1268 69.5962L70.952 67.6038ZM55.7387 69.2481L47.9387 62.4081L46.6201 63.9119L54.4201 70.7519L55.7387 69.2481ZM48.2449 62.8995L45.9249 54.2995L43.9939 54.8205L46.3139 63.4205L48.2449 62.8995ZM45.8912 54.923L49.4912 45.683L47.6276 44.957L44.0276 54.197L45.8912 54.923ZM49.0396 46.1972L58.3196 41.1172L57.3592 39.3628L48.0792 44.4428L49.0396 46.1972ZM70.9688 40.32L70.9863 39.3202L69.9688 39.3023V40.32H70.9688ZM100.529 40.84H101.529V39.8574L100.546 39.8402L100.529 40.84ZM100.529 52.84L100.367 53.8268L101.529 54.0174V52.84H100.529ZM90.5288 51.2L90.6906 50.2132L89.3411 49.9919L89.5393 51.3449L90.5288 51.2ZM93.2888 70.04V71.04H94.4459L94.2782 69.8951L93.2888 70.04ZM78.9688 70.04L77.9753 69.9261L77.8475 71.04H78.9688V70.04ZM81.1288 51.2L82.1222 51.3139L82.2436 50.2557L81.1799 50.2013L81.1288 51.2ZM70.9688 50.68H69.9688V51.6301L70.9176 51.6787L70.9688 50.68ZM70.9512 41.3198L100.511 41.8398L100.546 39.8402L70.9863 39.3202L70.9512 41.3198ZM99.5288 40.84V52.84H101.529V40.84H99.5288ZM100.691 51.8532L90.6906 50.2132L90.3669 52.1868L100.367 53.8268L100.691 51.8532ZM89.5393 51.3449L92.2993 70.1849L94.2782 69.8951L91.5182 51.055L89.5393 51.3449ZM93.2888 69.04H78.9688V71.04H93.2888V69.04ZM79.9622 70.1539L82.1222 51.3139L80.1353 51.0861L77.9753 69.9261L79.9622 70.1539ZM81.1799 50.2013L71.0199 49.6813L70.9176 51.6787L81.0776 52.1987L81.1799 50.2013ZM71.9688 50.68V40.32H69.9688V50.68H71.9688ZM120.569 40.36L121.478 39.9431L121.181 39.2939L120.47 39.365L120.569 40.36ZM133.209 67.92L133.366 68.9076L134.668 68.7008L134.118 67.5031L133.209 67.92ZM121.129 69.84L120.138 69.9744L120.276 70.9882L121.286 70.8276L121.129 69.84ZM120.169 62.76L121.16 62.6256L121.046 61.7813L120.194 61.7603L120.169 62.76ZM110.449 62.52L110.474 61.5203L109.704 61.5013L109.489 62.2406L110.449 62.52ZM108.249 70.08L108.073 71.0644L108.958 71.2225L109.21 70.3594L108.249 70.08ZM96.6094 68L95.7499 67.4889L95.0117 68.7303L96.4335 68.9844L96.6094 68ZM112.569 41.16L112.47 40.165L111.968 40.2152L111.71 40.6489L112.569 41.16ZM114.609 50.84L114.648 49.8408L113.944 49.8133L113.682 50.467L114.609 50.84ZM112.969 54.92L112.042 54.547L111.505 55.8821L112.943 55.9197L112.969 54.92ZM119.089 55.08L119.063 56.0797L120.498 56.1172L120.036 54.7583L119.089 55.08ZM117.689 50.96L118.636 50.6383L118.415 49.9875L117.728 49.9608L117.689 50.96ZM119.66 40.7769L132.3 68.3369L134.118 67.5031L121.478 39.9431L119.66 40.7769ZM133.052 66.9324L120.972 68.8524L121.286 70.8276L133.366 68.9076L133.052 66.9324ZM122.12 69.7056L121.16 62.6256L119.178 62.8944L120.138 69.9744L122.12 69.7056ZM120.194 61.7603L110.474 61.5203L110.425 63.5197L120.145 63.7597L120.194 61.7603ZM109.489 62.2406L107.289 69.8006L109.21 70.3594L111.41 62.7994L109.489 62.2406ZM108.425 69.0956L96.7853 67.0156L96.4335 68.9844L108.073 71.0644L108.425 69.0956ZM97.4689 68.5111L113.429 41.6711L111.71 40.6489L95.7499 67.4889L97.4689 68.5111ZM112.669 42.155L120.669 41.355L120.47 39.365L112.47 40.165L112.669 42.155ZM113.682 50.467L112.042 54.547L113.897 55.293L115.537 51.213L113.682 50.467ZM112.943 55.9197L119.063 56.0797L119.116 54.0803L112.996 53.9203L112.943 55.9197ZM120.036 54.7583L118.636 50.6383L116.743 51.2817L118.143 55.4017L120.036 54.7583ZM117.728 49.9608L114.648 49.8408L114.57 51.8392L117.65 51.9592L117.728 49.9608ZM142.839 40.24L142.904 39.2421L142.614 39.2232L142.359 39.3628L142.839 40.24ZM153.879 40.96L154.879 41.0015L154.919 40.0257L153.944 39.9621L153.879 40.96ZM153.439 51.56L153.016 52.4662L154.376 53.1008L154.439 51.6015L153.439 51.56ZM146.239 48.2L146.662 47.2938L146.24 47.0968L145.818 47.2932L146.239 48.2ZM139.959 51.12L139.538 50.2132L138.985 50.4701L138.96 51.0789L139.959 51.12ZM139.679 57.92L138.68 57.8789L138.657 58.4338L139.116 58.7465L139.679 57.92ZM145.199 61.68L144.636 62.5065L145.131 62.8436L145.662 62.5664L145.199 61.68ZM153.319 57.44L154.291 57.2032L153.989 55.9625L152.857 56.5536L153.319 57.44ZM156.039 68.6L156.127 69.5962L157.287 69.4944L157.011 68.3632L156.039 68.6ZM140.079 70L139.42 70.7519L139.741 71.0335L140.167 70.9962L140.079 70ZM132.279 63.16L131.314 63.4205L131.393 63.7125L131.62 63.9119L132.279 63.16ZM129.959 54.56L129.028 54.197L128.908 54.5032L128.994 54.8205L129.959 54.56ZM133.559 45.32L133.079 44.4428L132.76 44.6177L132.628 44.957L133.559 45.32ZM142.774 41.2379L153.814 41.9579L153.944 39.9621L142.904 39.2421L142.774 41.2379ZM152.88 40.9185L152.44 51.5185L154.439 51.6015L154.879 41.0015L152.88 40.9185ZM153.862 50.6538L146.662 47.2938L145.816 49.1062L153.016 52.4662L153.862 50.6538ZM145.818 47.2932L139.538 50.2132L140.381 52.0268L146.661 49.1068L145.818 47.2932ZM138.96 51.0789L138.68 57.8789L140.679 57.9611L140.959 51.1611L138.96 51.0789ZM139.116 58.7465L144.636 62.5065L145.762 60.8535L140.242 57.0935L139.116 58.7465ZM145.662 62.5664L153.782 58.3264L152.857 56.5536L144.737 60.7936L145.662 62.5664ZM152.348 57.6768L155.068 68.8368L157.011 68.3632L154.291 57.2032L152.348 57.6768ZM155.952 67.6038L139.992 69.0038L140.167 70.9962L156.127 69.5962L155.952 67.6038ZM140.739 69.2481L132.939 62.4081L131.62 63.9119L139.42 70.7519L140.739 69.2481ZM133.245 62.8995L130.925 54.2995L128.994 54.8205L131.314 63.4205L133.245 62.8995ZM130.891 54.923L134.491 45.683L132.628 44.957L129.028 54.197L130.891 54.923ZM134.04 46.1972L143.32 41.1172L142.359 39.3628L133.079 44.4428L134.04 46.1972ZM155.969 40.32L155.986 39.3202L154.969 39.3023V40.32H155.969ZM185.529 40.84H186.529V39.8574L185.546 39.8402L185.529 40.84ZM185.529 52.84L185.367 53.8268L186.529 54.0174V52.84H185.529ZM175.529 51.2L175.691 50.2132L174.341 49.9919L174.539 51.3449L175.529 51.2ZM178.289 70.04V71.04H179.446L179.278 69.8951L178.289 70.04ZM163.969 70.04L162.975 69.9261L162.848 71.04H163.969V70.04ZM166.129 51.2L167.122 51.3139L167.244 50.2557L166.18 50.2013L166.129 51.2ZM155.969 50.68H154.969V51.6301L155.918 51.6787L155.969 50.68ZM155.951 41.3198L185.511 41.8398L185.546 39.8402L155.986 39.3202L155.951 41.3198ZM184.529 40.84V52.84H186.529V40.84H184.529ZM185.691 51.8532L175.691 50.2132L175.367 52.1868L185.367 53.8268L185.691 51.8532ZM174.539 51.3449L177.299 70.1849L179.278 69.8951L176.518 51.055L174.539 51.3449ZM178.289 69.04H163.969V71.04H178.289V69.04ZM164.962 70.1539L167.122 51.3139L165.135 51.0861L162.975 69.9261L164.962 70.1539ZM166.18 50.2013L156.02 49.6813L155.918 51.6787L166.078 52.1987L166.18 50.2013ZM156.969 50.68V40.32H154.969V50.68H156.969ZM208.489 40.68L209.269 40.0532L208.981 39.6957L208.522 39.6805L208.489 40.68ZM217.209 51.52L218.195 51.6911L218.272 51.2456L217.989 50.8932L217.209 51.52ZM214.729 65.8L214.982 66.7676L215.604 66.6052L215.715 65.9711L214.729 65.8ZM198.929 69.92L198.268 70.6698L198.667 71.0219L199.182 70.8876L198.929 69.92ZM186.329 58.8L185.34 58.6515L185.26 59.1897L185.668 59.5498L186.329 58.8ZM188.209 46.28L187.674 45.4354L187.288 45.68L187.22 46.1315L188.209 46.28ZM197.609 40.32L197.642 39.3205L197.334 39.3103L197.074 39.4755L197.609 40.32ZM199.969 50.76L200.188 49.7842L199.39 49.6055L199.057 50.3516L199.969 50.76ZM197.929 55.32L197.017 54.9116L196.672 55.6811L197.372 56.1506L197.929 55.32ZM201.449 57.68L200.892 58.5106L201.315 58.7939L201.793 58.6192L201.449 57.68ZM205.169 56.32L205.513 57.2592L206.201 57.0075L206.168 56.275L205.169 56.32ZM204.969 51.88L205.968 51.835L205.934 51.0713L205.188 50.9042L204.969 51.88ZM207.71 41.3068L216.43 52.1468L217.989 50.8932L209.269 40.0532L207.71 41.3068ZM216.224 51.3489L213.744 65.6289L215.715 65.9711L218.195 51.6911L216.224 51.3489ZM214.477 64.8324L198.677 68.9524L199.182 70.8876L214.982 66.7676L214.477 64.8324ZM199.591 69.1702L186.991 58.0502L185.668 59.5498L198.268 70.6698L199.591 69.1702ZM187.318 58.9485L189.198 46.4285L187.22 46.1315L185.34 58.6515L187.318 58.9485ZM188.745 47.1245L198.145 41.1645L197.074 39.4755L187.674 45.4354L188.745 47.1245ZM197.576 41.3195L208.456 41.6795L208.522 39.6805L197.642 39.3205L197.576 41.3195ZM199.057 50.3516L197.017 54.9116L198.842 55.7284L200.882 51.1684L199.057 50.3516ZM197.372 56.1506L200.892 58.5106L202.006 56.8494L198.486 54.4894L197.372 56.1506ZM201.793 58.6192L205.513 57.2592L204.826 55.3808L201.106 56.7408L201.793 58.6192ZM206.168 56.275L205.968 51.835L203.97 51.925L204.17 56.365L206.168 56.275ZM205.188 50.9042L200.188 49.7842L199.751 51.7358L204.751 52.8558L205.188 50.9042ZM220.121 40.2V39.2H219.305L219.141 39.9996L220.121 40.2ZM239.721 40.2L240.702 40.3943L240.938 39.2H239.721V40.2ZM238.081 48.48L238.233 49.4684L238.926 49.362L239.062 48.6743L238.081 48.48ZM228.441 49.96L228.289 48.9716L227.49 49.0943L227.443 49.9013L228.441 49.96ZM228.321 52L227.323 51.9413L227.265 52.9235L228.246 52.9972L228.321 52ZM236.841 52.64L237.839 52.7028L237.901 51.7168L236.916 51.6428L236.841 52.64ZM236.441 59L236.53 59.996L237.385 59.9195L237.439 59.0628L236.441 59ZM228.841 59.68L228.752 58.684L227.514 58.7947L227.887 59.9803L228.841 59.68ZM229.521 61.84L228.567 62.1403L228.785 62.8337L229.512 62.84L229.521 61.84ZM238.761 61.92L239.681 61.5272L239.424 60.9257L238.77 60.92L238.761 61.92ZM242.161 69.88V70.88H243.675L243.081 69.4872L242.161 69.88ZM220.121 69.88L219.127 69.9923L219.228 70.88H220.121V69.88ZM217.961 50.76L216.981 50.5596L216.949 50.7148L216.967 50.8723L217.961 50.76ZM220.121 41.2H239.721V39.2H220.121V41.2ZM238.74 40.0057L237.1 48.2857L239.062 48.6743L240.702 40.3943L238.74 40.0057ZM237.929 47.4916L228.289 48.9716L228.593 50.9484L238.233 49.4684L237.929 47.4916ZM227.443 49.9013L227.323 51.9413L229.319 52.0587L229.439 50.0187L227.443 49.9013ZM228.246 52.9972L236.766 53.6372L236.916 51.6428L228.396 51.0028L228.246 52.9972ZM235.843 52.5772L235.443 58.9372L237.439 59.0628L237.839 52.7028L235.843 52.5772ZM236.352 58.004L228.752 58.684L228.93 60.676L236.53 59.996L236.352 58.004ZM227.887 59.9803L228.567 62.1403L230.475 61.5397L229.795 59.3797L227.887 59.9803ZM229.512 62.84L238.752 62.92L238.77 60.92L229.53 60.84L229.512 62.84ZM237.841 62.3128L241.241 70.2728L243.081 69.4872L239.681 61.5272L237.841 62.3128ZM242.161 68.88H220.121V70.88H242.161V68.88ZM221.115 69.7677L218.955 50.6477L216.967 50.8723L219.127 69.9923L221.115 69.7677ZM218.941 50.9604L221.101 40.4004L219.141 39.9996L216.981 50.5596L218.941 50.9604Z" fill="black"/>
</svg>
