<svg width="243" height="71" viewBox="0 0 243 71" fill="none" xmlns="http://www.w3.org/2000/svg">
<path d="M82.6445 7.76L77.4845 14.12L71.4445 10.24L69.9245 12.16L80.7245 20.08L75.4845 29.96H62.6445L53.6845 22.84L57.5645 16.32L65.2845 20.68L66.4445 18.88L55.1245 12.16L65.8445 0.159998H75.4845L82.6445 7.76ZM0.109375 40.32L29.6694 40.84V52.84L19.6694 51.2L22.4294 70.04H8.10938L10.2694 51.2L0.109375 50.68V40.32ZM220.121 40.2H239.721L238.081 48.48L228.441 49.96L228.321 52L236.841 52.64L236.441 59L228.841 59.68L229.521 61.84L238.761 61.92L242.161 69.88H220.121L217.961 50.76L220.121 40.2Z" fill="#009CDA"/>
<path d="M82.4252 0.439999H95.3452L94.7452 20.64L99.7452 17.04L98.2652 2.6H110.545V22.04L103.385 30.12H88.3052L82.4252 22.92V0.439999ZM176.885 0.439999L184.285 5.84L184.965 15.16L180.805 19.8L188.205 26.32L179.525 30.08L170.445 22.32L171.805 30.04H162.605L160.285 1.72L176.885 0.439999ZM170.445 8.72L170.205 14.4L172.645 14.72L175.085 11.2L170.445 8.72ZM31.95 40.44L39.71 39.96L45.71 68.28L32.99 69.68L31.95 40.44ZM120.569 40.36L133.209 67.92L121.129 69.84L120.169 62.76L110.449 62.52L108.249 70.08L96.6094 68L112.569 41.16L120.569 40.36ZM114.609 50.84L112.969 54.92L119.089 55.08L117.689 50.96L114.609 50.84ZM208.489 40.68L217.209 51.52L214.729 65.8L198.929 69.92L186.329 58.8L188.209 46.28L197.609 40.32L208.489 40.68ZM199.969 50.76L197.929 55.32L201.449 57.68L205.169 56.32L204.969 51.88L199.969 50.76Z" fill="#FCCF00"/>
<path d="M129.606 0.4L136.646 5.24L137.206 17.08L130.086 23.96L121.246 24.52V30.16H111.926L113.406 0.4H129.606ZM122.886 9.52L122.606 14.36L125.246 14.72L128.606 10.76L122.886 9.52ZM57.8394 40.24L68.8794 40.96L68.4394 51.56L61.2394 48.2L54.9594 51.12L54.6794 57.92L60.1994 61.68L68.3194 57.44L71.0394 68.6L55.0794 70L47.2794 63.16L44.9594 54.56L48.5594 45.32L57.8394 40.24ZM142.839 40.24L153.879 40.96L153.439 51.56L146.239 48.2L139.959 51.12L139.679 57.92L145.199 61.68L153.319 57.44L156.039 68.6L140.079 70L132.279 63.16L129.959 54.56L133.559 45.32L142.839 40.24Z" fill="#E62310"/>
<path d="M139.515 0.199997H159.115L157.475 8.48L147.835 9.96L147.715 12L156.235 12.64L155.835 19L148.235 19.68L148.915 21.84L158.155 21.92L161.555 29.88H139.515L137.355 10.76L139.515 0.199997ZM70.9688 40.32L100.529 40.84V52.84L90.5288 51.2L93.2888 70.04H78.9688L81.1288 51.2L70.9688 50.68V40.32ZM155.969 40.32L185.529 40.84V52.84L175.529 51.2L178.289 70.04H163.969L166.129 51.2L155.969 50.68V40.32Z" fill="#44AF35"/>
<path d="M82.6445 7.76L84.1977 9.02008L85.2997 7.66172L84.1003 6.38855L82.6445 7.76ZM77.4845 14.12L76.4036 15.8027L77.9098 16.7703L79.0377 15.3801L77.4845 14.12ZM71.4445 10.24L72.5255 8.55728L71.0011 7.57802L69.8764 8.99859L71.4445 10.24ZM69.9245 12.16L68.3564 10.9186L67.0684 12.5456L68.7418 13.7728L69.9245 12.16ZM80.7245 20.08L82.4914 21.0171L83.3015 19.4896L81.9073 18.4672L80.7245 20.08ZM75.4845 29.96V31.96H76.6877L77.2514 30.8971L75.4845 29.96ZM62.6445 29.96L61.4003 31.5258L61.9466 31.96H62.6445V29.96ZM53.6845 22.84L51.9658 21.8172L51.0723 23.3188L52.4403 24.4058L53.6845 22.84ZM57.5645 16.32L58.5481 14.5785L56.8457 13.6171L55.8458 15.2972L57.5645 16.32ZM65.2845 20.68L64.301 22.4215L65.9437 23.3492L66.9657 21.7634L65.2845 20.68ZM66.4445 18.88L68.1257 19.9634L69.2496 18.2193L67.4655 17.1602L66.4445 18.88ZM55.1245 12.16L53.633 10.8276L52.0143 12.6395L54.1036 13.8798L55.1245 12.16ZM65.8445 0.159998V-1.84H64.9494L64.353 -1.17243L65.8445 0.159998ZM75.4845 0.159998L76.9403 -1.21145L76.3481 -1.84H75.4845V0.159998ZM81.0914 6.49992L75.9314 12.8599L79.0377 15.3801L84.1977 9.02008L81.0914 6.49992ZM78.5655 12.4373L72.5255 8.55728L70.3636 11.9227L76.4036 15.8027L78.5655 12.4373ZM69.8764 8.99859L68.3564 10.9186L71.4926 13.4014L73.0126 11.4814L69.8764 8.99859ZM68.7418 13.7728L79.5418 21.6928L81.9073 18.4672L71.1073 10.5472L68.7418 13.7728ZM78.9577 19.1429L73.7177 29.0229L77.2514 30.8971L82.4914 21.0171L78.9577 19.1429ZM75.4845 27.96H62.6445V31.96H75.4845V27.96ZM63.8888 28.3942L54.9288 21.2742L52.4403 24.4058L61.4003 31.5258L63.8888 28.3942ZM55.4032 23.8628L59.2832 17.3428L55.8458 15.2972L51.9658 21.8172L55.4032 23.8628ZM56.581 18.0615L64.301 22.4215L66.2681 18.9385L58.5481 14.5785L56.581 18.0615ZM66.9657 21.7634L68.1257 19.9634L64.7634 17.7966L63.6034 19.5966L66.9657 21.7634ZM67.4655 17.1602L56.1455 10.4402L54.1036 13.8798L65.4236 20.5998L67.4655 17.1602ZM56.6161 13.4924L67.3361 1.49242L64.353 -1.17243L53.633 10.8276L56.6161 13.4924ZM65.8445 2.16H75.4845V-1.84H65.8445V2.16ZM74.0288 1.53144L81.1888 9.13144L84.1003 6.38855L76.9403 -1.21145L74.0288 1.53144ZM82.4252 0.439999V-1.56H80.4252V0.439999H82.4252ZM95.3452 0.439999L97.3443 0.499379L97.4054 -1.56H95.3452V0.439999ZM94.7452 20.64L92.746 20.5806L92.6257 24.6304L95.9138 22.2631L94.7452 20.64ZM99.7452 17.04L100.914 18.6631L101.853 17.987L101.735 16.8361L99.7452 17.04ZM98.2652 2.6V0.599998H96.0497L96.2756 2.80392L98.2652 2.6ZM110.545 2.6H112.545V0.599998H110.545V2.6ZM110.545 22.04L112.042 23.3664L112.545 22.7986V22.04H110.545ZM103.385 30.12V32.12H104.285L104.882 31.4464L103.385 30.12ZM88.3052 30.12L86.7561 31.3851L87.3563 32.12H88.3052V30.12ZM82.4252 22.92H80.4252V23.6329L80.8761 24.1851L82.4252 22.92ZM82.4252 2.44H95.3452V-1.56H82.4252V2.44ZM93.346 0.380619L92.746 20.5806L96.7443 20.6994L97.3443 0.499379L93.346 0.380619ZM95.9138 22.2631L100.914 18.6631L98.5765 15.4169L93.5765 19.0169L95.9138 22.2631ZM101.735 16.8361L100.255 2.39608L96.2756 2.80392L97.7556 17.2439L101.735 16.8361ZM98.2652 4.6H110.545V0.599998H98.2652V4.6ZM108.545 2.6V22.04H112.545V2.6H108.545ZM109.048 20.7136L101.888 28.7936L104.882 31.4464L112.042 23.3664L109.048 20.7136ZM103.385 28.12H88.3052V32.12H103.385V28.12ZM89.8542 28.8549L83.9742 21.6549L80.8761 24.1851L86.7561 31.3851L89.8542 28.8549ZM84.4252 22.92V0.439999H80.4252V22.92H84.4252ZM129.606 0.4L130.739 -1.24808L130.227 -1.6H129.606V0.4ZM136.646 5.24L138.644 5.14551L138.597 4.15417L137.779 3.59192L136.646 5.24ZM137.206 17.08L138.596 18.5182L139.246 17.8894L139.204 16.9855L137.206 17.08ZM130.086 23.96L130.212 25.956L130.946 25.9095L131.476 25.3982L130.086 23.96ZM121.246 24.52L121.119 22.524L119.246 22.6427V24.52H121.246ZM121.246 30.16V32.16H123.246V30.16H121.246ZM111.926 30.16L109.928 30.0607L109.824 32.16H111.926V30.16ZM113.406 0.4V-1.6H111.503L111.408 0.30066L113.406 0.4ZM122.886 9.52L123.31 7.5654L121.024 7.06998L120.889 9.40449L122.886 9.52ZM122.606 14.36L120.609 14.2445L120.502 16.0917L122.336 16.3417L122.606 14.36ZM125.246 14.72L124.976 16.7017L126.062 16.8498L126.771 16.014L125.246 14.72ZM128.606 10.76L130.131 12.054L132.288 9.51175L129.03 8.8054L128.606 10.76ZM128.473 2.04808L135.513 6.88808L137.779 3.59192L130.739 -1.24808L128.473 2.04808ZM134.648 5.33449L135.208 17.1745L139.204 16.9855L138.644 5.14551L134.648 5.33449ZM135.816 15.6418L128.696 22.5218L131.476 25.3982L138.596 18.5182L135.816 15.6418ZM129.959 21.964L121.119 22.524L121.372 26.516L130.212 25.956L129.959 21.964ZM119.246 24.52V30.16H123.246V24.52H119.246ZM121.246 28.16H111.926V32.16H121.246V28.16ZM113.923 30.2593L115.403 0.499339L111.408 0.30066L109.928 30.0607L113.923 30.2593ZM113.406 2.4H129.606V-1.6H113.406V2.4ZM120.889 9.40449L120.609 14.2445L124.602 14.4755L124.882 9.63551L120.889 9.40449ZM122.336 16.3417L124.976 16.7017L125.516 12.7383L122.876 12.3783L122.336 16.3417ZM126.771 16.014L130.131 12.054L127.081 9.46604L123.721 13.426L126.771 16.014ZM129.03 8.8054L123.31 7.5654L122.462 11.4746L128.182 12.7146L129.03 8.8054ZM139.515 0.199997V-1.8H137.883L137.556 -0.200795L139.515 0.199997ZM159.115 0.199997L161.077 0.588584L161.55 -1.8H159.115V0.199997ZM157.475 8.48L157.779 10.4568L159.165 10.2441L159.437 8.86858L157.475 8.48ZM147.835 9.96L147.532 7.98316L145.934 8.22851L145.839 9.84255L147.835 9.96ZM147.715 12L145.719 11.8826L145.603 13.847L147.566 13.9944L147.715 12ZM156.235 12.64L158.232 12.7655L158.356 10.7936L156.385 10.6456L156.235 12.64ZM155.835 19L156.014 20.992L157.724 20.839L157.832 19.1255L155.835 19ZM148.235 19.68L148.057 17.688L145.581 17.9095L146.328 20.2806L148.235 19.68ZM148.915 21.84L147.008 22.4406L147.444 23.8273L148.898 23.8399L148.915 21.84ZM158.155 21.92L159.995 21.1344L159.481 19.9314L158.173 19.9201L158.155 21.92ZM161.555 29.88V31.88H164.585L163.395 29.0944L161.555 29.88ZM139.515 29.88L137.528 30.1045L137.729 31.88H139.515V29.88ZM137.355 10.76L135.396 10.3592L135.333 10.6696L135.368 10.9845L137.355 10.76ZM139.515 2.2H159.115V-1.8H139.515V2.2ZM157.154 -0.188589L155.514 8.09141L159.437 8.86858L161.077 0.588584L157.154 -0.188589ZM157.172 6.50316L147.532 7.98316L148.139 11.9368L157.779 10.4568L157.172 6.50316ZM145.839 9.84255L145.719 11.8826L149.712 12.1174L149.832 10.0774L145.839 9.84255ZM147.566 13.9944L156.086 14.6344L156.385 10.6456L147.865 10.0056L147.566 13.9944ZM154.239 12.5145L153.839 18.8745L157.832 19.1255L158.232 12.7655L154.239 12.5145ZM155.657 17.008L148.057 17.688L148.414 21.672L156.014 20.992L155.657 17.008ZM146.328 20.2806L147.008 22.4406L150.823 21.2394L150.143 19.0794L146.328 20.2806ZM148.898 23.8399L158.138 23.9199L158.173 19.9201L148.933 19.8401L148.898 23.8399ZM156.316 22.7056L159.716 30.6656L163.395 29.0944L159.995 21.1344L156.316 22.7056ZM161.555 27.88H139.515V31.88H161.555V27.88ZM141.503 29.6555L139.343 10.5355L135.368 10.9845L137.528 30.1045L141.503 29.6555ZM139.315 11.1608L141.475 0.60079L137.556 -0.200795L135.396 10.3592L139.315 11.1608ZM176.885 0.439999L178.064 -1.17558L177.468 -1.61085L176.731 -1.55408L176.885 0.439999ZM184.285 5.84L186.28 5.69446L186.212 4.77051L185.464 4.22442L184.285 5.84ZM184.965 15.16L186.454 16.4951L187.022 15.8622L186.96 15.0145L184.965 15.16ZM180.805 19.8L179.316 18.4649L177.969 19.967L179.483 21.3006L180.805 19.8ZM188.205 26.32L189 28.1552L191.892 26.9026L189.527 24.8194L188.205 26.32ZM179.525 30.08L178.226 31.6004L179.175 32.4114L180.32 31.9152L179.525 30.08ZM170.445 22.32L171.745 20.7996L167.509 17.1796L168.475 22.667L170.445 22.32ZM171.805 30.04V32.04H174.188L173.775 29.693L171.805 30.04ZM162.605 30.04L160.612 30.2033L160.762 32.04H162.605V30.04ZM160.285 1.72L160.131 -0.274081L158.128 -0.119584L158.292 1.88329L160.285 1.72ZM170.445 8.72L171.388 6.95614L168.581 5.45604L168.447 8.63557L170.445 8.72ZM170.205 14.4L168.207 14.3156L168.13 16.1449L169.945 16.383L170.205 14.4ZM172.645 14.72L172.385 16.703L173.594 16.8616L174.289 15.8594L172.645 14.72ZM175.085 11.2L176.729 12.3394L178.008 10.4944L176.028 9.43614L175.085 11.2ZM175.706 2.05558L183.106 7.45558L185.464 4.22442L178.064 -1.17558L175.706 2.05558ZM182.29 5.98553L182.97 15.3055L186.96 15.0145L186.28 5.69446L182.29 5.98553ZM183.476 13.8249L179.316 18.4649L182.294 21.1351L186.454 16.4951L183.476 13.8249ZM179.483 21.3006L186.883 27.8206L189.527 24.8194L182.127 18.2994L179.483 21.3006ZM187.41 24.4848L178.73 28.2448L180.32 31.9152L189 28.1552L187.41 24.4848ZM180.825 28.5596L171.745 20.7996L169.146 23.8404L178.226 31.6004L180.825 28.5596ZM168.475 22.667L169.835 30.387L173.775 29.693L172.415 21.973L168.475 22.667ZM171.805 28.04H162.605V32.04H171.805V28.04ZM164.598 29.8767L162.278 1.5567L158.292 1.88329L160.612 30.2033L164.598 29.8767ZM160.439 3.71408L177.039 2.43408L176.731 -1.55408L160.131 -0.274081L160.439 3.71408ZM168.447 8.63557L168.207 14.3156L172.203 14.4844L172.443 8.80443L168.447 8.63557ZM169.945 16.383L172.385 16.703L172.905 12.737L170.465 12.417L169.945 16.383ZM174.289 15.8594L176.729 12.3394L173.441 10.0606L171.001 13.5806L174.289 15.8594ZM176.028 9.43614L171.388 6.95614L169.502 10.4839L174.142 12.9639L176.028 9.43614ZM0.109375 40.32L0.144552 38.3203L-1.89062 38.2845V40.32H0.109375ZM29.6694 40.84H31.6694V38.8749L29.7046 38.8403L29.6694 40.84ZM29.6694 52.84L29.3457 54.8136L31.6694 55.1947V52.84H29.6694ZM19.6694 51.2L19.9931 49.2264L17.2941 48.7837L17.6905 51.4899L19.6694 51.2ZM22.4294 70.04V72.04H24.7437L24.4083 69.7501L22.4294 70.04ZM8.10938 70.04L6.12239 69.8122L5.86697 72.04H8.10938V70.04ZM10.2694 51.2L12.2564 51.4278L12.499 49.3115L10.3716 49.2026L10.2694 51.2ZM0.109375 50.68H-1.89062V52.5803L0.00714675 52.6774L0.109375 50.68ZM0.0741977 42.3197L29.6342 42.8397L29.7046 38.8403L0.144552 38.3203L0.0741977 42.3197ZM27.6694 40.84V52.84H31.6694V40.84H27.6694ZM29.9931 50.8664L19.9931 49.2264L19.3457 53.1736L29.3457 54.8136L29.9931 50.8664ZM17.6905 51.4899L20.4505 70.3299L24.4083 69.7501L21.6483 50.9101L17.6905 51.4899ZM22.4294 68.04H8.10938V72.04H22.4294V68.04ZM10.0964 70.2678L12.2564 51.4278L8.28239 50.9722L6.12239 69.8122L10.0964 70.2678ZM10.3716 49.2026L0.211603 48.6826L0.00714675 52.6774L10.1671 53.1974L10.3716 49.2026ZM2.10938 50.68V40.32H-1.89062V50.68H2.10938ZM31.95 40.44L31.8265 38.4438L29.882 38.5641L29.9513 40.5111L31.95 40.44ZM39.71 39.96L41.6666 39.5455L41.3089 37.8573L39.5865 37.9638L39.71 39.96ZM45.71 68.28L45.9288 70.268L48.1244 70.0263L47.6666 67.8655L45.71 68.28ZM32.99 69.68L30.9913 69.7511L31.0678 71.9036L33.2088 71.668L32.99 69.68ZM32.0735 42.4362L39.8335 41.9562L39.5865 37.9638L31.8265 38.4438L32.0735 42.4362ZM37.7534 40.3745L43.7534 68.6945L47.6666 67.8655L41.6666 39.5455L37.7534 40.3745ZM45.4912 66.292L32.7712 67.692L33.2088 71.668L45.9288 70.268L45.4912 66.292ZM34.9887 69.6089L33.9487 40.3689L29.9513 40.5111L30.9913 69.7511L34.9887 69.6089ZM57.8394 40.24L57.9695 38.2442L57.3892 38.2064L56.879 38.4857L57.8394 40.24ZM68.8794 40.96L70.8777 41.0429L70.9587 39.0914L69.0095 38.9642L68.8794 40.96ZM68.4394 51.56L67.5936 53.3724L70.3132 54.6415L70.4377 51.6429L68.4394 51.56ZM61.2394 48.2L62.0851 46.3876L61.2409 45.9937L60.3961 46.3865L61.2394 48.2ZM54.9594 51.12L54.1161 49.3065L53.0112 49.8202L52.9611 51.0377L54.9594 51.12ZM54.6794 57.92L52.6811 57.8377L52.6354 58.9476L53.5534 59.573L54.6794 57.92ZM60.1994 61.68L59.0734 63.333L60.0634 64.0073L61.1251 63.4529L60.1994 61.68ZM68.3194 57.44L70.2625 56.9664L69.6577 54.4849L67.3936 55.6671L68.3194 57.44ZM71.0394 68.6L71.2141 70.5923L73.5339 70.3889L72.9825 68.1264L71.0394 68.6ZM55.0794 70L53.7607 71.5037L54.4031 72.067L55.2541 71.9923L55.0794 70ZM47.2794 63.16L45.3484 63.6809L45.5059 64.2649L45.9607 64.6637L47.2794 63.16ZM44.9594 54.56L43.0958 53.8339L42.8572 54.4463L43.0284 55.0809L44.9594 54.56ZM48.5594 45.32L47.599 43.5657L46.9602 43.9154L46.6958 44.5939L48.5594 45.32ZM57.7092 42.2358L68.7492 42.9558L69.0095 38.9642L57.9695 38.2442L57.7092 42.2358ZM66.8811 40.8771L66.4411 51.4771L70.4377 51.6429L70.8777 41.0429L66.8811 40.8771ZM69.2851 49.7476L62.0851 46.3876L60.3936 50.0124L67.5936 53.3724L69.2851 49.7476ZM60.3961 46.3865L54.1161 49.3065L55.8026 52.9335L62.0826 50.0135L60.3961 46.3865ZM52.9611 51.0377L52.6811 57.8377L56.6777 58.0023L56.9577 51.2023L52.9611 51.0377ZM53.5534 59.573L59.0734 63.333L61.3253 60.027L55.8053 56.267L53.5534 59.573ZM61.1251 63.4529L69.2451 59.2129L67.3936 55.6671L59.2736 59.9071L61.1251 63.4529ZM66.3763 57.9136L69.0963 69.0736L72.9825 68.1264L70.2625 56.9664L66.3763 57.9136ZM70.8646 66.6077L54.9046 68.0077L55.2541 71.9923L71.2141 70.5923L70.8646 66.6077ZM56.398 68.4963L48.598 61.6563L45.9607 64.6637L53.7607 71.5037L56.398 68.4963ZM49.2103 62.6391L46.8903 54.0391L43.0284 55.0809L45.3484 63.6809L49.2103 62.6391ZM46.8229 55.2861L50.4229 46.0461L46.6958 44.5939L43.0958 53.8339L46.8229 55.2861ZM49.5197 47.0743L58.7997 41.9943L56.879 38.4857L47.599 43.5657L49.5197 47.0743ZM70.9688 40.32L71.0039 38.3203L68.9688 38.2845V40.32H70.9688ZM100.529 40.84H102.529V38.8749L100.564 38.8403L100.529 40.84ZM100.529 52.84L100.205 54.8136L102.529 55.1947V52.84H100.529ZM90.5288 51.2L90.8524 49.2264L88.1534 48.7837L88.5499 51.4899L90.5288 51.2ZM93.2888 70.04V72.04H95.6031L95.2676 69.7501L93.2888 70.04ZM78.9688 70.04L76.9818 69.8122L76.7263 72.04H78.9688V70.04ZM81.1288 51.2L83.1157 51.4278L83.3584 49.3115L81.231 49.2026L81.1288 51.2ZM70.9688 50.68H68.9688V52.5803L70.8665 52.6774L70.9688 50.68ZM70.9336 42.3197L100.494 42.8397L100.564 38.8403L71.0039 38.3203L70.9336 42.3197ZM98.5288 40.84V52.84H102.529V40.84H98.5288ZM100.852 50.8664L90.8524 49.2264L90.2051 53.1736L100.205 54.8136L100.852 50.8664ZM88.5499 51.4899L91.3099 70.3299L95.2676 69.7501L92.5076 50.9101L88.5499 51.4899ZM93.2888 68.04H78.9688V72.04H93.2888V68.04ZM80.9557 70.2678L83.1157 51.4278L79.1418 50.9722L76.9818 69.8122L80.9557 70.2678ZM81.231 49.2026L71.071 48.6826L70.8665 52.6774L81.0265 53.1974L81.231 49.2026ZM72.9688 50.68V40.32H68.9688V50.68H72.9688ZM120.569 40.36L122.387 39.5262L121.792 38.2278L120.37 38.3699L120.569 40.36ZM133.209 67.92L133.523 69.8952L136.126 69.4816L135.027 67.0862L133.209 67.92ZM121.129 69.84L119.148 70.1087L119.422 72.1364L121.443 71.8152L121.129 69.84ZM120.169 62.76L122.151 62.4913L121.922 60.8027L120.219 60.7606L120.169 62.76ZM110.449 62.52L110.499 60.5206L108.959 60.4826L108.529 61.9612L110.449 62.52ZM108.249 70.08L107.898 72.0488L109.667 72.3651L110.17 70.6388L108.249 70.08ZM96.6094 68L94.8903 66.9778L93.4139 69.4607L96.2576 69.9688L96.6094 68ZM112.569 41.16L112.37 39.1699L111.366 39.2703L110.85 40.1378L112.569 41.16ZM114.609 50.84L114.687 48.8415L113.279 48.7867L112.754 50.0941L114.609 50.84ZM112.969 54.92L111.114 54.1741L110.04 56.8441L112.917 56.9193L112.969 54.92ZM119.089 55.08L119.037 57.0793L121.907 57.1543L120.983 54.4365L119.089 55.08ZM117.689 50.96L119.583 50.3165L119.141 49.015L117.767 48.9615L117.689 50.96ZM118.751 41.1938L131.391 68.7538L135.027 67.0862L122.387 39.5262L118.751 41.1938ZM132.895 65.9448L120.815 67.8648L121.443 71.8152L133.523 69.8952L132.895 65.9448ZM123.111 69.5713L122.151 62.4913L118.188 63.0287L119.148 70.1087L123.111 69.5713ZM120.219 60.7606L110.499 60.5206L110.4 64.5194L120.12 64.7594L120.219 60.7606ZM108.529 61.9612L106.329 69.5212L110.17 70.6388L112.37 63.0788L108.529 61.9612ZM108.601 68.1112L96.9612 66.0312L96.2576 69.9688L107.898 72.0488L108.601 68.1112ZM98.3284 69.0222L114.288 42.1822L110.85 40.1378L94.8903 66.9778L98.3284 69.0222ZM112.768 43.1501L120.768 42.3501L120.37 38.3699L112.37 39.1699L112.768 43.1501ZM112.754 50.0941L111.114 54.1741L114.825 55.6659L116.465 51.5859L112.754 50.0941ZM112.917 56.9193L119.037 57.0793L119.142 53.0807L113.022 52.9207L112.917 56.9193ZM120.983 54.4365L119.583 50.3165L115.796 51.6035L117.196 55.7235L120.983 54.4365ZM117.767 48.9615L114.687 48.8415L114.532 52.8385L117.612 52.9585L117.767 48.9615ZM142.839 40.24L142.97 38.2442L142.389 38.2064L141.879 38.4857L142.839 40.24ZM153.879 40.96L155.878 41.0429L155.959 39.0914L154.01 38.9642L153.879 40.96ZM153.439 51.56L152.594 53.3724L155.313 54.6415L155.438 51.6429L153.439 51.56ZM146.239 48.2L147.085 46.3876L146.241 45.9937L145.396 46.3865L146.239 48.2ZM139.959 51.12L139.116 49.3065L138.011 49.8202L137.961 51.0377L139.959 51.12ZM139.679 57.92L137.681 57.8377L137.635 58.9476L138.553 59.573L139.679 57.92ZM145.199 61.68L144.073 63.333L145.063 64.0073L146.125 63.4529L145.199 61.68ZM153.319 57.44L155.262 56.9664L154.658 54.4849L152.394 55.6671L153.319 57.44ZM156.039 68.6L156.214 70.5923L158.534 70.3889L157.982 68.1264L156.039 68.6ZM140.079 70L138.761 71.5037L139.403 72.067L140.254 71.9923L140.079 70ZM132.279 63.16L130.348 63.6809L130.506 64.2649L130.961 64.6637L132.279 63.16ZM129.959 54.56L128.096 53.8339L127.857 54.4463L128.028 55.0809L129.959 54.56ZM133.559 45.32L132.599 43.5657L131.96 43.9154L131.696 44.5939L133.559 45.32ZM142.709 42.2358L153.749 42.9558L154.01 38.9642L142.97 38.2442L142.709 42.2358ZM151.881 40.8771L151.441 51.4771L155.438 51.6429L155.878 41.0429L151.881 40.8771ZM154.285 49.7476L147.085 46.3876L145.394 50.0124L152.594 53.3724L154.285 49.7476ZM145.396 46.3865L139.116 49.3065L140.803 52.9335L147.083 50.0135L145.396 46.3865ZM137.961 51.0377L137.681 57.8377L141.678 58.0023L141.958 51.2023L137.961 51.0377ZM138.553 59.573L144.073 63.333L146.325 60.027L140.805 56.267L138.553 59.573ZM146.125 63.4529L154.245 59.2129L152.394 55.6671L144.274 59.9071L146.125 63.4529ZM151.376 57.9136L154.096 69.0736L157.982 68.1264L155.262 56.9664L151.376 57.9136ZM155.865 66.6077L139.905 68.0077L140.254 71.9923L156.214 70.5923L155.865 66.6077ZM141.398 68.4963L133.598 61.6563L130.961 64.6637L138.761 71.5037L141.398 68.4963ZM134.21 62.6391L131.89 54.0391L128.028 55.0809L130.348 63.6809L134.21 62.6391ZM131.823 55.2861L135.423 46.0461L131.696 44.5939L128.096 53.8339L131.823 55.2861ZM134.52 47.0743L143.8 41.9943L141.879 38.4857L132.599 43.5657L134.52 47.0743ZM155.969 40.32L156.004 38.3203L153.969 38.2845V40.32H155.969ZM185.529 40.84H187.529V38.8749L185.564 38.8403L185.529 40.84ZM185.529 52.84L185.205 54.8136L187.529 55.1947V52.84H185.529ZM175.529 51.2L175.852 49.2264L173.153 48.7837L173.55 51.4899L175.529 51.2ZM178.289 70.04V72.04H180.603L180.268 69.7501L178.289 70.04ZM163.969 70.04L161.982 69.8122L161.726 72.04H163.969V70.04ZM166.129 51.2L168.116 51.4278L168.358 49.3115L166.231 49.2026L166.129 51.2ZM155.969 50.68H153.969V52.5803L155.867 52.6774L155.969 50.68ZM155.934 42.3197L185.494 42.8397L185.564 38.8403L156.004 38.3203L155.934 42.3197ZM183.529 40.84V52.84H187.529V40.84H183.529ZM185.852 50.8664L175.852 49.2264L175.205 53.1736L185.205 54.8136L185.852 50.8664ZM173.55 51.4899L176.31 70.3299L180.268 69.7501L177.508 50.9101L173.55 51.4899ZM178.289 68.04H163.969V72.04H178.289V68.04ZM165.956 70.2678L168.116 51.4278L164.142 50.9722L161.982 69.8122L165.956 70.2678ZM166.231 49.2026L156.071 48.6826L155.867 52.6774L166.027 53.1974L166.231 49.2026ZM157.969 50.68V40.32H153.969V50.68H157.969ZM208.489 40.68L210.048 39.4264L209.473 38.7114L208.556 38.6811L208.489 40.68ZM217.209 51.52L219.18 51.8622L219.335 50.9711L218.768 50.2664L217.209 51.52ZM214.729 65.8L215.234 67.7353L216.48 67.4105L216.7 66.1422L214.729 65.8ZM198.929 69.92L197.606 71.4195L198.404 72.1239L199.434 71.8553L198.929 69.92ZM186.329 58.8L184.352 58.503L184.19 59.5793L185.006 60.2995L186.329 58.8ZM188.209 46.28L187.138 44.5909L186.367 45.0799L186.232 45.983L188.209 46.28ZM197.609 40.32L197.676 38.3211L197.059 38.3007L196.538 38.6309L197.609 40.32ZM199.969 50.76L200.407 48.8084L198.811 48.451L198.144 49.9433L199.969 50.76ZM197.929 55.32L196.104 54.5033L195.415 56.0423L196.816 56.9812L197.929 55.32ZM201.449 57.68L200.336 59.3412L201.181 59.9077L202.136 59.5584L201.449 57.68ZM205.169 56.32L205.856 58.1984L207.233 57.6949L207.167 56.23L205.169 56.32ZM204.969 51.88L206.967 51.79L206.899 50.2626L205.407 49.9284L204.969 51.88ZM206.931 41.9336L215.651 52.7736L218.768 50.2664L210.048 39.4264L206.931 41.9336ZM215.239 51.1778L212.759 65.4578L216.7 66.1422L219.18 51.8622L215.239 51.1778ZM214.225 63.8647L198.425 67.9847L199.434 71.8553L215.234 67.7353L214.225 63.8647ZM200.253 68.4205L187.653 57.3005L185.006 60.2995L197.606 71.4195L200.253 68.4205ZM188.307 59.097L190.187 46.577L186.232 45.983L184.352 58.503L188.307 59.097ZM189.28 47.9691L198.68 42.0091L196.538 38.6309L187.138 44.5909L189.28 47.9691ZM197.543 42.3189L208.423 42.6789L208.556 38.6811L197.676 38.3211L197.543 42.3189ZM198.144 49.9433L196.104 54.5033L199.755 56.1367L201.795 51.5767L198.144 49.9433ZM196.816 56.9812L200.336 59.3412L202.563 56.0188L199.043 53.6588L196.816 56.9812ZM202.136 59.5584L205.856 58.1984L204.483 54.4416L200.763 55.8016L202.136 59.5584ZM207.167 56.23L206.967 51.79L202.971 51.97L203.171 56.41L207.167 56.23ZM205.407 49.9284L200.407 48.8084L199.532 52.7116L204.532 53.8316L205.407 49.9284ZM220.121 40.2V38.2H218.489L218.162 39.7992L220.121 40.2ZM239.721 40.2L241.683 40.5886L242.156 38.2H239.721V40.2ZM238.081 48.48L238.384 50.4568L239.77 50.2441L240.043 48.8686L238.081 48.48ZM228.441 49.96L228.137 47.9832L226.539 48.2285L226.444 49.8426L228.441 49.96ZM228.321 52L226.324 51.8826L226.209 53.847L228.171 53.9944L228.321 52ZM236.841 52.64L238.837 52.7655L238.961 50.7936L236.991 50.6456L236.841 52.64ZM236.441 59L236.619 60.992L238.329 60.839L238.437 59.1255L236.441 59ZM228.841 59.68L228.663 57.688L226.187 57.9095L226.933 60.2806L228.841 59.68ZM229.521 61.84L227.613 62.4406L228.05 63.8273L229.504 63.8399L229.521 61.84ZM238.761 61.92L240.6 61.1344L240.086 59.9314L238.778 59.9201L238.761 61.92ZM242.161 69.88V71.88H245.19L244 69.0944L242.161 69.88ZM220.121 69.88L218.134 70.1045L218.334 71.88H220.121V69.88ZM217.961 50.76L216.002 50.3592L215.938 50.6696L215.974 50.9845L217.961 50.76ZM220.121 42.2H239.721V38.2H220.121V42.2ZM237.759 39.8114L236.119 48.0914L240.043 48.8686L241.683 40.5886L237.759 39.8114ZM237.777 46.5032L228.137 47.9832L228.744 51.9368L238.384 50.4568L237.777 46.5032ZM226.444 49.8426L226.324 51.8826L230.317 52.1174L230.437 50.0774L226.444 49.8426ZM228.171 53.9944L236.691 54.6344L236.991 50.6456L228.471 50.0056L228.171 53.9944ZM234.845 52.5145L234.445 58.8745L238.437 59.1255L238.837 52.7655L234.845 52.5145ZM236.263 57.008L228.663 57.688L229.019 61.672L236.619 60.992L236.263 57.008ZM226.933 60.2806L227.613 62.4406L231.429 61.2394L230.749 59.0794L226.933 60.2806ZM229.504 63.8399L238.744 63.9199L238.778 59.9201L229.538 59.8401L229.504 63.8399ZM236.922 62.7056L240.322 70.6656L244 69.0944L240.6 61.1344L236.922 62.7056ZM242.161 67.88H220.121V71.88H242.161V67.88ZM222.108 69.6555L219.948 50.5355L215.974 50.9845L218.134 70.1045L222.108 69.6555ZM219.92 51.1608L222.08 40.6008L218.162 39.7992L216.002 50.3592L219.92 51.1608Z" fill="black"/>
</svg>
