<svg width="397" height="32" viewBox="0 0 397 32" fill="none" xmlns="http://www.w3.org/2000/svg">
<path d="M29.7539 8.76L24.5939 15.12L18.5539 11.24L17.0339 13.16L27.8339 21.08L22.5939 30.96H9.75391L0.793906 23.84L4.67391 17.32L12.3939 21.68L13.5539 19.88L2.23391 13.16L12.9539 1.16H22.5939L29.7539 8.76ZM154.465 1.32L184.025 1.84V13.84L174.025 12.2L176.785 31.04H162.465L164.625 12.2L154.465 11.68V1.32ZM374.476 1.2H394.076L392.436 9.48L382.796 10.96L382.676 13L391.196 13.64L390.796 20L383.196 20.68L383.876 22.84L393.116 22.92L396.516 30.88H374.476L372.316 11.76L374.476 1.2Z" fill="#009CDA"/>
<path d="M29.5345 1.44H42.4545L41.8545 21.64L46.8545 18.04L45.3745 3.6H57.6545V23.04L50.4945 31.12H35.4145L29.5345 23.92V1.44ZM123.995 1.44L131.395 6.84L132.075 16.16L127.915 20.8L135.315 27.32L126.635 31.08L117.555 23.32L118.915 31.04H109.715L107.395 2.72L123.995 1.44ZM117.555 9.72L117.315 15.4L119.755 15.72L122.195 12.2L117.555 9.72ZM186.305 1.44L194.065 0.959998L200.065 29.28L187.345 30.68L186.305 1.44ZM274.925 1.36L287.565 28.92L275.485 30.84L274.525 23.76L264.805 23.52L262.605 31.08L250.965 29L266.925 2.16L274.925 1.36ZM268.965 11.84L267.325 15.92L273.445 16.08L272.045 11.96L268.965 11.84ZM362.845 1.68L371.565 12.52L369.085 26.8L353.285 30.92L340.685 19.8L342.565 7.28L351.965 1.32L362.845 1.68ZM354.325 11.76L352.285 16.32L355.805 18.68L359.525 17.32L359.325 12.88L354.325 11.76Z" fill="#FCCF00"/>
<path d="M76.7152 1.4L83.7552 6.24L84.3152 18.08L77.1952 24.96L68.3552 25.52V31.16H59.0352L60.5152 1.4H76.7152ZM69.9952 10.52L69.7152 15.36L72.3552 15.72L75.7152 11.76L69.9952 10.52ZM212.195 1.24L223.235 1.96L222.795 12.56L215.595 9.2L209.315 12.12L209.035 18.92L214.555 22.68L222.675 18.44L225.395 29.6L209.435 31L201.635 24.16L199.315 15.56L202.915 6.32L212.195 1.24ZM297.195 1.24L308.235 1.96L307.795 12.56L300.595 9.2L294.315 12.12L294.035 18.92L299.555 22.68L307.675 18.44L310.395 29.6L294.435 31L286.635 24.16L284.315 15.56L287.915 6.32L297.195 1.24Z" fill="#E62310"/>
<path d="M86.6248 1.2H106.225L104.585 9.48L94.9448 10.96L94.8248 13L103.345 13.64L102.945 20L95.3448 20.68L96.0248 22.84L105.265 22.92L108.665 30.88H86.6248L84.4648 11.76L86.6248 1.2ZM225.324 1.32L254.884 1.84V13.84L244.884 12.2L247.644 31.04H233.324L235.484 12.2L225.324 11.68V1.32ZM310.324 1.32L339.884 1.84V13.84L329.884 12.2L332.644 31.04H318.324L320.484 12.2L310.324 11.68V1.32Z" fill="#44AF35"/>
<path d="M29.7539 8.76L31.307 10.0201L32.4091 8.66172L31.2096 7.38855L29.7539 8.76ZM24.5939 15.12L23.513 16.8027L25.0191 17.7703L26.147 16.3801L24.5939 15.12ZM18.5539 11.24L19.6349 9.55728L18.1104 8.57802L16.9858 9.99859L18.5539 11.24ZM17.0339 13.16L15.4658 11.9186L14.1777 13.5456L15.8512 14.7728L17.0339 13.16ZM27.8339 21.08L29.6008 22.0171L30.4109 20.4896L29.0166 19.4672L27.8339 21.08ZM22.5939 30.96V32.96H23.7971L24.3608 31.8971L22.5939 30.96ZM9.75391 30.96L8.50964 32.5258L9.05602 32.96H9.75391V30.96ZM0.793906 23.84L-0.92479 22.8172L-1.81835 24.3188L-0.450362 25.4058L0.793906 23.84ZM4.67391 17.32L5.65743 15.5785L3.95504 14.6171L2.95521 16.2972L4.67391 17.32ZM12.3939 21.68L11.4104 23.4215L13.0531 24.3492L14.075 22.7634L12.3939 21.68ZM13.5539 19.88L15.235 20.9634L16.359 19.2193L14.5748 18.1602L13.5539 19.88ZM2.23391 13.16L0.742384 11.8276L-0.876293 13.6395L1.21297 14.8798L2.23391 13.16ZM12.9539 1.16V-0.840002H12.0587L11.4624 -0.172429L12.9539 1.16ZM22.5939 1.16L24.0496 -0.211448L23.4575 -0.840002H22.5939V1.16ZM28.2008 7.49992L23.0408 13.8599L26.147 16.3801L31.307 10.0201L28.2008 7.49992ZM25.6749 13.4373L19.6349 9.55728L17.473 12.9227L23.513 16.8027L25.6749 13.4373ZM16.9858 9.99859L15.4658 11.9186L18.602 14.4014L20.122 12.4814L16.9858 9.99859ZM15.8512 14.7728L26.6512 22.6928L29.0166 19.4672L18.2166 11.5472L15.8512 14.7728ZM26.067 20.1429L20.827 30.0229L24.3608 31.8971L29.6008 22.0171L26.067 20.1429ZM22.5939 28.96H9.75391V32.96H22.5939V28.96ZM10.9982 29.3942L2.03817 22.2742L-0.450362 25.4058L8.50964 32.5258L10.9982 29.3942ZM2.5126 24.8628L6.3926 18.3428L2.95521 16.2972L-0.92479 22.8172L2.5126 24.8628ZM3.69039 19.0615L11.4104 23.4215L13.3774 19.9385L5.65743 15.5785L3.69039 19.0615ZM14.075 22.7634L15.235 20.9634L11.8728 18.7966L10.7128 20.5966L14.075 22.7634ZM14.5748 18.1602L3.25484 11.4402L1.21297 14.8798L12.533 21.5998L14.5748 18.1602ZM3.72543 14.4924L14.4454 2.49242L11.4624 -0.172429L0.742384 11.8276L3.72543 14.4924ZM12.9539 3.16H22.5939V-0.840002H12.9539V3.16ZM21.1382 2.53144L28.2982 10.1314L31.2096 7.38855L24.0496 -0.211448L21.1382 2.53144ZM29.5345 1.44V-0.560001H27.5345V1.44H29.5345ZM42.4545 1.44L44.4536 1.49938L44.5148 -0.560001H42.4545V1.44ZM41.8545 21.64L39.8554 21.5806L39.7351 25.6304L43.0231 23.2631L41.8545 21.64ZM46.8545 18.04L48.0231 19.6631L48.9621 18.987L48.8441 17.8361L46.8545 18.04ZM45.3745 3.6V1.6H43.1591L43.385 3.80392L45.3745 3.6ZM57.6545 3.6H59.6545V1.6H57.6545V3.6ZM57.6545 23.04L59.1514 24.3664L59.6545 23.7986V23.04H57.6545ZM50.4945 31.12V33.12H51.3945L51.9914 32.4464L50.4945 31.12ZM35.4145 31.12L33.8655 32.3851L34.4657 33.12H35.4145V31.12ZM29.5345 23.92H27.5345V24.6329L27.9855 25.1851L29.5345 23.92ZM29.5345 3.44H42.4545V-0.560001H29.5345V3.44ZM40.4554 1.38062L39.8554 21.5806L43.8537 21.6994L44.4536 1.49938L40.4554 1.38062ZM43.0231 23.2631L48.0231 19.6631L45.6859 16.4169L40.6859 20.0169L43.0231 23.2631ZM48.8441 17.8361L47.3641 3.39608L43.385 3.80392L44.865 18.2439L48.8441 17.8361ZM45.3745 5.6H57.6545V1.6H45.3745V5.6ZM55.6545 3.6V23.04H59.6545V3.6H55.6545ZM56.1577 21.7136L48.9977 29.7936L51.9914 32.4464L59.1514 24.3664L56.1577 21.7136ZM50.4945 29.12H35.4145V33.12H50.4945V29.12ZM36.9636 29.8549L31.0836 22.6549L27.9855 25.1851L33.8655 32.3851L36.9636 29.8549ZM31.5345 23.92V1.44H27.5345V23.92H31.5345ZM76.7152 1.4L77.8482 -0.248084L77.3363 -0.6H76.7152V1.4ZM83.7552 6.24L85.7529 6.14551L85.706 5.15417L84.8882 4.59192L83.7552 6.24ZM84.3152 18.08L85.7049 19.5182L86.3557 18.8894L86.3129 17.9855L84.3152 18.08ZM77.1952 24.96L77.3216 26.956L78.0558 26.9095L78.5849 26.3982L77.1952 24.96ZM68.3552 25.52L68.2287 23.524L66.3552 23.6427V25.52H68.3552ZM68.3552 31.16V33.16H70.3552V31.16H68.3552ZM59.0352 31.16L57.0376 31.0607L56.9332 33.16H59.0352V31.16ZM60.5152 1.4V-0.6H58.6121L58.5176 1.30066L60.5152 1.4ZM69.9952 10.52L70.4189 8.5654L68.1335 8.06998L67.9985 10.4045L69.9952 10.52ZM69.7152 15.36L67.7185 15.2445L67.6116 17.0917L69.4449 17.3417L69.7152 15.36ZM72.3552 15.72L72.0849 17.7017L73.171 17.8498L73.8802 17.014L72.3552 15.72ZM75.7152 11.76L77.2402 13.054L79.3972 10.5117L76.1389 9.8054L75.7152 11.76ZM75.5821 3.04808L82.6221 7.88808L84.8882 4.59192L77.8482 -0.248084L75.5821 3.04808ZM81.7574 6.33449L82.3174 18.1745L86.3129 17.9855L85.7529 6.14551L81.7574 6.33449ZM82.9254 16.6418L75.8054 23.5218L78.5849 26.3982L85.7049 19.5182L82.9254 16.6418ZM77.0687 22.964L68.2287 23.524L68.4816 27.516L77.3216 26.956L77.0687 22.964ZM66.3552 25.52V31.16H70.3552V25.52H66.3552ZM68.3552 29.16H59.0352V33.16H68.3552V29.16ZM61.0327 31.2593L62.5127 1.49934L58.5176 1.30066L57.0376 31.0607L61.0327 31.2593ZM60.5152 3.4H76.7152V-0.6H60.5152V3.4ZM67.9985 10.4045L67.7185 15.2445L71.7118 15.4755L71.9918 10.6355L67.9985 10.4045ZM69.4449 17.3417L72.0849 17.7017L72.6254 13.7383L69.9854 13.3783L69.4449 17.3417ZM73.8802 17.014L77.2402 13.054L74.1901 10.466L70.8301 14.426L73.8802 17.014ZM76.1389 9.8054L70.4189 8.5654L69.5714 12.4746L75.2914 13.7146L76.1389 9.8054ZM86.6248 1.2V-0.800003H84.9925L84.6654 0.799205L86.6248 1.2ZM106.225 1.2L108.187 1.58858L108.66 -0.800003H106.225V1.2ZM104.585 9.48L104.888 11.4568L106.274 11.2441L106.547 9.86858L104.585 9.48ZM94.9448 10.96L94.6413 8.98316L93.0432 9.22851L92.9483 10.8426L94.9448 10.96ZM94.8248 13L92.8283 12.8826L92.7127 14.847L94.675 14.9944L94.8248 13ZM103.345 13.64L105.341 13.7655L105.465 11.7936L103.495 11.6456L103.345 13.64ZM102.945 20L103.123 21.992L104.833 21.839L104.941 20.1255L102.945 20ZM95.3448 20.68L95.1666 18.688L92.6907 18.9095L93.4371 21.2806L95.3448 20.68ZM96.0248 22.84L94.1171 23.4406L94.5537 24.8273L96.0075 24.8399L96.0248 22.84ZM105.265 22.92L107.104 22.1344L106.59 20.9314L105.282 20.9201L105.265 22.92ZM108.665 30.88V32.88H111.694L110.504 30.0944L108.665 30.88ZM86.6248 30.88L84.6375 31.1045L84.8381 32.88H86.6248V30.88ZM84.4648 11.76L82.5054 11.3592L82.4419 11.6696L82.4775 11.9845L84.4648 11.76ZM86.6248 3.2H106.225V-0.800003H86.6248V3.2ZM104.263 0.811411L102.623 9.09141L106.547 9.86858L108.187 1.58858L104.263 0.811411ZM104.281 7.50316L94.6413 8.98316L95.2483 12.9368L104.888 11.4568L104.281 7.50316ZM92.9483 10.8426L92.8283 12.8826L96.8214 13.1174L96.9414 11.0774L92.9483 10.8426ZM94.675 14.9944L103.195 15.6344L103.495 11.6456L94.9747 11.0056L94.675 14.9944ZM101.349 13.5145L100.949 19.8745L104.941 20.1255L105.341 13.7655L101.349 13.5145ZM102.767 18.008L95.1666 18.688L95.5231 22.672L103.123 21.992L102.767 18.008ZM93.4371 21.2806L94.1171 23.4406L97.9325 22.2394L97.2525 20.0794L93.4371 21.2806ZM96.0075 24.8399L105.248 24.9199L105.282 20.9201L96.0422 20.8401L96.0075 24.8399ZM103.426 23.7056L106.826 31.6656L110.504 30.0944L107.104 22.1344L103.426 23.7056ZM108.665 28.88H86.6248V32.88H108.665V28.88ZM88.6122 30.6555L86.4522 11.5355L82.4775 11.9845L84.6375 31.1045L88.6122 30.6555ZM86.4243 12.1608L88.5843 1.60079L84.6654 0.799205L82.5054 11.3592L86.4243 12.1608ZM123.995 1.44L125.173 -0.175583L124.577 -0.61085L123.841 -0.554082L123.995 1.44ZM131.395 6.84L133.389 6.69446L133.322 5.77051L132.573 5.22442L131.395 6.84ZM132.075 16.16L133.564 17.4951L134.131 16.8622L134.069 16.0145L132.075 16.16ZM127.915 20.8L126.425 19.4649L125.079 20.967L126.592 22.3006L127.915 20.8ZM135.315 27.32L136.11 29.1552L139.001 27.9026L136.637 25.8194L135.315 27.32ZM126.635 31.08L125.335 32.6004L126.284 33.4114L127.43 32.9152L126.635 31.08ZM117.555 23.32L118.854 21.7996L114.618 18.1796L115.585 23.667L117.555 23.32ZM118.915 31.04V33.04H121.298L120.884 30.693L118.915 31.04ZM109.715 31.04L107.721 31.2033L107.872 33.04H109.715V31.04ZM107.395 2.72L107.241 0.725919L105.237 0.880416L105.401 2.88329L107.395 2.72ZM117.555 9.72L118.497 7.95614L115.691 6.45604L115.556 9.63557L117.555 9.72ZM117.315 15.4L115.316 15.3156L115.239 17.1449L117.054 17.383L117.315 15.4ZM119.755 15.72L119.494 17.703L120.704 17.8616L121.398 16.8594L119.755 15.72ZM122.195 12.2L123.838 13.3394L125.117 11.4944L123.137 10.4361L122.195 12.2ZM122.816 3.05558L130.216 8.45558L132.573 5.22442L125.173 -0.175583L122.816 3.05558ZM129.4 6.98553L130.08 16.3055L134.069 16.0145L133.389 6.69446L129.4 6.98553ZM130.585 14.8249L126.425 19.4649L129.404 22.1351L133.564 17.4951L130.585 14.8249ZM126.592 22.3006L133.992 28.8206L136.637 25.8194L129.237 19.2994L126.592 22.3006ZM134.52 25.4848L125.84 29.2448L127.43 32.9152L136.11 29.1552L134.52 25.4848ZM127.934 29.5596L118.854 21.7996L116.255 24.8404L125.335 32.6004L127.934 29.5596ZM115.585 23.667L116.945 31.387L120.884 30.693L119.524 22.973L115.585 23.667ZM118.915 29.04H109.715V33.04H118.915V29.04ZM111.708 30.8767L109.388 2.5567L105.401 2.88329L107.721 31.2033L111.708 30.8767ZM107.548 4.71408L124.148 3.43408L123.841 -0.554082L107.241 0.725919L107.548 4.71408ZM115.556 9.63557L115.316 15.3156L119.313 15.4844L119.553 9.80443L115.556 9.63557ZM117.054 17.383L119.494 17.703L120.015 13.737L117.575 13.417L117.054 17.383ZM121.398 16.8594L123.838 13.3394L120.551 11.0606L118.111 14.5806L121.398 16.8594ZM123.137 10.4361L118.497 7.95614L116.612 11.4839L121.252 13.9639L123.137 10.4361ZM154.465 1.32L154.5 -0.679692L152.465 -0.715494V1.32H154.465ZM184.025 1.84H186.025V-0.125128L184.06 -0.159692L184.025 1.84ZM184.025 13.84L183.701 15.8136L186.025 16.1947V13.84H184.025ZM174.025 12.2L174.349 10.2264L171.65 9.78373L172.046 12.4899L174.025 12.2ZM176.785 31.04V33.04H179.099L178.764 30.7501L176.785 31.04ZM162.465 31.04L160.478 30.8122L160.222 33.04H162.465V31.04ZM164.625 12.2L166.612 12.4278L166.854 10.3115L164.727 10.2026L164.625 12.2ZM154.465 11.68H152.465V13.5803L154.363 13.6774L154.465 11.68ZM154.43 3.31969L183.99 3.83969L184.06 -0.159692L154.5 -0.679692L154.43 3.31969ZM182.025 1.84V13.84H186.025V1.84H182.025ZM184.349 11.8664L174.349 10.2264L173.701 14.1736L183.701 15.8136L184.349 11.8664ZM172.046 12.4899L174.806 31.3299L178.764 30.7501L176.004 11.9101L172.046 12.4899ZM176.785 29.04H162.465V33.04H176.785V29.04ZM164.452 31.2678L166.612 12.4278L162.638 11.9722L160.478 30.8122L164.452 31.2678ZM164.727 10.2026L154.567 9.68261L154.363 13.6774L164.523 14.1974L164.727 10.2026ZM156.465 11.68V1.32H152.465V11.68H156.465ZM186.305 1.44L186.182 -0.556186L184.237 -0.435906L184.307 1.51109L186.305 1.44ZM194.065 0.959998L196.022 0.545471L195.664 -1.14273L193.942 -1.03619L194.065 0.959998ZM200.065 29.28L200.284 31.268L202.48 31.0263L202.022 28.8655L200.065 29.28ZM187.345 30.68L185.347 30.7511L185.423 32.9036L187.564 32.668L187.345 30.68ZM186.429 3.43618L194.189 2.95618L193.942 -1.03619L186.182 -0.556186L186.429 3.43618ZM192.109 1.37453L198.109 29.6945L202.022 28.8655L196.022 0.545471L192.109 1.37453ZM199.847 27.292L187.127 28.692L187.564 32.668L200.284 31.268L199.847 27.292ZM189.344 30.6089L188.304 1.36891L184.307 1.51109L185.347 30.7511L189.344 30.6089ZM212.195 1.24L212.325 -0.755761L211.745 -0.79361L211.234 -0.514345L212.195 1.24ZM223.235 1.96L225.233 2.04295L225.314 0.0913566L223.365 -0.0357606L223.235 1.96ZM222.795 12.56L221.949 14.3724L224.669 15.6415L224.793 12.6429L222.795 12.56ZM215.595 9.2L216.441 7.38763L215.596 6.99366L214.752 7.38645L215.595 9.2ZM209.315 12.12L208.472 10.3065L207.367 10.8202L207.317 12.0377L209.315 12.12ZM209.035 18.92L207.037 18.8377L206.991 19.9476L207.909 20.573L209.035 18.92ZM214.555 22.68L213.429 24.333L214.419 25.0073L215.481 24.4529L214.555 22.68ZM222.675 18.44L224.618 17.9664L224.013 15.4849L221.749 16.6671L222.675 18.44ZM225.395 29.6L225.57 31.5923L227.889 31.3889L227.338 29.1264L225.395 29.6ZM209.435 31L208.116 32.5037L208.759 33.067L209.61 32.9923L209.435 31ZM201.635 24.16L199.704 24.6809L199.861 25.2649L200.316 25.6637L201.635 24.16ZM199.315 15.56L197.451 14.8339L197.213 15.4463L197.384 16.0809L199.315 15.56ZM202.915 6.32L201.954 4.56565L201.316 4.91535L201.051 5.59394L202.915 6.32ZM212.065 3.23576L223.105 3.95576L223.365 -0.0357606L212.325 -0.755761L212.065 3.23576ZM221.237 1.87705L220.797 12.4771L224.793 12.6429L225.233 2.04295L221.237 1.87705ZM223.641 10.7476L216.441 7.38763L214.749 11.0124L221.949 14.3724L223.641 10.7476ZM214.752 7.38645L208.472 10.3065L210.158 13.9335L216.438 11.0135L214.752 7.38645ZM207.317 12.0377L207.037 18.8377L211.033 19.0023L211.313 12.2023L207.317 12.0377ZM207.909 20.573L213.429 24.333L215.681 21.027L210.161 17.267L207.909 20.573ZM215.481 24.4529L223.601 20.2129L221.749 16.6671L213.629 20.9071L215.481 24.4529ZM220.732 18.9136L223.452 30.0736L227.338 29.1264L224.618 17.9664L220.732 18.9136ZM225.22 27.6077L209.26 29.0077L209.61 32.9923L225.57 31.5923L225.22 27.6077ZM210.753 29.4963L202.953 22.6563L200.316 25.6637L208.116 32.5037L210.753 29.4963ZM203.566 23.6391L201.246 15.0391L197.384 16.0809L199.704 24.6809L203.566 23.6391ZM201.178 16.2861L204.778 7.04606L201.051 5.59394L197.451 14.8339L201.178 16.2861ZM203.875 8.07434L213.155 2.99434L211.234 -0.514345L201.954 4.56565L203.875 8.07434ZM225.324 1.32L225.359 -0.679692L223.324 -0.715494V1.32H225.324ZM254.884 1.84H256.884V-0.125128L254.919 -0.159692L254.884 1.84ZM254.884 13.84L254.561 15.8136L256.884 16.1947V13.84H254.884ZM244.884 12.2L245.208 10.2264L242.509 9.78373L242.905 12.4899L244.884 12.2ZM247.644 31.04V33.04H249.959L249.623 30.7501L247.644 31.04ZM233.324 31.04L231.337 30.8122L231.082 33.04H233.324V31.04ZM235.484 12.2L237.471 12.4278L237.714 10.3115L235.586 10.2026L235.484 12.2ZM225.324 11.68H223.324V13.5803L225.222 13.6774L225.324 11.68ZM225.289 3.31969L254.849 3.83969L254.919 -0.159692L225.359 -0.679692L225.289 3.31969ZM252.884 1.84V13.84H256.884V1.84H252.884ZM255.208 11.8664L245.208 10.2264L244.561 14.1736L254.561 15.8136L255.208 11.8664ZM242.905 12.4899L245.665 31.3299L249.623 30.7501L246.863 11.9101L242.905 12.4899ZM247.644 29.04H233.324V33.04H247.644V29.04ZM235.311 31.2678L237.471 12.4278L233.497 11.9722L231.337 30.8122L235.311 31.2678ZM235.586 10.2026L225.426 9.68261L225.222 13.6774L235.382 14.1974L235.586 10.2026ZM227.324 11.68V1.32H223.324V11.68H227.324ZM274.925 1.36L276.743 0.526234L276.147 -0.772218L274.726 -0.630077L274.925 1.36ZM287.565 28.92L287.879 30.8952L290.481 30.4816L289.383 28.0862L287.565 28.92ZM275.485 30.84L273.503 31.1087L273.778 33.1364L275.799 32.8152L275.485 30.84ZM274.525 23.76L276.507 23.4913L276.278 21.8027L274.574 21.7606L274.525 23.76ZM264.805 23.52L264.854 21.5206L263.315 21.4826L262.885 22.9612L264.805 23.52ZM262.605 31.08L262.253 33.0488L264.023 33.3651L264.525 31.6388L262.605 31.08ZM250.965 29L249.246 27.9778L247.769 30.4607L250.613 30.9688L250.965 29ZM266.925 2.16L266.726 0.169925L265.722 0.270347L265.206 1.1378L266.925 2.16ZM268.965 11.84L269.043 9.84151L267.635 9.78666L267.109 11.0941L268.965 11.84ZM267.325 15.92L265.469 15.1741L264.396 17.8441L267.273 17.9193L267.325 15.92ZM273.445 16.08L273.393 18.0793L276.262 18.1543L275.339 15.4365L273.445 16.08ZM272.045 11.96L273.939 11.3165L273.496 10.015L272.123 9.96152L272.045 11.96ZM273.107 2.19376L285.747 29.7538L289.383 28.0862L276.743 0.526234L273.107 2.19376ZM287.251 26.9448L275.171 28.8648L275.799 32.8152L287.879 30.8952L287.251 26.9448ZM277.467 30.5713L276.507 23.4913L272.543 24.0287L273.503 31.1087L277.467 30.5713ZM274.574 21.7606L264.854 21.5206L264.755 25.5194L274.475 25.7594L274.574 21.7606ZM262.885 22.9612L260.685 30.5212L264.525 31.6388L266.725 24.0788L262.885 22.9612ZM262.957 29.1112L251.317 27.0312L250.613 30.9688L262.253 33.0488L262.957 29.1112ZM252.684 30.0222L268.644 3.1822L265.206 1.1378L249.246 27.9778L252.684 30.0222ZM267.124 4.15007L275.124 3.35007L274.726 -0.630077L266.726 0.169925L267.124 4.15007ZM267.109 11.0941L265.469 15.1741L269.181 16.6659L270.821 12.5859L267.109 11.0941ZM267.273 17.9193L273.393 18.0793L273.497 14.0807L267.377 13.9207L267.273 17.9193ZM275.339 15.4365L273.939 11.3165L270.151 12.6035L271.551 16.7235L275.339 15.4365ZM272.123 9.96152L269.043 9.84151L268.887 13.8385L271.967 13.9585L272.123 9.96152ZM297.195 1.24L297.325 -0.755761L296.745 -0.79361L296.234 -0.514345L297.195 1.24ZM308.235 1.96L310.233 2.04295L310.314 0.0913566L308.365 -0.0357606L308.235 1.96ZM307.795 12.56L306.949 14.3724L309.669 15.6415L309.793 12.6429L307.795 12.56ZM300.595 9.2L301.441 7.38763L300.596 6.99366L299.752 7.38645L300.595 9.2ZM294.315 12.12L293.472 10.3065L292.367 10.8202L292.317 12.0377L294.315 12.12ZM294.035 18.92L292.037 18.8377L291.991 19.9476L292.909 20.573L294.035 18.92ZM299.555 22.68L298.429 24.333L299.419 25.0073L300.481 24.4529L299.555 22.68ZM307.675 18.44L309.618 17.9664L309.013 15.4849L306.749 16.6671L307.675 18.44ZM310.395 29.6L310.57 31.5923L312.889 31.3889L312.338 29.1264L310.395 29.6ZM294.435 31L293.116 32.5037L293.759 33.067L294.61 32.9923L294.435 31ZM286.635 24.16L284.704 24.6809L284.861 25.2649L285.316 25.6637L286.635 24.16ZM284.315 15.56L282.451 14.8339L282.213 15.4463L282.384 16.0809L284.315 15.56ZM287.915 6.32L286.954 4.56565L286.316 4.91535L286.051 5.59394L287.915 6.32ZM297.065 3.23576L308.105 3.95576L308.365 -0.0357606L297.325 -0.755761L297.065 3.23576ZM306.237 1.87705L305.797 12.4771L309.793 12.6429L310.233 2.04295L306.237 1.87705ZM308.641 10.7476L301.441 7.38763L299.749 11.0124L306.949 14.3724L308.641 10.7476ZM299.752 7.38645L293.472 10.3065L295.158 13.9335L301.438 11.0135L299.752 7.38645ZM292.317 12.0377L292.037 18.8377L296.033 19.0023L296.313 12.2023L292.317 12.0377ZM292.909 20.573L298.429 24.333L300.681 21.027L295.161 17.267L292.909 20.573ZM300.481 24.4529L308.601 20.2129L306.749 16.6671L298.629 20.9071L300.481 24.4529ZM305.732 18.9136L308.452 30.0736L312.338 29.1264L309.618 17.9664L305.732 18.9136ZM310.22 27.6077L294.26 29.0077L294.61 32.9923L310.57 31.5923L310.22 27.6077ZM295.753 29.4963L287.953 22.6563L285.316 25.6637L293.116 32.5037L295.753 29.4963ZM288.566 23.6391L286.246 15.0391L282.384 16.0809L284.704 24.6809L288.566 23.6391ZM286.178 16.2861L289.778 7.04606L286.051 5.59394L282.451 14.8339L286.178 16.2861ZM288.875 8.07434L298.155 2.99434L296.234 -0.514345L286.954 4.56565L288.875 8.07434ZM310.324 1.32L310.359 -0.679692L308.324 -0.715494V1.32H310.324ZM339.884 1.84H341.884V-0.125128L339.919 -0.159692L339.884 1.84ZM339.884 13.84L339.561 15.8136L341.884 16.1947V13.84H339.884ZM329.884 12.2L330.208 10.2264L327.509 9.78373L327.905 12.4899L329.884 12.2ZM332.644 31.04V33.04H334.959L334.623 30.7501L332.644 31.04ZM318.324 31.04L316.337 30.8122L316.082 33.04H318.324V31.04ZM320.484 12.2L322.471 12.4278L322.714 10.3115L320.586 10.2026L320.484 12.2ZM310.324 11.68H308.324V13.5803L310.222 13.6774L310.324 11.68ZM310.289 3.31969L339.849 3.83969L339.919 -0.159692L310.359 -0.679692L310.289 3.31969ZM337.884 1.84V13.84H341.884V1.84H337.884ZM340.208 11.8664L330.208 10.2264L329.561 14.1736L339.561 15.8136L340.208 11.8664ZM327.905 12.4899L330.665 31.3299L334.623 30.7501L331.863 11.9101L327.905 12.4899ZM332.644 29.04H318.324V33.04H332.644V29.04ZM320.311 31.2678L322.471 12.4278L318.497 11.9722L316.337 30.8122L320.311 31.2678ZM320.586 10.2026L310.426 9.68261L310.222 13.6774L320.382 14.1974L320.586 10.2026ZM312.324 11.68V1.32H308.324V11.68H312.324ZM362.845 1.68L364.403 0.426405L363.828 -0.288563L362.911 -0.318908L362.845 1.68ZM371.565 12.52L373.535 12.8622L373.69 11.9711L373.123 11.2664L371.565 12.52ZM369.085 26.8L369.589 28.7353L370.835 28.4105L371.055 27.1422L369.085 26.8ZM353.285 30.92L351.961 32.4195L352.76 33.1239L353.789 32.8553L353.285 30.92ZM340.685 19.8L338.707 19.503L338.545 20.5793L339.361 21.2995L340.685 19.8ZM342.565 7.28L341.494 5.5909L340.723 6.07991L340.587 6.98301L342.565 7.28ZM351.965 1.32L352.031 -0.678908L351.415 -0.6993L350.894 -0.369098L351.965 1.32ZM354.325 11.76L354.762 9.80836L353.167 9.45103L352.499 10.9433L354.325 11.76ZM352.285 16.32L350.459 15.5033L349.771 17.0423L351.171 17.9812L352.285 16.32ZM355.805 18.68L354.691 20.3412L355.536 20.9077L356.492 20.5584L355.805 18.68ZM359.525 17.32L360.212 19.1984L361.589 18.6949L361.523 17.23L359.525 17.32ZM359.325 12.88L361.323 12.79L361.254 11.2626L359.762 10.9284L359.325 12.88ZM361.286 2.93359L370.006 13.7736L373.123 11.2664L364.403 0.426405L361.286 2.93359ZM369.594 12.1778L367.114 26.4578L371.055 27.1422L373.535 12.8622L369.594 12.1778ZM368.58 24.8647L352.78 28.9847L353.789 32.8553L369.589 28.7353L368.58 24.8647ZM354.608 29.4205L342.008 18.3005L339.361 21.2995L351.961 32.4195L354.608 29.4205ZM342.663 20.097L344.543 7.57699L340.587 6.98301L338.707 19.503L342.663 20.097ZM343.636 8.96909L353.036 3.00909L350.894 -0.369098L341.494 5.5909L343.636 8.96909ZM351.899 3.3189L362.779 3.6789L362.911 -0.318908L352.031 -0.678908L351.899 3.3189ZM352.499 10.9433L350.459 15.5033L354.11 17.1367L356.15 12.5767L352.499 10.9433ZM351.171 17.9812L354.691 20.3412L356.919 17.0188L353.399 14.6588L351.171 17.9812ZM356.492 20.5584L360.212 19.1984L358.838 15.4416L355.118 16.8016L356.492 20.5584ZM361.523 17.23L361.323 12.79L357.327 12.97L357.527 17.41L361.523 17.23ZM359.762 10.9284L354.762 9.80836L353.888 13.7116L358.888 14.8316L359.762 10.9284ZM374.476 1.2V-0.800003H372.844L372.517 0.799205L374.476 1.2ZM394.076 1.2L396.038 1.58858L396.511 -0.800003H394.076V1.2ZM392.436 9.48L392.74 11.4568L394.126 11.2441L394.398 9.86858L392.436 9.48ZM382.796 10.96L382.493 8.98316L380.895 9.22851L380.8 10.8426L382.796 10.96ZM382.676 13L380.68 12.8826L380.564 14.847L382.527 14.9944L382.676 13ZM391.196 13.64L393.192 13.7655L393.316 11.7936L391.346 11.6456L391.196 13.64ZM390.796 20L390.975 21.992L392.685 21.839L392.792 20.1255L390.796 20ZM383.196 20.68L383.018 18.688L380.542 18.9095L381.289 21.2806L383.196 20.68ZM383.876 22.84L381.969 23.4406L382.405 24.8273L383.859 24.8399L383.876 22.84ZM393.116 22.92L394.956 22.1344L394.442 20.9314L393.134 20.9201L393.116 22.92ZM396.516 30.88V32.88H399.545L398.356 30.0944L396.516 30.88ZM374.476 30.88L372.489 31.1045L372.69 32.88H374.476V30.88ZM372.316 11.76L370.357 11.3592L370.293 11.6696L370.329 11.9845L372.316 11.76ZM374.476 3.2H394.076V-0.800003H374.476V3.2ZM392.115 0.811411L390.475 9.09141L394.398 9.86858L396.038 1.58858L392.115 0.811411ZM392.133 7.50316L382.493 8.98316L383.1 12.9368L392.74 11.4568L392.133 7.50316ZM380.8 10.8426L380.68 12.8826L384.673 13.1174L384.793 11.0774L380.8 10.8426ZM382.527 14.9944L391.047 15.6344L391.346 11.6456L382.826 11.0056L382.527 14.9944ZM389.2 13.5145L388.8 19.8745L392.792 20.1255L393.192 13.7655L389.2 13.5145ZM390.618 18.008L383.018 18.688L383.375 22.672L390.975 21.992L390.618 18.008ZM381.289 21.2806L381.969 23.4406L385.784 22.2394L385.104 20.0794L381.289 21.2806ZM383.859 24.8399L393.099 24.9199L393.134 20.9201L383.894 20.8401L383.859 24.8399ZM391.277 23.7056L394.677 31.6656L398.356 30.0944L394.956 22.1344L391.277 23.7056ZM396.516 28.88H374.476V32.88H396.516V28.88ZM376.464 30.6555L374.304 11.5355L370.329 11.9845L372.489 31.1045L376.464 30.6555ZM374.276 12.1608L376.436 1.60079L372.517 0.799205L370.357 11.3592L374.276 12.1608Z" fill="black"/>
</svg>
